<svg width="524" height="376" viewBox="0 0 524 376" fill="none" xmlns="http://www.w3.org/2000/svg">
<path d="M46.7834 69.0661C46.9696 68.8939 47.1702 68.5497 47.3277 68.5784C48.1729 68.6788 49.0037 68.8652 49.8345 69.0374C57.3691 70.6869 64.9468 71.3611 72.639 70.4574C78.4977 69.7689 84.1413 68.2484 89.5273 65.853C92.9795 64.3182 96.3458 62.5969 99.6834 60.8469C106.316 57.3757 113.349 55.3388 120.812 54.9802C126.098 54.722 131.383 54.7077 136.683 54.5355C139.419 54.4495 142.155 54.3491 144.891 54.1196C150.234 53.6892 155.305 52.2548 160.032 49.7446C163.04 48.1524 166.02 46.5172 168.956 44.8103C175.359 41.0808 182.091 38.1403 189.168 35.9887C192.061 35.0994 194.969 34.2961 197.848 33.3494C203.22 31.5707 208.577 29.706 213.935 27.87C214.45 27.6978 214.952 27.454 215.51 27.2245C215.038 26.3638 214.278 26.6077 213.691 26.5503C209.437 26.12 205.326 25.1159 201.286 23.7389C198.579 22.8208 196.144 21.4725 193.837 19.7512C189.87 16.7963 186.46 13.2677 183.051 9.72474C179.384 5.90922 175.073 3.09778 170.016 1.46256C162.653 -0.932893 155.477 -0.344792 148.501 2.92565C146.624 3.80064 144.819 4.84775 143.057 5.95225C138.431 8.8354 133.489 10.8005 128.117 11.8333C125.338 12.364 122.602 13.1386 119.909 14.028C114.882 15.7062 110.641 18.6754 107.089 22.5913C104.84 25.0585 103.25 27.9704 101.861 30.9826C99.9986 35.0276 98.6805 39.2735 97.3914 43.5193C96.3743 46.8615 95.4004 50.2323 94.2831 53.5315C93.6098 55.4966 92.736 57.39 91.8622 59.2691C90.6016 61.9801 88.4817 63.7157 85.6741 64.7628C77.3803 67.8468 68.8429 68.9513 60.0334 68.148C52.6564 67.4739 45.5228 65.6809 38.5325 63.2854C37.1001 62.7977 35.8253 62.0231 34.6077 61.0908C23.2055 52.3122 13.5365 41.8841 5.18536 30.1937C4.19696 28.8167 3.19434 27.4396 2.19159 26.0626C1.86212 25.6036 1.51837 25.1446 1.14594 24.7143C0.601624 24.0831 -0.114502 23.9397 -0.587219 24.327C-1.05994 24.7143 -1.14587 25.4028 -0.744751 26.1343C-0.472595 26.6364 -0.157654 27.1097 0.171814 27.5687C3.12262 31.499 6.01624 35.4723 9.0387 39.3452C17.0747 49.6299 26.5861 58.3797 37.1431 65.9821C43.3742 70.4718 50.207 73.9574 57.2546 76.9553C60.8214 78.4757 64.4453 79.8241 68.0551 81.2011C69.3872 81.7032 70.6334 82.32 71.7937 83.1806C74.458 85.1457 77.1081 87.0965 79.5002 89.4059C85.144 94.8423 88.5389 101.455 90.0573 109.072C91.1889 114.766 91.4182 120.533 91.0457 126.313C90.8309 129.713 90.4584 133.098 90.1433 136.483C89.7279 140.915 89.3984 145.348 89.5416 149.794C89.6992 154.341 90.2006 158.86 91.4039 163.263C93.0941 169.46 95.7585 175.155 100.056 179.989C102.964 183.259 106.43 185.898 110.14 188.208C112.862 189.9 115.626 191.564 118.52 192.956C126.613 196.814 132.758 202.796 137.743 210.111C141.51 215.662 145.034 221.385 148.114 227.353C151.165 233.262 154.832 238.742 159.287 243.69C160.863 245.44 162.51 247.162 164.258 248.74C168.555 252.598 172.566 256.729 176.462 260.989C178.94 263.715 181.633 266.225 184.226 268.85C185.687 270.327 187.105 271.848 188.566 273.34C188.81 273.583 189.096 273.784 189.368 274.014C189.827 273.297 189.297 272.823 189.11 272.364C185.644 263.786 183.596 254.879 182.965 245.656C182.707 241.783 182.392 237.924 182.106 234.051C181.776 229.605 181.017 225.23 179.828 220.926C176.519 209.021 169.844 199.425 160.075 191.923C158.571 190.775 157.081 189.613 155.577 188.466C154.374 187.548 153.701 186.343 153.6 184.851C153.486 183.159 153.414 181.452 153.4 179.759C153.371 175.685 153.443 171.626 153.4 167.552C153.357 163.278 152.87 159.061 151.982 154.872C150.191 146.409 146.28 139.094 140.207 132.94C137.113 129.799 133.403 127.518 129.435 125.696C126.699 124.434 123.834 123.43 121.012 122.383C118.448 121.436 115.827 120.604 113.249 119.701C108.249 117.951 103.981 115.11 100.242 111.367C96.7469 107.895 93.3089 104.395 90.4441 100.379C90.0143 99.7623 89.5273 99.1742 89.1978 98.5C86.8916 93.7522 83.64 89.7502 79.7438 86.2215C79.5433 86.0351 79.357 85.8056 78.9989 85.4039C79.4573 85.3179 79.8011 85.1601 80.0589 85.2318C87.3214 87.326 94.6126 89.3055 101.674 92.0165C107.261 94.1681 112.389 97.1374 117.259 100.609C120.339 102.803 123.491 104.883 126.742 106.82C130.338 108.957 134.234 110.406 138.316 111.338C143.745 112.572 149.188 113.776 154.632 114.938C158.514 115.756 162.41 116.502 166.306 117.248C170.431 118.051 174.256 119.5 177.794 121.838C182.951 125.252 187.735 129.039 191.431 134.088C194.267 137.961 196.301 142.163 197.433 146.825C198.479 151.171 198.865 155.589 198.88 160.05C198.88 164.87 198.822 169.704 198.865 174.523C198.923 180.333 199.839 186.013 201.429 191.593C203.392 198.535 206.83 204.703 211.299 210.269C215.023 214.902 218.862 219.463 222.801 223.924C227.5 229.246 231.697 234.955 235.808 240.736C238.716 244.809 241.767 248.783 244.761 252.799C244.846 252.914 245.061 252.942 245.391 253.071C245.291 252.34 245.262 251.694 245.133 251.063C243.915 245.426 242.841 239.746 241.437 234.152C239.962 228.299 239.418 222.433 240.105 216.437C240.463 213.338 240.664 210.226 240.85 207.099C241.208 201.089 239.589 195.652 235.865 190.919C231.869 185.841 228.646 180.304 225.638 174.61C223.518 170.579 221.025 166.792 218.074 163.321C214.608 159.233 210.296 156.177 205.698 153.495C204.151 152.591 202.575 151.745 200.813 150.755C200.112 147.083 199.281 143.311 197.676 139.754C196.101 136.268 193.966 133.184 191.588 130.229C189.139 127.217 186.202 124.721 183.166 122.326C183.724 121.694 184.197 122.01 184.598 122.125C198.765 126.342 212.43 131.764 225.136 139.438C230.88 142.895 236.553 146.481 242.569 149.464C246.967 151.645 246.952 151.702 249.416 155.862C253.083 162.059 254.96 168.685 254.172 175.929C253.828 179.028 253.413 182.126 253.054 185.224C252.625 188.796 252.052 192.353 251.837 195.925C250.963 209.781 255.045 222.088 263.97 232.703C267.551 236.963 271.476 240.951 275.329 244.981C279.368 249.213 283.737 253.143 287.404 257.748C292.317 263.93 296.414 270.586 299.165 278.016C300.912 282.721 302.645 287.411 304.364 292.13C307.516 300.808 312.1 308.741 317.242 316.357C319.305 319.398 323.96 324.304 326.266 326.097C326.868 325.796 326.553 325.322 326.452 324.906C326.023 323.156 325.55 321.435 325.106 319.685C323.244 312.269 323.502 304.868 325.421 297.509C326.639 292.833 327.627 288.128 328.186 283.323C328.343 281.917 328.487 280.497 328.615 279.092C329.074 273.626 328.343 268.334 326.266 263.241C326.152 262.983 326.08 262.711 325.966 262.453C323.187 256.356 322.356 249.988 322.957 243.332C323.359 238.9 323.602 234.467 323.788 230.021C324.089 222.849 323.101 215.877 320.594 209.121C317.944 201.978 313.489 196.283 307.372 191.808C303.161 188.724 298.577 186.271 294.008 183.804C287.934 180.534 281.789 177.392 275.802 173.978C269.8 170.55 264.084 166.677 258.97 162.001C256.879 160.093 255.046 157.927 253.126 155.833C252.768 155.446 252.567 154.901 252.123 154.112C252.897 154.298 253.341 154.356 253.728 154.514C260.718 157.21 267.923 159.104 275.272 160.452C284.482 162.145 293.507 164.583 302.531 167.007C305.711 167.868 308.819 169.03 311.942 170.106C312.816 170.407 313.718 170.823 314.449 171.382C318.961 174.853 323.101 178.712 326.395 183.402C327.871 185.497 329.117 187.72 329.919 190.173C331.667 195.523 332.655 200.988 332.268 206.654C332.082 209.394 331.824 212.119 331.638 214.859C331.509 216.939 331.437 219.019 331.38 221.099C331.122 231.068 333.514 240.406 337.926 249.285C340.619 254.692 344.387 259.297 348.928 263.213C351.85 265.737 354.987 268.032 358.095 270.342C363.481 274.344 368.91 278.317 373.78 282.95C379.839 288.702 384.996 295.214 389.652 302.128C390.597 303.534 391.614 304.911 392.631 306.274C392.846 306.56 393.19 306.747 393.648 307.12C393.82 306.603 394.021 306.216 394.049 305.815C394.279 303.563 394.493 301.296 394.651 299.03C394.995 294.024 395.267 289.018 395.639 284.026C395.983 279.393 396.04 274.774 395.854 270.127C395.51 261.42 392.975 253.416 388.606 245.914C384.481 238.828 379.367 232.56 373.336 227.023C367.406 221.586 361.146 216.566 354.471 212.048C350.403 209.293 346.378 206.468 342.381 203.613C340.233 202.078 338.156 200.429 336.379 198.435C334.961 196.843 333.844 195.093 333.357 193.042C331.924 186.988 328.859 181.853 324.676 177.335C324.161 176.79 323.717 176.187 323.101 175.456C324.032 175.255 324.648 175.642 325.249 175.944C330.678 178.612 335.907 181.638 340.934 185.023C342.811 186.286 344.687 187.577 346.535 188.868C348.111 189.958 349.371 191.349 350.403 192.97C352.38 196.083 354.328 199.21 356.319 202.308C359.556 207.314 363.109 212.091 366.876 216.695C371.803 222.719 377.863 227.008 385.397 229.131C387.489 229.719 389.551 230.408 391.628 231.01C393.734 231.627 395.711 232.488 397.544 233.693C401.741 236.432 405.867 239.273 409.448 242.816C412.528 245.871 415.722 248.84 418.63 252.067C423.958 257.948 427.984 264.618 430.347 272.264C431.995 277.614 433.312 283.022 433.914 288.587C434.53 294.225 435.117 299.876 435.733 305.528C436.406 311.839 437.495 318.079 439.228 324.204C440.231 327.761 441.463 331.232 443.024 334.589C445.13 339.107 447.966 343.08 451.605 346.466C454.169 348.847 456.776 351.17 459.426 353.451C461.718 355.431 464.038 357.367 466.43 359.232C472.332 363.836 477.876 368.828 482.846 374.436C483.276 374.924 483.777 375.355 484.422 376C484.608 375.283 484.808 374.795 484.866 374.279C485.668 367.523 486.499 360.752 487.229 353.982C487.788 348.804 487.917 343.597 487.258 338.404C486.241 330.242 483.505 322.798 478.09 316.487C475.741 313.747 473.106 311.351 470.14 309.257C463.608 304.653 456.489 301.21 449.227 297.968C446.734 296.85 444.299 295.573 441.921 294.239C440.775 293.608 439.744 292.733 438.784 291.843C437.223 290.409 436.321 288.702 436.091 286.45C435.418 279.924 433.57 273.655 431.278 267.516C429.975 264.045 428.156 260.846 426.15 257.733C425.649 256.959 425.133 256.199 424.331 254.994C425.692 255.453 426.293 256.141 426.967 256.701C430.175 259.412 433.756 261.491 437.61 263.112C442.766 265.293 448.167 265.909 453.71 265.68C458.538 265.479 463.293 264.733 468.006 263.686C472.432 262.696 476.859 261.721 481.256 260.616C492.988 257.69 504.805 257.475 516.709 259.254C518.757 259.555 520.834 259.799 522.897 260.057C523.155 260.086 523.413 260 524 259.914C523.57 259.526 523.355 259.268 523.083 259.11C520.705 257.762 518.342 256.371 515.921 255.094C508.515 251.164 501.826 246.258 496.182 240.047C494.22 237.895 492.572 235.443 490.911 233.033C488.117 228.988 485.539 224.799 482.33 221.056C479.423 217.67 476.257 214.558 472.604 212.005C470.985 210.871 469.224 209.91 467.404 209.15C462.248 206.998 457.091 207.185 452.006 209.494C449.413 210.671 447.092 212.306 444.8 213.97C443.425 214.974 442.093 216.035 440.704 217.011C438.913 218.273 437.022 219.306 434.888 219.879C433.126 220.353 431.364 220.554 429.559 220.209C426.637 219.65 424.56 218.043 423.586 215.189C423.185 214.027 422.984 212.808 422.641 211.632C421.939 209.179 421.366 206.669 420.463 204.302C419.045 200.572 416.596 197.617 413.144 195.566C410.809 194.175 408.23 193.658 405.566 193.501C401.856 193.286 398.189 193.687 394.594 194.576C391.113 195.437 387.661 196.441 384.223 197.474C379.181 198.994 374.052 199.41 368.81 199.138C364.312 198.894 360.344 197.244 356.706 194.763C355.173 193.716 353.855 192.296 352.566 190.919C350.145 188.351 347.309 186.3 344.415 184.364C339.23 180.907 334.002 177.493 328.358 174.782C322.914 172.171 317.5 169.474 311.956 167.079C305.439 164.253 298.52 162.632 291.587 161.155C284.754 159.706 277.879 158.444 271.032 157.009C264.643 155.675 258.412 153.796 252.381 151.257C251.536 150.913 250.734 150.469 249.359 149.809C250.533 149.694 251.078 149.579 251.622 149.608C257.151 149.909 262.294 148.489 267.236 146.165C271.676 144.071 276.088 141.905 280.514 139.797C281.961 139.108 283.436 138.463 284.912 137.831C289.381 135.952 294.022 135.45 298.807 136.067C303.347 136.655 307.673 138.004 311.756 140.04C316.912 142.622 322.098 145.09 327.441 147.284C331.824 149.077 335.978 151.358 339.76 154.212C344.387 157.698 348.383 161.843 351.85 166.505C354.056 169.46 356.133 172.515 358.496 175.341C364.57 182.614 372.434 186.185 381.902 185.913C384.996 185.827 388.105 185.267 391.17 184.736C394.336 184.177 397.444 183.388 400.581 182.7C406.612 181.366 412.685 180.591 418.859 181.423C419.403 181.495 419.976 181.423 420.449 181.423C420.907 180.821 420.506 180.448 420.32 180.046C418.687 176.661 416.152 173.964 413.573 171.339C411.196 168.915 408.717 166.548 406.125 164.382C398.031 157.626 388.678 153.968 378.163 153.294C372.205 152.921 366.26 153.294 360.315 153.509C357.207 153.624 354.084 153.725 350.961 153.682C347.423 153.639 344.029 152.864 340.892 151.171C340.376 150.885 339.946 150.425 339.087 149.708C340.319 149.68 341.049 149.637 341.78 149.637C344.917 149.608 347.996 149.206 351.048 148.475C356.305 147.227 360.917 144.745 364.956 141.188C367.578 138.879 370.17 136.526 372.777 134.202C376.674 130.731 380.942 127.791 385.512 125.28C391.686 121.895 398.361 120.317 405.323 119.93C408.803 119.744 412.313 119.787 415.808 119.744C419.403 119.715 422.984 119.772 426.58 119.701C432.797 119.571 438.698 117.936 444.457 115.656C445.058 115.412 445.631 115.125 446.219 114.852C446.118 114.135 445.631 114.379 445.373 114.422C433.155 116.301 421.738 113.274 410.623 108.598C405.824 106.576 401.412 103.807 396.957 101.125C391.943 98.0841 386.801 95.3013 381.215 93.4222C376.975 91.9878 372.663 91.0985 368.165 91.1129C363.338 91.1416 358.768 92.1456 354.614 94.6415C351.062 96.7788 347.61 99.1168 344.086 101.311C341.364 103.004 338.643 104.725 335.835 106.26C331.638 108.555 327.126 109.875 322.356 110.291C321.41 110.377 320.479 110.492 319.534 110.578C310.008 111.367 302.832 116.057 297.517 123.846C296.457 125.409 295.512 127.059 294.509 128.651C293.449 130.344 292.389 132.022 290.57 133.012C289.825 133.413 289.094 133.872 288.292 134.088C285.17 134.92 282.233 136.211 279.34 137.602C275.859 139.28 272.321 140.872 268.883 142.651C261.721 146.352 254.071 146.94 246.25 146.366C242.741 146.108 239.403 145.133 236.352 143.225C232.742 140.973 229.061 138.864 225.408 136.684C214.98 130.444 203.893 125.696 192.362 121.924C179.957 117.865 167.366 114.537 154.503 112.299C152.497 111.955 150.463 111.625 148.429 111.022C148.644 110.721 148.73 110.492 148.859 110.449C152.612 109.516 156.379 108.598 160.147 107.723C161.335 107.451 162.567 107.307 163.785 107.135C167.867 106.561 171.907 106.805 175.846 108.039C178.539 108.885 181.218 109.817 183.853 110.865C189.125 112.959 194.396 115.039 199.825 116.645C204.18 117.936 208.592 118.969 213.104 119.528C218.977 120.26 224.792 119.944 230.565 118.61C237.441 117.018 243.428 113.776 248.585 108.957C251.837 105.93 255.046 102.846 258.44 99.9918C265.116 94.3833 272.579 89.9223 280.256 85.8343C285.685 82.9511 291.286 80.4265 297.059 78.318C302.044 76.4963 306.857 74.3447 311.612 72.0353C313.288 71.232 314.964 70.4431 316.54 69.3386C315.824 69.4533 315.108 69.5824 314.377 69.6828C312.415 69.941 310.452 70.2566 308.476 70.4287C301.041 71.1029 294.008 69.6255 287.275 66.4841C283.25 64.6051 279.211 62.769 275.128 61.0334C271.647 59.5416 268.009 58.5232 264.242 57.9781C256.335 56.8306 249.244 58.6666 243.042 63.7588C240.707 65.6809 238.429 67.6603 236.094 69.5824C234.275 71.0886 232.327 72.4082 230.15 73.3836C227.514 74.5598 224.893 74.8037 222.2 73.5844C221.082 73.068 219.951 72.566 218.805 72.1787C216.928 71.5332 215.052 70.8877 213.132 70.4C208.549 69.2382 204.137 69.8693 199.911 71.9349C195.27 74.2156 191.302 77.3713 187.864 81.2155C184.899 84.5433 182.421 88.2297 179.871 91.8731C177.766 94.8854 175.431 97.7542 173.139 100.637C171.878 102.23 170.274 103.377 168.24 103.793C167.223 103.994 166.22 104.295 165.189 104.41C160.763 104.941 156.451 105.945 152.139 107.02C149.217 107.752 146.223 108.283 143.258 108.785C140.995 109.172 138.775 108.842 136.554 108.154C131.254 106.533 126.384 104.051 122.029 100.652C115.025 95.1866 107.333 91.0555 98.9242 88.2297C98.3082 88.0289 97.7209 87.7707 97.1049 87.5412C97.2195 86.7666 97.7782 86.8957 98.1649 86.8096C100.557 86.2646 102.949 85.7195 105.37 85.2318C107.032 84.9019 108.722 84.615 110.398 84.4142C113.263 84.0556 116.056 84.4572 118.72 85.5904C121.327 86.6949 123.906 87.8854 126.513 88.9899C129.736 90.367 133.073 91.3997 136.526 92.0022C140.694 92.7194 144.819 92.5473 148.859 91.285C150.836 90.6682 152.827 90.0084 154.746 89.2194C160.505 86.8527 166.249 84.4142 171.978 81.9757C174.5 80.8999 176.92 79.6376 179.155 78.0598C179.112 77.3282 178.539 77.3856 178.124 77.3426C173.712 76.8836 169.744 75.234 165.934 73.0394C163.971 71.9205 161.908 70.9595 159.803 70.1275C155.548 68.4349 151.308 68.5497 147.154 70.5578C145.292 71.4615 143.416 72.3795 141.611 73.398C138.073 75.3774 134.305 76.4389 130.252 76.4819C129.406 76.4819 128.547 76.568 127.702 76.5967C123.892 76.7258 120.153 77.3569 116.686 78.9778C111.415 81.4593 105.786 82.5925 100.17 83.8978C93.925 85.3465 87.8085 85.074 81.7492 82.9654C71.5789 79.4225 61.5232 75.6069 51.6107 71.3754C49.9634 70.6726 48.3877 69.7976 46.7834 69.0087C46.7404 68.9513 46.6832 68.8796 46.6402 68.8222C46.6975 68.8796 46.7548 68.937 46.8121 69.0087L46.7834 69.0661ZM367.119 250.633C367.234 250.174 367.578 250.145 367.965 250.117C370.213 249.959 372.462 249.801 374.711 249.629C375.843 249.543 376.96 249.371 378.092 249.313C381.172 249.184 384.079 249.858 386.815 251.25C388.563 252.139 389.723 253.43 390.425 255.352C392.316 260.559 393.276 265.895 393.405 271.418C393.405 271.862 393.319 272.307 393.218 273.225C392.731 272.493 392.459 272.149 392.259 271.776C391.285 270.055 390.411 268.276 389.337 266.612C387.116 263.198 384.452 260.143 381.129 257.733C376.831 254.621 372.147 252.24 367.076 250.619C367.062 250.547 367.048 250.475 367.005 250.418C366.976 250.375 366.919 250.36 366.862 250.332C366.948 250.418 367.033 250.518 367.105 250.604L367.119 250.633ZM240.005 239.789C240.12 239.961 240.234 240.119 240.363 240.291C240.291 240.291 240.148 240.291 240.148 240.262C240.119 240.104 240.105 239.947 240.091 239.775C239.833 239.387 239.504 239.029 239.303 238.613C237.312 234.309 234.834 230.293 232.083 226.449C231.038 224.986 230.078 223.465 229.104 221.974C226.325 217.756 224.248 213.224 223.031 208.318C221.956 204.015 220.91 199.683 219.879 195.365C219.779 194.949 219.836 194.505 219.808 193.845C220.466 194.103 220.953 194.175 221.297 194.447C222.185 195.136 223.102 195.839 223.847 196.685C225.681 198.779 226.755 201.304 227.485 203.972C228.13 206.339 228.746 208.734 229.548 211.043C230.966 215.117 233.086 218.761 236.553 221.486C236.839 221.715 237.054 222.031 237.326 222.347C237.298 227.037 238.214 231.555 239.475 236.031C239.733 236.934 240.005 237.852 240.205 238.77C240.263 239.086 240.091 239.445 240.034 239.775L240.005 239.789ZM321.668 316.616C321.783 316.788 321.912 316.974 322.026 317.146C321.94 317.161 321.854 317.175 321.783 317.189C321.783 316.989 321.768 316.788 321.754 316.587C320.78 316.099 320.694 315.081 320.365 314.22C318.245 308.812 317.113 303.175 316.526 297.423C316.053 292.819 315.767 288.2 315.423 283.581C315.136 279.809 314.778 276.051 313.904 272.364C313.833 272.049 313.904 271.704 313.933 271.346C314.291 271.418 314.52 271.389 314.635 271.489C316.741 273.368 318.932 275.176 320.923 277.184C322.528 278.805 323.602 280.827 324.447 282.95C325.12 284.643 325.407 286.393 324.977 288.214C324.347 290.882 323.817 293.565 323.144 296.218C321.554 302.501 320.866 308.841 321.869 315.31C321.94 315.726 321.74 316.171 321.668 316.601V316.616ZM317.557 311.782C317.657 311.911 317.758 312.026 317.858 312.155C317.743 312.169 317.629 312.183 317.528 312.198C317.571 312.054 317.6 311.911 317.643 311.767C316.64 311.409 316.339 310.448 315.852 309.659C312.042 303.448 308.647 297.036 306.241 290.122C305.41 287.712 304.479 285.331 303.62 282.936C303.276 281.96 302.918 280.971 302.688 279.967C301.313 273.971 300.382 267.903 300.239 261.735C300.167 258.608 300.454 255.51 301.027 252.426C301.113 252.01 301.127 251.465 301.843 251.35C302.072 251.551 302.387 251.766 302.602 252.053C304.436 254.334 306.112 256.729 307.473 259.34C310.925 265.952 313.045 272.967 313.689 280.411C314.005 284.184 314.234 287.956 314.506 291.729C314.964 298.054 315.752 304.337 317.514 310.448C317.629 310.864 317.543 311.337 317.543 311.782H317.557ZM386.071 214.4C389.336 212.535 392.03 210.972 394.723 209.451C395.625 208.949 396.556 208.462 397.501 208.06C404.177 205.306 410.78 205.75 417.298 208.562C418.916 209.265 420.163 210.283 420.291 212.306C420.363 213.425 420.707 214.543 421.108 215.591C421.538 216.724 422.053 217.886 422.77 218.847C424.904 221.701 427.926 222.849 431.422 222.863C435.146 222.863 438.441 221.529 441.477 219.506C442.895 218.574 444.213 217.498 445.588 216.494C447.952 214.759 450.301 213.037 452.98 211.804C457.621 209.666 462.276 209.609 466.96 211.632C469.41 212.693 471.63 214.113 473.65 215.849C477.016 218.761 480.038 222.002 482.746 225.531C483.032 225.904 483.132 226.42 483.448 227.166C482.445 226.707 481.743 226.42 481.084 226.062C478.062 224.412 474.796 223.523 471.401 223.049C464.754 222.117 458.423 223.265 452.392 226.119C450.344 227.08 448.353 228.17 446.333 229.189C443.54 230.609 440.589 231.627 437.481 232.043C432.868 232.674 428.671 231.799 425.205 228.4C423.729 226.951 422.111 225.631 420.463 224.355C413.717 219.133 406.168 216.006 397.573 215.547C394.837 215.404 392.116 215.16 389.394 214.916C388.477 214.83 387.56 214.615 386.056 214.371L386.071 214.4ZM320.25 239.889C319.906 239.201 319.691 238.799 319.505 238.383C316.655 231.986 312.185 226.951 306.37 223.164C303.376 221.213 300.225 219.463 297.045 217.828C292.762 215.634 288.364 213.683 284.052 211.56C281.245 210.183 278.652 208.462 276.346 206.324C274.011 204.144 272.335 201.591 271.562 198.464C271.132 196.728 270.602 195.007 270.143 193.271C270.029 192.855 269.742 192.396 270.344 191.952C270.702 192.195 271.089 192.439 271.433 192.74C275.257 196.169 279.769 198.206 284.754 199.253C287.805 199.884 290.856 200.458 293.936 200.96C298.506 201.705 303.018 202.681 307.372 204.287C310.581 205.478 313.575 207.013 316.196 209.279C318.202 211.015 319.605 213.037 320.007 215.705C320.15 216.638 320.393 217.556 320.565 218.488C321.783 225.445 321.382 232.416 320.637 239.373C320.637 239.445 320.537 239.516 320.264 239.918L320.25 239.889ZM150.736 172.458C150.306 172.128 150.033 171.999 149.862 171.798C146.868 168.356 143.358 165.501 139.677 162.847C132.773 157.856 125.138 154.915 116.6 154.442C115.669 154.384 114.753 154.255 113.75 154.141C111.787 148.532 109.868 143.01 107.949 137.487C107.92 137.415 107.948 137.301 107.977 137.215C108.006 137.129 108.077 137.057 108.206 136.856C108.751 136.784 109.395 136.684 110.04 136.627C117.546 136.067 124.952 136.799 132.214 138.678C136.039 139.667 139.792 140.944 143.33 142.809C144.934 143.655 145.965 144.817 146.682 146.438C147.799 148.948 148.701 151.53 149.346 154.198C150.707 159.85 151.051 165.587 151.008 171.368C151.008 171.626 150.879 171.899 150.736 172.444V172.458ZM220.509 102.043C221.441 101.139 221.856 100.594 222.386 100.264C223.976 99.2603 225.595 98.2849 227.242 97.3955C229.075 96.4202 230.995 95.6169 232.814 94.6128C237.684 91.9161 241.81 88.4162 244.531 83.4388C245.52 81.6171 246.551 79.8098 247.382 77.902C249.259 73.6275 252.209 70.2566 255.962 67.5886C259.443 65.1071 263.225 63.2137 267.436 62.267C269.04 61.9084 270.588 61.894 272.135 62.5826C276.016 64.3038 279.913 65.9678 283.794 67.6747C284.024 67.7751 284.196 67.9903 284.382 68.1337C284.282 68.4062 284.267 68.6501 284.138 68.7218C280.844 70.8017 278.05 73.4697 275.443 76.3385C275.014 76.7975 274.412 77.1848 273.825 77.4143C268.553 79.3651 263.884 82.3773 259.328 85.5761C255.246 88.4449 251.135 91.2993 247.024 94.1251C239.661 99.1742 231.367 101.426 222.572 102.1C222.128 102.129 221.67 102.086 220.538 102.057L220.509 102.043ZM467.762 260.918C467.318 261.162 467.089 261.362 466.831 261.42C460.901 262.682 454.957 263.528 448.869 263.17C443.483 262.854 438.526 261.19 433.885 258.494C433.155 258.078 432.467 257.532 431.88 256.944C428.671 253.674 426.064 250.016 424.646 245.598C423.93 243.346 423.214 241.094 422.541 238.842C420.564 232.172 417.04 226.449 411.912 221.744C411.64 221.5 411.081 221.328 411.339 220.625C411.998 220.883 412.628 221.07 413.187 221.357C416.381 223.035 419.303 225.086 421.996 227.482C424.746 229.935 427.468 232.416 430.218 234.869C436.077 240.09 442.623 244.121 450.315 245.986C452.593 246.545 454.169 247.75 455.415 249.672C456.489 251.336 457.693 252.914 458.896 254.492C460.758 256.93 463.05 258.866 465.915 260.043C466.502 260.287 467.061 260.602 467.777 260.946L467.762 260.918ZM317.4 208.505C316.612 208.046 316.354 207.945 316.139 207.773C313.145 205.378 309.736 203.828 306.126 202.638C301.987 201.275 297.761 200.371 293.463 199.74C289.539 199.167 285.642 198.449 281.846 197.287C277.993 196.111 274.57 194.161 271.633 191.406C270.129 189.986 268.654 188.495 267.966 186.443C266.376 181.667 263.955 177.292 261.463 172.946C259.858 170.163 258.24 167.395 256.65 164.612C256.435 164.224 256.062 163.837 256.621 163.263C256.965 163.55 257.323 163.823 257.667 164.11C263.468 169.144 269.728 173.505 276.446 177.191C283.15 180.864 289.911 184.407 296.629 188.036C301.127 190.46 305.467 193.099 309.278 196.542C312.544 199.496 315.136 202.925 316.941 206.955C317.084 207.271 317.156 207.63 317.414 208.49L317.4 208.505ZM172.752 211.072C172.365 210.8 171.979 210.584 171.649 210.283C170.374 209.121 168.942 208.218 167.366 207.544C163.284 205.808 159.215 204.044 155.104 202.423C151.853 201.132 148.658 199.712 145.708 197.833C142.914 196.068 140.178 194.204 137.485 192.296C135.867 191.148 134.262 189.958 132.844 188.581C129.02 184.894 125.782 180.734 123.118 176.116C119.981 170.694 117.632 164.927 115.497 159.061C115.383 158.759 115.455 158.401 115.426 157.956C115.97 158.085 116.357 158.114 116.701 158.257C120.425 159.778 123.763 161.886 126.47 164.87C128.504 167.108 130.438 169.431 132.257 171.841C137.342 178.54 143.387 184.163 150.649 188.423C154.245 190.531 157.654 192.898 160.82 195.595C165.461 199.54 169.343 204.144 172.408 209.423C172.68 209.882 173.11 210.326 172.738 211.058L172.752 211.072ZM276.847 214.988C277.391 215.347 277.606 215.404 277.692 215.547C281.13 220.439 285.098 224.871 289.367 229.031C293.306 232.861 297.474 236.432 302.158 239.316C305.295 241.238 308.504 243.059 311.655 244.967C315.022 247.004 317.758 249.715 319.849 253.071C320.336 253.86 320.723 254.75 321.024 255.625C321.955 258.293 322.7 261.047 323.774 263.672C326.051 269.252 326.653 275.004 325.923 280.928C325.88 281.243 325.722 281.559 325.507 282.233C325.077 281.53 324.805 281.172 324.619 280.77C323.53 278.532 322.098 276.553 320.25 274.889C318.703 273.497 317.17 272.092 315.552 270.801C313.732 269.352 312.501 267.616 311.713 265.35C309.521 259.024 306.169 253.33 301.414 248.582C298.534 245.713 295.512 243.002 292.604 240.162C290.785 238.383 288.966 236.576 287.333 234.625C282.778 229.203 279.726 222.92 277.162 216.379C277.033 216.049 277.005 215.662 276.862 214.974L276.847 214.988ZM446.018 242.93C448.181 242.07 450.043 241.41 451.834 240.607C453.467 239.875 455.028 238.971 456.618 238.154C461.245 235.758 466.029 233.75 471.157 232.732C476.457 231.67 481.672 232 486.8 233.664C488.117 234.094 489.106 234.768 489.879 235.973C490.896 237.551 492.057 239.057 493.26 240.506C496.583 244.537 500.551 247.893 504.691 251.035C505.02 251.278 505.335 251.565 505.937 252.067C505.249 252.039 504.949 252.11 504.734 252.01C499.19 249.543 493.332 248.854 487.33 248.797C482.803 248.754 478.277 248.524 473.75 248.252C465.729 247.764 457.793 246.588 450.029 244.436C448.783 244.092 447.479 243.805 445.99 242.916L446.018 242.93ZM162.696 45.1258C162.625 45.2836 162.61 45.5275 162.481 45.5992C158.714 47.7938 154.818 49.6872 150.535 50.677C149.718 50.8635 148.845 51.0069 148.028 50.9352C144.504 50.6196 141.21 49.6442 138.23 47.5787C135.666 45.8 133.03 44.1361 130.337 42.5726C127.057 40.6505 123.562 39.2304 119.709 38.9436C119.394 38.9149 119.079 38.7284 118.635 38.5563C119.05 38.0399 119.308 37.6382 119.651 37.3227C121.943 35.2141 124.207 33.0625 126.584 31.0687C128.389 29.5482 130.366 28.2429 132.243 26.8372C133.446 25.9335 134.821 25.6466 136.268 25.8188C137.385 25.9479 138.517 26.1487 139.577 26.5216C142.384 27.5114 144.791 29.1609 146.868 31.2982C148.114 32.5891 149.317 33.9231 150.521 35.2571C153.973 39.0583 157.583 42.63 162.381 44.7242C162.524 44.7816 162.596 44.9967 162.711 45.1402L162.696 45.1258ZM320.121 250.891C319.391 250.203 318.932 249.758 318.474 249.328C317.242 248.151 316.125 246.846 314.764 245.842C312.787 244.393 310.71 243.059 308.576 241.854C304.049 239.287 299.666 236.533 295.641 233.191C290.756 229.131 286.344 224.599 282.29 219.722C279.196 216.006 276.475 212.033 274.34 207.687C274.111 207.214 273.696 206.726 274.24 206.095C274.541 206.296 274.87 206.468 275.128 206.712C278.308 209.752 282.061 211.918 286 213.798C289.582 215.504 293.191 217.14 296.758 218.89C300.755 220.84 304.608 223.035 308.132 225.775C313.475 229.949 317.342 235.184 319.577 241.639C320.608 244.594 320.279 247.535 320.107 250.877L320.121 250.891ZM235.321 73.4697C234.318 76.2955 233.272 79.0065 231.597 81.4306C229.19 84.9162 226.139 87.6416 222.4 89.6211C220.567 90.5965 218.748 91.5862 216.986 92.6764C213.662 94.7562 211.27 97.5533 210.339 101.469C210.311 101.613 210.067 101.713 209.924 101.828C206.6 101.885 199.037 101.139 197.232 100.551C197.347 99.5615 197.347 98.5144 197.605 97.5246C198.249 95.0718 198.822 92.5616 199.753 90.2092C202.489 83.281 207.446 78.4758 214.293 75.5783C216.398 74.6889 218.418 74.2586 220.452 75.65C220.61 75.7504 220.796 75.7934 220.968 75.8651C224.477 77.443 227.929 77.2709 231.339 75.5783C232.685 74.9184 233.989 74.1725 235.306 73.4697H235.321ZM298.334 133.385C298.678 133.012 298.806 132.739 299.021 132.639C303.462 130.516 308.06 128.852 312.902 127.848C314.32 127.561 315.437 127.848 316.612 128.637C321.998 132.28 327.928 134.661 334.345 135.766C337.038 136.225 339.774 136.469 342.496 136.741C346.163 137.114 349.83 137.372 353.483 137.788C355.832 138.047 358.124 138.635 360.229 139.797C360.616 140.012 361.146 140.126 361.16 140.786C361.003 140.973 360.874 141.231 360.659 141.389C360.143 141.79 359.599 142.163 359.04 142.522C355.316 144.917 351.176 146.151 346.85 146.811C340.548 147.772 334.446 146.811 328.444 144.846C323.76 143.296 319.348 141.188 314.993 138.922C310.094 136.368 304.995 134.489 299.508 133.7C299.179 133.657 298.864 133.528 298.348 133.399L298.334 133.385ZM360.029 199.654C361.06 199.984 361.662 200.214 362.278 200.371C363.639 200.73 364.999 201.189 366.389 201.361C371.775 202.035 377.118 201.863 382.404 200.529C384.595 199.97 386.744 199.267 388.935 198.679C391.485 197.99 394.021 197.259 396.599 196.714C399.65 196.068 402.759 195.824 405.881 196.025C410.551 196.312 414.161 198.464 416.667 202.351C417.527 203.685 418.086 205.22 418.716 206.683C418.859 207.027 418.745 207.486 418.745 208.003C418.272 207.816 418.014 207.716 417.756 207.615C417.412 207.472 417.054 207.328 416.71 207.199C408.875 204.058 401.254 204.388 393.863 208.619C392.803 209.236 391.757 209.882 390.683 210.47C389.365 211.201 388.047 211.918 386.701 212.607C384.409 213.769 382.06 214.056 379.61 213.066C378.908 212.779 378.178 212.593 377.462 212.349C371.03 210.197 365.959 205.994 361.146 201.419C360.774 201.06 360.559 200.515 360.015 199.669L360.029 199.654ZM360.516 203.57C360.588 203.341 360.587 203.226 360.645 203.183C360.702 203.14 360.86 203.14 360.903 203.183C361.676 203.871 362.435 204.574 363.209 205.277C369.598 211.101 377.104 214.615 385.641 215.82C388.907 216.279 392.187 216.638 395.482 216.853C397.43 216.982 399.134 217.556 400.839 218.445C403.833 220.023 406.125 222.361 408.273 224.9C412.513 229.892 415.178 235.672 416.854 241.955C416.882 242.07 416.725 242.242 416.667 242.4C416.581 242.4 416.467 242.443 416.41 242.4C415.822 241.941 415.206 241.496 414.648 241.008C410.422 237.336 405.867 234.152 400.753 231.842C396.885 230.092 392.989 228.428 388.921 227.195C386.486 226.463 384.094 225.588 381.716 224.699C377.591 223.135 374.052 220.683 371.102 217.384C370.729 216.968 370.328 216.552 369.941 216.136C366.303 212.277 363.266 207.988 360.53 203.585L360.516 203.57ZM211.6 101.814C211.757 101.082 211.815 100.422 212.044 99.8484C213.118 97.2234 214.994 95.2439 217.358 93.7665C219.192 92.619 221.111 91.5862 223.016 90.5678C228.001 87.8998 231.725 84.0269 234.29 78.9921C235.45 76.7258 236.624 74.4594 237.871 72.2361C238.329 71.4185 238.845 70.5865 239.532 69.9841C241.437 68.2915 243.414 66.685 245.42 65.1071C251.221 60.5457 257.81 59.4125 264.929 60.6748C265.259 60.7322 265.56 60.89 266.362 61.1625C265.202 61.6215 264.543 61.9084 263.869 62.1522C261.191 63.1133 258.67 64.3755 256.306 65.9534C251.98 68.8365 248.499 72.4656 246.379 77.2995C245.778 78.6766 245.09 80.0393 244.374 81.3589C242.841 84.199 241.065 86.824 238.644 89.033C235.751 91.6866 232.442 93.6231 228.932 95.287C225.179 97.0513 221.398 98.7726 218.848 102.201C216.37 102.229 214.035 102.473 211.571 101.799L211.6 101.814ZM340.519 123.244C344 121.379 347.166 119.729 350.317 118.008C352.552 116.789 354.772 115.541 356.949 114.221C358.439 113.317 359.972 113.145 361.562 113.676C363.166 114.221 364.77 114.809 366.246 115.612C368.724 116.975 371.087 118.553 373.494 120.03C376.015 121.565 378.665 122.756 381.601 123.215C381.974 123.272 382.547 123.129 382.704 123.803C379.983 125.696 377.218 127.475 374.625 129.483C371.947 131.549 369.426 133.829 366.804 136.038C366.418 135.852 366.045 135.723 365.744 135.522C362.149 132.997 358.138 131.405 353.898 130.286C351.893 129.756 349.916 129.11 347.982 128.379C345.762 127.547 343.67 126.442 341.894 124.85C341.422 124.434 341.063 123.889 340.533 123.244H340.519ZM116.228 188.609C115.784 188.495 115.498 188.495 115.283 188.365C112.805 186.816 110.341 185.238 107.877 183.661C104.869 181.753 103.021 178.941 101.875 175.657C100.185 170.808 99.8839 165.845 101.102 160.854C101.632 158.659 102.448 156.536 103.264 154.427C104.754 150.555 106.301 146.696 107.232 142.637C107.29 142.422 107.533 142.249 107.777 141.948C108.536 142.981 108.779 144.085 109.123 145.133C111.616 152.663 114.151 160.179 117.274 167.495C117.718 168.528 117.689 169.431 117.302 170.478C115.24 176.015 114.753 181.681 116.199 187.462C116.285 187.777 116.228 188.136 116.228 188.609ZM277.893 243.82C277.635 243.676 277.377 243.604 277.22 243.432C274.355 240.434 271.447 237.451 268.639 234.396C265.889 231.398 263.397 228.213 261.248 224.742C260.431 223.422 259.959 222.031 259.744 220.511C259.286 217.297 259.386 214.084 260.059 210.929C260.661 208.074 261.377 205.22 262.15 202.408C263.726 196.742 264.858 191.019 264.886 185.109C264.886 184.823 264.715 184.32 265.459 184.234C265.732 184.866 266.104 185.511 266.319 186.2C267.637 190.445 268.926 194.677 270.186 198.937C271.132 202.107 271.948 205.306 272.951 208.462C273.366 209.767 273.495 211 273.223 212.334C272.407 216.25 272.378 220.209 272.722 224.183C273.237 230.164 274.684 235.902 277.191 241.367C277.52 242.098 278.194 242.772 277.878 243.805L277.893 243.82ZM125.811 29.4335C125.682 27.5544 126.269 26.163 126.9 24.8003C128.547 21.2287 131.011 18.2738 133.947 15.7062C136.296 13.6407 138.989 12.0772 141.682 10.5137C143.888 9.23703 146.023 7.87435 147.999 6.23913C148.787 5.59365 149.704 5.04858 150.649 4.64694C156.895 2.03633 163.255 1.70642 169.687 3.94409C170.002 4.05884 170.288 4.274 170.861 4.58957C169.801 5.19202 169.028 5.65103 168.225 6.08135C165.275 7.67354 163.198 10.0116 162.023 13.153C161.464 14.6591 161.006 16.1939 160.505 17.7144C160.333 18.2451 160.161 18.7615 160.003 19.2635C156.881 19.2635 153.872 19.1488 150.879 19.2779C147.856 19.407 144.905 20.0811 141.997 20.9418C139.09 21.7881 136.253 22.8352 133.646 24.3844C131.068 25.9192 128.604 27.6261 125.797 29.4478L125.811 29.4335ZM365.945 272.766C365.687 272.665 365.386 272.608 365.171 272.45C360.845 269.252 356.548 266.024 352.222 262.84C349.844 261.09 348.355 258.78 347.481 255.998C346.464 252.799 346.106 249.543 346.32 246.215C346.478 243.676 346.736 241.137 346.936 238.598C347.223 234.84 347.581 231.068 347.123 227.295C347.094 227.066 347.237 226.808 347.38 226.262C348.039 227.224 348.584 227.969 349.099 228.73C352.766 234.109 356.347 239.545 360.129 244.838C361.748 247.104 362.564 249.514 362.665 252.197C362.736 254.262 362.693 256.356 362.593 258.422C362.364 262.868 363.18 267.057 365.386 270.959C365.687 271.489 366.274 271.977 365.959 272.766H365.945ZM94.412 109.846C94.5695 109.731 94.7129 109.602 94.8704 109.488C95.5294 110.147 96.1883 110.822 96.8472 111.481C101.746 116.473 107.232 120.547 114.022 122.612C116.185 123.272 118.348 123.975 120.468 124.778C123.376 125.868 126.312 126.93 129.12 128.264C134.778 130.946 139.448 134.848 143 140.04C143.258 140.413 143.315 140.915 143.53 141.547C141.511 140.729 139.792 139.969 138.015 139.338C129.005 136.081 119.709 134.891 110.154 135.479C109.137 135.536 108.106 135.809 107.075 135.479C105.026 131.161 103.021 126.901 100.972 122.641C98.9097 118.324 96.3457 114.235 94.3976 109.861L94.412 109.846ZM150.091 203.398C152.684 205.406 154.732 207.601 156.551 210.025C161.364 216.422 164.917 223.48 167.309 231.111C168.412 234.625 169.414 238.168 170.46 241.697C171.892 246.502 173.554 251.207 176.047 255.596C176.218 255.912 176.233 256.313 176.362 256.873C173.439 254.047 170.747 251.422 168.025 248.811C164.344 245.297 160.634 241.797 157.582 237.68C156.451 236.146 155.591 234.51 154.947 232.717C153.5 228.672 153.013 224.455 152.669 220.209C152.225 214.744 151.667 209.293 149.933 204.044C149.905 203.972 149.976 203.886 150.105 203.398H150.091ZM431.106 233.664C431.98 233.162 431.98 233.133 432.539 233.219C435.69 233.664 438.77 233.248 441.749 232.23C443.712 231.555 445.631 230.752 447.508 229.877C449.399 229.017 451.189 227.941 453.066 227.066C459.039 224.283 465.27 223.279 471.845 224.24C476.715 224.957 481.041 226.994 485.167 229.547C486.155 230.15 486.771 231.039 487.186 232.416C486.37 232.258 485.754 232.172 485.138 232.014C479.423 230.566 473.736 230.652 468.063 232.287C464.153 233.406 460.4 234.941 456.776 236.805C454.77 237.852 452.765 238.928 450.702 239.861C449.241 240.506 447.694 240.965 446.161 241.41C444.142 241.998 442.237 241.582 440.446 240.535C437.08 238.584 433.957 236.318 431.106 233.65V233.664ZM454.942 346.021C454.283 345.562 454.025 345.433 453.825 345.232C450.058 341.589 446.964 337.458 444.858 332.624C443.11 328.622 441.835 324.491 440.775 320.259C438.842 312.528 438.125 304.624 437.352 296.72C437.338 296.505 437.509 296.276 437.696 295.817C438.24 296.606 438.655 297.223 439.085 297.811C441.019 300.493 442.924 303.19 444.887 305.829C447.651 309.544 450.43 313.23 453.266 316.888C454.641 318.667 455.444 320.661 455.601 322.87C455.716 324.648 455.716 326.456 455.544 328.234C455.272 330.96 454.813 333.656 454.441 336.367C454.068 339.107 454.068 341.832 454.813 344.515C454.899 344.845 454.885 345.203 454.957 346.007L454.942 346.021ZM274.14 213.97C274.326 213.941 274.512 213.927 274.699 213.898C275.028 214.773 275.358 215.648 275.687 216.537C277.42 221.256 279.64 225.732 282.233 230.021C285.141 234.826 288.937 238.9 293.105 242.629C294.352 243.748 295.813 244.68 296.772 246.172C296.5 247.664 296.214 249.156 295.97 250.633C295.297 254.965 295.526 259.297 296.156 263.629C296.242 264.202 296.486 264.819 295.999 265.594C295.655 265.106 295.426 264.819 295.225 264.518C292.146 259.627 288.751 254.979 284.625 250.92C282.147 248.481 280.443 245.598 279.01 242.5C278.294 240.951 277.578 239.416 276.976 237.824C274.355 231.025 273.338 223.967 273.782 216.695C273.839 215.777 274.011 214.873 274.126 213.955L274.14 213.97ZM201.429 29.3474C200.341 30.1076 199.424 30.2654 198.579 30.5236C193.193 32.2449 187.75 33.8514 182.421 35.7161C180.287 36.462 178.21 36.8063 176.061 36.419C174.213 36.0891 172.365 35.6301 170.589 35.042C167.438 34.0092 164.544 32.417 161.708 30.7101C156.107 27.3392 150.291 24.4704 143.903 22.8782C143.588 22.8065 143.143 22.7778 143.301 22.118C143.788 21.9746 144.318 21.7881 144.848 21.659C150.922 20.1815 157.024 20.1385 163.083 21.5586C166.836 22.4479 170.589 23.4807 174.213 24.786C181.389 27.3679 188.752 28.788 196.359 28.9744C197.59 29.0031 198.808 29.0462 200.04 29.0892C200.369 29.1035 200.713 29.204 201.444 29.333L201.429 29.3474ZM121.585 177.622C121.786 177.564 121.986 177.493 122.173 177.435C122.574 178.052 122.975 178.655 123.376 179.271C127.372 185.468 132.343 190.704 138.517 194.763C140.565 196.111 142.556 197.574 144.648 198.851C146.438 199.941 147.584 201.476 148.358 203.355C148.716 204.23 149.045 205.119 149.317 206.023C150.234 209.021 150.75 212.091 151.079 215.203C151.566 219.707 152.096 224.226 152.598 228.73C152.626 228.93 152.497 229.146 152.34 229.791C151.552 228.357 150.965 227.31 150.406 226.234C147.34 220.367 143.903 214.716 140.207 209.236C137.184 204.746 133.804 200.558 129.578 197.144C127.616 195.552 126.169 193.658 125.009 191.464C123.233 188.079 122.144 184.478 121.714 180.677C121.6 179.673 121.614 178.64 121.585 177.622ZM175.903 105.07C184.541 102.445 196.387 101.67 202.618 103.018C202.776 103.291 202.976 103.607 203.148 103.936C206.529 109.975 211.757 112.988 218.576 113.389C221.698 113.576 224.807 113.332 227.858 112.658C229.706 112.256 231.525 111.783 233.344 111.309C235.822 110.664 238.329 110.262 240.893 110.391C241.222 110.406 241.538 110.563 242.168 110.75C241.581 111.238 241.265 111.567 240.893 111.797C237.326 114.006 233.473 115.483 229.391 116.387C223.045 117.807 216.671 117.807 210.282 116.674C204.882 115.727 199.624 114.235 194.482 112.356C188.38 110.133 182.306 107.795 176.233 105.5C176.161 105.471 176.118 105.356 175.903 105.084V105.07ZM372.548 230.307C369.168 230.178 366.088 231.082 362.965 231.814C361.776 232.101 360.559 232.33 359.341 232.387C357.938 232.459 356.519 232.387 355.116 232.258C353.626 232.115 352.58 231.34 351.706 230.035C347.81 224.24 344.014 218.373 340.691 212.22C339.259 209.566 338.127 206.755 336.895 204.001C336.723 203.628 336.737 203.183 336.566 202.308C337.253 202.738 337.554 202.896 337.826 203.097C342.424 206.396 347.008 209.724 351.635 212.994C357.193 216.91 362.722 220.869 367.85 225.33C369.54 226.808 371.188 228.328 372.548 230.293V230.307ZM388.047 250.174C387.546 250.203 387.446 250.231 387.36 250.203C387.088 250.131 386.801 250.074 386.558 249.945C383.048 248.209 379.352 247.879 375.528 248.381C374.124 248.567 372.735 248.768 371.331 248.94C369.727 249.127 368.136 249.07 366.561 248.639C364.971 248.195 363.624 247.391 362.665 246.014C360.1 242.299 357.522 238.57 354.972 234.84C354.743 234.51 354.242 234.18 354.614 233.664C354.829 233.592 355.001 233.463 355.173 233.492C358.511 233.908 361.748 233.363 364.956 232.531C366.317 232.172 367.721 231.914 369.111 231.699C372.649 231.182 375.542 232.201 377.877 235.055C381.1 239.014 384.137 243.074 386.687 247.506C387.145 248.309 387.532 249.17 388.047 250.174ZM327.24 124.836C329.633 122.139 330.42 119.414 331.28 116.717C331.91 114.738 332.626 112.801 333.701 111.008C334.216 110.162 334.847 109.545 335.735 109.129C339.774 107.25 343.427 104.74 347.123 102.301C349.945 100.422 352.838 98.6291 355.732 96.8648C357.594 95.7316 359.599 94.914 361.719 94.3976C362.106 94.2972 362.607 94.0247 362.937 94.6702C362.278 95.3157 361.633 95.9898 360.931 96.6066C358.324 98.873 356.433 101.684 354.915 104.754C353.955 106.69 353.168 108.713 352.322 110.707C351.764 112.012 351.291 113.346 350.689 114.623C349.988 116.1 348.956 117.233 347.452 118.037C344.114 119.815 340.762 121.537 337.153 122.698C334.56 123.53 331.882 124.133 329.232 124.807C328.816 124.907 328.358 124.821 327.226 124.836H327.24ZM391.743 298.04C385.584 281.516 377.361 266.67 367.32 252.311C368.151 252.426 368.624 252.397 368.996 252.555C371.317 253.602 373.666 254.578 375.915 255.768C383.664 259.885 388.849 266.297 392.158 274.329C393.147 276.725 393.577 279.163 393.333 281.788C392.875 286.766 392.588 291.772 392.216 296.763C392.201 296.993 392.058 297.222 391.743 298.026V298.04ZM408.116 117.176C407.357 117.262 406.812 117.362 406.268 117.391C399.621 117.75 393.19 118.983 387.088 121.737C386.5 121.996 385.827 122.196 385.197 122.211C382.919 122.282 380.642 122.153 378.536 121.235C376.817 120.475 375.127 119.629 373.508 118.682C369.784 116.487 366.289 113.863 362.063 112.615C361.934 112.572 361.848 112.356 361.633 112.084C362.02 111.84 362.364 111.567 362.75 111.395C367.922 109.057 373.322 108.053 378.994 108.555C382.575 108.871 386.099 109.516 389.523 110.592C395.625 112.514 401.684 114.608 407.743 116.631C407.815 116.66 407.844 116.774 408.13 117.19L408.116 117.176ZM348.154 156.665C348.24 156.493 348.312 156.321 348.398 156.149C350.073 156.177 351.764 156.278 353.44 156.235C358.439 156.091 363.438 155.805 368.452 155.718C372.133 155.661 375.829 155.69 379.496 155.948C385.397 156.364 390.998 158.014 396.255 160.768C396.699 160.997 397.057 161.413 397.501 161.757C395.095 163.034 392.875 164.224 390.626 165.401C389.093 166.204 387.489 166.663 385.712 166.476C380.541 165.931 375.37 165.501 370.214 164.884C363.381 164.052 356.992 161.815 350.961 158.544C349.987 158.014 349.099 157.296 348.183 156.665H348.154ZM508.573 255.768C507.656 255.768 506.725 255.797 505.808 255.739C498.03 255.338 490.352 256.026 482.774 257.776C479.566 258.522 476.343 259.254 473.134 260.014C472.117 260.258 471.114 260.444 470.069 260.215C467.275 259.584 464.669 258.522 462.477 256.629C459.583 254.133 457.635 250.906 455.415 247.52C456.188 247.549 456.647 247.492 457.077 247.578C467.204 249.6 477.46 250.045 487.745 250.274C489.435 250.317 491.14 250.36 492.83 250.475C498.474 250.834 503.602 252.899 508.587 255.768H508.573ZM114.667 156.192C114.767 155.919 114.781 155.79 114.824 155.761C115.068 155.661 115.326 155.503 115.569 155.518C119.351 155.675 123.075 156.22 126.699 157.382C130.409 158.573 133.89 160.251 137.113 162.403C141.668 165.458 145.937 168.872 149.604 172.989C150.692 174.222 151.251 175.47 151.051 177.077C150.993 177.55 151.022 178.023 151.008 178.497C150.879 181.237 150.907 183.976 151.423 186.687C151.452 186.816 151.251 186.988 151.036 187.304C149.905 186.716 148.916 185.855 147.828 185.167C143.473 182.427 139.734 178.999 136.454 175.04C134.234 172.358 132.056 169.618 129.865 166.907C126.155 162.36 121.743 158.774 116.142 156.809C115.641 156.636 115.154 156.378 114.681 156.163L114.667 156.192ZM97.3485 59.1974C97.2482 59.1113 97.1622 59.0109 97.0619 58.9248C97.3484 58.5662 97.6062 58.1646 97.95 57.849C103.88 52.2979 109.825 46.7611 115.727 41.1812C116.471 40.4784 117.288 40.1771 118.262 40.1198C120.769 39.9476 123.147 40.5358 125.453 41.4394C128.447 42.63 131.226 44.2222 133.919 46.0008C136.755 47.8799 139.491 49.9168 142.699 51.136C142.8 51.179 142.814 51.4229 142.914 51.7098C142.413 51.7815 141.969 51.8819 141.51 51.8962C138.961 51.9823 136.411 52.0397 133.861 52.0971C129.607 52.2118 125.353 52.2405 121.113 52.4557C113.463 52.8286 106.201 54.7507 99.3681 58.2363C98.7092 58.5662 98.0361 58.8818 97.3629 59.1974H97.3485ZM372.849 166.563C373.436 166.548 373.966 166.476 374.482 166.52C378.049 166.864 381.616 167.251 385.182 167.567C395.267 168.47 404.392 172.071 412.857 177.493C413.144 177.679 413.588 177.794 413.316 178.454C413.043 178.497 412.7 178.569 412.342 178.612C409.162 178.984 405.967 179.271 402.801 179.773C400.295 180.161 397.802 180.777 395.338 181.38C394.006 181.71 392.746 181.652 391.442 181.294C387.317 180.189 383.807 178.138 381.014 174.868C378.622 172.056 376.187 169.302 373.093 167.222C372.978 167.151 372.964 166.921 372.835 166.563H372.849ZM470.971 359.418C470.541 359.203 470.169 359.103 469.911 358.888C466.144 355.761 462.362 352.634 458.638 349.449C458.022 348.918 457.563 348.144 457.162 347.412C455.587 344.5 455.071 341.359 455.415 338.103C455.673 335.665 456.045 333.24 456.375 330.816C456.704 328.392 457.062 325.954 456.876 323.486C456.862 323.271 457.062 323.042 457.234 322.626C457.721 323.286 458.151 323.773 458.495 324.304C461.574 329.152 464.582 334.058 467.748 338.849C470.327 342.722 471.329 346.867 470.728 351.472C470.412 353.81 470.47 356.177 471.086 358.5C471.143 358.73 471.028 359.002 470.971 359.418ZM362.636 139.725C362.177 139.538 361.805 139.438 361.49 139.251C358.668 137.588 355.56 136.813 352.337 136.483C348.483 136.096 344.616 135.795 340.763 135.493C333.113 134.891 325.894 132.883 319.247 128.995C318.631 128.637 318.087 128.178 317.113 127.475C318.775 127.102 319.992 127.145 321.181 127.045C322.399 126.944 323.631 126.887 324.863 126.772C326.08 126.657 327.312 126.557 328.53 126.371C329.747 126.184 330.95 125.969 332.154 125.696C333.342 125.424 334.517 125.037 335.706 124.735C336.881 124.434 337.955 123.746 339.33 123.774C341.192 126.098 343.599 127.748 346.349 128.838C348.799 129.813 351.32 130.645 353.841 131.391C356.663 132.209 359.441 133.112 362.049 134.446C363.295 135.077 364.498 135.766 365.558 136.67C364.89 137.779 363.92 138.792 362.65 139.71L362.636 139.725ZM256.836 168.757C256.994 168.729 257.165 168.7 257.323 168.671C258.827 171.267 260.274 173.907 261.835 176.46C263.067 178.454 263.569 180.605 263.697 182.915C263.97 187.763 263.411 192.54 262.322 197.259C261.706 199.927 260.933 202.552 260.245 205.205C259.228 209.05 258.369 212.923 258.355 216.924C258.355 217.14 258.183 217.34 257.996 217.756C257.151 216.795 256.965 215.763 256.65 214.816C254.358 207.888 253.742 200.773 254.501 193.544C254.845 190.259 255.346 186.988 255.805 183.718C256.464 179.028 257.037 174.351 256.707 169.603C256.693 169.331 256.793 169.058 256.836 168.786V168.757ZM99.54 124.291H100.099C100.371 124.75 100.672 125.223 100.915 125.725C102.319 128.723 103.608 131.764 105.141 134.704C106.43 137.2 106.616 139.739 106.086 142.407C105.843 143.612 105.571 144.817 105.155 145.964C103.952 149.335 102.691 152.706 101.402 156.048C99.053 162.159 98.6234 168.356 100.385 174.681C100.514 175.126 100.572 175.571 100.772 176.56C100.113 175.843 99.7407 175.571 99.5258 175.198C98.4802 173.405 97.4631 171.597 96.4604 169.776C94.0253 165.315 93.9106 160.552 94.7987 155.704C95.0422 154.413 95.4433 153.137 95.83 151.874C96.1595 150.784 96.5463 149.723 96.9044 148.647C98.566 143.669 99.2966 138.549 99.096 133.299C99.0244 131.319 99.0674 129.325 99.1391 127.346C99.182 126.327 99.4111 125.309 99.5544 124.291H99.54ZM356.204 112.858C356.104 112.543 355.961 112.328 356.004 112.213C356.777 110.377 357.751 108.684 359.27 107.307C361.648 105.17 364.441 103.85 367.435 102.904C370.042 102.086 372.72 101.441 375.313 100.551C377.447 99.8197 379.653 99.1168 381.558 97.9406C383.005 97.0513 384.137 97.08 385.469 97.7685C385.727 97.8976 385.97 98.0267 386.228 98.1414C391.299 100.494 395.997 103.492 400.767 106.375C401.14 106.604 401.455 106.934 401.928 107.307C401.197 107.881 400.538 107.824 399.908 107.766C397.845 107.551 395.783 107.307 393.72 107.063C391.356 106.791 388.978 106.647 386.701 107.379C385.283 107.838 383.951 107.824 382.532 107.565C375.041 106.203 367.864 107.293 361.017 110.578C359.828 111.151 358.654 111.768 357.465 112.342C357.064 112.543 356.648 112.686 356.219 112.844L356.204 112.858ZM482.774 367.264C482.688 367.236 482.56 367.236 482.531 367.193C482.33 366.777 482.116 366.346 481.972 365.916C480.812 362.015 479.236 358.285 477.532 354.599C473.922 346.796 469.782 339.294 465.256 331.992C464.84 331.318 464.482 330.601 464.081 329.87C464.468 329.783 464.683 329.654 464.812 329.712C467.347 330.73 469.897 331.691 472.361 332.853C474.137 333.699 475.77 334.804 477.159 336.281C480.669 340.011 482.932 344.386 484.336 349.263C484.808 350.912 484.952 352.59 484.722 354.297C484.192 358.314 483.706 362.344 483.19 366.361C483.147 366.691 483.233 367.135 482.731 367.264H482.774ZM231.253 102.316C232.9 104.768 235.35 105.471 237.885 105.959C240.607 106.475 243.342 106.289 246.064 105.859C246.68 105.758 247.31 105.758 248.499 105.658C247.267 106.791 246.394 107.494 245.634 108.283C244.718 109.244 243.715 109.617 242.354 109.459C238.931 109.043 235.579 109.531 232.27 110.434C230.723 110.865 229.161 111.252 227.6 111.582C224.062 112.328 220.495 112.557 216.9 112.113C212.903 111.625 209.494 109.947 206.715 107.02C205.712 105.959 204.724 104.84 204.294 103.148C208.935 103.348 213.347 103.607 217.759 103.693C222.214 103.779 226.612 103.219 231.267 102.301L231.253 102.316ZM452.894 313.603C456.332 313.245 459.598 312.901 462.863 312.571C463.422 312.513 463.995 312.442 464.554 312.499C466.33 312.671 468.121 312.843 469.868 313.13C471.086 313.331 472.146 313.976 473.077 314.837C476.944 318.409 479.938 322.597 481.915 327.488C482.044 327.804 482.03 328.191 482.13 328.822C481.084 328.234 480.268 327.804 479.48 327.316C477.933 326.341 476.257 325.71 474.466 325.495C472.69 325.279 470.899 325.222 469.109 325.165C467.691 325.122 466.287 325.193 464.869 325.222C462.076 325.294 459.999 324.046 458.423 321.794C456.862 319.542 455.243 317.333 453.682 315.095C453.381 314.665 453.18 314.163 452.879 313.603H452.894ZM166.807 224.799C167.996 224.34 168.985 224.799 169.916 225.129C172.781 226.176 175.316 227.783 177.536 229.892C178.897 231.182 179.642 232.646 179.742 234.582C180 239.387 180.415 244.193 180.831 248.983C181.203 253.416 181.948 257.791 183.352 262.022C183.51 262.51 183.553 263.041 183.667 263.686C183.323 263.5 183.108 263.442 183.008 263.313C178.682 257.762 175.115 251.809 173.01 245.039C172.566 243.59 172.107 242.156 171.649 240.721C170.088 235.773 168.541 230.824 166.994 225.861C166.893 225.531 166.879 225.172 166.822 224.785L166.807 224.799ZM137.099 24.6139C138.388 23.6241 139.433 23.7245 140.436 23.7102C142.929 23.6672 145.292 24.37 147.613 25.1733C152.354 26.8228 156.809 29.0892 161.106 31.6711C165.661 34.4108 170.374 36.7633 175.717 37.5522C175.875 37.5809 176.018 37.7243 176.233 37.8534C176.061 38.0686 175.932 38.3555 175.717 38.4702C172.48 40.2058 169.214 41.8984 165.991 43.6771C165.06 44.1935 164.243 44.2795 163.312 43.8779C162.711 43.6197 162.095 43.3759 161.507 43.0746C158.7 41.6546 156.293 39.6751 154.13 37.4087C152.297 35.501 150.478 33.5789 148.716 31.6137C145.665 28.2285 142.069 25.7757 137.113 24.5995L137.099 24.6139ZM306.828 127.69C307.788 125.051 308.647 122.455 309.693 119.944C310.266 118.567 311.097 117.291 311.913 116.043C312.787 114.738 314.048 113.934 315.638 113.719C317.314 113.49 318.989 113.188 320.68 113.031C324.161 112.701 327.598 112.227 330.936 111.123C331.265 111.008 331.638 111.022 332.125 110.951C330.979 114.207 329.933 117.291 328.816 120.346C328.53 121.135 328.085 121.881 327.67 122.612C326.553 124.534 325.034 125.582 322.642 125.61C317.457 125.668 312.3 126.256 307.301 127.776C307.229 127.805 307.129 127.748 306.828 127.705V127.69ZM151.939 202.939C152.755 202.939 152.956 202.882 153.113 202.939C158.428 204.632 163.541 206.841 168.469 209.437C171.721 211.144 173.912 214.056 175.932 217.054C176.19 217.441 176.333 217.914 176.448 218.359C177.264 221.457 178.066 224.57 178.854 227.683C178.955 228.099 178.926 228.543 178.969 229.289C176.763 227.812 174.886 226.449 172.91 225.244C170.79 223.953 168.426 223.351 165.934 223.293C162.424 215.791 158.327 208.82 151.939 202.939ZM112.317 42.4148C111.028 41.8267 110.685 40.6935 110.255 39.6894C108.565 35.8166 108.049 31.6998 107.848 27.5257C107.791 26.206 108.178 25.1733 109.051 24.1979C112.274 20.5975 116.171 18.0443 120.683 16.3947C121.055 16.2656 121.485 16.28 122.23 16.1796C120.64 18.9766 119.795 21.6446 119.738 24.5421C119.68 27.54 120.941 30.2367 121.786 33.2346C118.677 36.3186 115.569 39.4456 112.303 42.4148H112.317ZM219.091 191.837C219.908 191.722 220.18 191.636 220.438 191.665C224.42 192.052 228.202 193.185 231.754 195.007C233.502 195.896 235.192 196.943 236.567 198.449C237.369 199.324 237.914 200.271 238.028 201.433C238.171 203.025 238.444 204.632 238.358 206.224C238.114 210.656 237.713 215.06 237.355 219.492C237.341 219.736 237.097 219.951 236.954 220.209C235.879 219.822 235.178 219.033 234.605 218.187C233.602 216.709 232.528 215.232 231.826 213.611C230.794 211.187 230.035 208.648 229.204 206.152C228.646 204.445 228.273 202.681 227.629 201.017C226.225 197.388 224.033 194.404 220.352 192.74C220.022 192.597 219.75 192.324 219.091 191.865V191.837ZM375.513 182.757C375.184 182.771 374.983 182.843 374.812 182.8C369.555 181.495 364.942 179.085 361.347 174.939C360.172 173.591 359.069 172.171 357.98 170.751C355.574 167.595 353.21 164.425 350.804 161.27C350.317 160.638 349.773 160.036 349.157 159.319C349.543 159.347 349.744 159.319 349.901 159.376C350.417 159.591 350.947 159.821 351.434 160.093C355.689 162.403 360.201 164.11 364.928 165.099C366.99 165.53 368.337 166.634 369.196 168.413C369.927 169.933 370.572 171.526 371.087 173.132C372.09 176.302 373.222 179.386 375.37 181.997C375.471 182.126 375.442 182.355 375.513 182.757ZM206.558 197.029C205.397 195.968 205.225 195.021 204.91 194.175C202.332 187.089 201.286 179.745 201.3 172.228C201.315 167.136 201.3 162.044 201.315 156.952C201.315 156.651 201.472 156.35 201.63 155.761C204.337 159.218 206.357 162.718 208.262 166.276C208.649 166.993 208.778 167.882 208.892 168.714C209.293 171.44 209.236 174.179 208.763 176.89C208.291 179.587 207.775 182.269 207.216 184.937C206.514 188.279 206.214 191.65 206.457 195.064C206.486 195.523 206.5 195.997 206.543 197.029H206.558ZM187.048 101.283C187.062 100.68 187.019 100.221 187.105 99.7767C187.778 96.2193 189.067 92.9059 190.958 89.8076C192.949 86.5515 195.456 83.74 198.178 81.1151C201.974 77.443 206.5 74.9615 211.442 73.2258C212.76 72.7668 213.949 72.9533 215.209 73.9861C214.278 74.4164 213.533 74.7607 212.774 75.1049C208.42 77.1274 204.667 79.9102 201.916 83.9122C198.865 88.3445 197.089 93.2788 196.273 98.5861C196.158 99.3176 196.058 100.049 195.943 100.881C192.964 101.025 190.07 101.154 187.033 101.297L187.048 101.283ZM338.041 243.361C337.797 242.787 337.525 242.213 337.296 241.625C334.933 235.371 333.658 228.887 333.844 222.203C334.001 216.451 334.474 210.699 334.818 204.947C334.818 204.804 335.004 204.675 335.248 204.359C335.534 204.919 335.778 205.392 336.007 205.865C337.196 208.332 338.256 210.857 339.574 213.252C342.295 218.23 342.997 223.394 341.379 228.844C341.063 229.935 340.734 231.01 340.419 232.1C339.344 235.73 338.327 239.359 338.055 243.346L338.041 243.361ZM161.393 19.5504C161.522 17.7574 162.166 16.28 162.625 14.7595C163.914 10.4563 166.822 7.74525 170.832 5.96659C172.322 5.30677 173.554 5.43586 174.8 6.32519C176.175 7.31493 177.651 8.21861 178.883 9.36614C181.232 11.5464 183.452 13.8702 185.701 16.1509C185.787 16.2369 185.701 16.4808 185.701 16.825C185.185 16.8681 184.641 16.9685 184.097 16.9541C182.593 16.9111 181.089 16.782 179.57 16.739C174.6 16.5812 169.744 17.1119 165.289 19.5217C163.971 20.2246 162.825 20.2676 161.364 19.5648L161.393 19.5504ZM263.712 92.4325C263.397 92.9346 263.339 93.1354 263.21 93.2214C259.128 96.1046 255.303 99.3033 251.608 102.66C251.006 103.205 250.204 103.607 249.43 103.879C245.906 105.098 242.268 105.414 238.572 104.941C236.968 104.74 235.435 104.281 234.032 103.477C233.602 103.234 233.287 102.775 232.685 102.186C234.218 101.469 235.622 101.254 236.911 100.766C238.229 100.25 239.561 99.7767 240.836 99.2029C242.125 98.6148 243.371 97.955 244.603 97.2665C245.835 96.5779 247.038 95.8321 248.213 95.0718C249.402 94.3116 250.562 93.5083 251.722 92.7194C252.883 91.9305 254.043 91.1415 255.346 90.2666C257.796 91.744 260.532 92.3608 263.697 92.4612L263.712 92.4325ZM203.979 27.1241C203.549 27.3392 203.392 27.4683 203.22 27.497C202.761 27.5687 202.289 27.6404 201.816 27.6404C193.852 27.6691 185.959 27.2245 178.324 24.6425C174.657 23.409 170.947 22.2758 167.28 21.0852C166.965 20.9848 166.693 20.741 166.392 20.5545C166.621 20.2676 166.707 20.0811 166.85 20.0094C167.366 19.7656 167.882 19.5361 168.412 19.3496C171.835 18.1303 175.402 17.7431 179.012 17.8148C181.848 17.8722 184.67 17.9869 187.535 18.073C195.127 23.6672 194.196 23.538 203.993 27.1097L203.979 27.1241ZM174.227 103.262C175.932 101.168 177.364 99.4324 178.783 97.6681C179.671 96.5636 180.559 95.4591 181.375 94.3116C183.051 91.9161 184.627 89.4489 186.346 87.0965C190.185 81.8609 194.726 77.4143 200.599 74.4738C202.819 73.3693 205.111 72.5803 207.603 72.4512C208.033 72.4226 208.477 72.523 209.451 72.609C196.645 78.6479 188.194 87.7133 185.529 101.412C182.22 102.359 176.577 103.334 174.227 103.277V103.262ZM210.368 171.999C210.568 171.97 210.769 171.942 210.969 171.913C211.227 172.386 211.542 172.831 211.714 173.319C212.817 176.345 213.849 179.386 214.98 182.398C215.539 183.89 215.51 185.31 215.095 186.831C213.118 194.089 212.874 201.39 214.694 208.72C214.794 209.121 214.751 209.566 214.823 210.613C213.677 209.193 212.932 208.232 212.144 207.314C209.251 203.943 208.09 199.912 207.675 195.581C207.403 192.74 207.489 189.9 208.004 187.103C208.935 182.097 210.282 177.163 210.368 171.999ZM216.241 187.878C217.014 188.71 217.029 189.671 217.243 190.546C218.647 196.326 220.022 202.107 221.426 207.888C222.801 213.539 225.165 218.761 228.417 223.58C229.52 225.215 230.665 226.836 231.74 228.5C233.086 230.551 234.404 232.617 235.679 234.711C236.152 235.486 236.495 236.361 236.896 237.193C236.166 236.805 235.665 236.26 235.249 235.658C232.055 231.082 228.574 226.75 224.921 222.547C222.701 219.98 220.452 217.441 218.26 214.845C217.73 214.213 217.201 213.482 216.943 212.707C214.379 204.818 213.748 196.828 215.797 188.71C215.854 188.466 216.026 188.251 216.227 187.878H216.241ZM93.2231 156.837C93.0942 156.866 92.9509 156.88 92.822 156.909C92.7074 156.364 92.5355 155.819 92.5069 155.274C92.335 152.348 92.0198 149.421 92.1057 146.51C92.249 142.163 92.5928 137.831 93.0225 133.514C93.6815 126.815 94.0538 120.131 93.2946 113.432C93.2516 113.045 93.0082 112.529 93.6099 112.27C94.4837 113.432 98.4227 120.418 98.6806 121.379C98.7952 121.809 98.8382 122.326 98.7236 122.756C97.7495 126.557 97.8354 130.43 97.9644 134.317C98.0789 137.731 97.8211 141.131 96.9187 144.43C95.7728 148.589 94.4693 152.721 93.2374 156.852L93.2231 156.837ZM95.9589 57.2753C95.9446 57.0457 95.8731 56.8449 95.9161 56.6871C97.7066 50.9208 99.4685 45.1402 101.316 39.3882C102.477 35.8022 103.794 32.2592 105.714 28.9744C105.871 28.7019 106.115 28.4724 106.559 27.9273C106.86 30.0789 107.017 31.8433 107.376 33.5789C107.734 35.3289 108.149 37.0932 108.765 38.7714C109.367 40.421 110.24 41.9845 110.971 43.5193C110.269 44.3943 97.7639 56.3142 96.7468 57.0457C96.5463 57.1892 96.2312 57.1892 95.9448 57.2609L95.9589 57.2753ZM381.487 96.6497C379.968 97.8689 378.45 98.3996 376.932 98.8873C374.869 99.5615 372.763 100.107 370.686 100.766C368.351 101.512 366.002 102.244 363.725 103.176C359.198 105.041 356.104 108.311 354.514 112.973C353.998 114.465 353.97 114.451 352.036 114.996C352.007 114.809 351.907 114.608 351.964 114.465C352.953 112.012 353.898 109.545 354.987 107.121C357.221 102.1 360.416 97.8402 365.042 94.7419C366.102 94.0391 367.162 93.6231 368.466 93.6374C372.677 93.6948 376.717 94.5124 380.656 95.9611C380.899 96.0472 381.071 96.2911 381.487 96.6353V96.6497ZM440.131 296.462C440.804 296.735 441.119 296.835 441.42 296.979C445.674 299.001 449.9 301.095 454.197 303.032C458.767 305.083 463.035 307.679 467.276 310.319C467.605 310.519 468.192 310.692 467.849 311.552C464.797 311.122 461.732 311.523 458.667 311.954C457.363 312.14 456.031 312.212 454.727 312.226C453.897 312.226 453.023 312.126 452.221 311.882C451.633 311.696 450.974 311.337 450.602 310.864C447.322 306.603 444.099 302.3 440.876 298.011C440.603 297.653 440.474 297.194 440.131 296.462ZM218.705 190.216C217.673 186.687 216.699 183.345 215.754 180.003C215.696 179.788 215.84 179.501 215.911 179.142C219.005 178.913 221.971 179.085 224.807 180.318C225.695 180.706 226.425 181.208 226.912 182.097C228.846 185.669 231.281 188.911 233.716 192.152C234.49 193.185 235.421 194.175 235.708 195.695C233.631 195.251 232.227 193.673 230.365 193.085C228.474 192.497 226.64 191.751 224.721 191.277C222.816 190.804 220.839 190.574 218.719 190.202L218.705 190.216ZM215.023 177.88C214.651 176.933 214.321 176.144 214.02 175.355C212.588 171.454 210.855 167.681 208.706 164.11C207.302 161.772 205.827 159.462 204.409 157.124C204.151 156.694 204.022 156.177 203.693 155.374C213.863 160.61 220.18 168.8 224.964 178.87C223.116 178.554 221.584 178.21 220.022 178.052C218.447 177.894 216.842 177.923 215.009 177.866L215.023 177.88ZM389.122 296.95C388.835 296.591 388.534 296.247 388.248 295.888C385.369 292.145 382.504 288.387 379.195 285.001C376.273 282.018 374.582 278.346 373.279 274.473C372.147 271.131 371.589 267.688 371.861 264.145C371.89 263.758 371.789 263.198 372.377 263.026C376.788 268.305 388.148 290.811 389.136 296.95H389.122ZM346.235 257.073C343.814 254.334 342.052 251.924 340.691 249.227C340.562 248.983 340.505 248.697 340.447 248.41C339.645 244.393 339.244 240.391 340.404 236.361C341.063 234.094 341.679 231.828 342.353 229.576C343.083 227.109 343.513 224.627 343.341 222.045C343.312 221.687 343.341 221.342 343.327 220.955C344.1 221.013 344.215 221.515 344.401 221.931C345.805 225 346.335 228.242 346.177 231.584C345.991 235.629 345.662 239.674 345.332 243.719C345.003 247.692 344.988 251.637 346.149 255.496C346.22 255.739 346.177 256.026 346.235 257.073ZM461.99 326.284C463.365 326.327 464.368 326.384 465.37 326.398C466.502 326.398 467.633 326.355 468.765 326.341C469.796 326.341 470.857 326.255 471.874 326.341C473.191 326.47 474.509 326.613 475.784 326.958C478.277 327.646 480.454 328.937 482.23 330.874C483.161 331.878 483.777 332.968 484.049 334.316C484.808 337.945 485.181 341.603 485.167 345.304C485.167 345.634 485.267 346.093 484.594 346.179C484.264 345.447 483.906 344.701 483.562 343.941C482.603 341.775 481.385 339.753 479.967 337.859C477.947 335.162 475.483 333.011 472.375 331.648C470.556 330.845 468.708 330.142 466.903 329.324C465.528 328.708 464.196 328.005 462.863 327.288C462.591 327.144 462.419 326.8 461.961 326.284H461.99ZM373.838 279.12C373.121 278.776 372.863 278.704 372.649 278.547C369.941 276.639 368.323 273.856 366.69 271.088C364.469 267.315 363.495 263.256 363.696 258.881C363.81 256.528 363.768 254.162 363.811 251.795C363.811 251.551 363.982 251.322 364.097 251.006C364.398 251.221 364.67 251.336 364.828 251.551C366.632 254.09 368.394 256.658 370.228 259.168C370.958 260.172 371.087 261.176 370.915 262.366C370.199 267.358 371.116 272.149 372.921 276.797C373.164 277.399 373.408 278.016 373.852 279.12H373.838ZM141.267 84.0269C145.865 82.5064 149.847 81.1151 153.887 79.8958C155.491 79.4225 157.224 79.1643 158.9 79.1499C162.381 79.0926 165.862 79.2647 169.343 79.3651C169.773 79.3651 170.288 79.3077 170.532 79.9675C170.36 80.1253 170.202 80.3692 169.987 80.4696C164.931 82.5351 159.889 84.615 154.804 86.6232C154.044 86.9244 153.156 87.0248 152.325 86.9961C149.102 86.8527 145.994 86.1498 142.972 85.0166C142.556 84.8589 142.184 84.572 141.253 84.0412L141.267 84.0269ZM402.844 217.972C403.675 218.072 404.177 217.986 404.52 218.187C406.082 219.062 407.715 219.851 409.104 220.941C414.419 225.101 418.315 230.336 420.578 236.734C421.137 238.326 421.652 239.947 422.139 241.582C423.142 244.924 424.188 248.252 425.921 251.307C426.036 251.522 426.05 251.795 426.207 252.397C425.319 251.68 424.66 251.221 424.102 250.662C423.027 249.6 422.039 248.467 420.979 247.391C419.833 246.229 419.031 244.881 418.53 243.318C417.756 240.893 416.997 238.455 416.095 236.088C413.545 229.332 409.462 223.652 403.876 219.076C403.604 218.861 403.403 218.56 402.859 217.972H402.844ZM426.308 116.444C426.279 116.631 426.25 116.817 426.222 116.99C425.004 117.047 423.801 117.147 422.583 117.147C415.536 117.176 408.775 115.67 402.142 113.346C397.888 111.854 393.577 110.492 389.294 109.057C388.935 108.943 388.62 108.684 388.291 108.498C389.594 108.096 390.812 108.01 392.015 108.082C393.333 108.154 394.637 108.369 395.94 108.541C398.461 108.856 400.982 109.229 403.532 108.713C404.42 108.527 405.179 108.842 405.953 109.229C411.94 112.27 418.243 114.465 424.775 115.957C425.291 116.072 425.806 116.272 426.308 116.43V116.444ZM296.758 75.7504C295.999 76.0803 295.24 76.4102 294.481 76.7258C290.842 78.3036 287.132 79.738 283.58 81.488C278.208 84.1417 272.593 84.7298 266.749 84.113C266.319 84.0699 265.903 83.8978 265.488 83.7831C265.631 82.9654 266.219 82.7646 266.677 82.4921C270.516 80.2114 274.584 78.5044 278.939 77.4286C284.754 75.9942 290.699 75.7217 296.744 75.7504H296.758ZM389.652 182.327C387.145 183.144 383.507 183.589 380.814 183.603C379.066 183.603 377.734 182.929 376.602 181.667C375.198 180.103 374.124 178.325 373.393 176.36C372.305 173.448 371.274 170.521 370.228 167.595C370.214 167.538 370.285 167.438 370.357 167.28C370.586 167.294 370.901 167.222 371.087 167.351C372.405 168.255 373.795 169.101 374.969 170.177C376.631 171.712 378.206 173.362 379.653 175.097C382.074 177.98 384.968 180.175 388.448 181.581C388.835 181.739 389.165 182.025 389.652 182.341V182.327ZM122.774 32.0871C122.416 31.1834 122.072 30.4375 121.829 29.6486C121.499 28.5728 121.141 27.4683 120.998 26.3638C120.568 23.079 121.256 19.9807 122.975 17.1406C123.734 15.8927 124.722 14.989 126.284 14.7452C128.046 14.4726 129.793 14.028 131.541 13.6263C132.902 13.3108 134.248 12.9378 136.225 12.4214C134.878 13.5259 134.019 14.2001 133.188 14.9316C130.61 17.1836 128.447 19.7943 126.713 22.7348C125.453 24.8577 124.636 27.1814 124.479 29.6773C124.407 30.6814 124.164 31.5277 122.789 32.1014L122.774 32.0871ZM390.21 167.093C393.004 165.329 395.224 163.952 397.802 163.249C399.077 162.905 400.137 163.048 401.24 163.852C404.692 166.362 407.887 169.159 410.852 172.2C412.413 173.806 414.103 175.298 415.464 177.507C411.296 175.312 407.443 173.146 403.46 171.239C399.464 169.317 395.167 168.169 390.21 167.079V167.093ZM149.976 88.2297C149.461 88.5022 149.16 88.7031 148.845 88.8035C145.106 90.0371 141.296 90.367 137.399 89.7645C132.214 88.9613 127.43 86.9961 122.76 84.7154C122.559 84.615 122.459 84.3425 122.087 83.8691C123.19 83.9552 124.02 84.0126 124.837 84.0986C128.504 84.4716 132.171 84.9019 135.852 84.5576C137.987 84.3568 139.849 84.7584 141.811 85.6191C144.304 86.6949 146.982 87.2973 149.991 88.2297H149.976ZM310.151 116.028C309.406 117.778 308.776 119.127 308.246 120.518C307.673 122.01 307.201 123.545 306.671 125.051C306.585 125.323 306.47 125.582 306.341 125.825C305.367 127.604 304.149 129.053 302.115 129.756C300.425 130.329 298.835 131.19 297.202 131.893C296.715 132.108 296.185 132.237 295.555 132.438C297.89 126.414 304.837 117.606 310.151 116.014V116.028ZM118.678 171.124C119.752 172.874 120.826 174.495 120.511 176.775C120.31 178.239 120.454 179.788 120.626 181.28C121.055 184.966 122.144 188.466 123.849 191.765C124.063 192.181 124.321 192.583 123.777 193.027C122.559 192.367 121.37 191.593 120.081 191.048C118.405 190.359 117.703 189.068 117.288 187.433C115.927 182.054 116.371 176.79 118.119 171.569C118.162 171.425 118.391 171.339 118.678 171.11V171.124ZM472.146 348.273C473.048 348.316 473.177 348.947 473.406 349.435C475.082 353.021 476.816 356.578 478.391 360.207C479.365 362.445 480.082 364.797 480.898 367.121C481.041 367.537 481.256 368.025 480.726 368.426C478.792 366.662 476.873 364.855 474.882 363.148C473.836 362.258 473.177 361.197 472.69 359.935C471.2 356.09 471.716 352.203 472.16 348.287L472.146 348.273ZM275.143 85.3179C275.157 85.4613 275.171 85.6047 275.186 85.7625C272.536 87.3691 269.9 89.0043 267.221 90.5821C266.677 90.912 266.004 91.1129 265.359 91.1989C262.895 91.5145 260.46 91.242 258.125 90.3813C257.624 90.1948 257.065 89.9653 256.965 89.076C259.056 87.5268 261.162 85.8486 263.339 84.7011C264.929 84.9449 266.233 85.1888 267.551 85.3179C268.768 85.4326 270 85.4613 271.218 85.4613C272.521 85.4613 273.825 85.3609 275.128 85.3179H275.143ZM144.447 81.3159C140.135 83.0658 134.864 83.6826 131.713 82.7503C131.942 82.0474 132.185 81.3446 132.4 80.6274C132.773 79.4081 133.56 78.8057 134.835 78.6192C137.285 78.2462 139.577 77.3426 141.768 76.2094C142.857 75.65 143.931 75.0475 145.034 74.5024C145.435 74.3016 145.894 74.2443 146.338 74.1152C145.693 76.611 145.077 78.9634 144.461 81.3302L144.447 81.3159ZM299.766 72.7668C299.766 72.9389 299.781 73.1254 299.795 73.2976C298.978 73.4267 298.162 73.5844 297.331 73.6848C296.486 73.7996 295.641 73.8713 294.81 73.943C294.065 74.0148 293.306 74.0721 292.561 74.1295C291.716 74.2012 290.871 74.2443 290.026 74.316C289.181 74.3877 288.335 74.4594 287.49 74.5455C286.645 74.6315 285.8 74.7176 284.969 74.8324C284.224 74.9328 283.479 75.0475 282.734 75.1766C281.904 75.3201 281.073 75.5352 280.242 75.6643C279.454 75.7791 278.681 76.195 277.836 75.9799C277.879 75.7073 277.85 75.4778 277.95 75.3774C279.941 73.0824 282.319 71.2607 284.926 69.7115C285.9 69.1378 286.817 69.0804 287.848 69.5394C290.699 70.8017 293.678 71.6767 296.744 72.2504C297.746 72.4369 298.763 72.609 299.766 72.7955V72.7668ZM299.824 272.12C298.506 270.528 298.191 269.495 297.345 263.887C296.529 258.451 296.271 253.043 297.832 247.549C299.036 248.008 299.666 248.783 300.382 249.758C299.695 253.387 298.993 257.102 299.136 260.875C299.279 264.604 299.58 268.334 299.824 272.12ZM152.039 78.7196C151.967 78.361 151.91 78.2462 151.939 78.1889C152.053 77.9307 152.154 77.6581 152.325 77.443C153.872 75.6069 155.763 74.2729 157.955 73.3262C159.086 72.8385 160.104 72.8959 161.178 73.4697C163.327 74.6315 165.504 75.7217 167.667 76.8549C167.939 76.9983 168.168 77.2565 168.827 77.7872C166.55 77.7012 164.788 77.5864 163.026 77.6008C161.149 77.6008 159.258 77.6295 157.396 77.8159C155.634 77.9881 153.901 78.3897 152.039 78.7053V78.7196ZM146.023 80.8856C146.051 77.8876 146.925 75.3918 148.572 73.1398C148.787 72.8529 149.131 72.609 149.461 72.4656C151.853 71.4472 154.288 71.1746 156.795 72.0927C156.766 72.3078 156.78 72.4369 156.723 72.4943C156.522 72.6808 156.322 72.8816 156.093 73.0107C153.629 74.4594 151.394 76.1377 150.134 78.8344C149.833 79.4798 149.303 79.8241 148.644 80.0393C147.842 80.2974 147.04 80.5556 146.008 80.8856H146.023ZM118.305 81.5884C121.729 79.5802 126.857 78.777 131.44 79.3077C131.44 79.5802 131.541 79.8815 131.455 80.111C131.097 81.072 130.696 82.0044 130.252 83.0802C126.183 82.9654 122.244 82.3056 118.305 81.5884Z" fill="url(#paint0_linear_78_15913)"/>
<defs>
<linearGradient id="paint0_linear_78_15913" x1="-14.2249" y1="57.088" x2="524.372" y2="279.038" gradientUnits="userSpaceOnUse">
<stop stop-color="#C2A363"/>
<stop offset="0.01" stop-color="#CAB078"/>
<stop offset="0.03" stop-color="#DBC89E"/>
<stop offset="0.05" stop-color="#E7D9BA"/>
<stop offset="0.07" stop-color="#EEE4CB"/>
<stop offset="0.08" stop-color="#F1E8D1"/>
<stop offset="0.18" stop-color="#C2A363"/>
<stop offset="0.29" stop-color="#A18347"/>
<stop offset="0.4" stop-color="#C2A363"/>
<stop offset="0.49" stop-color="#F1E8D1"/>
<stop offset="0.59" stop-color="#C2A363"/>
<stop offset="0.69" stop-color="#A18347"/>
<stop offset="0.8" stop-color="#C2A363"/>
<stop offset="0.92" stop-color="#F1E8D1"/>
<stop offset="1" stop-color="#C2A363"/>
</linearGradient>
</defs>
</svg>
