<svg width="190" height="166" viewBox="0 0 190 166" fill="none" xmlns="http://www.w3.org/2000/svg">
<path d="M97.0729 165.64C95.9372 165.282 94.797 164.93 93.665 164.557C91.5391 163.851 89.5839 162.814 87.743 161.543C85.1817 159.769 82.9397 157.65 80.8552 155.361C79.0316 153.354 77.2304 151.322 75.4253 149.304C73.2592 146.88 70.7047 144.995 67.7344 143.67C66.1497 142.966 64.5562 142.272 62.976 141.562C61.6853 140.988 60.3908 140.428 59.1308 139.808C56.1918 138.374 53.7569 136.331 52.0063 133.556C50.884 131.772 49.8444 129.925 48.8195 128.081C48.0815 126.759 47.455 125.371 46.726 124.039C45.1014 121.057 42.8154 118.719 39.8164 117.115C38.7181 116.528 37.5935 115.981 36.4824 115.418C35.6467 114.997 34.7792 114.746 33.832 114.743C33.0201 114.74 32.2113 114.64 31.3961 114.589C25.8694 114.244 20.4727 114.88 15.1721 116.495C10.4298 117.937 5.91402 119.866 1.59023 122.271C1.3109 122.425 1.00718 122.576 0.696894 122.631C0.525082 122.662 0.247216 122.555 0.131535 122.418C-0.0580596 122.189 -0.0118094 121.877 0.232208 121.701C0.705487 121.345 1.19865 120.997 1.70988 120.702C5.85474 118.295 10.2405 116.443 14.8413 115.121C17.5943 114.331 20.0352 113.006 22.229 111.176C24.1347 109.583 25.3566 107.601 25.8724 105.185C26.1694 103.807 26.4568 102.43 26.6999 101.041C27.1258 98.5825 27.7531 96.1727 28.5081 93.7929C29.573 90.4356 31.3203 87.4474 33.6737 84.8434C36.0449 82.2188 38.9158 80.3285 42.3746 79.4033C43.9495 78.9777 45.489 78.4579 46.9119 77.6465C47.1399 77.5199 47.3847 77.4261 47.7551 77.2609C47.7687 77.6706 47.834 77.9899 47.7813 78.2785C47.557 79.4483 47.2692 80.608 47.0642 81.7766C46.8941 82.7495 46.5943 83.6636 46.1868 84.556C44.871 87.4956 43.1867 90.204 41.0369 92.6059C39.9508 93.8196 38.8127 94.9789 37.7112 96.1792C36.5066 97.4976 35.2873 98.8122 34.1187 100.162C32.5207 102.014 31.2072 104.07 29.9849 106.186C28.5509 108.67 26.6217 110.695 24.264 112.318C24.084 112.442 23.9034 112.555 23.7285 112.683C23.5633 112.81 23.3545 112.936 23.5802 113.268C24.7741 113.207 26.011 113.065 27.2455 113.102C29.6031 113.169 31.8829 112.807 34.1494 112.18C37.8292 111.167 41.1212 109.5 43.7968 106.734C44.7397 105.757 45.6832 104.789 46.673 103.862C48.2531 102.383 49.8003 100.848 51.5019 99.5205C52.4465 98.7801 52.7919 97.9693 52.7226 96.8869C52.6573 95.8623 52.5388 94.8364 52.4106 93.8112C51.8789 89.504 51.2998 85.2096 50.811 80.8946C50.6454 79.3937 50.6228 77.8637 50.6643 76.3536C50.7934 71.1126 52.5699 66.504 56.1253 62.6156C57.55 61.0552 58.9644 59.4858 60.3782 57.9068C62.0749 56.014 63.1797 53.8037 63.8531 51.3618C64.3495 49.5793 64.6117 47.7643 64.829 45.9282C65.2037 42.7915 65.8491 39.7283 67.208 36.8534C69.6944 31.6073 73.4521 27.4974 78.4026 24.5097C80.393 23.3071 82.4869 22.2763 84.548 21.1897C86.1805 20.3351 87.8625 19.569 89.468 18.6727C92.2273 17.1282 94.7687 15.294 96.6327 12.67C96.6724 12.6141 96.8231 12.6281 97.0379 12.5894C97.1125 13.1158 97.211 13.6357 97.2568 14.1641C97.435 16.2729 97.4003 18.3768 97.3182 20.4936C97.1938 23.6858 97.2874 26.8874 97.3759 30.0845C97.4819 34.1018 96.9309 37.9799 95.1508 41.6176C94.3413 43.2716 93.4971 44.9135 92.6522 46.5457C92.0291 47.7474 91.3508 48.919 90.738 50.1297C89.3034 52.9566 88.3731 55.9521 88.0043 59.1029C87.8091 60.7684 87.7018 62.4473 87.5605 64.1236C87.3289 66.8786 87.1697 69.6335 86.87 72.3835C86.2631 77.9853 83.7133 82.5884 79.4186 86.1936C78.0573 87.339 76.5874 88.3807 75.0988 89.3608C73.2399 90.5786 71.2228 91.5318 69.1812 92.4093C65.4505 94.0196 61.7146 95.6254 58.0006 97.2685C54.7409 98.702 51.8747 100.732 49.3448 103.227C48.0683 104.483 46.7918 105.739 45.5462 107.021C42.978 109.664 40.0961 111.816 36.5293 112.927C36.3639 112.982 36.2366 113.169 35.9722 113.4C36.359 113.475 36.556 113.529 36.76 113.544C39.7917 113.721 42.8184 113.965 45.8519 114.025C48.4018 114.079 50.9369 113.777 53.4091 113.049C57.3016 111.896 60.8093 109.992 64.0878 107.635C66.8278 105.666 69.3004 103.392 71.6682 101C74.4567 98.1875 77.3498 95.4937 80.394 92.9588C85.8836 88.3885 91.8234 84.5366 98.5062 81.9388C101.231 80.8797 103.99 79.8956 106.744 78.907C112.015 77.0039 116.778 74.3043 120.707 70.2359C121.533 69.3828 122.446 68.6059 123.339 67.811C125.635 65.781 128.111 64.0527 131.095 63.1838C131.711 63.0068 132.15 62.6389 132.411 62.0705C132.721 61.3827 133.065 60.6975 133.292 59.9816C133.71 58.6827 133.821 57.3321 133.833 55.9689C133.85 53.7405 133.607 51.5298 133.244 49.332C132.796 46.5989 132.467 43.8529 132.413 41.0834C132.338 37.3009 133.17 33.7854 135.23 30.5731C138.304 25.7945 142.598 22.5323 147.824 20.4632C149.833 19.6652 151.914 19.0217 154.006 18.4501C158.217 17.2951 161.937 15.3135 165.17 12.3552C166.847 10.8163 168.629 9.39597 170.364 7.92566C174.205 4.67491 178.493 2.16688 183.169 0.323379C183.39 0.235931 183.648 0.0445566 183.939 0.416158C183.309 1.80191 182.673 3.2364 182.006 4.65362C179.749 9.43007 177.981 14.3714 177.022 19.5671C176.313 23.398 175.747 27.2627 175.126 31.1069C174.545 34.6876 173.915 38.2619 172.894 41.7564C171.414 46.8232 168.555 50.9206 164.403 54.1537C160.454 57.2282 155.983 59.2414 151.203 60.6329C147.494 61.7104 143.695 62.3205 139.888 62.8972C137.851 63.2092 135.821 63.5448 133.799 63.933C130.876 64.4934 128.19 65.632 125.901 67.5505C124.078 69.0799 122.34 70.7195 120.57 72.3226C120.434 72.4478 120.366 72.6601 120.151 73.0418C124.22 71.9351 128.086 72.2965 131.895 73.024C135.124 70.7954 138.572 69.2912 142.297 68.3721C145.143 67.672 147.973 67.5092 150.793 68.468C151.97 68.8714 153.157 69.2644 154.301 69.7473C156.251 70.5718 158.22 71.3128 160.276 71.8499C162.972 72.5561 165.449 73.7942 167.801 75.2678C167.953 75.3638 168.057 75.5452 168.261 75.7778C167.942 75.9057 167.755 76.0053 167.56 76.0523C166.354 76.3563 165.142 76.6558 163.93 76.9456C160.299 77.8293 156.671 78.7515 153.027 79.5782C149.778 80.3153 146.563 80.1514 143.443 78.8941C142.787 78.6294 142.127 78.3794 141.481 78.114C139.622 77.3606 137.755 76.6175 135.914 75.834C133.495 74.8094 130.979 74.1875 128.376 73.9146C123.724 73.4375 119.32 74.1707 115.198 76.4887C113.314 77.5488 111.366 78.5263 109.369 79.3524C106.621 80.4904 103.798 81.4643 100.993 82.4805C95.1942 84.5836 89.8382 87.507 84.9075 91.2085C84.5399 91.4846 84.101 91.7076 83.6995 92.4063C86.4942 92.0141 89.0579 91.8452 91.6331 92.0572C94.2615 92.2705 96.672 93.2521 99.0689 94.1768C100.47 93.1929 101.792 92.2482 103.125 91.3221C107.784 88.098 112.689 85.3598 118.118 83.6488C121.022 82.737 123.974 82.0298 127.051 82.0822C129.445 82.1181 131.817 82.4066 134.115 83.0819C136.087 83.6633 138.057 84.2787 139.994 84.9736C142.416 85.8386 144.888 86.3765 147.445 86.5366C148.362 86.5952 149.287 86.6243 150.207 86.6586C151.84 86.7267 153.455 86.8878 155.017 87.4004C160.019 89.0423 164.371 91.709 167.806 95.7277C169.25 97.4126 170.604 99.1906 171.86 101.019C174.446 104.776 177.808 107.592 181.822 109.692C183.891 110.774 185.925 111.907 187.969 113.029C188.34 113.236 188.686 113.483 189.079 113.727C188.959 113.803 188.91 113.859 188.865 113.848C188.33 113.788 187.79 113.732 187.262 113.643C182.859 112.922 178.436 112.598 173.976 112.948C171.429 113.15 168.905 113.471 166.432 114.117C164.178 114.709 161.924 115.311 159.662 115.86C157.813 116.309 155.933 116.514 154.017 116.407C151.491 116.274 149.102 115.61 146.773 114.681C145.616 114.223 144.466 113.726 143.313 113.263C140.71 112.222 137.999 111.719 135.203 111.875C133.147 111.99 131.094 112.206 129.046 112.427C125.55 112.804 122.229 112.213 119.097 110.647C117.742 109.971 116.397 109.24 115.163 108.363C113.441 107.141 111.794 105.803 110.174 104.444C108.513 103.05 106.933 101.562 105.303 100.122C103.796 98.7892 102.165 97.6194 100.446 96.5812C94.4943 92.9891 88.1947 92.5752 81.6338 94.4836C80.6769 94.761 79.8375 95.2044 79.1115 95.8913C76.9886 97.9097 74.8079 99.8594 72.7312 101.918C69.4869 105.128 66.105 108.165 62.2019 110.574C62.0444 110.672 61.9466 110.867 61.8122 111.021C61.9438 111.108 61.9856 111.154 62.0241 111.151C65.3748 111.118 68.4692 111.927 71.1619 113.996C71.5902 114.325 72.0514 114.356 72.5471 114.328C74.1155 114.231 75.684 114.134 77.2531 114.047C80.2418 113.879 83.2176 113.943 86.1514 114.594C90.2137 115.498 93.4049 117.649 95.4918 121.315C95.6289 121.552 95.7704 121.784 95.9022 122.016C96.7239 123.502 97.7235 124.835 99.0036 125.961C99.1423 126.082 99.219 126.285 99.3541 126.493C99.0912 126.535 98.9317 126.604 98.7803 126.58C95.5538 126.171 92.2964 126.014 89.106 125.356C88.0962 125.144 87.0947 124.913 86.0926 124.671C81.5682 123.582 77.5954 121.445 74.1761 118.29C72.5772 116.814 70.9297 115.403 69.043 114.309C66.1952 112.656 63.1572 112.176 59.9522 112.997C59.0073 113.24 58.0941 113.592 57.1673 113.886C56.3918 114.132 55.6344 114.502 54.8439 114.599C52.1555 114.922 49.4562 115.225 46.7566 115.384C45.0336 115.481 43.2922 115.31 41.5542 115.258C40.9347 115.242 40.934 115.233 40.285 115.562C40.3075 115.608 40.3166 115.671 40.3519 115.692C40.6158 115.877 40.8848 116.067 41.1622 116.237C42.9501 117.299 44.5736 118.571 45.8419 120.229C46.3831 120.936 46.9825 121.152 47.8062 120.975C48.1729 120.897 48.5576 120.871 48.9372 120.841C51.8599 120.623 54.7741 120.353 57.6969 120.208C61.9053 120.001 66.0159 120.621 70.062 121.781C73.5268 122.779 76.3577 124.679 78.4703 127.589C79.612 129.164 80.686 130.806 81.6843 132.473C83.026 134.711 84.4683 136.864 86.1745 138.85C86.6315 139.385 87.075 139.934 87.4999 140.495C89.2252 142.76 90.5539 145.23 91.2938 147.992C91.5914 149.093 91.8269 150.202 92.1245 151.303C92.7547 153.661 93.3419 156.028 94.0617 158.356C94.752 160.604 96.0131 162.581 97.4075 164.458C97.6897 164.84 97.9668 165.217 98.3345 165.719C97.8081 165.793 97.4463 165.731 97.0908 165.62L97.0729 165.64ZM29.91 103.046C29.9459 103.078 29.9819 103.109 30.0179 103.14C30.0485 103.022 30.079 102.904 30.1044 102.782C30.301 102.619 30.5483 102.491 30.689 102.288C32.6208 99.5243 34.8454 97.0159 37.2081 94.619C38.1158 93.6927 38.9869 92.7254 39.8631 91.7626C40.0647 91.5316 40.2149 91.2557 40.4515 90.9015C40.165 90.9499 39.995 90.9372 39.8643 91.004C38.5405 91.6397 37.1568 92.1054 35.7054 92.3584C35.1944 92.4461 34.819 92.6793 34.5357 93.1285C32.7203 96.0391 31.2592 99.1141 30.103 102.338C30.0545 102.476 30.1292 102.65 30.1449 102.808C30.0732 102.89 29.9868 102.969 29.91 103.046ZM95.0744 35.1393C93.8014 37.646 91.9704 39.6929 89.8162 41.467C88.0604 42.9194 86.1168 44.0994 84.1951 45.3166C82.2734 46.5339 80.3299 47.7139 78.4937 49.051C77.0577 50.0952 75.746 51.329 74.4219 52.5251C73.9033 52.995 73.4836 53.5694 73.0376 54.1117C72.5161 54.751 72.2423 55.4797 72.1361 56.3275C71.7802 59.1731 71.3608 62.0085 70.9221 64.8451C70.7186 66.1778 70.4369 67.4965 70.1657 68.9691C70.4901 68.9085 70.7614 68.9191 70.9568 68.8092C72.4528 68.0073 73.7315 66.9255 74.8322 65.6431C76.1339 64.12 77.4458 62.6059 78.6755 61.0201C81.1426 57.8189 83.9438 54.9816 87.36 52.7983C87.98 52.3988 88.3593 51.8707 88.6769 51.2163C89.595 49.3134 90.5536 47.4367 91.5571 45.5812C92.689 43.485 93.7761 41.3678 94.6231 39.1315C95.3341 37.2378 95.5936 36.0897 95.4689 34.4797C95.3346 34.7062 95.1849 34.9193 95.0654 35.1496L95.0744 35.1393ZM84.2701 66.6607C83.5299 67.9863 82.8095 69.3202 82.0892 70.6541C80.8198 73.0012 79.2454 75.1273 77.4739 77.1266C74.3654 80.6273 70.4887 82.7162 65.9139 83.5721C65.4895 83.654 65.0606 83.741 64.6414 83.8274C64.5888 83.8358 64.5427 83.8679 64.3883 83.9412C61.6988 88.6213 57.9287 92.6209 54.6069 96.9573C54.7598 97.0726 54.8638 97.1815 54.892 97.1699C59.4398 94.8616 64.2001 93.0463 68.8522 90.9918C70.9393 90.0726 72.9607 89.0419 74.8818 87.815C76.8534 86.5509 78.6464 85.0767 80.2703 83.3917C82.8186 80.7407 84.4361 77.6212 85.1356 74.0084C85.5886 71.6635 85.8031 69.2913 85.9347 66.9103C85.979 66.2164 85.9989 65.5194 86.0465 64.5209C85.0641 65.2735 84.6524 65.9633 84.256 66.6665L84.2701 66.6607ZM68.9724 73.3449C68.6409 74.4302 68.285 75.5124 67.8842 76.5734C67.4834 77.6345 67.0184 78.6757 66.5829 79.7246C66.1513 80.7587 65.5251 81.7046 65.1653 82.729C65.5238 83.0961 65.8512 82.9386 66.1416 82.8755C70.4104 81.9968 74.043 80.0114 76.9589 76.7316C78.6952 74.7829 80.244 72.7068 81.4827 70.4054C82.1775 69.1215 82.8922 67.8459 83.6017 66.5659C84.1259 65.6125 84.7412 64.7205 85.5768 64.0116C85.9789 63.6752 86.1899 63.2986 86.2114 62.7657C86.2369 62.0103 86.3594 61.2579 86.4189 60.5051C86.5775 58.4459 86.9368 56.4263 87.4867 54.4372C87.5523 54.196 87.5884 53.9472 87.6901 53.4572C87.2058 53.7219 86.9334 53.837 86.6939 54.0078C84.3241 55.666 82.2556 57.6324 80.4383 59.8812C79.2495 61.358 78.0709 62.8438 76.8512 64.2936C74.0329 67.6587 73.5155 68.0754 69.8889 70.1474C69.6015 71.1717 69.3091 72.264 68.9776 73.3494L68.9724 73.3449ZM152.869 43.9007C153.068 43.694 153.162 43.3059 153.151 43.0071C153.113 40.8936 153.816 38.9666 154.599 37.0632C154.952 36.2132 155.324 35.3715 155.687 34.5304C156.735 32.1259 156.684 29.6944 155.879 27.2464C155.628 26.4759 155.354 25.7119 155.055 24.9542C154.517 23.5896 154.032 22.2166 153.854 20.7503C153.831 20.549 153.721 20.3632 153.619 20.0657C153.059 20.2196 152.541 20.3465 152.041 20.5157C150.605 20.9994 149.186 21.5063 147.75 21.9901C147.212 22.1715 146.818 22.488 146.539 22.9949C145.369 25.1129 144.653 27.3548 144.602 29.7883C144.578 31.0606 144.979 32.2509 145.416 33.4098C145.947 34.8231 146.587 36.1953 147.223 37.5727C148.181 39.6383 149.129 41.7046 149.52 43.9633C149.648 44.6986 149.699 45.4488 149.827 46.5369C151.128 45.6371 152.011 44.7801 152.869 43.9007ZM117.372 93.3522C119.946 94.9557 121.947 97.1536 123.753 99.5434C124.8 100.927 125.791 102.352 126.819 103.747C127.98 105.32 129.238 106.824 130.856 107.947C131.83 108.625 132.875 109.211 133.923 109.763C134.844 110.242 135.848 110.44 136.899 110.47C137.814 110.5 138.724 110.66 139.644 110.757C139.95 110.79 140.255 110.803 140.659 110.838C140.524 110.567 140.484 110.396 140.379 110.287C138.608 108.47 137.517 106.235 136.477 103.962C135.779 102.439 135.071 100.917 134.279 99.439C133.692 98.3483 132.992 97.3038 132.271 96.2947C131.769 95.5943 131.156 94.9692 130.562 94.3427C129.864 93.6073 129.014 93.1914 127.982 93.1406C126.033 93.0504 124.09 92.8922 122.144 92.8404C120.527 92.7954 118.913 92.8516 117.102 92.8632C117.282 93.1747 117.31 93.2984 117.386 93.3464L117.372 93.3522ZM148.606 50.0836C150.973 49.4353 153.395 49.2518 155.83 49.1787C157.291 49.1328 158.752 49.0966 160.21 49.0123C163.921 48.7948 167.13 47.3985 169.852 44.8903C170.125 44.6399 170.365 44.3337 170.535 44.0033C171.224 42.6957 172.214 39.1018 172.367 37.3812C172.083 37.3232 171.792 37.2318 171.49 37.2039C170.235 37.086 169.003 37.2226 167.799 37.5555C166.656 37.8696 165.502 38.1652 164.361 38.4986C162.945 38.9182 161.514 39.1263 160.036 38.9849C159.36 38.9196 158.814 39.0676 158.311 39.6235C155.144 43.1185 151.654 46.2681 148.05 49.3C147.803 49.5099 147.588 49.7564 147.373 49.9932C147.355 50.0137 147.394 50.0932 147.418 50.2317C147.807 50.1909 148.222 50.1917 148.606 50.0836ZM177.299 4.70682C175.155 5.98265 173.139 7.45261 171.219 9.05137C168.971 10.9237 166.763 12.8414 164.515 14.7233C163.857 15.2704 163.515 15.9844 163.214 16.744C162.407 18.7891 162.138 20.9234 162.07 23.1069C162.027 24.4625 161.951 25.8157 161.85 27.1656C161.698 29.1856 161.209 31.1368 160.209 32.9051C159.412 34.3167 158.489 35.6547 157.627 37.0368C156.969 38.0911 156.312 39.1453 155.68 40.222C155.533 40.4735 155.487 40.7859 155.284 41.4229C155.765 41.0376 155.979 40.9072 156.15 40.7313C161.116 35.7859 165.175 30.211 167.95 23.7424C168.757 21.8518 169.624 19.9766 170.347 18.0482C172.355 12.7283 175.543 8.20281 179.551 4.21126C179.777 3.98338 179.982 3.73755 180.193 3.50583C180.125 3.42831 180.057 3.3508 179.984 3.26881C179.084 3.75007 178.168 4.19864 177.29 4.71707L177.299 4.70682ZM175.712 107.328C174.262 106.117 172.982 104.711 171.496 103.261C171.194 103.296 170.718 103.333 170.245 103.408C168.663 103.656 167.1 103.549 165.59 103.018C163.956 102.443 162.363 101.759 160.737 101.154C159.418 100.663 158.105 100.115 156.75 99.7911C153.872 99.1068 151.04 99.2503 148.387 100.715C147.879 100.996 147.306 101.228 147.028 101.827C147.144 101.973 147.227 102.118 147.34 102.216C151.456 105.527 156.04 107.7 161.388 107.98C163.604 108.095 165.826 108.153 168.043 108.297C171.683 108.533 175.228 109.293 178.709 110.376C179.257 110.547 179.786 110.801 180.506 110.796C178.829 109.595 177.183 108.557 175.707 107.324L175.712 107.328ZM146.154 45.3943C145.597 44.6011 144.934 43.8779 144.281 43.154C143.203 41.9419 142.069 40.7722 141.009 39.5396C140.374 38.8048 139.784 38.0187 139.259 37.1991C138.22 35.5785 137.596 33.8043 137.445 31.8724C137.411 31.4448 137.348 31.019 137.299 30.5875C136.948 30.4712 136.816 30.7362 136.667 30.9492C135.032 33.321 134.085 35.9408 133.886 38.8144C133.789 40.2221 133.962 41.6114 134.422 42.9716C135.621 46.5138 137.801 49.3566 140.559 51.8076C140.924 52.1259 141.334 52.4025 141.739 52.665C141.961 52.8045 142.223 52.8882 142.506 53.0091C143.458 52.447 144.138 51.5844 144.956 50.8961C145.742 50.2342 146.501 49.5402 147.335 48.8025C147.409 47.4206 146.835 46.3676 146.154 45.3943ZM74.5637 46.834C76.6627 44.7496 79.1636 43.2419 81.734 41.831C85.4825 39.775 88.7786 37.1795 91.3741 33.7377C93.186 31.3395 94.6872 28.7787 95.4675 25.8512C95.6331 25.2361 95.6993 24.5794 95.7372 23.9343C95.8208 22.2618 95.8607 20.5875 95.9228 18.7426C95.6988 18.9994 95.5387 19.131 95.4582 19.2959C93.9766 22.353 91.8907 24.9824 89.555 27.421C87.7198 29.3377 85.7863 31.1596 83.9152 33.045C82.464 34.5009 80.9775 35.935 79.5989 37.4633C77.4081 39.9017 75.7285 42.6775 74.547 45.7433C74.4155 46.0807 74.3141 46.4354 74.1553 46.9389C74.4688 46.8597 74.5368 46.8648 74.5681 46.8288L74.5637 46.834ZM54.8423 66.6689C53.2859 69.1997 52.3841 71.9759 52.1656 74.9233C52.0297 76.749 51.9786 78.6125 52.1511 80.427C52.6212 85.3858 53.1918 90.333 54.0972 95.2285C54.1212 95.3669 54.2169 95.4957 54.3026 95.688C54.4743 95.5846 54.6255 95.5357 54.7196 95.4278C57.5643 92.1673 60.6066 88.2653 61.6373 86.5239C61.4688 86.2502 61.2688 85.9401 61.0688 85.6299C58.4018 81.4674 56.6776 76.9607 56.0467 72.0514C55.8106 70.2267 55.5553 68.4033 55.6655 66.5552C55.6767 66.366 55.6109 66.182 55.5467 65.7371C55.205 66.1805 54.9983 66.4071 54.8423 66.6689ZM145.09 96.9528C145.793 96.2095 146.423 95.3938 147.069 94.5915C147.684 93.8348 148.253 93.0474 148.873 92.2952C150.159 90.7491 151.785 89.7258 153.736 89.2312C153.841 89.2048 153.951 89.1925 154.055 89.1565C154.154 89.1256 154.247 89.071 154.472 88.9688C154.234 88.8062 154.066 88.6146 153.869 88.5604C152.451 88.1733 150.987 88.0986 149.525 88.0527C146.973 87.9696 144.45 87.7492 141.972 87.1151C140.447 86.7256 138.945 87.0062 137.532 87.6092C136.593 88.011 135.713 88.5634 134.835 89.0818C133.205 90.0474 131.592 91.036 129.983 92.0195C129.853 92.0959 129.776 92.246 129.605 92.4315C131.215 92.8684 132.767 93.2463 134.296 93.7031C135.86 94.1721 137.338 94.8643 138.724 95.7125C140.101 96.5613 141.435 97.4806 142.811 98.3826C143.77 98.2065 144.478 97.603 145.104 96.9374L145.09 96.9528ZM66.0032 55.8783C65.7647 55.2181 65.5923 54.5341 65.3628 53.8636C65.2835 53.6226 65.1337 53.4105 64.9779 53.1118C64.1962 54.5369 63.5554 55.904 62.7227 57.1489C61.9162 58.3534 60.9177 59.4356 60.027 60.5395C60.1727 65.9116 63.2488 72.9452 66.8458 76.1558C67.3652 76.1206 67.3522 75.6481 67.4657 75.3312C68.6124 72.1084 69.3753 68.7859 70.0054 65.429C70.203 64.3624 70.3665 63.2933 70.5204 62.2248C70.5723 61.8542 70.5659 61.4777 70.588 60.9545C67.9982 60.1057 66.8205 58.1467 66.0077 55.8731L66.0032 55.8783ZM55.1981 127.18C56.5291 128.766 57.559 130.542 58.4922 132.387C59.0836 133.545 59.7122 134.681 60.369 135.806C61.4157 137.615 62.7998 139.13 64.4969 140.348C65.1069 140.79 65.7752 141.165 66.446 141.506C67.412 141.996 68.4164 142.411 69.3869 142.896C70.9974 143.695 72.5074 144.651 73.8774 145.819C74.1138 146.025 74.377 146.201 74.7238 146.467C74.7521 146.175 74.8185 146.016 74.7722 145.903C73.856 143.531 72.9962 141.135 71.9813 138.802C70.732 135.94 68.8812 133.466 66.7135 131.231C65.5647 130.048 64.2581 129.17 62.6053 128.741C60.0922 128.095 57.6218 127.296 54.8313 126.48C55.0584 126.904 55.1126 127.06 55.2122 127.174L55.1981 127.18ZM75.2848 28.5086C72.6603 30.8218 70.4751 33.4821 68.8973 36.6182C68.6807 37.0532 68.4384 37.4657 68.644 37.9977C69.7619 40.9174 69.5538 43.9462 69.336 46.9756C69.1985 48.9174 69.0801 50.8579 69.049 52.8022C69.0158 54.7176 69.504 56.5542 70.2761 58.3039C70.3842 58.543 70.5674 58.748 70.8259 59.1363C70.9505 58.5578 71.0575 58.1447 71.1261 57.7342C71.4895 55.4921 71.7945 53.2442 72.2022 51.0136C72.8748 47.3591 74.1525 43.9341 76.1245 40.7713C76.2684 40.5442 76.3725 40.3004 76.501 40.0598C76.3541 39.6784 76.238 39.3239 76.0841 38.9817C75.5729 37.8665 75.449 36.6913 75.5744 35.4894C75.7012 34.3069 75.9107 33.1332 76.067 31.9583C76.1594 31.2611 76.2325 30.5653 76.2665 29.8625C76.2925 29.3245 76.2409 28.782 75.7871 28.2233C75.5776 28.339 75.4174 28.3982 75.2989 28.5028L75.2848 28.5086ZM132.449 109.762C130.508 108.719 128.848 107.334 127.479 105.625C126.396 104.273 125.377 102.868 124.358 101.464C123.051 99.6634 121.694 97.9002 120.094 96.3419C119.002 95.2805 117.816 94.3366 116.458 93.6218C115.581 93.1643 114.675 92.9069 113.65 92.9715C111.605 93.0955 109.581 93.31 107.427 93.6733C107.635 93.8911 107.718 94.0545 107.837 94.0852C111.335 95.0125 114.027 97.1442 116.332 99.824C117.282 100.934 118.1 102.154 119.005 103.305C119.974 104.539 120.93 105.798 121.98 106.959C123.612 108.771 125.62 110.017 127.985 110.678C128.837 110.915 129.671 111.027 130.549 110.881C131.405 110.741 132.27 110.672 133.128 110.571C133.154 110.468 133.181 110.364 133.212 110.256C132.95 110.09 132.705 109.904 132.439 109.762L132.449 109.762ZM66.6865 77.0749C64.5878 75.072 63.0974 72.569 61.7921 69.9471C60.4811 67.3111 59.7289 64.5116 59.422 61.4404C59.1241 61.6056 58.9106 61.6635 58.7845 61.7977C58.1182 62.5095 57.4724 63.2393 56.8209 63.955C56.4388 64.3722 56.2691 64.8572 56.2598 65.4279C56.1458 71.8756 57.4105 77.9981 60.6291 83.6548C60.9205 84.1713 61.2357 84.6814 61.5502 85.1818C61.6641 85.3625 61.824 85.5111 62.0399 85.7719C63.491 84.2435 65.983 79.572 66.6865 77.0749ZM178.746 6.21279C175.561 9.72829 172.957 13.6055 171.228 18.0658C170.136 20.884 168.861 23.642 167.589 26.3854C166.5 28.7444 165.185 30.9882 163.683 33.1142C163.471 33.4088 163.3 33.7392 163.127 34.0312C163.389 34.4047 163.663 34.2364 163.892 34.1919C166.092 33.7336 167.883 32.5736 169.395 30.9541C169.985 30.3199 170.523 29.6409 171.076 28.9754C171.808 28.0948 172.582 27.2597 173.598 26.7174C174.19 26.4019 174.417 25.9663 174.527 25.3211C174.939 22.8679 175.38 20.4224 175.89 17.9915C176.682 14.1696 177.917 10.4817 179.444 6.88532C179.648 6.40289 179.831 5.90253 180.02 5.41627C179.938 5.34454 179.855 5.27282 179.764 5.20175C179.424 5.53876 179.07 5.86231 178.751 6.21726L178.746 6.21279ZM166.226 96.0764C163.872 93.4531 160.988 91.5517 157.84 90.0354C156.451 89.3661 154.978 89.5191 153.548 89.9445C152.123 90.3648 150.854 91.0933 149.852 92.1999C149.232 92.8796 148.643 93.5863 148.089 94.3243C146.686 96.1683 145.194 97.7397 143.614 99.0384C143.953 99.5324 144.384 99.909 144.991 100.167C145.294 99.9247 145.593 99.7063 145.871 99.4604C148.34 97.2833 151.248 96.4921 154.461 96.8445C156.179 97.0324 157.884 97.3711 159.582 97.6956C161.359 98.0342 163.124 98.1996 164.896 97.7559C165.519 97.6026 166.12 97.3589 166.942 97.081C166.594 96.5876 166.435 96.3134 166.226 96.0764ZM131.484 94.3237C133.708 96.7529 135.233 99.6207 136.591 102.587C137.176 103.866 137.743 105.156 138.389 106.407C139.214 108.013 140.297 109.428 141.631 110.647C142.193 111.164 142.811 111.577 143.54 111.851C145.008 112.409 146.449 113.05 147.912 113.613C149.376 114.176 150.862 114.64 152.736 114.837C152.355 114.496 152.198 114.323 152.015 114.19C151.31 113.692 150.572 113.23 149.875 112.712C147.701 111.096 146.03 109.059 144.895 106.595C144.333 105.362 143.817 104.107 143.226 102.896C142.659 101.731 142.062 100.569 141.392 99.4595C140.619 98.1881 139.536 97.189 138.266 96.4247C136.205 95.1875 133.978 94.3383 131.633 93.8208C131.549 93.8023 131.443 93.8723 131.301 93.9206C131.359 94.0616 131.376 94.2296 131.469 94.3295L131.484 94.3237ZM162.526 53.1939C159.554 54.3084 156.495 54.3707 153.395 53.972C151.888 53.7793 150.387 53.5815 148.869 53.4959C146.618 53.3682 144.435 53.7335 142.427 54.8213C141.962 55.0751 141.49 55.3873 141.13 55.7788C139.342 57.7455 137.512 59.6571 135.542 61.4476C135.433 61.5516 135.377 61.7101 135.234 61.9565C135.498 61.9966 135.691 62.0753 135.868 62.0392C139.869 61.3525 143.929 60.9518 147.89 60.012C152.658 58.8821 157.233 57.2484 161.367 54.543C161.94 54.166 162.58 53.8472 163.065 53.167C162.809 53.1698 162.652 53.1322 162.52 53.1798L162.526 53.1939ZM125.561 110.426C123.718 109.542 122.194 108.249 120.89 106.704C120.018 105.671 119.204 104.581 118.377 103.507C117.65 102.566 116.951 101.594 116.22 100.658C114.975 99.0656 113.465 97.7572 111.815 96.5887C109.754 95.1341 107.426 94.514 104.972 94.2358C104.816 94.2174 104.647 94.2143 104.484 94.235C104.164 94.2809 103.838 94.3319 103.525 94.4111C102.756 94.6082 101.992 94.8193 101.067 95.0704C101.328 95.3427 101.437 95.5285 101.598 95.6238C104.437 97.3592 106.858 99.6252 109.337 101.815C111.003 103.287 112.687 104.738 114.425 106.128C116.337 107.66 118.437 108.904 120.7 109.848C122.212 110.479 123.785 110.875 125.407 111.06C125.655 111.087 125.911 111.012 126.395 110.955C125.991 110.702 125.782 110.547 125.552 110.437L125.561 110.426ZM144.872 23.4219C142.66 24.7119 140.639 26.2402 138.878 28.1036C138.238 28.7846 137.965 29.5134 137.965 30.4361C137.978 33.3146 138.916 35.8599 140.673 38.0985C141.51 39.1627 142.433 40.1582 143.329 41.1748C143.649 41.5445 143.991 41.8885 144.334 42.2421C145.925 43.8832 147.46 45.5571 148.012 47.8918C148.814 47.7505 149.123 47.3334 149.134 46.6466C149.158 45.1666 148.952 43.7119 148.452 42.335C147.881 40.7602 147.215 39.2206 146.535 37.6869C145.792 36.0077 145.02 34.34 144.456 32.5811C143.812 30.5907 143.862 28.6355 144.398 26.6619C144.642 25.7805 145.004 24.9299 145.312 24.0587C145.397 23.8259 145.478 23.5885 145.624 23.1825C145.255 23.2945 145.044 23.3184 144.871 23.4122L144.872 23.4219ZM71.3828 123.784C69.3067 122.958 67.1453 122.438 64.9469 122.084C62.05 121.619 59.1312 121.469 56.1944 121.692C53.9784 121.857 51.7572 122.017 49.5463 122.186C49.186 122.215 48.8347 122.306 48.2712 122.403C48.5558 122.678 48.6734 122.844 48.839 122.934C51.0159 124.173 53.339 125.079 55.7113 125.855C56.7393 126.192 57.796 126.453 58.8156 126.809C60.2364 127.307 61.6794 127.354 63.1495 127.163C64.9787 126.923 66.8099 126.712 68.6404 126.492C71.1704 126.185 73.6142 126.454 75.9454 127.547C76.0352 127.59 76.1507 127.582 76.5901 127.649C75.0937 125.764 73.389 124.576 71.388 123.788L71.3828 123.784ZM154.659 19.7344C154.344 20.2823 154.392 20.7671 154.53 21.2408C154.856 22.3299 155.21 23.4074 155.56 24.4901C155.994 25.8279 156.5 27.1463 156.844 28.5048C157.367 30.5613 157.178 32.5935 156.375 34.5611C155.883 35.7684 155.306 36.938 154.873 38.1607C154.46 39.3288 154.161 40.5424 153.862 41.7463C153.793 42.0118 153.887 42.3292 154.112 42.6521C154.212 42.4134 154.356 42.1863 154.411 41.9362C154.841 40.105 155.733 38.5131 156.828 37.0088C157.525 36.0437 158.202 35.0606 158.843 34.0557C160.563 31.3786 161.258 28.4038 161.348 25.2623C161.373 24.2895 161.412 23.3109 161.456 22.3368C161.54 20.3842 161.859 18.4736 162.43 16.5217C159.899 17.93 157.286 18.9428 154.664 19.7292L154.659 19.7344ZM80.6456 140.447C82.7421 143.687 84.2267 147.234 85.7907 150.742C86.5563 152.468 87.4347 154.147 88.3272 155.821C89.7512 158.484 91.7655 160.666 94.0533 162.608C94.1972 162.733 94.3859 162.808 94.6979 162.989C94.6044 162.682 94.5887 162.523 94.5224 162.402C92.7868 159.423 91.8664 156.142 91.0024 152.838C90.4845 150.849 89.9807 148.854 89.3872 146.889C89.1246 146.018 88.6678 145.204 88.2963 144.364C87.6968 143.018 86.6537 142.108 85.375 141.426C83.8902 140.628 82.3226 140.102 80.4645 139.918C80.5689 140.245 80.5864 140.359 80.6456 140.447ZM95.2566 28.4164C93.0314 33.4564 89.6026 37.5005 85.0279 40.5449C83.6322 41.4705 82.178 42.3178 80.7122 43.137C78.5205 44.3629 76.5184 45.8174 74.7414 47.595C73.8689 48.4705 73.2382 49.4215 73.0872 50.6734C73.0153 51.316 72.8702 51.949 72.7739 52.5885C72.7606 52.6763 72.8499 52.7814 72.9253 52.9647C73.15 52.79 73.3723 52.6494 73.5484 52.4684C75.7495 50.1113 78.3261 48.2265 81.0299 46.507C82.5807 45.5178 84.1637 44.5748 85.7247 43.5945C87.6977 42.3497 89.5749 40.9761 91.2296 39.3179C92.8524 37.6862 94.0751 35.7868 95.0789 33.7234C95.9983 31.8398 96.0872 29.8916 95.7398 27.4995C95.449 28.0507 95.341 28.2367 95.2573 28.426L95.2566 28.4164ZM160.447 75.6067C158.527 75.3067 156.595 75.0318 154.678 74.6883C151.587 74.1344 148.51 73.5215 145.428 72.9574C143.398 72.5876 141.335 72.5245 139.281 72.5863C137.723 72.6291 136.201 72.9109 134.59 73.5757C134.865 73.789 135.006 73.9389 135.17 74.0099C137.875 75.1214 140.596 76.1932 143.292 77.3246C146.068 78.4893 148.912 78.8908 151.868 78.3137C153.198 78.0545 154.524 77.8003 155.842 77.5033C157.897 77.0355 159.944 76.5248 161.998 76.0378C162.008 75.9647 162.022 75.8961 162.032 75.8326C161.506 75.762 160.98 75.701 160.457 75.6156L160.447 75.6067ZM121.783 84.1155C121.522 84.1767 121.264 84.2956 121 84.3183C119.588 84.4334 118.577 85.1975 117.797 86.2987C117.018 87.3999 116.253 88.5146 115.545 89.669C115.153 90.3042 114.859 91.015 114.819 91.7762C115.039 92.1575 115.394 92.0513 115.693 92.0503C117.322 92.0511 118.942 92.009 120.567 92.0342C121.423 92.0486 122.185 91.8086 122.84 91.2956C123.899 90.4557 124.925 89.5697 125.942 88.6843C126.794 87.9357 127.578 87.0999 128.472 86.3968C129.315 85.7309 130.264 85.1932 131.17 84.6004C131.337 84.4925 131.503 84.3749 131.95 84.0596C128.327 83.2953 125.056 83.3624 121.789 84.12L121.783 84.1155ZM146.324 103.401C147.19 105.043 148.295 106.504 149.603 107.826C151.519 109.769 153.675 111.406 156.029 112.763C156.774 113.196 157.584 113.532 158.372 113.885C159.293 114.291 160.2 114.331 161.207 114.017C163.052 113.437 164.945 113.01 166.958 112.487C166.52 111.869 165.915 111.722 165.457 111.376C164.978 111.022 164.469 110.704 164.022 110.314C163.575 109.924 163.19 109.462 162.685 108.931C159.771 108.713 156.774 108.331 153.935 107.156C151.16 106.011 148.72 104.316 146.058 102.69C146.147 102.93 146.208 103.182 146.324 103.401ZM92.2748 162.105C89.5674 159.68 87.6656 156.673 86.1193 153.425C85.211 151.52 84.3874 149.581 83.5354 147.653C82.5696 145.472 81.5018 143.356 80.2188 141.341C79.2599 139.826 78.1499 138.433 76.9207 137.134C76.7068 136.902 76.4922 136.661 76.1632 136.301C76.1414 136.689 76.0967 136.813 76.1411 136.897C77.4589 139.702 78.1627 142.712 79.0363 145.663C79.3886 146.856 79.7788 148.038 80.1926 149.213C81.3483 152.473 83.2183 155.298 85.5104 157.867C85.6884 158.068 85.8761 158.268 86.0771 158.452C87.9906 160.149 90.1714 161.446 92.5519 162.483C92.4612 162.358 92.3885 162.213 92.2703 162.11L92.2748 162.105ZM79.1141 36.7328C80.9142 34.9392 82.7194 33.1501 84.4989 31.3386C86.4731 29.3352 88.473 27.3542 90.3752 25.288C92.0662 23.4535 93.5016 21.4141 94.6089 19.1698C95.0543 18.2652 95.4746 17.3478 95.7352 16.074C94.1885 17.1934 92.8918 18.2233 91.5075 19.1046C90.095 19.9974 88.5855 20.7423 87.0351 21.5961C86.9853 21.7155 86.8824 21.906 86.8333 22.1074C86.3542 23.8598 85.4791 25.4023 84.3786 26.8296C83.4202 28.0734 82.4258 29.2857 81.5129 30.5602C80.7946 31.5703 80.1077 32.6169 79.5306 33.714C79.1024 34.516 78.85 35.4173 78.5566 36.2826C78.4807 36.5148 78.5287 36.7918 78.5051 37.2234C78.8125 36.9851 78.9842 36.8817 79.1199 36.7469L79.1141 36.7328ZM168.501 46.75C165.805 48.8023 162.702 49.5585 159.377 49.6871C156.78 49.7906 154.178 49.8897 151.596 50.1419C149.095 50.3838 146.708 51.0866 144.577 52.4919C144.319 52.6641 144.092 52.8823 143.735 53.1674C144.01 53.2454 144.157 53.3369 144.271 53.3099C146.956 52.6497 149.641 52.777 152.34 53.1786C154.054 53.4346 155.78 53.593 157.519 53.5282C160.642 53.4133 163.492 52.4182 166.013 50.6386C167.432 49.6342 168.369 48.1359 169.029 46.4243C168.853 46.5329 168.666 46.6229 168.505 46.7449L168.501 46.75ZM81.1703 152.978C79.597 150.041 78.7172 146.858 77.8041 143.683C77.2387 141.707 76.7388 139.697 75.8197 137.846C75.3652 136.925 74.8269 136.049 74.261 135.193C73.6848 134.329 72.9403 133.616 72.03 133.093C70.7127 132.342 69.3909 131.596 68.0698 130.859C67.8991 130.764 67.6931 130.72 67.3569 130.608C67.4683 130.895 67.4795 131.058 67.5682 131.154C70.8201 134.615 72.9469 138.722 74.4838 143.174C74.9241 144.453 75.4208 145.71 75.9226 146.97C76.3072 147.93 76.8449 148.797 77.5639 149.56C78.4917 150.55 79.3645 151.583 80.2692 152.589C80.5468 152.904 80.8475 153.202 81.3056 153.684C81.2292 153.273 81.2417 153.103 81.1748 152.972L81.1703 152.978ZM62.111 139.162C60.5003 137.512 59.3976 135.519 58.332 133.504C57.6492 132.212 56.971 130.915 56.1998 129.673C55.6891 128.847 55.0625 128.093 54.4455 127.337C53.6119 126.312 52.6158 125.524 51.3337 125.075C50.3731 124.734 49.4686 124.225 48.5302 123.786C48.4875 123.939 48.4089 124.06 48.4378 124.131C49.7639 126.915 51.165 129.666 52.8082 132.284C55.0418 135.834 58.2281 138.125 62.2614 139.664C62.1634 139.361 62.1644 139.235 62.1021 139.172L62.111 139.162ZM64.1175 128.387C66.9512 129.34 69.6546 130.578 72.1675 132.209C72.5367 132.45 72.9172 132.574 73.3777 132.596C75.9598 132.697 78.4004 133.343 80.6492 134.645C80.7854 134.727 80.9515 134.755 81.169 134.827C81.1463 134.635 81.1735 134.469 81.1079 134.358C80.3373 133.052 79.5436 131.763 78.7685 130.463C78.3973 129.84 77.8829 129.382 77.2768 128.998C75.0136 127.557 72.5395 126.846 69.8714 127.041C67.8714 127.186 65.8916 127.485 63.9028 127.721C63.7688 127.74 63.6452 127.84 63.3408 127.981C63.692 128.17 63.8949 128.311 64.1227 128.392L64.1175 128.387ZM163.118 38.1383C164.377 37.8259 165.642 37.5277 166.882 37.1538C168.458 36.675 170.049 36.4802 171.691 36.6105C171.953 36.6314 172.226 36.5888 172.562 36.566C173.163 35.1001 173.258 33.5283 173.507 32.009C173.76 30.4845 174.139 28.9611 174.069 27.2459C173.723 27.4143 173.452 27.4762 173.284 27.6373C172.694 28.1894 172.12 28.7646 171.581 29.3615C171.038 29.9636 170.561 30.6239 170.018 31.226C168.181 33.2588 165.949 34.6033 163.195 34.9493C162.491 35.0405 161.999 35.3347 161.582 35.8847C161.126 36.4905 160.608 37.0426 160.137 37.6349C160.012 37.7883 159.949 37.9955 159.834 38.2303C161.002 38.4894 162.069 38.4075 163.123 38.1428L163.118 38.1383ZM142.089 71.826C143.441 71.8745 144.789 72.0199 146.124 72.2532C149.004 72.7585 151.877 73.303 154.74 73.9014C157.289 74.4341 159.864 74.7814 162.457 74.9729C162.821 75.0013 163.199 74.9419 163.854 74.9169C163.438 74.6262 163.255 74.4308 163.037 74.349C161.926 73.9314 160.817 73.4703 159.67 73.1567C157.78 72.647 155.961 71.9732 154.155 71.221C152.758 70.6441 151.326 70.118 149.876 69.6848C147.76 69.0503 145.623 69.0309 143.461 69.5686C141.566 70.0401 139.676 70.516 137.895 71.3227C137.656 71.4307 137.434 71.5713 136.87 71.8849C138.869 71.8558 140.491 71.77 142.104 71.8298L142.089 71.826ZM76.4699 33.4673C76.3372 34.2106 76.2436 34.961 76.1796 35.719C76.0633 37.0554 76.2585 37.8587 76.9868 39.1814C77.1449 39.0209 77.3397 38.9015 77.4195 38.727C77.5287 38.4877 77.5968 38.2125 77.6124 37.9457C77.7984 35.4402 78.8025 33.2416 80.2303 31.2317C81.3587 29.6479 82.568 28.1166 83.7522 26.5725C84.5769 25.4924 85.3567 24.3912 85.8443 23.1165C85.9343 22.8785 85.9743 22.6149 86.0716 22.2025C85.687 22.3011 85.4177 22.3193 85.2031 22.4305C82.2193 23.9419 79.1976 25.3931 76.4099 27.5821C77.0953 29.6179 76.8211 31.54 76.4744 33.4621L76.4699 33.4673ZM146.606 101.097C146.704 101.047 146.786 100.973 146.869 100.91C149.673 98.8888 152.792 98.4456 156.134 98.9921C157.639 99.238 159.065 99.7308 160.462 100.317C162.009 100.961 163.556 101.615 165.128 102.199C166.556 102.731 168.04 103.022 169.582 102.903C170.058 102.865 170.546 102.857 170.955 102.553C170.454 101.302 168.656 98.8298 167.344 97.5853C166.664 97.8149 165.964 98.1087 165.242 98.2929C163.485 98.7405 161.722 98.7392 159.935 98.4013C158.08 98.0487 156.215 97.6967 154.339 97.4711C152.434 97.2378 150.561 97.4759 148.792 98.3011C147.608 98.8596 146.578 99.6251 145.591 100.6C145.898 101.13 146.177 101.329 146.607 101.106L146.606 101.097ZM127.102 92.2194C127.572 92.2311 128.085 92.1094 128.511 91.9114C129.682 91.3683 130.84 90.7777 131.976 90.1596C132.637 89.796 133.238 89.3253 133.877 88.9245C134.702 88.4048 135.51 87.8525 136.374 87.4219C137.182 87.0145 138.062 86.7423 138.909 86.4143C138.972 86.1347 138.772 86.0323 138.569 85.9639C137.18 85.5121 135.792 85.0699 134.404 84.618C133.811 84.4263 133.222 84.4276 132.663 84.6731C131.875 85.0164 131.072 85.3462 130.339 85.792C129.611 86.2423 128.924 86.7913 128.287 87.3659C126.69 88.8027 125.119 90.2812 123.302 91.9696C124.744 92.07 125.926 92.188 127.107 92.2143L127.102 92.2194ZM134.183 44.7706C134.192 45.113 134.172 45.4573 134.214 45.7927C134.485 47.9918 134.771 50.1852 135.042 52.3843C135.368 55.0291 135.394 57.6651 134.708 60.2674C134.669 60.4053 134.738 60.5745 134.768 60.872C137.557 58.7747 139.585 56.0671 142.031 53.6259C138.603 51.3218 136.104 48.3459 134.183 44.7706ZM69.0485 56.817C68.3315 54.6722 68.3153 52.4606 68.4479 50.234C68.5967 47.7504 68.7558 45.2757 68.8706 42.7895C68.9404 41.2678 68.7373 40.3491 68.1315 38.6992C67.9365 39.0264 67.7497 39.2613 67.6565 39.5237C66.9005 41.6765 66.5319 43.9142 66.2076 46.1633C65.979 47.7635 65.7067 49.3617 65.4101 50.9568C65.3124 51.5045 65.3164 51.9874 65.5271 52.5238C65.9291 53.5257 66.1901 54.5854 66.5965 55.582C66.9624 56.48 67.3809 57.3696 67.8909 58.1853C68.4067 59.0152 69.0967 59.7076 70.3022 60.0269C69.8281 58.8174 69.3934 57.8323 69.0536 56.8215L69.0485 56.817ZM117.4 85.6445C114.498 85.9618 105.107 91.0525 102.773 93.52C102.791 93.5623 102.794 93.62 102.825 93.6469C102.861 93.6783 102.93 93.6929 102.977 93.6801C106.568 92.8426 110.225 92.416 114.05 92.1182C114.578 89.5944 115.917 87.6339 117.4 85.6445ZM157.15 114.031C154.029 112.556 151.337 110.497 148.932 108.046C147.208 106.288 145.861 104.263 144.929 102.003C144.419 100.762 143.464 100.092 142.454 99.3731C142.38 99.4989 142.326 99.5605 142.338 99.5887C143.313 101.697 144.312 103.789 145.263 105.903C147.007 109.775 149.967 112.43 153.665 114.363C154.933 115.026 156.231 115.146 157.589 114.803C157.674 114.778 157.74 114.672 157.975 114.443C157.615 114.265 157.385 114.145 157.15 114.031ZM33.1116 93.9207C34.1748 92.0901 35.3342 90.3254 36.7371 88.7279C37.0238 88.3992 37.3016 88.0809 37.3417 87.6095C37.4058 86.8515 37.475 86.098 37.598 85.3553C37.711 84.6761 37.8829 84.0123 38.0184 83.3798C37.7293 83.1096 37.5385 83.2867 37.3816 83.394C35.7169 84.5552 34.3581 86.0193 33.1959 87.673C33.0417 87.8912 32.8792 88.1293 32.8046 88.3807C32.1715 90.4238 31.9899 92.499 32.5948 94.6997C32.7655 94.4417 32.9562 94.1921 33.1167 93.9251L33.1116 93.9207ZM39.738 86.7611C38.537 87.9199 37.4812 89.2234 36.3734 90.4724C36.136 90.7446 35.9801 91.0788 35.7966 91.3618C36.0864 91.7142 36.3619 91.5747 36.5843 91.5065C37.4073 91.2478 38.2245 90.975 39.0242 90.66C41.0467 89.8562 42.6272 88.5945 43.5893 86.5582C44.3962 84.8657 45.2679 83.2027 45.983 81.0865C43.7127 83.139 41.6733 84.8956 39.7329 86.7566L39.738 86.7611ZM74.7025 133.951C76.3588 135.278 77.8384 136.777 79.1644 138.431C79.4813 138.825 79.8345 139.116 80.356 139.182C82.0809 139.393 83.7337 139.895 85.398 140.632C85.5317 140.116 85.1696 139.909 84.9723 139.637C83.4666 137.546 81.7376 135.721 79.3211 134.652C77.7814 133.969 76.21 133.457 74.2448 133.334C74.5116 133.703 74.5799 133.853 74.6974 133.946L74.7025 133.951ZM163.987 109.036C164.111 109.288 164.172 109.54 164.326 109.684C165.319 110.631 166.495 111.296 167.723 111.879C168.308 112.154 168.878 112.081 169.471 111.993C171.775 111.634 174.091 111.385 176.432 111.483C177.129 111.513 177.822 111.538 178.519 111.558C175.798 109.917 168.226 108.773 163.987 109.036ZM81.6701 118.932C83.0982 120.666 84.8265 122.056 86.7633 123.177C87.1305 123.388 87.5483 123.563 87.9601 123.651C89.7141 124.006 91.4705 124.326 93.2315 124.642C93.3784 124.671 93.5438 124.616 93.7303 124.589C92.4534 123.086 83.9105 118.771 81.36 118.354C81.4823 118.587 81.5442 118.786 81.6701 118.932ZM30.5583 92.3351C29.9568 94.1344 29.3944 95.9407 28.8423 97.756C28.6689 98.3282 28.559 98.9106 28.4446 99.4981C28.0011 101.77 27.5678 104.05 27.1301 106.336C27.5438 106.381 27.5901 106.068 27.682 105.859C28.1732 104.778 28.649 103.683 29.1152 102.588C29.8764 100.792 30.5926 98.9757 31.3891 97.2018C31.6702 96.5789 31.7461 95.994 31.6904 95.3214C31.5778 94.0294 31.585 92.7245 31.5397 91.428C31.5317 91.2401 31.5429 91.0509 31.5454 90.6642C30.9314 91.2228 30.7388 91.7963 30.5538 92.3402L30.5583 92.3351ZM45.5019 79.9161C45.4306 79.8629 45.331 79.7489 45.2835 79.7618C43.6576 80.3599 42.0382 80.9818 40.411 81.5606C39.515 81.8822 38.9775 82.4984 38.7392 83.3938C38.5055 84.2841 38.2865 85.1782 38.1015 86.0749C38.0544 86.3051 38.1498 86.5692 38.1799 86.8667C40.9653 84.8566 44.462 81.5229 45.5012 79.9065L45.5019 79.9161ZM83.7102 121.842C82.4284 120.832 81.3283 119.656 80.3634 118.334C80.1499 118.04 79.8717 117.716 79.5495 117.597C77.9343 117.011 76.2809 116.572 74.393 116.236C74.6771 117 75.1901 117.294 75.6012 117.652C77.7986 119.615 80.2613 121.148 83.0112 122.218C83.334 122.346 83.6725 122.632 84.1131 122.293C83.9769 122.138 83.8631 121.957 83.7102 121.842ZM87.5999 119.095C88.7269 118.903 89.8637 119.135 90.9896 119.349C91.3373 119.417 91.6854 119.703 92.1593 119.357C91.3349 118.466 90.3142 117.883 89.3415 117.224C87.8782 116.246 86.5092 116.362 85.1489 117.382C84.8595 117.6 84.5861 117.841 84.1884 118.172C85.3775 118.956 86.3965 119.303 87.614 119.09L87.5999 119.095ZM86.0059 116.068C82.7641 115.292 79.7186 115.339 76.3502 115.539C77.6329 116.278 78.8125 116.43 79.9015 116.81C80.9705 117.182 82.0524 117.529 83.2389 117.922C84.1394 117.315 84.9708 116.757 86.0059 116.068ZM95.0439 124.017C95.0991 124.047 95.2241 123.966 95.3561 123.918C95.3033 123.782 95.2645 123.639 95.1931 123.514C94.7146 122.734 94.2405 121.95 93.73 121.197C93.5898 120.984 93.3592 120.792 93.1256 120.697C91.4756 120.026 89.769 119.586 87.8908 120.028C90.2724 121.364 92.654 122.7 95.0446 124.026L95.0439 124.017Z" fill="url(#paint0_linear_78_15912)"/>
<defs>
<linearGradient id="paint0_linear_78_15912" x1="125.16" y1="156.394" x2="77.4088" y2="19.3395" gradientUnits="userSpaceOnUse">
<stop stop-color="#C2A363"/>
<stop offset="0.01" stop-color="#CAB078"/>
<stop offset="0.03" stop-color="#DBC89E"/>
<stop offset="0.05" stop-color="#E7D9BA"/>
<stop offset="0.07" stop-color="#EEE4CB"/>
<stop offset="0.08" stop-color="#F1E8D1"/>
<stop offset="0.18" stop-color="#C2A363"/>
<stop offset="0.29" stop-color="#A18347"/>
<stop offset="0.4" stop-color="#C2A363"/>
<stop offset="0.49" stop-color="#F1E8D1"/>
<stop offset="0.59" stop-color="#C2A363"/>
<stop offset="0.69" stop-color="#A18347"/>
<stop offset="0.8" stop-color="#C2A363"/>
<stop offset="0.92" stop-color="#F1E8D1"/>
<stop offset="1" stop-color="#C2A363"/>
</linearGradient>
</defs>
</svg>
