<svg width="380" height="350" viewBox="0 0 380 350" fill="none" xmlns="http://www.w3.org/2000/svg">
<path d="M0.992256 2.6194C0.752823 6.60963 1.14142 10.568 1.61617 14.5108C3.30471 28.5708 5.33807 42.569 8.98135 56.2861C10.7895 63.0874 13.411 69.5826 16.5524 75.8786C23.0449 88.8542 32.8494 98.5665 45.4781 105.552C49.7751 107.932 54.2473 110.03 58.3409 112.705C67.035 118.391 72.4135 126.264 73.0905 136.911C73.2198 139.006 73.2732 141.125 73.1798 143.225C73.063 146.141 72.8792 149.071 72.5385 151.973C71.9138 157.316 71.1617 162.639 70.4393 167.97C69.6949 173.555 69.3482 179.142 69.9536 184.763C70.6385 191.144 72.6207 197.061 75.9992 202.547C79.7468 208.628 84.6026 213.589 90.5166 217.549C94.8984 220.477 99.1102 223.619 102.956 227.242C106.845 230.919 109.188 235.407 109.801 240.708C110.089 243.141 110.165 245.608 110.163 248.061C110.163 250.988 109.978 253.899 109.882 256.833C109.704 262.331 109.65 267.811 110.103 273.316C110.665 280.19 112.585 286.635 115.893 292.659C120.258 300.589 125.481 307.872 131.833 314.342C136.583 319.175 142.071 322.853 148.352 325.335C156.653 328.603 165.282 329.795 174.164 328.954C177.42 328.641 180.682 328.28 183.94 328.005C190.535 327.471 196.75 328.804 202.476 332.127C207.527 335.059 212.535 338.081 217.56 341.062C223.958 344.865 230.76 347.603 238.15 348.673C240.557 349.018 243.055 349.114 245.477 348.943C249.597 348.66 252.791 346.529 254.965 343.07C256.263 341.006 257.375 338.781 258.213 336.496C259.461 333.098 260.401 329.594 261.471 326.13C262.374 323.23 263.157 320.28 264.209 317.438C266.248 311.932 269.517 307.286 274.476 304.01C277.494 302.017 280.555 300.078 283.681 298.252C286.835 296.415 290.279 295.285 293.88 294.619C300.143 293.467 306.443 293.166 312.75 293.979C317.032 294.528 321.278 295.41 325.543 296.145C330.377 296.978 335.199 297.908 340.064 298.623C346.212 299.534 352.445 299.973 358.593 298.994C364.128 298.113 369.581 296.724 375.054 295.498C376.056 295.267 377.052 294.793 377.917 294.242C378.447 293.906 378.897 293.227 379.069 292.614C379.205 292.169 378.973 291.458 378.657 291.071C378.266 290.584 377.52 290.585 377.083 291.021C375.573 292.517 373.601 292.88 371.671 293.318C368.127 294.106 364.565 294.769 361.018 295.498C355.815 296.561 350.556 296.628 345.291 296.183C342.377 295.94 339.488 295.501 336.591 295.073C327.056 293.67 318.337 290.235 310.506 284.56C304.397 280.138 300.181 274.446 298.694 266.945C298.055 263.73 297.531 260.508 297.102 257.26C296.458 252.369 294.73 247.947 291.405 244.29C289.052 241.703 286.488 239.294 283.908 236.926C281.328 234.557 278.539 232.406 275.958 230.037C270.962 225.444 267.891 219.774 266.977 213.01C266.651 210.579 266.373 208.136 266.249 205.682C265.91 199.258 265.668 192.828 265.348 186.403C265.081 180.915 264.872 175.422 264.402 169.938C263.798 162.882 261.917 156.144 258.704 149.804C254.165 140.848 247.911 133.372 239.251 128.189C228.329 121.662 216.657 116.969 204.038 114.811C201.273 114.335 198.529 113.732 195.81 113.078C186.935 110.943 179.433 106.429 173.031 99.9325C168.583 95.4195 164.678 90.473 160.957 85.3787C158.067 81.4118 155.14 77.4669 152.157 73.5644C146.967 66.7838 140.154 62.5633 131.749 60.9494C129.677 60.5536 127.632 60.1076 125.557 59.6733C118.223 58.124 112.016 54.5614 106.997 49.0394C103.296 44.9809 99.7421 40.7963 96.2152 36.5808C89.8663 28.9853 81.8499 24.7478 71.8941 24.4484C68.8638 24.3586 65.8077 24.319 62.776 24.5006C58.46 24.7578 54.1516 25.2761 49.8421 25.6297C46.8142 25.8693 43.7773 26.1192 40.7495 26.2134C32.9721 26.4578 26.0449 24.0285 19.7554 19.5213C13.1211 14.7849 7.44327 9.12247 2.87496 2.35886C2.49812 1.79254 2.0556 1.2596 1.15141 0.0497159C1.03898 1.42396 0.989852 1.99912 0.949767 2.56401L0.992256 2.6194ZM267.01 281.91C256.281 281.06 245.64 279.779 235.188 276.973C227.114 274.794 221.741 269.78 217.991 262.642C216.249 259.317 215.139 255.726 214.428 252.032C212.846 243.81 212.55 235.551 213.774 227.259C214.752 220.661 216.202 214.167 217.887 207.716C220.179 199.014 222.501 190.32 224.587 181.584C226.724 172.582 228.047 163.45 228.344 154.183C228.558 147.626 228.222 141.095 227.335 134.592C226.949 131.69 226.429 128.816 225.317 126.079C225.144 125.673 225.142 125.198 225.043 124.73C225.412 124.744 225.661 124.689 225.85 124.764C231.583 127.166 237.181 129.867 242.034 133.772C252.704 142.35 258.908 153.6 261.061 167.067C262.005 172.966 262.216 178.933 262.244 184.903C262.263 189.137 261.666 193.287 260.766 197.408C259.133 204.942 257.373 212.455 255.897 220.017C254.987 224.71 254.333 229.465 253.883 234.235C252.962 244.028 254.295 253.595 257.156 262.972C259.137 269.452 262.406 275.187 267.047 280.123C267.412 280.516 267.723 280.97 268.189 281.56C267.59 281.745 267.283 281.93 266.98 281.902L267.01 281.91ZM204.091 261.616C189.659 250.979 178.112 237.796 169.473 222.123C166.487 216.708 163.94 211.042 161.16 205.517C159.977 203.172 159.482 200.684 159.339 198.086C159.09 193.741 159.258 189.416 160.14 185.17C161.236 179.911 162.488 174.681 163.86 169.5C165.587 162.94 167.334 156.397 168.51 149.718C171.753 131.23 170.428 113.162 163.602 95.585C163.483 95.2633 163.393 94.9301 163.273 94.5697C164.711 95.211 164.72 95.2007 165.804 96.4956C168.658 99.922 171.801 103.019 175.192 105.916C181.099 110.942 187.785 114.415 195.347 116.037C198.111 116.638 199.938 118.02 201.424 120.267C205.153 125.913 207.53 132.086 208.678 138.727C209.576 143.931 209.972 149.169 209.953 154.443C209.942 161.578 209.552 168.709 208.498 175.768C207.179 184.667 205.712 193.547 204.177 202.402C202.978 209.315 201.876 216.242 201.449 223.25C200.66 236.63 202.336 249.625 207.741 261.994C207.934 262.418 208.07 262.864 208.226 263.309C208.252 263.405 208.201 263.524 208.074 264.231C206.594 263.262 205.294 262.505 204.082 261.626L204.091 261.616ZM93.8904 121.088C105.335 122.345 115.515 126.624 124.905 133.155C130.821 137.28 135.761 142.351 140.223 147.949C141.27 149.266 141.891 150.737 142.317 152.327C144.194 159.444 146.11 166.558 147.969 173.676C149.097 177.973 150.158 182.284 151.22 186.595C151.379 187.243 151.433 187.909 151.591 188.829C150.875 188.566 150.431 188.45 150.04 188.253C145.828 186.128 141.356 184.758 136.722 184.028C131.756 183.243 126.764 182.672 121.773 182.102C116.899 181.543 111.999 181.179 107.13 180.552C100.345 179.684 93.9108 177.668 87.8949 174.364C83.6596 172.037 79.8711 169.138 76.6284 165.553C74.9652 163.715 74.2568 161.804 74.6451 159.181C75.3841 154.101 75.8092 148.964 76.1185 143.835C76.2958 140.808 76.1709 137.754 75.8644 134.74C75.345 129.54 73.6391 124.719 70.5729 120.434C70.1677 119.879 69.8746 119.259 69.1532 118.027C77.7945 119.994 85.8715 120.176 93.8788 121.06L93.8904 121.088ZM224.96 278.708C218.138 278.879 211.45 279.914 204.972 282.059C200.532 283.517 196.139 285.107 191.771 286.773C183.357 289.987 174.892 293.011 166.084 294.971C157.43 296.902 148.745 297.498 140 295.713C131.725 294.013 124.253 290.669 117.745 285.207C115.578 283.383 114.12 281.27 113.864 278.427C113.489 274.245 112.882 270.059 112.846 265.864C112.791 259.325 113.122 252.779 113.299 246.243C113.305 246.03 113.445 245.807 113.593 245.41C114.216 245.591 114.891 245.692 115.483 245.992C122.29 249.534 129.587 251.542 137.101 252.885C146.686 254.605 156.35 255.176 166.07 255.142C169.569 255.133 173.08 255.171 176.594 255.248C181.992 255.375 187.292 256.216 192.483 257.742C194.321 258.28 195.897 259.096 197.41 260.275C203.503 265.028 209.799 269.486 216.727 272.953C219.965 274.57 223.33 275.898 226.645 277.365C227.155 277.593 227.682 277.8 228.201 278.018C228.184 278.203 228.148 278.39 228.131 278.575C227.098 278.634 226.046 278.713 225.011 278.733L224.96 278.708ZM75.996 166.836C81.7766 173.316 89.0958 177.27 97.2557 179.87C101.623 181.257 106.113 182.025 110.662 182.499C116.128 183.067 121.605 183.518 127.07 184.067C132.427 184.594 137.753 185.384 142.902 187.02C145.002 187.695 147.047 188.578 149.083 189.451C151.576 190.507 153.073 192.327 153.959 195.011C157.745 206.49 163.018 217.307 169.22 227.665C171.204 230.965 173.494 234.08 175.627 237.292C175.917 237.729 176.06 238.272 176.357 238.95C175.721 238.866 175.372 238.87 175.046 238.765C166.71 235.993 158.111 234.228 149.531 232.46C137.61 230.004 125.839 227.043 114.434 222.71C102.382 218.139 91.4078 211.839 82.0791 202.871C80.4017 201.256 78.7488 199.573 77.2812 197.761C76.3513 196.601 75.6568 195.193 75.1091 193.804C73.6962 190.185 73.0464 186.38 72.7801 182.511C72.405 177 72.9049 171.529 73.7753 166.092C73.8102 165.886 74.0123 165.717 74.3547 165.181C75.03 165.863 75.5368 166.343 75.987 166.846L75.996 166.836ZM6.89865 21.0816C9.86217 28.3491 13.3688 35.3285 17.7944 41.8399C22.8103 49.2136 28.3398 56.1461 35.6327 61.4592C41.6019 65.8131 48.0603 69.3592 54.8278 72.3031C61.4563 75.1981 68.2135 77.8422 74.8175 80.8066C82.6091 84.2836 90.3426 87.9098 97.6269 92.3608C107.357 98.3168 116.066 105.543 123.45 114.281C124.007 114.932 124.41 115.739 124.575 116.775C122.577 115.589 120.597 114.383 118.59 113.208C113.197 110.085 107.402 107.92 101.435 106.222C94.3505 104.201 87.1914 102.514 79.9319 101.212C74.0658 100.166 68.1985 99.1011 62.3466 97.977C52.4197 96.0666 42.8883 92.957 34.0215 88.0294C31.5758 86.6697 29.224 85.1196 26.9534 83.4768C23.4002 80.9111 20.6206 77.7317 18.7317 73.6597C16.2205 68.2428 13.9088 62.7642 12.2676 57.0182C9.95545 48.9029 8.41804 40.6297 7.09167 32.323C6.50746 28.6298 5.97085 24.9237 5.43425 21.2175C5.32514 20.4493 5.34086 19.663 5.3 18.7546C6.53386 19.235 6.55536 20.2901 6.88064 21.1022L6.89865 21.0816ZM260.362 286.034C254.182 288.441 248.838 292.197 243.89 296.519C239.043 300.747 234.351 305.13 229.556 309.422C225.548 313.003 221.383 316.41 216.833 319.281C211.223 322.823 205.246 325.371 198.541 325.845C197.161 325.946 195.725 325.925 194.369 325.647C190.194 324.809 186.003 324.757 181.801 325.133C178.765 325.402 175.749 325.815 172.729 326.025C162.569 326.747 152.942 324.827 143.997 319.885C140.284 317.834 137.053 315.15 134.072 312.158C133.939 312.041 133.988 311.757 133.899 311.297C134.483 311.336 135.015 311.311 135.525 311.412C153.491 314.98 170.663 312.271 187.187 304.758C192.287 302.443 197.263 299.854 202.247 297.255C210.886 292.747 219.969 289.391 229.333 286.754C236.927 284.622 244.696 283.68 252.569 283.701C255.594 283.713 258.623 284.22 261.639 284.534C261.795 284.543 261.92 284.816 262.213 285.145C261.555 285.46 260.976 285.79 260.371 286.024L260.362 286.034ZM305.671 286.781C298.306 284.768 290.81 283.695 283.198 283.23C280.055 283.041 276.911 282.707 273.759 282.528C272.387 282.454 271.304 281.906 270.271 281.092C267.294 278.74 265.069 275.737 263.065 272.565C260.996 269.28 259.511 265.744 258.382 262.028C254.96 250.759 254.259 239.309 255.998 227.687C256.383 225.151 256.806 222.612 257.337 220.096C258.708 213.588 260.148 207.085 261.568 200.583C261.741 199.825 261.973 199.083 262.661 198.359C262.774 199.33 262.915 200.29 263 201.273C263.358 205.35 263.58 209.436 264.082 213.493C264.807 219.309 267.082 224.538 270.907 228.996C272.724 231.114 274.772 233.053 276.846 234.942C279.269 237.136 281.864 239.136 284.316 241.319C285.881 242.708 287.34 244.24 288.76 245.774C291.891 249.133 293.583 253.16 294.175 257.696C294.578 260.704 295.058 263.706 295.605 266.694C296.987 274.377 300.804 280.628 306.876 285.508C307.326 285.866 307.767 286.234 308.219 286.611C308.126 286.821 308.032 287.012 307.939 287.221C307.174 287.078 306.393 286.994 305.643 286.792L305.671 286.781ZM204.403 117.966C209.586 118.941 214.656 120.272 219.622 122.056C221.558 122.751 222.762 123.951 223.616 125.716C224.741 128.065 225.314 130.567 225.706 133.11C227.142 142.64 227.399 152.21 226.435 161.803C225.55 170.663 223.869 179.373 221.629 187.993C219.713 195.352 217.806 202.7 215.851 210.042C214.335 215.697 213.223 221.432 212.375 227.217C211.131 235.636 211.444 244.019 213.073 252.354C214.512 259.723 217.455 266.391 223.318 272.215C222.139 271.983 221.5 271.987 220.979 271.731C218.976 270.758 217.025 269.705 215.049 268.702C212.791 267.543 211.147 265.849 210.052 263.508C206.606 256.127 204.35 248.425 203.388 240.346C202.591 233.594 202.412 226.801 203.194 220.032C203.876 214.229 204.753 208.451 205.659 202.682C207.058 193.671 208.615 184.688 209.975 175.68C211.017 168.738 211.385 161.715 211.424 154.694C211.449 149.662 211.086 144.636 210.32 139.656C209.198 132.382 206.753 125.623 202.569 119.542C202.301 119.162 202.043 118.772 201.803 118.381C201.76 118.306 201.789 118.168 201.781 117.597C202.828 117.751 203.63 117.852 204.414 117.994L204.403 117.966ZM69.4227 75.0284C69.1991 74.1417 68.9459 73.2473 68.7403 72.34C65.9046 60.1301 60.9236 48.8961 53.514 38.7537C51.4998 36.0083 49.2681 33.4906 46.6696 31.288C46.1653 30.8465 45.6971 30.3637 45.2738 29.975C45.4685 28.9637 46.1646 29.0822 46.6844 29.0283C50.3995 28.6269 54.1288 28.2924 57.8426 27.8716C59.8436 27.6419 61.8046 27.8318 63.7384 28.3433C72.067 30.5633 79.1776 34.8804 85.1963 41.0049C91.9007 47.8208 96.2446 56.0242 98.8369 65.1484C100.014 69.3064 100.858 73.5543 101.72 77.7817C102.735 82.7065 103.519 87.6661 105.278 92.4059C105.349 92.5951 105.239 92.8446 105.159 93.5382C93.7815 85.9757 81.6169 80.5786 69.4137 75.0387L69.4227 75.0284ZM144.538 70.0565C146.305 71.5678 147.912 73.2836 149.453 75.0329C160.672 87.6562 165.968 102.766 168.059 119.233C169.849 133.363 168.208 147.218 164.657 160.908C163.6 164.981 162.483 169.039 161.374 173.087C159.527 179.869 158.061 186.713 157.812 193.767C157.798 193.991 157.696 194.211 157.634 194.448C156.796 194.678 156.73 193.965 156.582 193.49C155.627 190.49 154.595 187.495 153.791 184.447C152.302 178.797 150.897 173.113 149.561 167.434C149.222 165.973 149.1 164.431 149.107 162.928C149.115 158.226 149.925 153.626 150.852 149.038C151.727 144.695 152.64 140.33 153.23 135.939C156.032 115.338 152.661 95.6418 144.017 76.8183C142.759 74.0809 140.974 71.5723 139.415 68.9712C138.946 68.1784 138.412 67.4384 137.529 66.1011C140.754 66.9438 142.707 68.4719 144.548 70.0655L144.538 70.0565ZM215.849 334.836C221.36 333.608 226.013 330.682 230.236 327.126C233.45 324.431 236.421 321.433 239.352 318.418C245.204 312.378 250.752 306 257.502 300.929C261.048 298.27 264.698 295.721 268.524 293.49C274.051 290.293 280.188 288.849 286.479 287.83C292.301 286.892 297.883 287.743 303.435 289.313C303.612 289.36 303.727 289.624 303.873 289.788C303.707 289.916 303.585 290.118 303.393 290.15C302.944 290.247 302.463 290.299 302.009 290.319C290.47 290.852 280.546 295.416 271.59 302.447C267.269 305.845 264.001 310.056 261.974 315.153C260.852 317.971 259.989 320.888 259.086 323.788C257.975 327.361 257.013 330.972 255.852 334.52C254.91 337.422 253.598 340.146 251.594 342.518C249.833 344.612 247.657 345.852 244.95 345.973C242.979 346.065 240.969 346.014 239.012 345.737C232.809 344.869 226.991 342.793 221.527 339.772C219.183 338.483 216.909 337.093 214.317 335.568C215.048 335.19 215.416 334.894 215.827 334.799L215.849 334.836ZM141.785 140.663C139.756 135.049 137.349 129.596 134.294 124.467C132.68 121.763 131.01 119.082 129.127 116.561C125.372 111.546 122.538 106.083 120.736 100.105C119.556 96.1992 118.661 92.1969 117.805 88.2114C117.145 85.1242 116.724 81.992 116.207 78.8856C115.015 71.7139 113.031 64.7595 110.164 58.0672C109.946 57.5486 109.83 56.9746 109.696 56.4212C109.682 56.3543 109.811 56.2489 109.873 56.1576C110.076 56.1538 110.341 56.0586 110.474 56.1565C113.408 58.3077 116.568 60.0562 120.02 61.2425C121.379 61.7049 122.441 62.5263 123.432 63.5753C130.946 71.5007 136.382 80.6786 140.103 90.8815C143.871 101.217 145.681 111.857 144.92 122.88C144.461 129.405 144.021 135.929 143.543 142.456C143.523 142.748 143.339 143.041 143.141 143.558C142.256 142.638 142.099 141.592 141.766 140.664L141.785 140.663ZM189.5 255.439C184.936 254.298 180.291 253.83 175.613 253.753C170.829 253.673 166.032 253.69 161.24 253.64C151.161 253.523 141.183 252.459 131.35 250.213C125.622 248.906 120.173 246.844 114.921 244.246C114.4 243.989 113.941 243.642 113.486 243.352C112.89 240.648 112.519 237.978 111.682 235.445C110.882 233.036 109.618 230.784 108.44 228.225C108.929 228.29 109.381 228.231 109.694 228.414C118.311 233.377 127.712 236.137 137.399 237.928C149.696 240.204 162.011 242.315 174.321 244.494C176.164 244.818 178.003 245.209 179.85 245.426C181.677 245.644 183.074 246.395 184.322 247.815C186.544 250.343 188.996 252.671 191.347 255.094C191.273 255.283 191.208 255.481 191.125 255.68C190.587 255.61 190.032 255.578 189.51 255.448L189.5 255.439ZM52.0306 67.6903C46.8908 65.1716 41.9504 62.3003 37.2973 58.935C33.0932 55.9084 29.5417 52.1987 26.2733 48.2278C18.1764 38.3927 12.2379 27.3385 7.95445 15.3699C7.80018 14.944 7.73993 14.473 7.66159 14.0226C7.64618 13.9364 7.76464 13.8219 7.93718 13.5003C8.36813 13.8595 8.78614 14.1709 9.15791 14.5146C10.789 16.0156 12.312 17.64 14.0602 19.0072C20.5567 24.1501 26.7391 29.6726 33.4956 34.4978C39.7941 38.9947 45.3448 44.3458 49.9751 50.5818C54.159 56.2271 57.8668 62.1463 60.4162 68.7239C60.708 69.4703 60.8956 70.2527 61.2799 71.5165C57.6168 70.5089 54.834 69.0359 52.019 67.662L52.0306 67.6903ZM33.4896 89.3636C41.1406 93.4994 49.2076 96.5994 57.7307 98.3897C64.3661 99.7817 71.0236 101.066 77.7028 102.242C85.5401 103.631 93.2769 105.406 100.949 107.524C109.955 110.009 118.19 114.039 125.816 119.407C128.358 121.197 130.445 123.278 131.824 126.104C132.989 128.47 134.446 130.709 135.547 133.709C133.755 132.994 132.906 131.887 131.945 130.991C127.452 126.821 122.41 123.443 116.894 120.813C111.718 118.336 106.319 116.425 100.725 115.11C94.3344 113.604 87.8713 112.618 81.363 111.828C76.144 111.185 70.9366 110.426 65.7358 109.617C57.3992 108.299 49.8443 105.029 42.793 100.437C37.768 97.1642 33.0507 93.561 29.0864 89.0353C28.0998 87.8987 27.1686 86.7197 26.2193 85.5613C26.3571 85.4455 26.4754 85.3309 26.6131 85.2152C28.9057 86.6044 31.1378 88.1043 33.4896 89.3636ZM281.088 287.364C273.005 288.995 265.936 292.75 259.416 297.642C254.171 301.576 249.261 305.876 244.791 310.69C240.901 314.883 236.92 319.015 232.843 323.027C229.504 326.321 225.711 329.055 221.543 331.241C219.257 332.439 216.854 333.335 214.271 333.71C212.582 333.958 211.089 333.669 209.611 332.72C207.455 331.341 205.157 330.166 202.912 328.909C202.117 328.467 201.331 328.015 200.193 327.383C201.115 327.099 201.652 326.86 202.199 326.775C207.95 325.793 213.081 323.359 217.954 320.244C223.691 316.577 228.754 312.083 233.784 307.542C239.071 302.771 244.146 297.743 249.915 293.522C254.297 290.323 259.029 287.848 264.158 286.121C266.405 285.362 268.65 285 271.052 285.267C274.188 285.631 277.339 285.79 280.488 286.056C281.141 286.12 281.79 286.251 282.436 286.344C282.429 286.538 282.423 286.733 282.416 286.927C281.969 287.063 281.536 287.247 281.087 287.345L281.088 287.364ZM228.698 280.98C219.823 282.664 211.222 285.241 202.954 288.911C197.614 291.271 192.277 293.671 186.925 295.984C180.696 298.675 174.336 300.996 167.773 302.74C159.552 304.924 151.227 305.689 142.75 304.594C136.787 303.826 131.133 302.039 125.726 299.432C123.452 298.332 121.58 296.857 120.419 294.549C119.37 292.467 118.227 290.429 117.158 288.348C116.912 287.86 116.788 287.297 116.63 286.813C117.318 286.234 117.608 286.797 117.905 287.039C128.99 295.89 141.785 298.948 155.69 297.997C162.251 297.542 168.661 296.119 174.897 294.106C180.895 292.177 186.816 289.961 192.766 287.88C197.399 286.264 201.996 284.544 206.666 283.052C214.318 280.625 222.209 279.898 230.333 280.649C229.788 280.753 229.243 280.876 228.698 280.98ZM145.219 150.051C145.13 146.082 145.07 142.102 145.263 138.144C145.52 132.66 146.146 127.19 146.383 121.707C147.199 103.168 141.841 86.4041 131.448 71.1766C129.613 68.4969 127.444 66.0526 125.254 63.2801C125.848 63.1825 126.281 62.9793 126.664 63.0605C128.736 63.4562 130.784 63.9408 132.847 64.3468C134.193 64.6162 135.151 65.3281 135.951 66.4286C138.565 70.026 141.057 73.6994 142.897 77.765C151.431 96.6733 154.655 116.351 151.65 136.955C151.143 140.42 150.421 143.861 149.777 147.296C149.12 150.849 148.426 154.404 147.74 157.949C146.334 155.463 145.28 152.868 145.229 150.06L145.219 150.051ZM237.645 283.469C225.244 285.755 213.501 289.946 202.276 295.644C197.268 298.186 192.303 300.784 187.227 303.176C179.238 306.943 170.864 309.447 162.117 310.715C153.592 311.959 145.083 311.709 136.617 310.186C135.577 310.003 134.569 309.702 133.529 309.519C131.468 309.132 129.88 308.142 128.714 306.339C127.819 304.973 126.701 303.758 125.722 302.447C125.467 302.115 125.398 301.654 125.082 300.831C126.216 301.28 126.932 301.542 127.641 301.854C137.783 306.28 148.353 307.372 159.249 305.913C165.782 305.034 172.117 303.344 178.208 300.914C186.245 297.715 194.191 294.31 202.112 290.828C209.628 287.518 217.376 284.939 225.377 283.091C229.406 282.164 233.466 281.846 237.57 282.185C238.125 282.235 238.677 282.373 239.227 282.473C239.25 282.675 239.273 282.877 239.296 283.079C238.743 283.212 238.201 283.374 237.636 283.48L237.645 283.469ZM80.694 29.0993C81.8546 29.4973 82.894 30.4074 83.8511 31.2455C88.5336 35.3455 92.4386 40.1465 95.9201 45.2859C100.809 52.4935 104.561 60.2516 107.232 68.5175C108.379 72.0668 109.461 75.6689 110.274 79.3082C111.839 86.2419 113.184 93.2193 114.721 100.62C113.955 100.312 113.542 100.223 113.226 100.002C112.473 99.4509 111.789 98.7983 111.018 98.2678C109.312 97.1014 108.253 95.4656 107.414 93.6213C106.052 90.6291 105.098 87.5032 104.459 84.2886C103.606 80.0509 102.8 75.8004 101.938 71.573C100.52 64.6587 98.3168 58.0387 94.9103 51.8378C89.144 41.3344 80.8199 33.6275 69.7938 28.8819C69.175 28.6128 68.5549 28.3244 67.9348 28.0359C72.3204 27.2216 76.5871 27.685 80.694 29.0993ZM177.489 243.596C164.238 241.266 151.001 238.984 137.772 236.546C130.049 235.129 122.472 233.13 115.372 229.695C109.793 226.992 104.354 224.047 99.4447 220.185C96.2235 217.656 92.7537 215.472 89.5145 212.963C87.307 211.248 85.2951 209.268 83.2858 207.327C82.6439 206.711 82.2634 205.796 81.3567 204.402C83.7353 206.357 85.4835 207.87 87.2935 209.291C95.9164 216.096 105.576 220.99 115.848 224.749C126.529 228.664 137.527 231.386 148.626 233.722C154.691 234.997 160.749 236.301 166.754 237.832C170.481 238.787 174.101 240.156 177.757 241.358C178.758 241.689 179.725 242.081 180.131 243.818C179.048 243.725 178.262 243.709 177.488 243.576L177.489 243.596ZM63.5224 72.7346C63.2974 72.2648 63.1031 71.9675 62.9848 71.6457C59.7737 62.107 54.5381 53.7592 48.1159 46.0813C43.5883 40.6624 38.1223 36.2945 32.5752 32.0191C30.6443 30.5284 28.6592 29.0993 26.2227 27.2931C27.2212 27.2948 27.6884 27.1766 28.0757 27.3157C31.8506 28.6939 35.7751 29.2575 39.759 29.255C41.3777 29.2543 42.6334 29.772 43.8903 30.7453C47.7959 33.8014 50.9588 37.4982 53.7588 41.5679C59.9065 50.5145 64.1996 60.2916 66.9021 70.785C67.1256 71.6716 67.2451 72.5944 67.5444 74.1837C65.7766 73.5448 64.6044 73.1184 63.5224 72.7346ZM134.095 139.001C123.583 128.997 111.386 122.245 96.8992 120.123C91.9363 119.395 86.9052 119.099 81.9037 118.52C78.4167 118.121 74.9541 117.652 71.4864 117.107C68.792 116.675 66.3165 115.744 64.4102 113.602C63.5201 112.604 62.2658 111.96 61.0914 110.478C62.1337 110.554 62.687 110.566 63.2056 110.638C69.6842 111.565 76.1603 112.454 82.6247 113.46C88.1679 114.314 93.7278 115.128 99.2039 116.286C107.727 118.077 115.777 121.217 123.111 125.984C128.43 129.441 133.273 133.482 136.928 138.755C137.979 140.275 138.994 141.836 139.438 144.444C137.339 142.314 135.743 140.608 134.067 139.013L134.095 139.001ZM120.794 106.828C117.602 104.597 116.269 101.303 115.563 97.666C114.845 94.001 114.116 90.327 113.398 86.662C111.676 77.9357 109.44 69.3598 106.033 61.1039C102.164 51.7348 96.8718 43.2646 90.3028 35.5674C90.1562 35.4026 90.0919 35.1646 89.8913 34.7708C92.3499 36.1781 93.7375 38.393 95.4329 40.2775C98.3952 43.5804 101.239 46.9978 104.055 50.4268C105.087 51.6766 106.059 53.0178 106.803 54.4515C110.485 61.4387 112.84 68.8822 114.331 76.606C114.978 79.9364 115.501 83.2848 116.052 86.6216C117.129 93.2193 118.72 99.6667 121.282 105.856C121.408 106.148 121.412 106.497 121.512 107.13C121.004 106.921 120.876 106.9 120.785 106.839L120.794 106.828Z" fill="url(#paint0_linear_77_17796)"/>
<defs>
<linearGradient id="paint0_linear_77_17796" x1="200.074" y1="14.9081" x2="175.47" y2="343.988" gradientUnits="userSpaceOnUse">
<stop stop-color="#C2A363"/>
<stop offset="0.01" stop-color="#CAB078"/>
<stop offset="0.03" stop-color="#DBC89E"/>
<stop offset="0.05" stop-color="#E7D9BA"/>
<stop offset="0.07" stop-color="#EEE4CB"/>
<stop offset="0.08" stop-color="#F1E8D1"/>
<stop offset="0.18" stop-color="#C2A363"/>
<stop offset="0.29" stop-color="#A18347"/>
<stop offset="0.4" stop-color="#C2A363"/>
<stop offset="0.49" stop-color="#F1E8D1"/>
<stop offset="0.59" stop-color="#C2A363"/>
<stop offset="0.69" stop-color="#A18347"/>
<stop offset="0.8" stop-color="#C2A363"/>
<stop offset="0.92" stop-color="#F1E8D1"/>
<stop offset="1" stop-color="#C2A363"/>
</linearGradient>
</defs>
</svg>
