<svg width="163" height="159" viewBox="0 0 163 159" fill="none" xmlns="http://www.w3.org/2000/svg">
<path d="M40.75 159C27.5911 159 17.4036 154.391 10.1875 145.174C3.39583 135.957 0 122.34 0 104.324C0 85.4704 4.03255 67.6641 12.0977 50.9052C20.1628 34.1462 32.0482 17.3874 47.7539 0.628488C48.1784 0.209496 48.8151 0 49.6641 0C50.9375 0 51.9987 0.628463 52.8477 1.88539C53.6966 3.14231 53.6966 4.18974 52.8477 5.02768C43.5091 18.0158 37.1419 30.585 33.7461 42.7352C30.3503 54.4664 28.6523 67.4546 28.6523 81.6996C28.6523 93.0119 30.138 102.229 33.1094 109.352C36.5052 116.055 40.9622 121.921 46.4805 126.949L22.2852 131.348C21.8607 124.225 23.7708 118.779 28.0156 115.008C32.2604 111.237 37.7786 109.352 44.5703 109.352C52.6354 109.352 58.7904 111.656 63.0352 116.265C67.7044 120.874 70.0391 126.949 70.0391 134.49C70.0391 142.451 67.4922 148.526 62.3984 152.715C57.3047 156.905 50.0885 159 40.75 159ZM134.348 159C121.189 159 111.001 154.391 103.785 145.174C96.569 135.957 92.9609 122.34 92.9609 104.324C92.9609 85.8893 96.9935 68.2925 105.059 51.5336C113.124 34.7747 125.009 17.8063 140.715 0.628488C141.139 0.209496 141.776 0 142.625 0C143.898 0 144.96 0.628463 145.809 1.88539C146.658 3.14231 146.658 4.18974 145.809 5.02768C136.47 18.0158 130.103 30.585 126.707 42.7352C123.736 54.4664 122.25 67.4546 122.25 81.6996C122.25 93.0119 123.736 102.02 126.707 108.723C129.678 115.427 133.923 121.502 139.441 126.949L115.246 131.348C114.822 124.225 116.732 118.779 120.977 115.008C125.646 111.237 131.376 109.352 138.168 109.352C145.809 109.352 151.751 111.656 155.996 116.265C160.665 120.874 163 126.949 163 134.49C163 150.83 153.449 159 134.348 159Z" fill="#3A281C"/>
</svg>
