<svg width="209" height="176" viewBox="0 0 209 176" fill="none" xmlns="http://www.w3.org/2000/svg">
<path d="M101.412 175.46C102.66 175.081 103.914 174.707 105.158 174.312C107.495 173.564 109.644 172.465 111.668 171.117C114.484 169.238 116.948 166.993 119.239 164.567C121.244 162.44 123.224 160.286 125.208 158.148C127.59 155.58 130.398 153.582 133.663 152.178C135.405 151.431 137.156 150.696 138.893 149.944C140.312 149.335 141.735 148.742 143.12 148.085C146.351 146.566 149.028 144.401 150.952 141.46C152.186 139.569 153.329 137.611 154.455 135.657C155.266 134.256 155.955 132.786 156.756 131.374C158.542 128.214 161.055 125.736 164.352 124.037C165.559 123.414 166.795 122.835 168.017 122.239C168.935 121.792 169.889 121.526 170.93 121.523C171.823 121.52 172.712 121.414 173.608 121.36C179.683 120.994 185.616 121.668 191.442 123.38C196.656 124.908 201.619 126.952 206.372 129.5C206.68 129.664 207.013 129.824 207.354 129.882C207.543 129.915 207.849 129.801 207.976 129.656C208.184 129.414 208.134 129.083 207.865 128.896C207.345 128.519 206.803 128.151 206.241 127.838C201.685 125.288 196.864 123.324 191.806 121.924C188.78 121.086 186.097 119.682 183.685 117.743C181.59 116.055 180.247 113.955 179.68 111.394C179.354 109.934 179.038 108.475 178.77 107.003C178.302 104.398 177.613 101.844 176.783 99.3219C175.612 95.764 173.691 92.5974 171.104 89.8379C168.498 87.0565 165.342 85.0533 161.54 84.0729C159.809 83.6219 158.116 83.0711 156.552 82.2112C156.301 82.0771 156.032 81.9776 155.625 81.8025C155.61 82.2367 155.538 82.575 155.596 82.8809C155.843 84.1206 156.159 85.3496 156.385 86.5879C156.572 87.6189 156.901 88.5876 157.349 89.5333C158.796 92.6484 160.647 95.5187 163.01 98.0639C164.204 99.3502 165.455 100.579 166.666 101.851C167.99 103.248 169.331 104.641 170.615 106.071C172.372 108.034 173.816 110.212 175.159 112.455C176.736 115.088 178.856 117.233 181.448 118.954C181.646 119.084 181.845 119.205 182.037 119.34C182.218 119.475 182.448 119.608 182.2 119.96C180.887 119.895 179.528 119.745 178.171 119.784C175.579 119.855 173.073 119.471 170.581 118.807C166.536 117.734 162.918 115.967 159.976 113.036C158.94 112 157.903 110.975 156.815 109.993C155.078 108.425 153.377 106.799 151.506 105.392C150.468 104.607 150.088 103.748 150.165 102.601C150.236 101.515 150.367 100.428 150.508 99.3413C151.092 94.7768 151.729 90.226 152.266 85.6533C152.448 84.0627 152.473 82.4414 152.427 80.841C152.285 75.2871 150.333 70.4033 146.424 66.2826C144.858 64.629 143.303 62.9659 141.749 61.2926C139.884 59.2868 138.67 56.9445 137.929 54.3568C137.384 52.4678 137.095 50.5444 136.856 48.5987C136.445 45.2747 135.735 42.0285 134.241 38.9819C131.508 33.4226 127.377 29.0672 121.936 25.901C119.748 24.6267 117.446 23.5343 115.18 22.3828C113.386 21.4772 111.537 20.6652 109.772 19.7155C106.739 18.0787 103.945 16.135 101.896 13.3543C101.852 13.2951 101.687 13.3099 101.451 13.2689C101.368 13.8267 101.26 14.3777 101.21 14.9376C101.014 17.1723 101.052 19.4019 101.142 21.6451C101.279 25.028 101.176 28.4208 101.079 31.8088C100.962 36.0659 101.568 40.1757 103.525 44.0306C104.415 45.7834 105.343 47.5233 106.272 49.253C106.956 50.5265 107.702 51.7681 108.376 53.0511C109.953 56.0467 110.975 59.2212 111.381 62.5602C111.595 64.3251 111.713 66.1043 111.869 67.8807C112.123 70.8002 112.298 73.7197 112.628 76.6339C113.295 82.5703 116.098 87.4482 120.819 91.2687C122.315 92.4825 123.931 93.5864 125.567 94.6251C127.611 95.9156 129.828 96.9257 132.072 97.8556C136.173 99.5621 140.28 101.264 144.363 103.005C147.946 104.524 151.097 106.675 153.878 109.32C155.281 110.65 156.684 111.981 158.053 113.34C160.876 116.141 164.044 118.421 167.965 119.599C168.147 119.657 168.287 119.855 168.578 120.099C168.152 120.179 167.936 120.237 167.712 120.253C164.379 120.44 161.052 120.698 157.717 120.762C154.914 120.82 152.128 120.499 149.41 119.728C145.131 118.507 141.275 116.488 137.671 113.99C134.659 111.904 131.941 109.494 129.338 106.959C126.273 103.979 123.093 101.124 119.746 98.4379C113.712 93.5947 107.183 89.5128 99.8364 86.7598C96.8411 85.6375 93.8082 84.5946 90.7809 83.547C84.9865 81.5302 79.7512 78.6693 75.4315 74.358C74.5238 73.4539 73.5201 72.6306 72.5389 71.7883C70.015 69.637 67.2931 67.8056 64.0125 66.8848C63.3354 66.6972 62.8532 66.3073 62.5667 65.7049C62.2255 64.9761 61.8469 64.25 61.598 63.4914C61.1381 62.1148 61.0168 60.6836 61.0025 59.2389C60.9844 56.8776 61.2517 54.5348 61.6508 52.2058C62.1434 49.3095 62.5041 46.3994 62.5639 43.4646C62.6468 39.4561 61.7323 35.7306 59.4673 32.3265C56.0881 27.2625 51.3678 23.8056 45.623 21.6129C43.4153 20.7673 41.1269 20.0853 38.8277 19.4795C34.1984 18.2556 30.1094 16.1556 26.5559 13.0206C24.712 11.3899 22.7529 9.88472 20.8454 8.3266C16.6235 4.88172 11.9102 2.2239 6.76984 0.270313C6.5268 0.177644 6.24378 -0.0251605 5.9237 0.368632C6.61604 1.83715 7.31533 3.35731 8.04779 4.85915C10.5296 9.92085 12.4733 15.1573 13.5268 20.6633C14.3059 24.7229 14.9285 28.8184 15.6111 32.8923C16.2497 36.6868 16.942 40.4745 18.0651 44.1777C19.6913 49.5471 22.835 53.8892 27.3981 57.3154C31.7395 60.5735 36.6547 62.7069 41.9088 64.1816C45.9862 65.3234 50.1626 65.9699 54.3467 66.5811C56.5857 66.9116 58.8177 67.2673 61.0403 67.6787C64.2538 68.2726 67.206 69.4791 69.7224 71.5122C71.7264 73.133 73.6372 74.8705 75.5825 76.5693C75.7324 76.702 75.8067 76.927 76.0435 77.3315C71.5699 76.1587 67.3205 76.5416 63.1337 77.3126C59.5837 74.9509 55.7933 73.3568 51.6987 72.3829C48.5701 71.641 45.4594 71.4685 42.3599 72.4845C41.0655 72.912 39.7613 73.3285 38.5034 73.8403C36.3595 74.7139 34.1952 75.4992 31.9347 76.0684C28.9711 76.8168 26.2489 78.1288 23.6631 79.6904C23.4965 79.7922 23.382 79.9844 23.1573 80.2308C23.5088 80.3664 23.7138 80.472 23.928 80.5218C25.2541 80.8439 26.5859 81.1613 27.9184 81.4684C31.9095 82.4049 35.8977 83.3822 39.9037 84.2582C43.4757 85.0394 47.0092 84.8657 50.4392 83.5333C51.1602 83.2527 51.8854 82.9878 52.5958 82.7066C54.6389 81.9082 56.6918 81.1207 58.7158 80.2904C61.3741 79.2046 64.1402 78.5456 67.0021 78.2564C72.1154 77.7508 76.957 78.5278 81.4881 80.9843C83.5592 82.1077 85.7004 83.1435 87.8954 84.019C90.9167 85.2249 94.0194 86.257 97.103 87.3338C103.477 89.5626 109.365 92.6606 114.785 96.5831C115.189 96.8757 115.672 97.112 116.113 97.8525C113.041 97.4368 110.223 97.2578 107.392 97.4825C104.503 97.7085 101.853 98.7488 99.2179 99.7286C97.6774 98.686 96.2243 97.6849 94.7591 96.7035C89.6376 93.2869 84.2459 90.3851 78.2776 88.5719C75.0853 87.6057 71.8404 86.8562 68.4586 86.9118C65.827 86.9498 63.2188 87.2556 60.693 87.9712C58.5248 88.5873 56.3594 89.2394 54.2305 89.9759C51.5682 90.8925 48.851 91.4625 46.04 91.6321C45.0318 91.6943 44.0152 91.7251 43.0035 91.7614C41.2086 91.8336 39.4332 92.0044 37.7163 92.5476C32.2179 94.2875 27.4338 97.1135 23.6579 101.372C22.0705 103.158 20.5823 105.042 19.2019 106.979C16.3592 110.961 12.6631 113.945 8.25091 116.171C5.976 117.317 3.73976 118.518 1.49367 119.707C1.0851 119.926 0.705334 120.188 0.272707 120.447C0.4051 120.527 0.459272 120.587 0.507942 120.575C1.0967 120.511 1.69036 120.452 2.27071 120.357C7.11025 119.593 11.973 119.25 16.8752 119.621C19.6749 119.835 22.4497 120.175 25.1681 120.859C27.6463 121.487 30.1237 122.125 32.6104 122.707C34.6426 123.183 36.7091 123.4 38.815 123.287C41.5921 123.145 44.218 122.442 46.7788 121.457C48.0507 120.972 49.315 120.445 50.582 119.954C53.4433 118.851 56.4235 118.319 59.4975 118.484C61.7567 118.606 64.0135 118.835 66.2647 119.069C70.108 119.468 73.7588 118.842 77.2013 117.182C78.6915 116.466 80.1698 115.692 81.5265 114.762C83.4189 113.467 85.2298 112.05 87.0104 110.609C88.8361 109.131 90.5732 107.555 92.3653 106.029C94.0217 104.617 95.8146 103.377 97.7039 102.277C104.247 98.47 111.171 98.0314 118.384 100.054C119.436 100.348 120.358 100.818 121.156 101.546C123.49 103.684 125.887 105.751 128.17 107.932C131.736 111.334 135.454 114.552 139.744 117.105C139.918 117.209 140.025 117.415 140.173 117.579C140.028 117.672 139.982 117.72 139.94 117.717C136.257 117.681 132.855 118.539 129.895 120.732C129.424 121.08 128.917 121.113 128.372 121.083C126.648 120.98 124.924 120.878 123.199 120.786C119.914 120.607 116.643 120.675 113.418 121.365C108.952 122.323 105.444 124.603 103.15 128.487C102.999 128.738 102.844 128.984 102.699 129.231C101.796 130.805 100.697 132.218 99.2897 133.411C99.1372 133.539 99.0529 133.754 98.9044 133.975C99.1934 134.019 99.3688 134.092 99.5352 134.067C103.082 133.633 106.663 133.468 110.17 132.77C111.28 132.546 112.381 132.3 113.482 132.044C118.456 130.89 122.823 128.625 126.582 125.282C128.339 123.717 130.15 122.223 132.224 121.063C135.355 119.312 138.694 118.803 142.217 119.673C143.256 119.93 144.26 120.303 145.279 120.615C146.131 120.876 146.964 121.268 147.833 121.371C150.788 121.712 153.755 122.034 156.723 122.202C158.617 122.306 160.531 122.123 162.442 122.069C163.123 122.052 163.123 122.042 163.837 122.391C163.812 122.44 163.802 122.506 163.763 122.529C163.473 122.725 163.177 122.926 162.873 123.106C160.907 124.232 159.122 125.579 157.728 127.337C157.133 128.086 156.475 128.315 155.569 128.127C155.166 128.045 154.743 128.017 154.326 127.985C151.113 127.754 147.91 127.468 144.697 127.315C140.07 127.095 135.552 127.752 131.104 128.982C127.295 130.039 124.183 132.052 121.861 135.136C120.606 136.805 119.426 138.546 118.328 140.312C116.853 142.683 115.268 144.965 113.392 147.07C112.89 147.636 112.402 148.219 111.935 148.813C110.039 151.213 108.578 153.831 107.765 156.758C107.438 157.924 107.179 159.1 106.852 160.266C106.159 162.766 105.513 165.273 104.722 167.74C103.963 170.123 102.577 172.218 101.044 174.207C100.734 174.612 100.429 175.012 100.025 175.543C100.604 175.622 101.002 175.556 101.392 175.438L101.412 175.46ZM175.242 109.128C175.202 109.161 175.163 109.194 175.123 109.228C175.089 109.103 175.056 108.978 175.028 108.848C174.812 108.675 174.54 108.539 174.385 108.324C172.262 105.396 169.816 102.737 167.219 100.197C166.221 99.2157 165.264 98.1906 164.301 97.1703C164.079 96.9255 163.914 96.6331 163.654 96.2577C163.969 96.309 164.156 96.2956 164.299 96.3664C165.754 97.04 167.275 97.5336 168.871 97.8016C169.433 97.8946 169.845 98.1417 170.157 98.6177C172.152 101.702 173.758 104.961 175.029 108.377C175.083 108.524 175.001 108.708 174.983 108.876C175.062 108.963 175.157 109.046 175.242 109.128ZM103.609 37.1655C105.008 39.8219 107.021 41.991 109.389 43.871C111.319 45.4101 113.456 46.6607 115.568 47.9506C117.681 49.2405 119.817 50.491 121.835 51.9079C123.414 53.0145 124.856 54.322 126.311 55.5895C126.881 56.0875 127.343 56.6962 127.833 57.2709C128.406 57.9483 128.707 58.7206 128.824 59.6191C129.215 62.6345 129.676 65.6392 130.159 68.6453C130.382 70.0576 130.692 71.455 130.99 73.0156C130.633 72.9513 130.335 72.9625 130.12 72.8461C128.476 71.9963 127.07 70.8499 125.86 69.4909C124.429 67.8769 122.987 66.2724 121.636 64.5918C118.924 61.1995 115.844 58.1927 112.089 55.8791C111.407 55.4557 110.991 54.896 110.641 54.2025C109.632 52.186 108.578 50.1973 107.475 48.2309C106.231 46.0096 105.036 43.7659 104.105 41.3961C103.323 39.3893 103.038 38.1726 103.175 36.4665C103.323 36.7065 103.487 36.9323 103.619 37.1764L103.609 37.1655ZM115.486 70.5693C116.299 71.9741 117.091 73.3877 117.883 74.8012C119.278 77.2884 121.009 79.5415 122.956 81.6603C126.373 85.37 130.635 87.5836 135.664 88.4906C136.13 88.5774 136.602 88.6697 137.063 88.7612C137.121 88.7701 137.171 88.8041 137.341 88.8818C140.297 93.8413 144.442 98.0798 148.093 102.675C147.925 102.797 147.811 102.913 147.78 102.901C142.781 100.454 137.548 98.5306 132.434 96.3535C130.14 95.3794 127.918 94.2871 125.806 92.987C123.639 91.6474 121.668 90.0851 119.882 88.2995C117.081 85.4901 115.303 82.1844 114.534 78.3558C114.036 75.8709 113.801 73.3571 113.656 70.8338C113.607 70.0985 113.585 69.3598 113.533 68.3017C114.613 69.0993 115.065 69.8302 115.501 70.5755L115.486 70.5693ZM132.302 77.6527C132.666 78.8028 133.057 79.9496 133.498 81.074C133.939 82.1984 134.45 83.3018 134.928 84.4133C135.403 85.5092 136.091 86.5116 136.487 87.5972C136.093 87.9862 135.733 87.8193 135.414 87.7524C130.721 86.8213 126.728 84.7173 123.523 81.2416C121.614 79.1765 119.911 76.9765 118.55 74.5376C117.786 73.1771 117 71.8253 116.22 70.4689C115.644 69.4585 114.968 68.5132 114.049 67.762C113.607 67.4055 113.375 67.0064 113.352 66.4417C113.324 65.6411 113.189 64.8439 113.124 64.0461C112.949 61.8639 112.554 59.7237 111.95 57.6158C111.878 57.3602 111.838 57.0966 111.726 56.5773C112.259 56.8578 112.558 56.9797 112.821 57.1608C115.426 58.918 117.7 61.0018 119.698 63.385C121.005 64.9499 122.3 66.5244 123.641 68.0609C126.739 71.6269 127.308 72.0685 131.294 74.2642C131.61 75.3497 131.932 76.5073 132.296 77.6574L132.302 77.6527ZM40.0773 46.45C39.8592 46.231 39.7556 45.8198 39.7674 45.5031C39.8097 43.2634 39.036 41.2213 38.1755 39.2043C37.788 38.3035 37.3787 37.4115 36.9799 36.5202C35.8279 33.9721 35.8834 31.3954 36.7688 28.8012C37.0445 27.9847 37.3463 27.175 37.6742 26.3721C38.2656 24.926 38.7991 23.471 38.9945 21.9172C39.0203 21.7038 39.1404 21.5069 39.2531 21.1917C39.8682 21.3547 40.4376 21.4892 40.9878 21.6685C42.566 22.1812 44.1265 22.7183 45.7046 23.2309C46.2964 23.4232 46.7293 23.7586 47.0364 24.2958C48.3215 26.5402 49.1088 28.916 49.1646 31.4949C49.191 32.8431 48.7508 34.1046 48.2706 35.3326C47.6862 36.8304 46.9828 38.2845 46.2842 39.7441C45.2312 41.9331 44.1887 44.1229 43.7584 46.5164C43.6181 47.2957 43.5616 48.0906 43.4213 49.2437C41.9913 48.2901 41.0202 47.382 40.0773 46.45ZM79.098 98.8548C76.2687 100.554 74.0691 102.883 72.0835 105.416C70.9331 106.882 69.8432 108.393 68.7132 109.87C67.437 111.538 66.0544 113.132 64.2757 114.321C63.2049 115.04 62.0561 115.661 60.9045 116.246C59.8912 116.753 58.7876 116.963 57.6329 116.995C56.6268 117.026 55.6269 117.197 54.6158 117.299C54.2788 117.334 53.9432 117.348 53.4997 117.385C53.6475 117.098 53.6923 116.917 53.8067 116.801C55.7546 114.875 56.9532 112.506 58.0962 110.098C58.8641 108.484 59.6425 106.871 60.5133 105.305C61.1583 104.149 61.9274 103.042 62.7204 101.973C63.2723 101.231 63.9461 100.568 64.5987 99.9044C65.3657 99.1251 66.2999 98.6844 67.435 98.6306C69.5768 98.535 71.7131 98.3673 73.8521 98.3125C75.6294 98.2647 77.4043 98.3243 79.3951 98.3366C79.1964 98.6667 79.1658 98.7978 79.0825 98.8486L79.098 98.8548ZM44.7636 53.0022C42.1622 52.3152 39.4992 52.1208 36.8226 52.0432C35.2168 51.9947 33.6103 51.9563 32.0074 51.867C27.929 51.6364 24.4013 50.1568 21.4088 47.4987C21.109 47.2334 20.8453 46.909 20.6577 46.5588C19.9011 45.1731 18.8119 41.3646 18.644 39.5412C18.9565 39.4797 19.2767 39.3829 19.6081 39.3533C20.9872 39.2284 22.3419 39.3732 23.6658 39.7259C24.9221 40.0588 26.1905 40.372 27.4453 40.7254C29.0017 41.17 30.5741 41.3905 32.1993 41.2407C32.9424 41.1715 33.542 41.3284 34.095 41.9174C37.5762 45.6211 41.4127 48.9589 45.3749 52.1718C45.6459 52.3943 45.8823 52.6554 46.1194 52.9064C46.1391 52.9282 46.0959 53.0124 46.0696 53.1592C45.6424 53.1159 45.1856 53.1168 44.7636 53.0022ZM13.2221 4.91554C15.5797 6.26755 17.7953 7.82531 19.9056 9.51955C22.3777 11.5036 24.8039 13.5359 27.2753 15.5302C27.9989 16.1099 28.3753 16.8666 28.7058 17.6716C29.5928 19.8388 29.8889 22.1006 29.9636 24.4145C30.0102 25.8511 30.0943 27.285 30.2051 28.7155C30.3717 30.8562 30.9099 32.9239 32.009 34.7978C32.8853 36.2937 33.8999 37.7116 34.8474 39.1763C35.57 40.2935 36.2926 41.4107 36.987 42.5517C37.1486 42.8182 37.1995 43.1492 37.4224 43.8243C36.8937 43.416 36.6592 43.2778 36.4707 43.0914C31.0114 37.8506 26.5502 31.9428 23.5 25.0879C22.6119 23.0844 21.659 21.0972 20.8641 19.0537C18.6569 13.416 15.1524 8.62031 10.7472 4.39038C10.4988 4.14888 10.273 3.88838 10.0409 3.64282C10.1157 3.56068 10.1906 3.47853 10.2711 3.39164C11.2599 3.90164 12.2672 4.37701 13.2319 4.9264L13.2221 4.91554ZM14.9668 113.665C16.5609 112.382 17.968 110.892 19.6014 109.355C19.9334 109.392 20.4564 109.431 20.9765 109.512C22.7158 109.774 24.434 109.661 26.0938 109.098C27.8898 108.489 29.6408 107.763 31.4284 107.122C32.878 106.603 34.3215 106.021 35.8117 105.678C38.9754 104.953 42.0876 105.105 45.0046 106.658C45.5624 106.955 46.1928 107.201 46.4983 107.835C46.3704 107.991 46.2799 108.144 46.1556 108.248C41.631 111.757 36.5919 114.059 30.7128 114.356C28.2769 114.478 25.8348 114.539 23.3968 114.692C19.3957 114.943 15.4987 115.748 11.6728 116.896C11.0705 117.077 10.4884 117.346 9.69741 117.34C11.5404 116.068 13.35 114.968 14.9724 113.661L14.9668 113.665ZM47.4587 48.0329C48.0708 47.1923 48.7997 46.4259 49.5181 45.6587C50.7034 44.3743 51.9493 43.1348 53.1149 41.8286C53.8128 41.0499 54.4615 40.2168 55.0384 39.3483C56.1801 37.6309 56.866 35.7507 57.0327 33.7035C57.0702 33.2503 57.1394 32.7991 57.1931 32.3418C57.579 32.2186 57.7237 32.4994 57.8882 32.7252C59.6854 35.2386 60.7256 38.0149 60.9448 41.0601C61.0513 42.5518 60.8618 44.0241 60.3557 45.4655C59.0375 49.2192 56.6407 52.2318 53.6095 54.8292C53.2084 55.1665 52.7574 55.4596 52.3127 55.7377C52.0686 55.8856 51.7808 55.9743 51.469 56.1024C50.4225 55.5068 49.6748 54.5927 48.776 53.8633C47.9123 53.1618 47.0776 52.4264 46.1612 51.6446C46.0793 50.1801 46.711 49.0643 47.4587 48.0329ZM126.156 49.5585C123.848 47.3497 121.099 45.752 118.274 44.2568C114.153 42.078 110.53 39.3275 107.676 35.6802C105.685 33.1387 104.035 30.425 103.177 27.3227C102.995 26.6708 102.922 25.9749 102.88 25.2912C102.788 23.5189 102.745 21.7446 102.676 19.7896C102.922 20.0616 103.098 20.2011 103.187 20.3759C104.816 23.6155 107.109 26.4019 109.676 28.9862C111.694 31.0174 113.819 32.9481 115.876 34.946C117.471 36.4889 119.105 38.0087 120.621 39.6282C123.029 42.2123 124.875 45.1538 126.174 48.4027C126.318 48.7603 126.43 49.1362 126.604 49.6698C126.26 49.5858 126.185 49.5912 126.151 49.5531L126.156 49.5585ZM147.835 70.578C149.545 73.2599 150.537 76.2019 150.777 79.3253C150.926 81.2601 150.983 83.2349 150.793 85.1577C150.276 90.4127 149.649 95.6553 148.654 100.843C148.627 100.99 148.522 101.126 148.428 101.33C148.239 101.221 148.073 101.169 147.969 101.054C144.842 97.5991 141.498 93.4641 140.365 91.6187C140.55 91.3287 140.77 91.0001 140.99 90.6714C143.922 86.2602 145.817 81.4844 146.511 76.282C146.77 74.3483 147.051 72.416 146.93 70.4575C146.917 70.257 146.99 70.0621 147.06 69.5905C147.436 70.0605 147.663 70.3006 147.835 70.578ZM48.6284 102.67C47.8558 101.883 47.1631 101.018 46.4534 100.168C45.7774 99.3663 45.1516 98.5318 44.4699 97.7347C43.0567 96.0962 41.2696 95.0119 39.124 94.4877C39.0091 94.4598 38.888 94.4467 38.7738 94.4086C38.6646 94.3758 38.5625 94.3179 38.3152 94.2096C38.5771 94.0373 38.7615 93.8343 38.978 93.7768C40.5367 93.3666 42.1463 93.2875 43.7537 93.2389C46.5588 93.1507 49.3319 92.9172 52.0564 92.2452C53.7321 91.8325 55.384 92.1298 56.9372 92.7688C57.9692 93.1946 58.9366 93.78 59.9014 94.3294C61.6929 95.3526 63.4667 96.4003 65.2356 97.4425C65.3786 97.5235 65.4629 97.6826 65.6507 97.8792C63.8811 98.3421 62.1744 98.7426 60.4936 99.2267C58.7747 99.7237 57.1505 100.457 55.6261 101.356C54.1123 102.256 52.6463 103.23 51.1338 104.186C50.0796 103.999 49.3018 103.359 48.6137 102.654L48.6284 102.67ZM135.566 59.143C135.828 58.4433 136.017 57.7185 136.27 57.0079C136.357 56.7525 136.522 56.5278 136.693 56.2113C137.552 57.7214 138.256 59.1702 139.172 60.4895C140.058 61.7659 141.156 62.9127 142.135 64.0825C141.975 69.7755 138.594 77.2291 134.639 80.6315C134.069 80.5942 134.083 80.0934 133.958 79.7576C132.698 76.3423 131.859 72.8214 131.166 69.264C130.949 68.1338 130.769 67.0008 130.6 65.8685C130.543 65.4757 130.55 65.0768 130.526 64.5223C133.373 63.6228 134.667 61.5469 135.561 59.1375L135.566 59.143ZM147.443 134.703C145.98 136.384 144.848 138.266 143.822 140.221C143.172 141.448 142.481 142.652 141.759 143.844C140.609 145.761 139.087 147.366 137.222 148.657C136.551 149.125 135.816 149.523 135.079 149.884C134.017 150.404 132.913 150.844 131.846 151.357C130.076 152.204 128.416 153.217 126.91 154.455C126.65 154.674 126.361 154.859 125.98 155.142C125.948 154.833 125.875 154.664 125.926 154.544C126.934 152.03 127.879 149.491 128.994 147.019C130.368 143.986 132.402 141.364 134.785 138.996C136.048 137.742 137.484 136.812 139.301 136.357C142.064 135.672 144.779 134.826 147.847 133.961C147.597 134.411 147.537 134.576 147.428 134.697L147.443 134.703ZM125.363 30.1388C128.248 32.5901 130.65 35.4093 132.384 38.7327C132.622 39.1936 132.889 39.6308 132.663 40.1946C131.434 43.2886 131.663 46.4983 131.902 49.7086C132.053 51.7664 132.183 53.8228 132.218 55.8832C132.254 57.913 131.717 59.8592 130.869 61.7135C130.75 61.9668 130.549 62.1841 130.264 62.5956C130.127 61.9825 130.01 61.5447 129.934 61.1097C129.535 58.7337 129.2 56.3516 128.751 53.9877C128.012 50.115 126.608 46.4855 124.44 43.1338C124.282 42.8931 124.167 42.6348 124.026 42.3798C124.187 41.9756 124.315 41.6 124.484 41.2373C125.046 40.0555 125.182 38.8101 125.044 37.5365C124.905 36.2833 124.675 35.0395 124.503 33.7944C124.401 33.0557 124.321 32.3183 124.284 31.5735C124.255 31.0033 124.312 30.4285 124.811 29.8365C125.041 29.959 125.217 30.0217 125.347 30.1326L125.363 30.1388ZM62.5245 116.244C64.6583 115.14 66.4834 113.672 67.9876 111.86C69.1782 110.428 70.2983 108.939 71.4184 107.451C72.8552 105.543 74.3475 103.674 76.1059 102.023C77.3065 100.898 78.6097 99.898 80.1028 99.1406C81.0666 98.6557 82.0632 98.3829 83.1896 98.4513C85.4375 98.5828 87.6626 98.8101 90.0306 99.1951C89.8017 99.4259 89.7097 99.5991 89.58 99.6316C85.734 100.614 82.7746 102.873 80.2414 105.713C79.1965 106.889 78.2974 108.182 77.3026 109.402C76.2377 110.71 75.187 112.044 74.0321 113.274C72.2386 115.194 70.0311 116.514 67.432 117.215C66.4954 117.466 65.5787 117.585 64.6125 117.43C63.6724 117.282 62.7215 117.209 61.7785 117.102C61.7491 116.992 61.7197 116.883 61.6853 116.768C61.974 116.592 62.2429 116.395 62.5351 116.245L62.5245 116.244ZM134.815 81.6054C137.122 79.483 138.76 76.8304 140.195 74.0519C141.636 71.2585 142.463 68.2919 142.8 65.0373C143.128 65.2123 143.362 65.2737 143.501 65.4159C144.233 66.1702 144.943 66.9436 145.66 67.702C146.08 68.1442 146.266 68.6581 146.276 69.2629C146.402 76.0957 145.011 82.5837 141.473 88.5783C141.153 89.1256 140.806 89.6662 140.461 90.1965C140.336 90.388 140.16 90.5455 139.922 90.8218C138.327 89.2022 135.588 84.2516 134.815 81.6054ZM11.6322 6.51144C15.1331 10.2369 17.996 14.3456 19.8962 19.0724C21.0968 22.0588 22.4984 24.9816 23.8959 27.8887C25.0939 30.3886 26.5395 32.7664 28.1905 35.0194C28.4233 35.3316 28.6109 35.6817 28.8013 35.9911C28.513 36.387 28.2123 36.2086 27.9607 36.1615C25.5415 35.6758 23.5734 34.4465 21.9108 32.7303C21.2628 32.0583 20.6713 31.3387 20.0628 30.6334C19.2581 29.7002 18.4075 28.8153 17.2905 28.2406C16.6397 27.9063 16.3911 27.4446 16.2697 26.7609C15.817 24.1612 15.3319 21.5696 14.7714 18.9936C13.9013 14.9434 12.543 11.0353 10.8646 7.22414C10.6407 6.7129 10.4394 6.18266 10.2317 5.66735C10.322 5.59134 10.4124 5.51534 10.5134 5.44002C10.8863 5.79716 11.2762 6.14003 11.6266 6.51618L11.6322 6.51144ZM25.3948 101.742C27.9823 98.9617 31.1527 96.9468 34.6128 95.3399C36.1396 94.6307 37.7587 94.7928 39.3306 95.2436C40.8976 95.689 42.2926 96.461 43.3937 97.6337C44.0754 98.354 44.7233 99.1029 45.3316 99.885C46.8747 101.839 48.5143 103.504 50.2506 104.881C49.8789 105.404 49.4044 105.803 48.737 106.077C48.4047 105.82 48.0759 105.588 47.7705 105.328C45.0558 103.021 41.8597 102.182 38.3278 102.556C36.4389 102.755 34.5652 103.114 32.6978 103.458C30.7444 103.816 28.8041 103.992 26.8565 103.522C26.1722 103.359 25.5108 103.101 24.6076 102.806C24.9899 102.283 25.1646 101.993 25.3948 101.742ZM63.5857 99.8844C61.1404 102.459 59.4639 105.498 57.9713 108.641C57.328 109.997 56.7051 111.364 55.9948 112.69C55.0879 114.392 53.8979 115.891 52.4306 117.182C51.8128 117.731 51.1338 118.168 50.3325 118.458C48.7184 119.049 47.1352 119.729 45.5261 120.325C43.917 120.922 42.2834 121.414 40.2238 121.623C40.6425 121.261 40.8149 121.077 41.0161 120.937C41.7918 120.409 42.602 119.919 43.3686 119.37C45.7581 117.658 47.595 115.5 48.8427 112.888C49.4613 111.582 50.0284 110.252 50.6772 108.968C51.3013 107.734 51.9571 106.502 52.6939 105.327C53.5438 103.98 54.7343 102.921 56.1302 102.111C58.3955 100.8 60.8441 99.8998 63.4218 99.3514C63.5134 99.3318 63.6303 99.406 63.786 99.4571C63.7223 99.6066 63.7043 99.7846 63.6012 99.8905L63.5857 99.8844ZM29.462 56.2982C32.7294 57.4793 36.0919 57.5453 39.4997 57.1228C41.1553 56.9186 42.806 56.709 44.4748 56.6183C46.9488 56.483 49.3484 56.8701 51.5556 58.0229C52.0676 58.2918 52.5858 58.6226 52.9812 59.0376C54.947 61.1217 56.9594 63.1474 59.1243 65.0449C59.2439 65.1551 59.3063 65.323 59.463 65.5841C59.1732 65.6266 58.9602 65.71 58.7664 65.6718C54.3674 64.9441 49.9044 64.5195 45.5511 63.5235C40.3092 62.3261 35.2804 60.5949 30.736 57.7279C30.1058 57.3284 29.4022 56.9906 28.8692 56.2697C29.1504 56.2727 29.3233 56.2329 29.4684 56.2833L29.462 56.2982ZM70.0958 116.949C72.1222 116.011 73.7969 114.641 75.2303 113.004C76.1897 111.91 77.0843 110.755 77.9937 109.616C78.7922 108.619 79.5611 107.589 80.3645 106.597C81.7324 104.909 83.3924 103.523 85.2064 102.285C87.4722 100.743 90.031 100.086 92.7287 99.7912C92.9 99.7716 93.0862 99.7685 93.2652 99.7904C93.6176 99.839 93.9749 99.8931 94.3194 99.977C95.165 100.186 96.0042 100.41 97.0209 100.676C96.7349 100.964 96.6147 101.161 96.4375 101.262C93.3168 103.101 90.6553 105.502 87.9306 107.823C86.099 109.383 84.2478 110.92 82.3374 112.393C80.2357 114.017 77.9274 115.336 75.4398 116.335C73.7777 117.005 72.0484 117.424 70.2659 117.62C69.993 117.649 69.7119 117.569 69.1797 117.508C69.6237 117.24 69.8531 117.076 70.1057 116.96L70.0958 116.949ZM48.8684 24.7482C51.2994 26.1153 53.5212 27.7348 55.4575 29.7095C56.1604 30.4313 56.4614 31.2035 56.461 32.1814C56.4461 35.2318 55.4154 37.9291 53.4836 40.3014C52.5643 41.4291 51.5494 42.484 50.5647 43.5614C50.2128 43.9532 49.8364 44.3177 49.4593 44.6924C47.7106 46.4315 46.0231 48.2053 45.4171 50.6796C44.5355 50.5298 44.1952 50.0878 44.1832 49.36C44.1565 47.7916 44.3828 46.25 44.9326 44.7909C45.561 43.122 46.293 41.4905 47.0404 39.8652C47.8573 38.0857 48.7051 36.3184 49.3261 34.4544C50.0336 32.3452 49.979 30.2733 49.3893 28.1817C49.121 27.2478 48.723 26.3463 48.385 25.4231C48.291 25.1764 48.2026 24.9249 48.042 24.4946C48.4478 24.6132 48.6797 24.6386 48.8691 24.738L48.8684 24.7482ZM129.652 131.104C131.934 130.229 134.31 129.678 136.727 129.303C139.911 128.81 143.12 128.651 146.348 128.887C148.784 129.061 151.226 129.231 153.656 129.41C154.052 129.441 154.438 129.538 155.058 129.64C154.745 129.932 154.616 130.108 154.434 130.204C152.041 131.517 149.487 132.476 146.879 133.299C145.749 133.655 144.588 133.933 143.467 134.31C141.905 134.838 140.319 134.888 138.703 134.685C136.692 134.431 134.679 134.207 132.667 133.973C129.886 133.648 127.199 133.934 124.637 135.092C124.538 135.137 124.411 135.129 123.928 135.199C125.573 133.203 127.447 131.943 129.646 131.109L129.652 131.104ZM38.1096 20.8405C38.4561 21.4212 38.4037 21.9349 38.2512 22.4369C37.893 23.5911 37.5039 24.7329 37.1196 25.8803C36.6418 27.2979 36.0859 28.6952 35.7074 30.1347C35.1331 32.314 35.3412 34.4676 36.2234 36.5527C36.7646 37.8321 37.3988 39.0716 37.8751 40.3673C38.3289 41.6052 38.6571 42.8912 38.986 44.167C39.0616 44.4484 38.9581 44.7847 38.7107 45.1269C38.6012 44.874 38.4431 44.6333 38.3822 44.3682C37.9093 42.4277 36.9297 40.7407 35.7258 39.1466C34.9593 38.1238 34.2154 37.082 33.5104 36.0171C31.6193 33.1801 30.8554 30.0277 30.7573 26.6986C30.7296 25.6677 30.6864 24.6307 30.6376 23.5984C30.5456 21.5291 30.1955 19.5045 29.567 17.436C32.3502 18.9284 35.2216 20.0017 38.1047 20.8351L38.1096 20.8405ZM119.47 148.762C117.165 152.196 115.533 155.954 113.814 159.672C112.973 161.501 112.007 163.281 111.026 165.055C109.461 167.876 107.246 170.189 104.731 172.246C104.573 172.379 104.366 172.458 104.023 172.651C104.126 172.325 104.143 172.157 104.216 172.028C106.124 168.871 107.135 165.395 108.085 161.893C108.654 159.785 109.208 157.671 109.861 155.589C110.149 154.666 110.651 153.803 111.06 152.913C111.719 151.487 112.865 150.522 114.271 149.8C115.903 148.954 117.626 148.396 119.669 148.202C119.554 148.548 119.535 148.669 119.47 148.762ZM103.409 30.0411C105.855 35.382 109.624 39.6677 114.653 42.8939C116.187 43.8747 117.785 44.7727 119.397 45.6408C121.806 46.9398 124.007 48.4813 125.96 50.365C126.919 51.2928 127.613 52.3006 127.779 53.6272C127.858 54.3082 128.017 54.9791 128.123 55.6567C128.138 55.7498 128.039 55.8611 127.957 56.0554C127.71 55.8703 127.465 55.7212 127.272 55.5294C124.852 53.0316 122.02 51.0342 119.047 49.212C117.343 48.1638 115.603 47.1644 113.887 46.1256C111.718 44.8064 109.654 43.3508 107.835 41.5936C106.051 39.8644 104.707 37.8516 103.604 35.665C102.593 33.6689 102.496 31.6044 102.877 29.0694C103.197 29.6535 103.316 29.8507 103.408 30.0512L103.409 30.0411ZM31.7475 80.0495C33.8574 79.7317 35.9812 79.4403 38.089 79.0763C41.4873 78.4893 44.8687 77.8398 48.2572 77.242C50.4891 76.8502 52.7563 76.7833 55.0142 76.8488C56.7264 76.8941 58.3994 77.1928 60.1711 77.8973C59.8682 78.1233 59.7136 78.2821 59.5329 78.3573C56.5601 79.5353 53.5689 80.671 50.6052 81.87C47.554 83.1043 44.4274 83.5298 41.178 82.9182C39.7157 82.6435 38.2584 82.3742 36.8096 82.0594C34.5504 81.5637 32.2998 81.0225 30.0421 80.5064C30.0317 80.4289 30.0156 80.3562 30.0044 80.2889C30.5833 80.2141 31.1615 80.1495 31.7362 80.059L31.7475 80.0495ZM74.2486 89.0665C74.5361 89.1314 74.8193 89.2574 75.1097 89.2815C76.6625 89.4034 77.7733 90.2131 78.6305 91.3801C79.4877 92.5471 80.3279 93.7283 81.1067 94.9516C81.5369 95.6248 81.8605 96.3781 81.9041 97.1847C81.6629 97.5888 81.2726 97.4762 80.9434 97.4752C79.1535 97.4761 77.3722 97.4314 75.5858 97.4581C74.6446 97.4734 73.8076 97.2191 73.0867 96.6754C71.9231 95.7853 70.7948 94.8464 69.6771 93.9081C68.7403 93.1148 67.8791 92.2292 66.8963 91.4841C65.9692 90.7784 64.9263 90.2086 63.9299 89.5803C63.7469 89.466 63.5645 89.3414 63.0731 89.0073C67.0555 88.1974 70.6513 88.2684 74.243 89.0713L74.2486 89.0665ZM47.272 109.504C46.3199 111.244 45.1052 112.792 43.6673 114.193C41.5613 116.252 39.1915 117.987 36.6038 119.425C35.7851 119.884 34.8941 120.24 34.0285 120.614C33.0153 121.044 32.0191 121.087 30.9116 120.753C28.8838 120.14 26.8023 119.686 24.5898 119.132C25.0718 118.477 25.7361 118.321 26.2401 117.955C26.766 117.58 27.3264 117.242 27.8178 116.829C28.3092 116.416 28.7317 115.926 29.2869 115.364C32.4899 115.132 35.7849 114.728 38.9059 113.483C41.9557 112.269 44.6379 110.473 47.5646 108.75C47.4668 109.004 47.4001 109.271 47.272 109.504ZM106.686 171.714C109.663 169.143 111.753 165.957 113.453 162.515C114.451 160.497 115.357 158.441 116.293 156.398C117.355 154.087 118.529 151.844 119.939 149.709C120.993 148.104 122.213 146.627 123.565 145.251C123.8 145.006 124.036 144.75 124.397 144.369C124.421 144.78 124.47 144.911 124.422 145C122.973 147.972 122.199 151.163 121.239 154.289C120.852 155.554 120.423 156.806 119.968 158.051C118.697 161.506 116.642 164.5 114.122 167.223C113.927 167.435 113.72 167.647 113.499 167.843C111.396 169.641 108.999 171.015 106.382 172.114C106.481 171.982 106.561 171.828 106.691 171.719L106.686 171.714ZM121.153 38.8541C119.175 36.9534 117.19 35.0575 115.234 33.1378C113.064 31.0147 110.866 28.9154 108.775 26.7258C106.916 24.7818 105.338 22.6205 104.121 20.2423C103.631 19.2836 103.169 18.3114 102.882 16.9616C104.583 18.1478 106.008 19.2392 107.53 20.1731C109.083 21.1193 110.742 21.9086 112.446 22.8135C112.501 22.9399 112.614 23.1419 112.668 23.3553C113.195 25.2123 114.157 26.847 115.366 28.3595C116.42 29.6775 117.513 30.9623 118.516 32.3129C119.306 33.3833 120.061 34.4924 120.696 35.6551C121.166 36.505 121.444 37.46 121.766 38.377C121.85 38.6231 121.797 38.9166 121.823 39.374C121.485 39.1215 121.296 39.0119 121.147 38.869L121.153 38.8541ZM22.894 49.4696C25.8571 51.6444 29.2683 52.4458 32.9232 52.5821C35.7781 52.6918 38.6386 52.7967 41.4769 53.064C44.2258 53.3203 46.8497 54.0651 49.1923 55.5544C49.4767 55.7368 49.7258 55.9681 50.1186 56.2702C49.8154 56.3528 49.6544 56.4498 49.529 56.4212C46.578 55.7216 43.6261 55.8564 40.6588 56.2821C38.7754 56.5533 36.878 56.7212 34.9656 56.6526C31.5327 56.5307 28.3998 55.4762 25.6286 53.5904C24.0684 52.526 23.0393 50.9382 22.3131 49.1244C22.5067 49.2395 22.7124 49.3348 22.8891 49.4641L22.894 49.4696ZM118.893 162.041C120.623 158.929 121.59 155.556 122.594 152.192C123.215 150.097 123.765 147.968 124.775 146.006C125.274 145.03 125.866 144.101 126.488 143.195C127.122 142.279 127.94 141.523 128.941 140.969C130.389 140.173 131.842 139.382 133.294 138.601C133.482 138.501 133.708 138.454 134.078 138.335C133.955 138.64 133.943 138.813 133.845 138.914C130.271 142.582 127.933 146.934 126.243 151.652C125.759 153.008 125.213 154.339 124.662 155.675C124.239 156.692 123.648 157.611 122.858 158.419C121.838 159.469 120.878 160.563 119.884 161.63C119.578 161.963 119.248 162.279 118.744 162.789C118.828 162.354 118.815 162.174 118.888 162.036L118.893 162.041ZM139.844 147.4C141.615 145.652 142.827 143.54 143.998 141.405C144.749 140.036 145.495 138.661 146.342 137.344C146.904 136.47 147.592 135.67 148.271 134.87C149.187 133.783 150.282 132.948 151.691 132.472C152.747 132.111 153.742 131.571 154.773 131.106C154.82 131.268 154.907 131.397 154.875 131.471C153.417 134.422 151.877 137.337 150.071 140.112C147.615 143.873 144.113 146.302 139.679 147.932C139.787 147.611 139.786 147.478 139.854 147.411L139.844 147.4ZM137.639 135.982C134.524 136.992 131.552 138.303 128.79 140.033C128.384 140.288 127.965 140.419 127.459 140.442C124.621 140.549 121.938 141.234 119.466 142.613C119.316 142.701 119.134 142.73 118.895 142.806C118.92 142.603 118.89 142.427 118.962 142.309C119.809 140.926 120.681 139.559 121.533 138.181C121.941 137.522 122.507 137.037 123.173 136.63C125.661 135.103 128.381 134.349 131.314 134.556C133.512 134.709 135.688 135.026 137.875 135.276C138.022 135.296 138.158 135.402 138.492 135.552C138.106 135.752 137.883 135.901 137.633 135.987L137.639 135.982ZM28.8108 40.3435C27.4269 40.0125 26.0366 39.6964 24.6733 39.3002C22.9407 38.7928 21.1921 38.5864 19.3872 38.7245C19.0988 38.7466 18.7993 38.7015 18.4293 38.6773C17.7695 37.1239 17.6648 35.4583 17.3914 33.8482C17.1132 32.2326 16.6967 30.6183 16.7727 28.8007C17.1531 28.9791 17.4511 29.0446 17.6355 29.2154C18.2844 29.8005 18.9156 30.41 19.508 31.0426C20.1053 31.6806 20.6292 32.3804 21.2265 33.0184C23.2457 35.1726 25.6991 36.5974 28.7269 36.9641C29.5008 37.0608 30.0416 37.3725 30.4994 37.9554C31.0008 38.5974 31.5701 39.1824 32.0885 39.8101C32.2256 39.9727 32.295 40.1923 32.4207 40.4411C31.1372 40.7156 29.9643 40.6288 28.8052 40.3483L28.8108 40.3435ZM51.9273 76.043C50.4418 76.0945 48.9597 76.2486 47.4923 76.4957C44.326 77.0313 41.1675 77.6083 38.0208 78.2424C35.2189 78.8069 32.3885 79.175 29.538 79.3779C29.1376 79.408 28.7225 79.3451 28.0021 79.3185C28.4595 79.0105 28.66 78.8034 28.8999 78.7167C30.121 78.2742 31.3401 77.7856 32.6011 77.4532C34.6789 76.9132 36.6788 76.199 38.6633 75.402C40.1992 74.7906 41.7737 74.2331 43.3678 73.774C45.694 73.1017 48.0429 73.081 50.4189 73.6509C52.5025 74.1505 54.5805 74.6549 56.538 75.5097C56.8007 75.6241 57.0451 75.7732 57.6641 76.1055C55.4675 76.0746 53.6842 75.9838 51.9111 76.0471L51.9273 76.043ZM124.06 35.3936C124.206 36.1813 124.309 36.9765 124.379 37.7797C124.507 39.196 124.293 40.0472 123.492 41.4489C123.318 41.2789 123.104 41.1523 123.016 40.9674C122.896 40.7138 122.821 40.4222 122.804 40.1395C122.6 37.4843 121.496 35.1544 119.926 33.0245C118.686 31.3461 117.357 29.7234 116.055 28.0871C115.148 26.9425 114.291 25.7755 113.755 24.4247C113.656 24.1725 113.612 23.8931 113.505 23.4561C113.928 23.5605 114.224 23.5798 114.46 23.6976C117.74 25.2993 121.062 26.8372 124.126 29.1569C123.373 31.3143 123.674 33.3512 124.055 35.3881L124.06 35.3936ZM46.9622 107.062C46.8544 107.009 46.7643 106.931 46.6735 106.864C43.5912 104.722 40.1618 104.252 36.4879 104.832C34.8336 105.092 33.2669 105.614 31.7304 106.236C30.0301 106.918 28.3292 107.611 26.6016 108.23C25.032 108.793 23.4009 109.102 21.705 108.975C21.182 108.936 20.6463 108.927 20.1964 108.606C20.7473 107.28 22.7233 104.66 24.166 103.341C24.9135 103.584 25.6827 103.895 26.4761 104.091C28.4075 104.565 30.3461 104.563 32.3101 104.205C34.3495 103.832 36.3995 103.459 38.4613 103.22C40.5554 102.973 42.6142 103.225 44.5596 104.099C45.8613 104.691 46.9933 105.502 48.0777 106.536C47.7404 107.097 47.4333 107.308 46.9614 107.072L46.9622 107.062ZM68.4019 97.6544C67.8858 97.6668 67.3214 97.5378 66.853 97.328C65.5662 96.7524 64.2935 96.1266 63.0441 95.4716C62.3173 95.0862 61.657 94.5874 60.9542 94.1627C60.048 93.612 59.1601 93.0267 58.21 92.5704C57.3218 92.1386 56.3545 91.8502 55.4232 91.5026C55.354 91.2063 55.5741 91.0978 55.797 91.0253C57.3234 90.5465 58.8491 90.0779 60.3755 89.599C61.0273 89.3959 61.6751 89.3972 62.2887 89.6574C63.1551 90.0212 64.0384 90.3707 64.844 90.8432C65.644 91.3203 66.3993 91.9021 67.0996 92.511C68.8556 94.0336 70.5819 95.6004 72.5792 97.3897C70.9943 97.4961 69.6948 97.6211 68.3969 97.649L68.4019 97.6544ZM60.6186 47.3719C60.6088 47.7347 60.6307 48.0997 60.5842 48.455C60.2859 50.7855 59.9721 53.1099 59.6737 55.4403C59.3153 58.243 59.2868 61.0365 60.0416 63.7942C60.0844 63.9403 60.0079 64.1196 59.9749 64.4349C56.9089 62.2123 54.6803 59.3431 51.9908 56.756C55.7598 54.3143 58.5066 51.1608 60.6186 47.3719ZM132.218 60.1377C133.006 57.8648 133.024 55.5211 132.878 53.1617C132.715 50.5297 132.54 47.9072 132.414 45.2725C132.337 43.6599 132.56 42.6864 133.226 40.9379C133.441 41.2847 133.646 41.5336 133.748 41.8117C134.579 44.093 134.985 46.4644 135.341 48.8478C135.592 50.5435 135.892 52.2372 136.218 53.9276C136.325 54.508 136.321 55.0197 136.089 55.5882C135.647 56.6498 135.36 57.7728 134.914 58.829C134.511 59.7806 134.051 60.7233 133.491 61.5878C132.924 62.4672 132.165 63.201 130.84 63.5393C131.361 62.2576 131.839 61.2137 132.213 60.1425L132.218 60.1377ZM79.0675 90.6868C82.2568 91.0231 92.5806 96.4178 95.146 99.0326C95.1269 99.0775 95.1225 99.1386 95.0886 99.1671C95.0491 99.2003 94.9736 99.2159 94.9215 99.2023C90.9747 98.3147 86.9545 97.8627 82.7493 97.5471C82.1692 94.8726 80.6969 92.795 79.0675 90.6868ZM35.3718 120.768C38.8022 119.205 41.7614 117.023 44.4049 114.426C46.3005 112.563 47.7807 110.418 48.8059 108.022C49.3667 106.707 50.4156 105.997 51.5266 105.235C51.6075 105.369 51.6665 105.434 51.6538 105.464C50.5816 107.698 49.4841 109.914 48.438 112.155C46.5213 116.259 43.2676 119.072 39.2026 121.121C37.809 121.823 36.3819 121.95 34.8888 121.586C34.7951 121.56 34.7234 121.448 34.4644 121.205C34.8603 121.016 35.1136 120.889 35.3718 120.768ZM171.722 99.4572C170.554 97.5173 169.279 95.6473 167.737 93.9543C167.422 93.6061 167.116 93.2687 167.072 92.7692C167.002 91.9659 166.926 91.1674 166.79 90.3803C166.666 89.6606 166.477 88.9571 166.328 88.2869C166.646 88.0005 166.856 88.1883 167.028 88.3019C168.858 89.5324 170.352 91.084 171.63 92.8365C171.799 93.0677 171.978 93.32 172.06 93.5865C172.756 95.7515 172.955 97.9507 172.29 100.283C172.103 100.009 171.893 99.7448 171.717 99.462L171.722 99.4572ZM164.438 91.8701C165.758 93.0981 166.919 94.4794 168.137 95.8031C168.398 96.0915 168.569 96.4457 168.771 96.7456C168.452 97.119 168.149 96.9712 167.905 96.8989C167 96.6248 166.102 96.3357 165.223 96.0018C162.999 95.1501 161.262 93.813 160.205 91.655C159.317 89.8615 158.359 88.0992 157.573 85.8566C160.069 88.0316 162.311 89.8932 164.444 91.8654L164.438 91.8701ZM126.003 141.878C124.182 143.285 122.556 144.873 121.098 146.626C120.75 147.044 120.362 147.351 119.788 147.421C117.892 147.646 116.075 148.177 114.246 148.959C114.099 148.412 114.497 148.192 114.714 147.904C116.369 145.688 118.27 143.754 120.926 142.622C122.618 141.898 124.346 141.355 126.506 141.225C126.213 141.615 126.138 141.774 126.009 141.873L126.003 141.878ZM27.8556 115.475C27.7197 115.742 27.653 116.009 27.4828 116.162C26.3918 117.166 25.099 117.87 23.7486 118.488C23.1065 118.779 22.4799 118.702 21.828 118.609C19.2951 118.228 16.7486 117.965 14.1761 118.068C13.409 118.1 12.6476 118.127 11.8813 118.148C14.8728 116.408 23.1964 115.196 27.8556 115.475ZM118.344 125.962C116.774 127.8 114.874 129.273 112.745 130.46C112.341 130.685 111.882 130.87 111.429 130.963C109.501 131.339 107.57 131.679 105.635 132.013C105.473 132.043 105.291 131.985 105.086 131.957C106.49 130.364 115.881 125.791 118.685 125.35C118.55 125.597 118.482 125.807 118.344 125.962ZM174.529 97.777C175.19 99.6838 175.808 101.598 176.415 103.522C176.606 104.128 176.727 104.745 176.852 105.368C177.34 107.775 177.816 110.192 178.297 112.614C177.843 112.661 177.792 112.33 177.691 112.109C177.151 110.963 176.628 109.802 176.115 108.642C175.279 106.739 174.491 104.814 173.616 102.934C173.307 102.274 173.223 101.654 173.285 100.942C173.408 99.5725 173.4 98.1896 173.45 96.8157C173.459 96.6166 173.447 96.4161 173.444 96.0063C174.119 96.5982 174.331 97.206 174.534 97.7824L174.529 97.777ZM158.102 84.6163C158.18 84.56 158.29 84.4392 158.342 84.4528C160.129 85.0866 161.91 85.7456 163.698 86.3591C164.683 86.6999 165.274 87.3528 165.536 88.3017C165.793 89.2451 166.034 90.1927 166.237 91.1429C166.289 91.3869 166.184 91.6667 166.151 91.982C163.089 89.8519 159.245 86.3191 158.103 84.6061L158.102 84.6163ZM116.101 129.046C117.51 127.976 118.719 126.729 119.78 125.329C120.015 125.017 120.321 124.673 120.675 124.548C122.45 123.927 124.268 123.462 126.343 123.106C126.031 123.915 125.467 124.226 125.015 124.606C122.6 126.686 119.892 128.311 116.869 129.445C116.515 129.58 116.143 129.884 115.658 129.524C115.808 129.36 115.933 129.168 116.101 129.046ZM111.825 126.135C110.586 125.932 109.337 126.178 108.099 126.404C107.717 126.476 107.334 126.779 106.813 126.412C107.72 125.468 108.842 124.85 109.911 124.152C111.519 123.115 113.024 123.239 114.52 124.32C114.838 124.551 115.138 124.806 115.575 125.157C114.268 125.988 113.148 126.355 111.81 126.129L111.825 126.135ZM113.578 122.927C117.141 122.105 120.489 122.155 124.192 122.366C122.782 123.15 121.485 123.311 120.288 123.714C119.113 124.108 117.923 124.476 116.619 124.892C115.629 124.249 114.715 123.657 113.578 122.927ZM103.642 131.35C103.582 131.382 103.444 131.297 103.299 131.246C103.357 131.101 103.4 130.951 103.478 130.818C104.004 129.992 104.526 129.161 105.087 128.363C105.241 128.137 105.494 127.934 105.751 127.833C107.565 127.122 109.441 126.656 111.506 127.123C108.888 128.539 106.27 129.955 103.642 131.361L103.642 131.35Z" fill="url(#paint0_linear_160_159)"/>
<defs>
<linearGradient id="paint0_linear_160_159" x1="70.5367" y1="165.662" x2="119.696" y2="19.3028" gradientUnits="userSpaceOnUse">
<stop stop-color="#C2A363"/>
<stop offset="0.01" stop-color="#CAB078"/>
<stop offset="0.03" stop-color="#DBC89E"/>
<stop offset="0.05" stop-color="#E7D9BA"/>
<stop offset="0.07" stop-color="#EEE4CB"/>
<stop offset="0.08" stop-color="#F1E8D1"/>
<stop offset="0.18" stop-color="#C2A363"/>
<stop offset="0.29" stop-color="#A18347"/>
<stop offset="0.4" stop-color="#C2A363"/>
<stop offset="0.49" stop-color="#F1E8D1"/>
<stop offset="0.59" stop-color="#C2A363"/>
<stop offset="0.69" stop-color="#A18347"/>
<stop offset="0.8" stop-color="#C2A363"/>
<stop offset="0.92" stop-color="#F1E8D1"/>
<stop offset="1" stop-color="#C2A363"/>
</linearGradient>
</defs>
</svg>
