<svg width="163" height="159" viewBox="0 0 163 159" fill="none" xmlns="http://www.w3.org/2000/svg">
<path d="M122.25 159C135.409 159 145.596 154.391 152.813 145.174C159.604 135.957 163 122.34 163 104.324C163 85.4704 158.967 67.6641 150.902 50.9052C142.837 34.1463 130.952 17.3874 115.246 0.628488C114.822 0.209496 114.185 0 113.336 0C112.063 0 111.001 0.628463 110.152 1.88539C109.303 3.14231 109.303 4.18974 110.152 5.02768C119.491 18.0158 125.858 30.585 129.254 42.7352C132.65 54.4664 134.348 67.4546 134.348 81.6996C134.348 93.0119 132.862 102.229 129.891 109.352C126.495 116.055 122.038 121.921 116.52 126.949L140.715 131.348C141.139 124.225 139.229 118.779 134.984 115.008C130.74 111.237 125.221 109.352 118.43 109.352C110.365 109.352 104.21 111.656 99.9648 116.265C95.2956 120.874 92.9609 126.949 92.9609 134.49C92.9609 142.451 95.5078 148.526 100.602 152.715C105.695 156.905 112.911 159 122.25 159ZM28.6523 159C41.8112 159 51.9987 154.391 59.2148 145.174C66.431 135.957 70.0391 122.34 70.0391 104.324C70.0391 85.8893 66.0065 68.2925 57.9414 51.5336C49.8763 34.7747 37.9909 17.8063 22.2851 0.628488C21.8607 0.209496 21.224 0 20.375 0C19.1016 0 18.0404 0.628463 17.1914 1.88539C16.3424 3.14231 16.3424 4.18974 17.1914 5.02768C26.5299 18.0158 32.8971 30.585 36.293 42.7352C39.2643 54.4664 40.75 67.4546 40.75 81.6996C40.75 93.0119 39.2643 102.02 36.293 108.723C33.3216 115.427 29.0768 121.502 23.5586 126.949L47.7539 131.348C48.1784 124.225 46.2682 118.779 42.0234 115.008C37.3542 111.237 31.6237 109.352 24.832 109.352C17.1914 109.352 11.2487 111.656 7.00391 116.265C2.33464 120.874 -4.03563e-06 126.949 -4.03563e-06 134.49C-4.03563e-06 150.83 9.55078 159 28.6523 159Z" fill="#3A281C"/>
</svg>
