<svg width="40" height="40" viewBox="0 0 40 40" fill="none" xmlns="http://www.w3.org/2000/svg">
<g id="Frame 64">
<path id="Vector" d="M20.1558 12.4479C20.1891 12.378 20.4783 11.8652 20.5228 11.6437C21.1791 8.20549 20.4783 5.93276 19.2325 4.20782C17.9867 2.49454 16.663 1.65538 14.5606 0.78125C6.16241 3.26377 0 11.3407 0 20.9328C0 26.9934 2.45829 32.4363 6.37376 36.2591C6.56286 31.8885 10.2558 27.1565 14.327 28.7183C17.0301 29.7556 18.4205 28.9747 18.3537 26.0493C18.3537 25.8512 18.4539 25.6414 18.554 25.4899C18.7208 25.2568 19.1658 25.2801 19.3994 24.9071C19.8777 24.1495 19.2881 23.4969 19.2881 23.4969C19.277 23.4969 19.4995 23.3803 19.8554 22.9374C19.9889 22.7626 20.0445 22.3197 19.9889 22.0983C19.8777 21.5738 19.3104 20.9211 19.6107 20.2801C19.6886 20.1169 20.0334 20.0237 20.356 19.8838C21.8577 19.2661 21.168 17.9724 20.5228 16.9234C18.8432 14.1962 19.4883 13.8815 20.1446 12.4363L20.1558 12.4479Z" fill="url(#paint0_linear_49_159)"/>
<path id="Vector_2" d="M19.9889 0C19.1991 0 18.4316 0.04662 17.6752 0.13986C19.188 0.18648 20.6674 0.594406 21.9577 1.35198C23.5706 2.21445 24.8498 3.74126 25.6507 5.29138C25.8954 5.79254 25.9733 6.62005 26.3515 6.94639C26.4294 7.01632 31.0901 9.63869 32.0578 9.98834C32.1691 10.035 32.3582 10.1282 32.5584 10.2331C32.8476 10.3846 33.0923 10.5245 33.248 10.7343C33.3593 10.8858 33.4594 11.0023 33.4594 11.317C33.426 11.6434 33.2703 11.9464 33.1368 12.1911C32.8254 12.7739 32.6363 12.972 32.3359 13.5431C32.2358 13.7529 32.1246 14.0909 32.2247 14.3823C32.4249 15.0583 32.9477 15.3846 33.515 15.6527C33.8598 15.8392 34.1157 15.9557 34.238 16.4336C34.2825 16.9114 34.0267 17.2028 33.7486 17.4825C33.6485 17.5874 33.1813 18.042 33.6374 18.0653C33.8153 18.1119 34.0378 18.0886 34.2158 18.1235C34.416 18.1702 34.6719 18.1469 34.8276 18.3916C34.8943 18.4965 35.0167 18.7179 35.0056 18.951C35.0167 19.2424 34.7608 19.5455 34.6162 19.9417C34.5606 20.0816 34.8276 20.7343 34.9722 20.8741C35.9511 21.8415 36.7631 22.7972 35.8843 24.3706C35.8398 24.4522 35.3949 24.9417 35.228 25.0699C34.3604 25.7459 33.1924 26.1772 32.158 26.5035C28.8543 27.5524 26.4516 30.5594 26.4182 33.986C26.4182 33.986 26.5295 37.1445 28.3203 40C35.2058 36.69 40 29.4056 40 20.9557C40 9.39394 31.0567 0.011655 20.0111 0.011655L19.9889 0Z" fill="url(#paint1_linear_49_159)"/>
</g>
<defs>
<linearGradient id="paint0_linear_49_159" x1="108.243" y1="-4.11385" x2="-88.6037" y2="37.4086" gradientUnits="userSpaceOnUse">
<stop stop-color="#189CD9"/>
<stop offset="0.1" stop-color="#2383C5"/>
<stop offset="0.26" stop-color="#3364AC"/>
<stop offset="0.42" stop-color="#3F4C98"/>
<stop offset="0.59" stop-color="#483A8A"/>
<stop offset="0.78" stop-color="#4D3081"/>
<stop offset="1" stop-color="#4F2D7F"/>
</linearGradient>
<linearGradient id="paint1_linear_49_159" x1="109.132" y1="0.116546" x2="-87.7028" y2="41.639" gradientUnits="userSpaceOnUse">
<stop stop-color="#189CD9"/>
<stop offset="0.1" stop-color="#2383C5"/>
<stop offset="0.26" stop-color="#3364AC"/>
<stop offset="0.42" stop-color="#3F4C98"/>
<stop offset="0.59" stop-color="#483A8A"/>
<stop offset="0.78" stop-color="#4D3081"/>
<stop offset="1" stop-color="#4F2D7F"/>
</linearGradient>
</defs>
</svg>
