<svg width="684" height="625" viewBox="0 0 684 625" fill="none" xmlns="http://www.w3.org/2000/svg">
<path d="M347.008 624.099C351.288 622.751 355.586 621.421 359.852 620.017C367.865 617.355 375.234 613.447 382.173 608.655C391.826 601.971 400.276 593.985 408.133 585.358C415.006 577.794 421.795 570.133 428.599 562.527C436.763 553.393 446.391 546.288 457.586 541.292C463.559 538.638 469.565 536.022 475.521 533.348C480.385 531.183 485.265 529.074 490.013 526.737C501.091 521.333 510.268 513.633 516.866 503.173C521.096 496.449 525.015 489.485 528.878 482.536C531.659 477.553 534.02 472.323 536.768 467.302C542.891 456.063 551.507 447.25 562.811 441.206C566.95 438.992 571.189 436.93 575.377 434.81C578.526 433.221 581.796 432.277 585.366 432.264C588.426 432.253 591.475 431.877 594.547 431.684C615.378 430.382 635.718 432.78 655.696 438.868C673.571 444.304 690.591 451.575 706.887 460.637C707.94 461.218 709.085 461.787 710.254 461.994C710.902 462.111 711.949 461.708 712.385 461.191C713.1 460.329 712.925 459.152 712.006 458.489C710.222 457.148 708.363 455.839 706.436 454.725C690.814 445.654 674.284 438.671 656.943 433.69C646.567 430.711 637.367 425.718 629.099 418.821C621.916 412.817 617.31 405.348 615.367 396.239C614.247 391.047 613.164 385.857 612.248 380.623C610.642 371.355 608.278 362.273 605.432 353.303C601.419 340.649 594.833 329.386 585.963 319.572C577.026 309.679 566.205 302.555 553.169 299.068C547.233 297.464 541.43 295.505 536.068 292.446C535.208 291.969 534.285 291.615 532.889 290.993C532.838 292.537 532.592 293.74 532.791 294.828C533.636 299.237 534.721 303.608 535.493 308.013C536.134 311.68 537.264 315.125 538.8 318.488C543.76 329.568 550.108 339.776 558.211 348.829C562.304 353.404 566.594 357.773 570.745 362.297C575.285 367.266 579.881 372.221 584.286 377.308C590.308 384.29 595.259 392.036 599.866 400.015C605.271 409.376 612.542 417.007 621.429 423.126C622.107 423.591 622.788 424.02 623.447 424.501C624.07 424.981 624.857 425.453 624.006 426.706C619.506 426.474 614.844 425.94 610.191 426.08C601.305 426.333 592.713 424.968 584.17 422.605C570.3 418.788 557.893 412.503 547.808 402.078C544.255 398.396 540.698 394.749 536.968 391.255C531.012 385.681 525.181 379.896 518.767 374.891C515.207 372.1 513.905 369.044 514.166 364.964C514.413 361.103 514.859 357.236 515.342 353.372C517.346 337.138 519.529 320.952 521.371 304.689C521.995 299.031 522.081 293.265 521.924 287.573C521.438 267.82 514.742 250.45 501.342 235.794C495.972 229.912 490.641 223.997 485.312 218.046C478.917 210.912 474.753 202.581 472.215 193.378C470.344 186.659 469.356 179.818 468.537 172.898C467.125 161.076 464.692 149.53 459.57 138.695C450.199 118.922 436.036 103.431 417.377 92.1704C409.875 87.6379 401.983 83.7527 394.215 79.6574C388.062 76.4363 381.722 73.5486 375.671 70.1705C365.271 64.3491 355.692 57.4361 348.667 47.5459C348.517 47.3355 347.949 47.3881 347.14 47.2422C346.858 49.2261 346.487 51.1858 346.315 53.1772C345.643 61.1255 345.774 69.0553 346.083 77.0336C346.552 89.0653 346.199 101.132 345.866 113.182C345.466 128.323 347.543 142.94 354.252 156.651C357.303 162.885 360.485 169.073 363.669 175.225C366.018 179.755 368.575 184.171 370.884 188.734C376.292 199.388 379.798 210.679 381.188 222.554C381.923 228.832 382.328 235.159 382.86 241.478C383.734 251.861 384.334 262.245 385.463 272.61C387.75 293.723 397.361 311.072 413.548 324.661C418.679 328.978 424.219 332.904 429.829 336.598C436.836 341.188 444.438 344.78 452.133 348.088C466.194 354.157 480.275 360.21 494.273 366.402C506.559 371.805 517.362 379.457 526.898 388.861C531.709 393.594 536.52 398.327 541.215 403.161C550.894 413.121 561.757 421.232 575.2 425.421C575.823 425.627 576.303 426.333 577.3 427.202C575.842 427.485 575.099 427.69 574.331 427.747C562.904 428.411 551.496 429.332 540.063 429.559C530.452 429.763 520.897 428.624 511.579 425.881C496.908 421.536 483.687 414.358 471.33 405.473C461.003 398.054 451.684 389.483 442.759 380.466C432.25 369.866 421.345 359.713 409.871 350.159C389.181 332.933 366.793 318.415 341.605 308.624C331.335 304.632 320.936 300.923 310.557 297.197C290.689 290.024 272.739 279.849 257.928 264.515C254.816 261.3 251.374 258.371 248.01 255.376C239.356 247.724 230.023 241.21 218.775 237.935C216.454 237.268 214.8 235.882 213.818 233.739C212.648 231.147 211.35 228.564 210.497 225.866C208.92 220.97 208.504 215.88 208.455 210.742C208.393 202.343 209.309 194.011 210.678 185.727C212.367 175.426 213.603 165.076 213.808 154.638C214.093 140.381 210.957 127.131 203.191 115.024C191.605 97.0129 175.42 84.7178 155.723 76.9189C148.153 73.9114 140.307 71.4861 132.424 69.3313C116.551 64.9783 102.531 57.5095 90.3474 46.3594C84.0251 40.5593 77.308 35.206 70.7676 29.6643C56.292 17.4121 40.1314 7.95911 22.5064 1.01087C21.6731 0.681276 20.7027 -0.040029 19.6053 1.36056C21.9791 6.58354 24.3767 11.9902 26.8882 17.3318C35.3977 35.3345 42.062 53.9587 45.6741 73.5416C48.3456 87.9804 50.4803 102.547 52.8205 117.036C55.0102 130.532 57.3838 144.003 61.2346 157.174C66.8103 176.271 77.5894 191.715 93.235 203.9C108.12 215.488 124.973 223.076 142.988 228.321C156.968 232.382 171.288 234.681 185.634 236.855C193.311 238.031 200.964 239.296 208.585 240.759C219.603 242.871 229.725 247.163 238.353 254.394C245.224 260.158 251.776 266.338 258.445 272.38C258.959 272.852 259.214 273.652 260.026 275.091C244.688 270.92 230.117 272.282 215.762 275.024C203.59 266.624 190.594 260.954 176.555 257.49C165.828 254.852 155.162 254.238 144.535 257.852C140.097 259.372 135.625 260.854 131.312 262.674C123.961 265.781 116.54 268.574 108.79 270.598C98.6283 273.26 89.2947 277.927 80.4285 283.481C79.8574 283.843 79.4647 284.526 78.6944 285.403C79.8997 285.885 80.6024 286.26 81.3369 286.438C85.8838 287.583 90.4501 288.712 95.0188 289.805C108.703 293.135 122.378 296.611 136.113 299.727C148.36 302.505 160.476 301.887 172.236 297.149C174.708 296.151 177.195 295.208 179.631 294.208C186.636 291.369 193.675 288.568 200.614 285.615C209.729 281.753 219.213 279.409 229.026 278.381C246.558 276.582 263.158 279.346 278.694 288.083C285.796 292.078 293.137 295.762 300.663 298.876C311.022 303.165 321.66 306.836 332.233 310.666C354.089 318.593 374.276 329.611 392.86 343.562C394.245 344.603 395.899 345.443 397.413 348.077C386.879 346.598 377.217 345.962 367.511 346.761C357.604 347.565 348.519 351.265 339.485 354.75C334.203 351.041 329.22 347.481 324.197 343.99C306.637 331.839 288.15 321.518 267.686 315.069C256.741 311.633 245.615 308.967 234.02 309.165C224.997 309.3 216.054 310.387 207.394 312.933C199.959 315.124 192.535 317.443 185.235 320.062C176.107 323.323 166.791 325.35 157.153 325.953C153.696 326.174 150.21 326.284 146.741 326.413C140.587 326.67 134.5 327.277 128.613 329.209C109.761 335.398 93.3572 345.448 80.4106 360.595C74.968 366.946 69.8655 373.647 65.1325 380.537C55.3855 394.699 42.7129 405.312 27.5846 413.228C19.7845 417.306 12.1171 421.576 4.41591 425.807C3.01497 426.586 1.71291 427.517 0.229586 428.436C0.683458 428.722 0.869239 428.935 1.0361 428.892C3.05475 428.664 5.0903 428.456 7.08019 428.118C23.6735 425.4 40.3465 424.18 57.1549 425.501C66.7542 426.261 76.2681 427.47 85.5889 429.904C94.0857 432.137 102.58 434.406 111.106 436.477C118.074 438.169 125.16 438.94 132.38 438.537C141.902 438.035 150.905 435.532 159.686 432.029C164.047 430.304 168.382 428.43 172.726 426.685C182.537 422.761 192.755 420.868 203.295 421.455C211.041 421.888 218.779 422.704 226.497 423.536C239.675 424.957 252.192 422.728 263.996 416.827C269.106 414.278 274.174 411.526 278.826 408.217C285.314 403.613 291.523 398.571 297.628 393.449C303.888 388.192 309.845 382.586 315.989 377.158C321.668 372.134 327.816 367.725 334.293 363.812C356.727 350.273 380.47 348.713 405.198 355.906C408.805 356.952 411.969 358.623 414.705 361.212C422.706 368.819 430.926 376.168 438.753 383.927C450.981 396.027 463.727 407.47 478.438 416.552C479.032 416.92 479.401 417.655 479.907 418.236C479.411 418.566 479.254 418.738 479.109 418.728C466.48 418.601 454.817 421.653 444.668 429.45C443.053 430.689 441.315 430.807 439.447 430.699C433.535 430.335 427.624 429.971 421.71 429.643C410.445 429.007 399.229 429.249 388.171 431.704C372.86 435.11 360.833 443.218 352.967 457.034C352.45 457.927 351.917 458.802 351.42 459.678C348.323 465.277 344.556 470.303 339.731 474.546C339.208 475.003 338.919 475.766 338.41 476.551C339.401 476.709 340.002 476.968 340.572 476.879C352.733 475.336 365.011 474.748 377.035 472.267C380.841 471.468 384.616 470.595 388.393 469.686C405.446 465.578 420.42 457.525 433.307 445.633C439.333 440.069 445.543 434.754 452.654 430.629C463.387 424.4 474.838 422.59 486.918 425.685C490.479 426.6 493.921 427.926 497.414 429.036C500.337 429.963 503.192 431.358 506.171 431.724C516.304 432.938 526.478 434.083 536.653 434.681C543.147 435.048 549.71 434.4 556.261 434.207C558.596 434.147 558.598 434.11 561.045 435.35C560.96 435.527 560.925 435.761 560.792 435.843C559.798 436.541 558.784 437.255 557.738 437.894C551 441.899 544.88 446.692 540.1 452.942C538.06 455.608 535.801 456.42 532.697 455.754C531.315 455.46 529.864 455.362 528.434 455.247C517.418 454.428 506.434 453.41 495.418 452.864C479.556 452.081 464.063 454.418 448.813 458.793C435.754 462.552 425.084 469.713 417.122 480.682C412.819 486.618 408.771 492.808 405.008 499.09C399.951 507.524 394.515 515.642 388.084 523.127C386.362 525.141 384.69 527.212 383.089 529.325C376.586 537.862 371.578 547.173 368.789 557.582C367.668 561.731 366.78 565.913 365.658 570.062C363.283 578.951 361.07 587.869 358.357 596.644C355.755 605.117 351.002 612.571 345.747 619.644C344.683 621.083 343.639 622.506 342.253 624.396C344.237 624.677 345.6 624.441 346.94 624.022L347.008 624.099ZM600.149 388.18C600.013 388.298 599.877 388.416 599.742 388.534C599.627 388.09 599.511 387.645 599.416 387.183C598.675 386.568 597.743 386.086 597.212 385.322C589.931 374.905 581.547 365.451 572.641 356.417C569.22 352.925 565.937 349.28 562.635 345.651C561.875 344.78 561.309 343.74 560.417 342.405C561.497 342.587 562.137 342.54 562.63 342.792C567.62 345.187 572.835 346.943 578.305 347.896C580.231 348.227 581.646 349.106 582.714 350.799C589.556 361.769 595.063 373.359 599.421 385.508C599.604 386.03 599.322 386.685 599.263 387.282C599.533 387.592 599.859 387.887 600.149 388.18ZM354.54 132.234C359.338 141.682 366.239 149.397 374.358 156.083C380.976 161.558 388.302 166.005 395.545 170.593C402.788 175.181 410.113 179.629 417.034 184.668C422.446 188.604 427.39 193.254 432.381 197.762C434.335 199.533 435.917 201.698 437.598 203.742C439.564 206.152 440.596 208.898 440.996 212.094C442.337 222.819 443.918 233.505 445.572 244.197C446.338 249.22 447.4 254.19 448.422 259.741C447.2 259.512 446.177 259.552 445.441 259.138C439.802 256.116 434.983 252.038 430.834 247.205C425.928 241.464 420.983 235.757 416.348 229.78C407.05 217.715 396.492 207.021 383.616 198.792C381.279 197.286 379.85 195.296 378.653 192.829C375.192 185.657 371.579 178.584 367.797 171.59C363.531 163.69 359.434 155.709 356.241 147.281C353.561 140.143 352.583 135.816 353.053 129.748C353.559 130.602 354.124 131.405 354.574 132.273L354.54 132.234ZM395.262 251.04C398.052 256.036 400.767 261.064 403.482 266.092C408.267 274.938 414.201 282.951 420.877 290.487C432.593 303.681 447.205 311.554 464.448 314.78C466.047 315.089 467.664 315.417 469.244 315.742C469.442 315.774 469.616 315.895 470.198 316.171C480.335 333.811 494.544 348.885 507.064 365.23C506.488 365.664 506.096 366.075 505.99 366.031C488.849 357.331 470.907 350.489 453.373 342.745C445.507 339.281 437.888 335.396 430.647 330.772C423.216 326.007 416.458 320.451 410.338 314.1C400.733 304.108 394.637 292.351 392 278.734C390.292 269.896 389.484 260.955 388.988 251.981C388.821 249.366 388.746 246.738 388.567 242.975C392.269 245.812 393.821 248.411 395.315 251.062L395.262 251.04ZM452.92 276.233C454.169 280.324 455.511 284.402 457.022 288.402C458.532 292.401 460.285 296.325 461.926 300.279C463.553 304.176 465.913 307.741 467.269 311.602C465.918 312.986 464.684 312.392 463.59 312.154C447.5 308.843 433.809 301.36 422.819 288.998C416.274 281.653 410.437 273.828 405.768 265.154C403.149 260.315 400.456 255.507 397.781 250.683C395.806 247.089 393.487 243.727 390.337 241.056C388.821 239.787 388.026 238.368 387.945 236.359C387.849 233.512 387.388 230.677 387.163 227.839C386.566 220.078 385.211 212.466 383.139 204.969C382.891 204.06 382.755 203.122 382.372 201.275C384.197 202.273 385.224 202.707 386.127 203.351C395.059 209.601 402.855 217.012 409.704 225.488C414.185 231.054 418.627 236.654 423.225 242.118C433.847 254.802 435.797 256.372 449.466 264.181C450.549 268.042 451.651 272.159 452.901 276.25L452.92 276.233ZM136.708 165.256C135.96 164.477 135.605 163.014 135.646 161.888C135.791 153.922 133.138 146.659 130.187 139.485C128.859 136.282 127.455 133.109 126.088 129.939C122.138 120.876 122.329 111.712 125.364 102.485C126.31 99.5813 127.345 96.7015 128.469 93.846C130.496 88.7027 132.326 83.5278 132.996 78.0012C133.084 77.2424 133.496 76.5419 133.882 75.4209C135.991 76.0009 137.944 76.4791 139.83 77.1168C145.241 78.9402 150.592 80.8505 156.003 82.6738C158.032 83.3576 159.516 84.5506 160.569 86.4611C164.975 94.4439 167.675 102.894 167.866 112.066C167.956 116.861 166.447 121.348 164.801 125.715C162.797 131.042 160.385 136.214 157.99 141.406C154.379 149.191 150.805 156.979 149.33 165.492C148.849 168.264 148.655 171.091 148.174 175.192C143.271 171.801 139.941 168.571 136.708 165.256ZM270.499 351.642C260.798 357.685 253.257 365.969 246.448 374.977C242.504 380.191 238.767 385.564 234.893 390.819C230.517 396.75 225.776 402.42 219.678 406.65C216.006 409.205 212.067 411.415 208.119 413.496C204.645 415.3 200.861 416.045 196.901 416.16C193.452 416.272 190.023 416.877 186.557 417.243C185.401 417.365 184.25 417.415 182.73 417.548C183.237 416.527 183.39 415.881 183.783 415.471C190.461 408.622 194.571 400.196 198.49 391.63C201.123 385.891 203.792 380.153 206.777 374.583C208.989 370.472 211.626 366.536 214.345 362.732C216.237 360.093 218.547 357.736 220.785 355.375C223.415 352.603 226.618 351.036 230.51 350.844C237.854 350.504 245.179 349.908 252.512 349.713C258.606 349.543 264.692 349.755 271.518 349.799C270.837 350.973 270.732 351.439 270.446 351.62L270.499 351.642ZM152.776 188.56C143.857 186.117 134.726 185.425 125.549 185.149C120.043 184.976 114.535 184.84 109.039 184.522C95.0551 183.702 82.9599 178.44 72.6994 168.986C71.6714 168.042 70.7671 166.888 70.124 165.643C67.5296 160.715 63.7954 147.169 63.2197 140.684C64.2909 140.465 65.3889 140.121 66.5251 140.016C71.2538 139.571 75.8985 140.086 80.4379 141.341C84.7455 142.525 89.0942 143.639 93.3968 144.895C98.7333 146.477 104.124 147.261 109.697 146.728C112.245 146.482 114.301 147.04 116.197 149.135C128.133 162.308 141.287 174.179 154.872 185.606C155.801 186.398 156.612 187.327 157.425 188.219C157.492 188.297 157.344 188.596 157.254 189.118C155.79 188.964 154.223 188.968 152.776 188.56ZM44.6293 17.5323C52.7131 22.341 60.3097 27.8814 67.5452 33.9072C76.0214 40.9639 84.34 48.1921 92.8137 55.2851C95.2947 57.3469 96.5854 60.0383 97.7187 62.9011C100.76 70.6093 101.775 78.6537 102.031 86.8834C102.191 91.9928 102.479 97.0927 102.859 102.181C103.43 109.794 105.276 117.148 109.044 123.813C112.049 129.134 115.528 134.177 118.776 139.386C121.254 143.36 123.732 147.333 126.112 151.391C126.667 152.339 126.841 153.516 127.605 155.917C125.793 154.465 124.989 153.974 124.342 153.311C105.624 134.671 90.3277 113.659 79.8693 89.2786C76.8245 82.1528 73.5573 75.0848 70.8318 67.8168C63.2637 47.7656 51.2477 30.7089 36.1438 15.6645C35.2921 14.8056 34.5179 13.8791 33.7218 13.0057C33.9785 12.7136 34.2353 12.4214 34.5114 12.1124C37.9017 13.9263 41.3551 15.617 44.663 17.5709L44.6293 17.5323ZM50.6113 404.318C56.0773 399.753 60.9016 394.454 66.5022 388.988C67.6404 389.12 69.4337 389.259 71.217 389.544C77.1807 390.476 83.0718 390.074 88.7628 388.074C94.9207 385.906 100.925 383.326 107.054 381.047C112.024 379.198 116.973 377.13 122.083 375.91C132.93 373.331 143.601 373.872 153.603 379.393C155.515 380.452 157.677 381.326 158.724 383.582C158.286 384.135 157.975 384.679 157.549 385.051C142.035 397.529 124.758 405.718 104.6 406.774C96.2481 407.209 87.8748 407.425 79.5156 407.97C65.797 408.861 52.435 411.725 39.3174 415.807C37.252 416.45 35.2562 417.408 32.5442 417.388C38.8634 412.863 45.0679 408.95 50.6307 404.301L50.6113 404.318ZM162.017 170.886C164.116 167.896 166.615 165.17 169.078 162.442C173.142 157.874 177.414 153.465 181.41 148.819C183.803 146.05 186.028 143.087 188.006 139.998C191.92 133.89 194.272 127.202 194.843 119.921C194.972 118.309 195.209 116.705 195.394 115.078C196.717 114.64 197.213 115.638 197.777 116.442C203.939 125.381 207.506 135.255 208.257 146.086C208.622 151.391 207.972 156.628 206.237 161.755C201.717 175.105 193.499 185.82 183.106 195.058C181.731 196.258 180.185 197.3 178.66 198.289C177.823 198.815 176.836 199.131 175.767 199.586C172.179 197.468 169.615 194.217 166.534 191.623C163.572 189.128 160.71 186.512 157.568 183.731C157.288 178.523 159.453 174.554 162.017 170.886ZM431.846 176.312C423.935 168.456 414.509 162.773 404.821 157.455C390.693 149.706 378.269 139.924 368.487 126.952C361.658 117.912 356 108.26 353.059 97.2268C352.434 94.9083 352.185 92.4332 352.042 90.0016C351.727 83.6981 351.576 77.3876 351.342 70.4341C352.187 71.4017 352.79 71.8978 353.093 72.5193C358.678 84.0416 366.54 93.952 375.343 103.143C382.26 110.367 389.547 117.234 396.6 124.34C402.069 129.828 407.672 135.233 412.868 140.993C421.125 150.184 427.456 160.646 431.909 172.201C432.405 173.473 432.787 174.81 433.385 176.708C432.204 176.409 431.948 176.428 431.829 176.293L431.846 176.312ZM506.177 251.071C512.043 260.61 515.442 271.073 516.266 282.182C516.778 289.063 516.971 296.087 516.32 302.926C514.549 321.616 512.398 340.262 508.986 358.714C508.895 359.236 508.534 359.721 508.211 360.446C507.564 360.056 506.994 359.871 506.64 359.465C495.918 347.176 484.451 332.469 480.567 325.905C481.202 324.874 481.956 323.705 482.709 322.536C492.761 306.847 499.26 289.861 501.638 271.358C502.528 264.481 503.49 257.608 503.075 250.642C503.032 249.929 503.28 249.236 503.522 247.559C504.81 249.23 505.589 250.084 506.177 251.071ZM166.028 365.213C163.379 362.411 161.004 359.337 158.57 356.313C156.252 353.461 154.106 350.493 151.769 347.658C146.924 341.831 140.796 337.974 133.44 336.11C133.046 336.01 132.63 335.964 132.239 335.828C131.865 335.712 131.514 335.506 130.667 335.121C131.564 334.508 132.197 333.786 132.939 333.581C138.283 332.122 143.802 331.841 149.313 331.668C158.932 331.354 168.44 330.524 177.781 328.134C183.527 326.666 189.19 327.723 194.516 329.996C198.054 331.51 201.372 333.593 204.68 335.547C210.822 339.186 216.904 342.912 222.969 346.619C223.459 346.907 223.748 347.473 224.392 348.172C218.325 349.818 212.473 351.243 206.71 352.965C200.816 354.732 195.248 357.341 190.021 360.538C184.83 363.737 179.804 367.202 174.618 370.602C171.003 369.938 168.336 367.663 165.977 365.155L166.028 365.213ZM464.111 210.4C465.01 207.912 465.66 205.334 466.525 202.807C466.824 201.899 467.388 201.099 467.975 199.974C470.922 205.345 473.337 210.498 476.476 215.19C479.515 219.729 483.279 223.808 486.636 227.969C486.087 248.217 474.493 274.727 460.935 286.828C458.978 286.695 459.027 284.914 458.599 283.72C454.277 271.573 451.401 259.05 449.026 246.398C448.282 242.378 447.666 238.348 447.086 234.321C446.89 232.924 446.914 231.505 446.831 229.533C456.592 226.334 461.031 218.95 464.094 210.381L464.111 210.4ZM504.836 479.141C499.82 485.12 495.938 491.813 492.421 498.767C490.191 503.132 487.822 507.414 485.347 511.653C481.402 518.469 476.185 524.179 469.788 528.772C467.489 530.437 464.971 531.85 462.442 533.136C458.801 534.983 455.016 536.548 451.358 538.376C445.288 541.388 439.596 544.99 434.433 549.393C433.542 550.17 432.55 550.831 431.243 551.835C431.136 550.735 430.886 550.136 431.06 549.71C434.514 540.767 437.754 531.736 441.579 522.945C446.288 512.157 453.264 502.833 461.434 494.409C465.764 489.95 470.689 486.642 476.918 485.025C486.39 482.589 495.701 479.578 506.219 476.503C505.363 478.102 505.158 478.689 504.783 479.119L504.836 479.141ZM429.128 107.243C439.02 115.961 447.256 125.988 453.203 137.808C454.019 139.448 454.933 141.003 454.158 143.008C449.945 154.012 450.729 165.428 451.549 176.846C452.068 184.165 452.514 191.478 452.632 198.807C452.756 206.026 450.916 212.948 448.006 219.543C447.599 220.444 446.909 221.217 445.934 222.68C445.464 220.5 445.061 218.943 444.803 217.396C443.433 208.945 442.283 200.473 440.747 192.065C438.212 178.291 433.396 165.382 425.963 153.462C425.421 152.605 425.029 151.687 424.544 150.78C425.098 149.342 425.536 148.006 426.116 146.716C428.042 142.513 428.509 138.083 428.037 133.554C427.559 129.097 426.769 124.673 426.18 120.244C425.832 117.617 425.556 114.994 425.428 112.345C425.33 110.318 425.525 108.273 427.235 106.167C428.025 106.603 428.629 106.826 429.075 107.221L429.128 107.243ZM213.673 413.49C220.99 409.561 227.247 404.34 232.405 397.898C236.487 392.803 240.327 387.509 244.168 382.215C249.094 375.429 254.211 368.784 260.24 362.91C264.356 358.91 268.825 355.352 273.944 352.658C277.249 350.934 280.666 349.963 284.528 350.207C292.235 350.674 299.865 351.483 307.984 352.852C307.199 353.673 306.884 354.289 306.439 354.405C293.252 357.899 283.105 365.934 274.419 376.035C270.837 380.217 267.754 384.815 264.343 389.154C260.692 393.805 257.089 398.55 253.13 402.925C246.98 409.756 239.411 414.451 230.5 416.943C227.288 417.836 224.145 418.26 220.832 417.708C217.609 417.18 214.349 416.923 211.116 416.54C211.015 416.151 210.914 415.762 210.796 415.353C211.786 414.728 212.708 414.026 213.71 413.493L213.673 413.49ZM461.536 290.292C469.446 282.743 475.063 273.309 479.983 263.427C484.924 253.491 487.759 242.94 488.916 231.365C490.039 231.987 490.844 232.205 491.319 232.711C493.83 235.394 496.264 238.145 498.72 240.842C500.16 242.415 500.8 244.242 500.834 246.393C501.264 270.695 496.497 293.771 484.366 315.092C483.268 317.038 482.08 318.961 480.895 320.847C480.466 321.528 479.863 322.088 479.049 323.071C473.58 317.311 464.187 299.703 461.536 290.292ZM39.1781 23.2084C51.1817 36.4585 60.9978 51.0718 67.513 67.8832C71.6295 78.5049 76.4353 88.9003 81.2267 99.2399C85.3343 108.131 90.2911 116.588 95.952 124.601C96.75 125.712 97.3931 126.957 98.0461 128.057C97.0574 129.465 96.0265 128.831 95.1639 128.663C86.8691 126.936 80.1212 122.564 74.4206 116.46C72.1988 114.07 70.1706 111.51 68.0843 109.002C65.3252 105.683 62.4086 102.535 58.5788 100.491C56.3476 99.3024 55.4949 97.6604 55.0787 95.2286C53.5266 85.9824 51.8634 76.7652 49.9414 67.6032C46.958 53.198 42.3011 39.2983 36.5462 25.7432C35.7785 23.9249 35.0882 22.039 34.376 20.2063C34.6859 19.9359 34.9958 19.6656 35.3419 19.3977C36.6207 20.668 37.9575 21.8874 39.1588 23.2253L39.1781 23.2084ZM86.3663 361.909C95.2379 352.022 106.108 344.856 117.972 339.141C123.207 336.618 128.758 337.195 134.148 338.798C139.521 340.382 144.304 343.128 148.079 347.299C150.417 349.861 152.638 352.524 154.724 355.306C160.014 362.256 165.636 368.179 171.59 373.073C170.315 374.935 168.688 376.355 166.4 377.329C165.261 376.414 164.133 375.591 163.086 374.664C153.778 366.458 142.819 363.476 130.71 364.805C124.233 365.513 117.809 366.789 111.406 368.012C104.708 369.289 98.0555 369.912 91.3777 368.24C89.0317 367.662 86.7637 366.743 83.6669 365.696C84.9779 363.836 85.5767 362.803 86.3663 361.909ZM217.312 355.304C208.928 364.459 203.18 375.268 198.062 386.448C195.856 391.27 193.72 396.132 191.285 400.848C188.175 406.901 184.095 412.233 179.064 416.827C176.946 418.777 174.618 420.331 171.87 421.365C166.336 423.466 160.908 425.885 155.391 428.005C149.873 430.126 144.272 431.877 137.211 432.619C138.646 431.332 139.237 430.68 139.927 430.181C142.587 428.303 145.365 426.561 147.993 424.609C156.186 418.518 162.484 410.841 166.762 401.553C168.883 396.908 170.828 392.178 173.052 387.612C175.192 383.223 177.441 378.842 179.967 374.661C182.881 369.869 186.963 366.103 191.749 363.222C199.516 358.559 207.912 355.359 216.75 353.408C217.064 353.338 217.465 353.602 217.999 353.784C217.78 354.316 217.719 354.949 217.365 355.325L217.312 355.304ZM100.311 200.283C111.514 204.483 123.043 204.718 134.728 203.216C140.405 202.489 146.064 201.744 151.786 201.421C160.269 200.94 168.496 202.317 176.064 206.417C177.82 207.373 179.596 208.55 180.952 210.026C187.692 217.438 194.592 224.643 202.015 231.392C202.425 231.784 202.639 232.381 203.176 233.31C202.183 233.461 201.452 233.757 200.788 233.621C185.705 231.033 170.403 229.523 155.476 225.981C137.503 221.722 120.261 215.564 104.68 205.368C102.519 203.947 100.106 202.745 98.2788 200.181C99.2432 200.192 99.8357 200.05 100.333 200.23L100.311 200.283ZM239.633 415.996C246.581 412.661 252.323 407.787 257.238 401.966C260.527 398.073 263.595 393.965 266.713 389.916C269.451 386.368 272.087 382.705 274.842 379.177C279.532 373.176 285.223 368.245 291.443 363.841C299.212 358.358 307.985 356.021 317.235 354.972C317.822 354.903 318.461 354.891 319.074 354.969C320.283 355.142 321.508 355.335 322.689 355.633C325.588 356.376 328.466 357.172 331.952 358.118C330.971 359.144 330.559 359.844 329.952 360.204C319.251 366.744 310.126 375.285 300.784 383.538C294.504 389.085 288.156 394.555 281.606 399.793C274.4 405.568 266.485 410.258 257.956 413.814C252.257 416.195 246.328 417.687 240.216 418.384C239.281 418.485 238.317 418.201 236.492 417.986C238.014 417.033 238.801 416.449 239.667 416.034L239.633 415.996ZM166.85 88.0703C175.186 92.9324 182.803 98.6927 189.443 105.716C191.853 108.283 192.885 111.03 192.883 114.507C192.832 125.357 189.298 134.95 182.675 143.387C179.523 147.398 176.043 151.15 172.666 154.982C171.46 156.376 170.17 157.672 168.876 159.005C162.881 165.19 157.095 171.499 155.017 180.299C151.994 179.767 150.827 178.194 150.786 175.606C150.695 170.028 151.471 164.545 153.356 159.355C155.51 153.419 158.02 147.617 160.583 141.836C163.384 135.507 166.291 129.221 168.42 122.592C170.846 115.09 170.658 107.721 168.636 100.282C167.717 96.9604 166.352 93.7541 165.193 90.4708C164.871 89.5931 164.568 88.6986 164.017 87.1682C165.408 87.5902 166.203 87.6805 166.853 88.034L166.85 88.0703ZM443.835 466.34C451.66 463.229 459.807 461.268 468.092 459.935C479.011 458.181 490.012 457.615 501.081 458.456C509.433 459.076 517.805 459.68 526.138 460.317C527.496 460.428 528.82 460.772 530.944 461.135C529.871 462.173 529.428 462.798 528.804 463.138C520.599 467.808 511.843 471.221 502.902 474.148C499.027 475.415 495.045 476.402 491.201 477.744C485.847 479.621 480.408 479.798 474.867 479.077C467.972 478.173 461.071 477.378 454.172 476.546C444.636 475.39 435.425 476.405 426.638 480.526C426.3 480.685 425.865 480.655 424.209 480.907C429.848 473.805 436.274 469.324 443.816 466.357L443.835 466.34ZM129.962 74.172C131.15 76.2373 130.97 78.0643 130.447 79.8498C129.219 83.9547 127.885 88.016 126.567 92.0966C124.929 97.1388 123.023 102.108 121.725 107.228C119.756 114.979 120.47 122.639 123.494 130.055C125.35 134.605 127.525 139.014 129.157 143.622C130.713 148.025 131.839 152.599 132.967 157.136C133.226 158.137 132.871 159.333 132.023 160.55C131.647 159.651 131.105 158.795 130.896 157.852C129.275 150.95 125.916 144.95 121.788 139.281C119.16 135.643 116.61 131.937 114.192 128.15C107.708 118.06 105.089 106.848 104.753 95.007C104.658 91.3405 104.51 87.6522 104.342 83.9808C104.027 76.6212 102.826 69.4201 100.671 62.0632C110.214 67.3713 120.059 71.1885 129.945 74.1526L129.962 74.172ZM408.923 529.146C401.021 541.357 395.426 554.725 389.531 567.946C386.645 574.452 383.335 580.783 379.971 587.092C374.604 597.126 367.011 605.352 358.389 612.67C357.846 613.143 357.135 613.423 355.959 614.108C356.312 612.948 356.371 612.352 356.621 611.895C363.162 600.666 366.631 588.301 369.888 575.848C371.84 568.35 373.738 560.831 375.976 553.426C376.965 550.142 378.687 547.072 380.087 543.908C382.347 538.835 386.278 535.405 391.098 532.836C396.694 529.828 402.602 527.843 409.606 527.152C409.212 528.382 409.146 528.815 408.923 529.146ZM353.853 106.895C362.24 125.891 375.164 141.134 392.406 152.608C397.666 156.097 403.147 159.29 408.672 162.378C416.933 166.998 424.479 172.481 431.176 179.18C434.465 182.48 436.842 186.065 437.411 190.783C437.682 193.205 438.229 195.591 438.592 198.001C438.642 198.332 438.306 198.728 438.022 199.419C437.174 198.761 436.336 198.231 435.673 197.548C427.377 188.665 417.665 181.561 407.475 175.08C401.63 171.351 395.663 167.797 389.78 164.102C382.343 159.41 375.268 154.233 369.031 147.984C362.915 141.833 358.306 134.674 354.523 126.898C351.058 119.798 350.723 112.455 352.032 103.439C353.128 105.517 353.535 106.218 353.851 106.931L353.853 106.895ZM108.148 284.758C115.382 283.627 122.664 282.591 129.891 281.296C141.543 279.209 153.137 276.899 164.755 274.772C172.407 273.379 180.181 273.141 187.923 273.374C193.793 273.535 199.53 274.598 205.604 277.103C204.566 277.907 204.035 278.472 203.416 278.739C193.223 282.929 182.967 286.968 172.805 291.233C162.344 295.623 151.624 297.136 140.482 294.961C135.469 293.984 130.472 293.026 125.504 291.906C117.758 290.143 110.041 288.218 102.3 286.383C102.265 286.107 102.209 285.849 102.171 285.609C104.156 285.343 106.139 285.113 108.109 284.792L108.148 284.758ZM253.872 316.828C254.858 317.059 255.829 317.507 256.824 317.593C262.148 318.026 265.957 320.906 268.896 325.057C271.835 329.207 274.716 333.409 277.386 337.76C278.861 340.154 279.971 342.833 280.12 345.702C279.294 347.139 277.955 346.739 276.826 346.735C270.689 346.738 264.582 346.579 258.457 346.674C255.23 346.729 252.36 345.824 249.888 343.89C245.899 340.725 242.03 337.385 238.198 334.048C234.986 331.227 232.033 328.077 228.663 325.427C225.484 322.917 221.908 320.89 218.492 318.656C217.864 318.249 217.239 317.806 215.554 316.618C229.209 313.737 241.538 313.99 253.853 316.845L253.872 316.828ZM161.377 389.516C158.112 395.705 153.948 401.213 149.017 406.196C141.796 413.519 133.671 419.687 124.798 424.804C121.992 426.434 118.937 427.703 115.968 429.031C112.495 430.562 109.079 430.713 105.282 429.527C98.3291 427.344 91.192 425.732 83.6059 423.761C85.2586 421.433 87.5364 420.877 89.2645 419.574C91.0677 418.239 92.989 417.04 94.6739 415.57C96.3589 414.1 97.8074 412.359 99.7109 410.358C110.693 409.536 121.991 408.098 132.692 403.67C143.149 399.352 152.345 392.965 162.38 386.835C162.045 387.741 161.816 388.69 161.377 389.516ZM365.092 610.776C375.296 601.634 382.464 590.302 388.292 578.06C391.716 570.88 394.82 563.57 398.031 556.304C401.672 548.083 405.696 540.107 410.532 532.514C414.146 526.805 418.33 521.552 422.962 516.658C423.769 515.784 424.578 514.874 425.818 513.52C425.9 514.982 426.068 515.448 425.901 515.765C420.934 526.336 418.281 537.682 414.988 548.804C413.661 553.302 412.19 557.755 410.63 562.183C406.275 574.471 399.226 585.119 390.587 594.804C389.916 595.559 389.209 596.313 388.451 597.008C381.239 603.402 373.02 608.29 364.048 612.198C364.389 611.73 364.663 611.184 365.109 610.795L365.092 610.776ZM414.695 138.24C407.911 131.48 401.107 124.737 394.4 117.909C386.959 110.358 379.421 102.892 372.252 95.1039C365.878 88.1896 360.468 80.5029 356.295 72.0442C354.616 68.6346 353.032 65.1768 352.049 60.3759C357.879 64.5948 362.767 68.4767 367.984 71.7983C373.308 75.1635 378.997 77.9708 384.841 81.1891C385.029 81.6389 385.416 82.3571 385.601 83.1162C387.407 89.721 390.705 95.5348 394.853 100.914C398.466 105.602 402.213 110.172 405.654 114.975C408.362 118.782 410.95 122.727 413.126 126.862C414.74 129.885 415.691 133.282 416.797 136.543C417.083 137.419 416.902 138.462 416.991 140.089C415.832 139.191 415.185 138.801 414.674 138.293L414.695 138.24ZM77.7917 175.996C87.9513 183.731 99.6473 186.581 112.179 187.066C121.968 187.456 131.775 187.829 141.507 188.78C150.932 189.691 159.929 192.34 167.961 197.637C168.936 198.286 169.79 199.109 171.137 200.183C170.097 200.477 169.546 200.822 169.116 200.72C158.997 198.232 148.876 198.711 138.702 200.225C132.244 201.19 125.739 201.787 119.182 201.543C107.411 201.11 96.6694 197.359 87.1678 190.652C81.8183 186.866 78.2898 181.219 75.7998 174.768C76.4637 175.177 77.1689 175.516 77.7748 175.976L77.7917 175.996ZM406.945 576.374C412.875 565.304 416.191 553.31 419.633 541.343C421.764 533.894 423.648 526.319 427.112 519.343C428.825 515.872 430.854 512.568 432.987 509.344C435.159 506.086 437.965 503.399 441.396 501.428C446.361 498.596 451.343 495.783 456.322 493.007C456.966 492.65 457.742 492.484 459.009 492.06C458.589 493.142 458.547 493.759 458.212 494.118C445.956 507.163 437.94 522.644 432.147 539.423C430.488 544.245 428.616 548.98 426.724 553.732C425.275 557.349 423.248 560.616 420.538 563.492C417.041 567.225 413.752 571.117 410.342 574.91C409.295 576.096 408.162 577.221 406.436 579.034C406.723 577.488 406.676 576.847 406.929 576.354L406.945 576.374ZM478.781 524.301C484.852 518.084 489.008 510.572 493.024 502.978C495.598 498.108 498.154 493.219 501.061 488.536C502.985 485.425 505.347 482.581 507.673 479.734C510.815 475.868 514.569 472.899 519.401 471.205C523.022 469.921 526.431 468.003 529.968 466.349C530.129 466.925 530.425 467.382 530.316 467.647C525.318 478.143 520.037 488.511 513.844 498.379C505.425 511.757 493.416 520.394 478.214 526.192C478.584 525.052 478.58 524.578 478.815 524.339L478.781 524.301ZM471.218 483.692C460.538 487.284 450.349 491.947 440.877 498.097C439.486 499.004 438.052 499.472 436.316 499.554C426.584 499.933 417.385 502.369 408.909 507.275C408.396 507.587 407.77 507.69 406.95 507.962C407.036 507.24 406.933 506.613 407.181 506.193C410.085 501.273 413.077 496.414 415.998 491.513C417.397 489.168 419.336 487.442 421.62 485.994C430.15 480.563 439.476 477.881 449.532 478.617C457.07 479.164 464.532 480.289 472.028 481.179C472.533 481.25 472.999 481.627 474.146 482.16C472.822 482.872 472.058 483.403 471.199 483.709L471.218 483.692ZM98.0787 143.537C93.3337 142.36 88.5668 141.236 83.8923 139.827C77.9519 138.022 71.9564 137.288 65.7677 137.779C64.779 137.858 63.7521 137.697 62.4832 137.611C60.2211 132.086 59.862 126.162 58.9248 120.436C57.9707 114.69 56.5429 108.948 56.8035 102.483C58.1076 103.118 59.1296 103.351 59.7618 103.959C61.9866 106.039 64.1508 108.207 66.1819 110.457C68.2299 112.726 70.0262 115.215 72.0742 117.485C78.9975 125.146 87.4095 130.214 97.791 131.518C100.444 131.862 102.299 132.971 103.868 135.044C105.588 137.327 107.539 139.408 109.317 141.64C109.787 142.218 110.025 142.999 110.456 143.884C106.055 144.861 102.034 144.552 98.0593 143.554L98.0787 143.537ZM177.338 270.508C172.245 270.691 167.164 271.239 162.132 272.118C151.276 274.023 140.446 276.075 129.657 278.331C120.05 280.338 110.346 281.647 100.572 282.369C99.199 282.476 97.7758 282.253 95.3057 282.158C96.874 281.062 97.5617 280.326 98.3841 280.018C102.571 278.444 106.751 276.706 111.075 275.524C118.199 273.603 125.056 271.063 131.86 268.228C137.126 266.054 142.525 264.071 147.99 262.438C155.966 260.047 164.02 259.973 172.167 262C179.311 263.777 186.436 265.571 193.147 268.611C194.048 269.018 194.886 269.549 197.008 270.73C189.477 270.621 183.362 270.297 177.283 270.523L177.338 270.508ZM424.662 125.932C425.162 128.734 425.514 131.562 425.756 134.419C426.194 139.456 425.458 142.484 422.713 147.469C422.117 146.864 421.383 146.414 421.082 145.756C420.671 144.854 420.414 143.817 420.355 142.812C419.655 133.368 415.87 125.082 410.488 117.506C406.235 111.537 401.678 105.765 397.214 99.9453C394.106 95.8744 391.167 91.7238 389.329 86.9195C388.99 86.0225 388.839 85.029 388.472 83.4746C389.922 83.846 390.937 83.9147 391.746 84.3337C402.992 90.0303 414.381 95.4999 424.888 103.75C422.304 111.424 423.338 118.668 424.645 125.913L424.662 125.932ZM160.314 380.831C159.945 380.642 159.636 380.367 159.325 380.127C148.757 372.51 136.998 370.839 124.401 372.899C118.729 373.826 113.357 375.683 108.089 377.894C102.259 380.321 96.4273 382.785 90.5039 384.988C85.1223 386.99 79.5296 388.086 73.7149 387.638C71.9216 387.498 70.0847 387.464 68.5422 386.322C70.4312 381.606 77.2062 372.287 82.1528 367.597C84.7157 368.462 87.3532 369.569 90.0736 370.264C96.6958 371.951 103.343 371.946 110.077 370.672C117.069 369.343 124.098 368.017 131.167 367.166C138.348 366.287 145.406 367.184 152.077 370.295C156.54 372.4 160.421 375.285 164.139 378.96C162.983 380.958 161.93 381.706 160.312 380.868L160.314 380.831ZM233.825 347.372C232.056 347.416 230.121 346.958 228.515 346.211C224.102 344.164 219.739 341.939 215.455 339.609C212.963 338.238 210.699 336.464 208.289 334.954C205.182 332.995 202.138 330.913 198.88 329.29C195.835 327.755 192.518 326.729 189.325 325.493C189.088 324.439 189.842 324.053 190.607 323.795C195.84 322.092 201.072 320.425 206.305 318.722C208.54 318 210.761 318.004 212.865 318.93C215.835 320.224 218.864 321.467 221.626 323.147C224.369 324.844 226.959 326.913 229.36 329.079C235.381 334.495 241.3 340.067 248.148 346.431C242.714 346.809 238.258 347.254 233.808 347.353L233.825 347.372ZM207.139 168.535C207.105 169.825 207.18 171.123 207.021 172.387C205.998 180.676 204.922 188.943 203.899 197.232C202.67 207.2 202.572 217.135 205.16 226.943C205.307 227.463 205.045 228.101 204.931 229.222C194.419 221.317 186.778 211.112 177.556 201.911C190.479 193.227 199.897 182.011 207.139 168.535ZM452.633 213.938C455.336 205.855 455.397 197.519 454.897 189.127C454.336 179.766 453.736 170.439 453.304 161.068C453.041 155.333 453.806 151.87 456.089 145.652C456.824 146.885 457.529 147.77 457.88 148.759C460.729 156.873 462.118 165.307 463.341 173.784C464.202 179.815 465.228 185.839 466.346 191.851C466.715 193.916 466.7 195.735 465.906 197.757C464.391 201.533 463.407 205.527 461.875 209.284C460.496 212.668 458.919 216.021 456.996 219.096C455.052 222.224 452.452 224.833 447.908 226.037C449.695 221.478 451.333 217.765 452.614 213.955L452.633 213.938ZM270.395 322.591C281.33 323.787 316.727 342.974 325.523 352.274C325.458 352.434 325.443 352.651 325.327 352.753C325.191 352.871 324.932 352.926 324.753 352.878C311.221 349.721 297.437 348.113 283.019 346.991C281.03 337.478 275.981 330.089 270.395 322.591ZM120.574 429.58C132.336 424.022 142.483 416.26 151.546 407.023C158.046 400.398 163.121 392.766 166.636 384.246C168.559 379.569 172.155 377.045 175.965 374.335C176.242 374.809 176.444 375.041 176.401 375.147C172.725 383.093 168.962 390.977 165.375 398.946C158.803 413.542 147.647 423.548 133.709 430.834C128.931 433.333 124.038 433.784 118.918 432.49C118.597 432.396 118.351 431.997 117.463 431.135C118.82 430.462 119.689 430.011 120.574 429.58ZM588.082 353.784C584.074 346.885 579.704 340.234 574.417 334.212C573.336 332.974 572.289 331.774 572.138 329.997C571.896 327.14 571.636 324.3 571.172 321.501C570.746 318.941 570.098 316.439 569.588 314.055C570.677 313.037 571.396 313.705 571.988 314.109C578.262 318.485 583.383 324.004 587.764 330.237C588.345 331.059 588.957 331.956 589.238 332.904C591.625 340.604 592.309 348.426 590.029 356.721C589.386 355.748 588.667 354.807 588.062 353.801L588.082 353.784ZM563.106 326.8C567.633 331.167 571.612 336.08 575.788 340.788C576.682 341.814 577.27 343.073 577.962 344.14C576.869 345.468 575.831 344.942 574.993 344.685C571.891 343.71 568.811 342.682 565.796 341.495C558.174 338.465 552.217 333.71 548.59 326.035C545.549 319.656 542.264 313.388 539.568 305.412C548.125 313.148 555.812 319.768 563.125 326.783L563.106 326.8ZM431.323 504.661C425.08 509.664 419.503 515.313 414.506 521.548C413.311 523.033 411.98 524.127 410.015 524.376C403.514 525.174 397.284 527.064 391.011 529.844C390.507 527.898 391.872 527.116 392.616 526.092C398.291 518.21 404.807 511.331 413.915 507.305C419.718 504.73 425.641 502.801 433.048 502.337C432.042 503.726 431.785 504.291 431.342 504.644L431.323 504.661ZM94.8035 410.753C94.3377 411.705 94.1088 412.655 93.5253 413.198C89.7845 416.768 85.3519 419.272 80.7216 421.471C78.5202 422.506 76.3718 422.233 74.1365 421.899C65.4519 420.546 56.7209 419.609 47.9002 419.976C45.2702 420.089 42.6596 420.185 40.0321 420.262C50.2893 414.074 78.8283 409.762 94.8035 410.753ZM405.062 448.053C399.679 454.59 393.165 459.83 385.865 464.052C384.481 464.85 382.906 465.508 381.354 465.84C374.743 467.177 368.123 468.385 361.486 469.574C360.933 469.682 360.309 469.476 359.606 469.374C364.419 463.709 396.617 447.445 406.231 445.875C405.77 446.754 405.536 447.503 405.062 448.053ZM597.705 347.808C599.972 354.59 602.092 361.398 604.173 368.24C604.826 370.397 605.241 372.592 605.672 374.806C607.343 383.368 608.976 391.964 610.626 400.58C609.067 400.747 608.892 399.57 608.546 398.782C606.694 394.705 604.901 390.577 603.144 386.452C600.275 379.684 597.576 372.837 594.573 366.151C593.514 363.803 593.228 361.599 593.438 359.064C593.863 354.194 593.835 349.276 594.006 344.389C594.036 343.681 593.994 342.968 593.985 341.511C596.299 343.616 597.025 345.777 597.722 347.828L597.705 347.808ZM541.382 301C541.65 300.8 542.026 300.37 542.205 300.419C548.333 302.673 554.437 305.017 560.57 307.199C563.947 308.411 565.973 310.733 566.871 314.108C567.752 317.464 568.577 320.834 569.274 324.213C569.452 325.081 569.092 326.076 568.979 327.198C558.481 319.621 545.301 307.056 541.384 300.964L541.382 301ZM397.372 459.022C402.204 455.216 406.35 450.781 409.987 445.802C410.791 444.691 411.84 443.469 413.054 443.023C419.142 440.813 425.374 439.16 432.49 437.894C431.419 440.771 429.485 441.878 427.936 443.23C419.654 450.626 410.371 456.407 400.007 460.439C398.79 460.921 397.514 462 395.854 460.722C396.367 460.138 396.796 459.457 397.372 459.022ZM382.712 448.67C378.464 447.945 374.179 448.82 369.936 449.625C368.625 449.882 367.313 450.959 365.527 449.654C368.634 446.296 372.481 444.098 376.148 441.615C381.663 437.928 386.823 438.369 391.95 442.212C393.041 443.033 394.071 443.94 395.57 445.189C391.088 448.145 387.247 449.45 382.659 448.648L382.712 448.67ZM388.72 437.259C400.939 434.336 412.417 434.513 425.113 435.263C420.278 438.05 415.832 438.623 411.728 440.056C407.698 441.458 403.621 442.766 399.149 444.248C395.755 441.96 392.621 439.854 388.72 437.259ZM354.655 467.218C354.447 467.331 353.976 467.026 353.478 466.847C353.678 466.332 353.824 465.796 354.093 465.322C355.896 462.385 357.683 459.429 359.607 456.591C360.136 455.789 361.005 455.065 361.885 454.706C368.104 452.178 374.537 450.519 381.616 452.183C372.639 457.219 363.663 462.256 354.652 467.254L354.655 467.218Z" fill="url(#paint0_linear_77_17797)"/>
<defs>
<linearGradient id="paint0_linear_77_17797" x1="241.145" y1="589.25" x2="421.123" y2="72.6838" gradientUnits="userSpaceOnUse">
<stop stop-color="#C2A363"/>
<stop offset="0.01" stop-color="#CAB078"/>
<stop offset="0.03" stop-color="#DBC89E"/>
<stop offset="0.05" stop-color="#E7D9BA"/>
<stop offset="0.07" stop-color="#EEE4CB"/>
<stop offset="0.08" stop-color="#F1E8D1"/>
<stop offset="0.18" stop-color="#C2A363"/>
<stop offset="0.29" stop-color="#A18347"/>
<stop offset="0.4" stop-color="#C2A363"/>
<stop offset="0.49" stop-color="#F1E8D1"/>
<stop offset="0.59" stop-color="#C2A363"/>
<stop offset="0.69" stop-color="#A18347"/>
<stop offset="0.8" stop-color="#C2A363"/>
<stop offset="0.92" stop-color="#F1E8D1"/>
<stop offset="1" stop-color="#C2A363"/>
</linearGradient>
</defs>
</svg>
