<svg width="2163" height="1508" viewBox="0 0 2163 1508" fill="none" xmlns="http://www.w3.org/2000/svg">
<path d="M19.1211 1507.44C19.8457 1503.77 20.1922 1501.43 20.7908 1499.15C27.4069 1473.88 30.841 1448.23 30.1479 1422.04C29.6754 1405.23 27.9425 1388.51 24.7289 1372.01C20.7908 1351.81 16.3171 1331.7 12.1899 1311.53C9.25997 1297.25 6.29853 1283 3.77812 1268.65C-0.0340062 1246.99 -0.790138 1225.21 1.60426 1203.29C2.76995 1192.56 4.72324 1181.98 7.87375 1171.66C16.5062 1143.35 35.1887 1124.48 61.9996 1113.3C74.2236 1108.2 87.0148 1106.97 100.058 1109.47C110.297 1111.4 120.316 1114.12 130.019 1117.99C155.822 1128.28 180.774 1140.37 205.38 1153.26C220.25 1161.02 235.593 1167.64 251.755 1172.1C259.316 1174.19 267.098 1175.97 274.911 1176.57C294.067 1178.09 310.859 1167.16 318.389 1149.34C321.634 1141.67 323.524 1133.76 324.091 1125.43C324.816 1114.63 324.091 1103.9 322.8 1093.19C320.153 1071.79 315.742 1050.7 310.323 1029.83C304.337 1006.84 298.194 983.914 292.208 960.925C285.497 935.149 280.394 909.057 278.283 882.426C277.18 868.525 276.487 854.592 277.684 840.659C278.503 831.127 280.456 821.913 283.953 812.983C289.75 798.195 299.58 787.239 313.726 780.019C327.462 773.021 342.081 769.569 357.298 768.493C383.384 766.624 408.966 769.791 433.761 778.119C450.773 783.819 467.566 790.279 484.358 796.707C511.736 807.188 539.209 817.448 567.343 825.808C568.855 826.251 570.367 826.694 571.879 827.201C633.44 847.024 692.261 837.872 748.434 808.581C790.777 786.51 827.764 757.061 859.017 720.677C875.337 701.71 889.483 681.159 901.392 659.087C911.033 641.228 914.592 622.324 912.513 602.216C911.316 590.499 909.079 579.005 905.362 567.859C899.47 550.126 893.421 532.456 887.089 514.914C875.495 482.741 863.428 450.759 852.055 418.523C846.794 403.609 842.351 388.377 838.161 373.114C818.155 300.188 820.865 227.706 842.887 155.698C850.511 130.777 860.624 106.964 874.423 84.8299C885.734 66.7171 899.187 50.3776 915.349 36.5397C930.818 23.3034 948.146 12.9486 967.458 6.39384C998.806 -4.24584 1029.02 -0.477617 1058.16 14.3103C1078.8 24.7916 1095.46 40.0862 1109.58 58.3257C1121.64 73.9369 1130.88 91.2264 1138.85 109.181C1147.07 127.674 1154.98 146.325 1163.26 164.817C1172.75 185.97 1184.43 205.856 1198.3 224.412C1206.27 235.084 1215.06 245.058 1225.96 252.848C1229.8 255.603 1233.87 258.105 1238.09 260.163C1257.81 269.789 1276.11 266.781 1292.65 252.848C1303.05 244.077 1312.35 234.102 1320.57 223.241C1332.41 207.629 1343.82 191.67 1355.82 176.217C1361.24 169.251 1367.32 162.759 1373.69 156.648C1383.61 147.116 1395.61 144.836 1408.81 148.256C1417.45 150.504 1425.45 154.304 1432.73 159.371C1440.51 164.754 1448.29 170.264 1455.28 176.597C1507.93 224.286 1546.84 280.904 1566.03 350.157C1571.1 368.46 1575.6 386.921 1579.7 405.445C1585.81 433.279 1591.23 461.272 1597.09 489.169C1603.48 519.568 1611.61 549.524 1622.14 578.752C1628.69 596.959 1636.72 614.471 1647.88 630.398C1663.5 652.723 1683.63 669.474 1708.62 680.145C1740.22 693.635 1773.23 699.271 1807.45 697.086C1822.86 696.105 1838.2 694.205 1853.6 692.938C1890.37 689.898 1926.7 691.988 1962.27 702.501C1997.74 712.983 2030.35 729.29 2059.24 752.47C2114.69 796.96 2147.77 854.497 2157.85 925.301C2163.65 966.055 2164.09 1006.81 2157.79 1047.5C2154.26 1070.33 2150.01 1093.07 2145.85 1115.8C2142.19 1135.75 2137.81 1155.54 2134.47 1175.52C2129.21 1207.22 2127.76 1239.14 2130.19 1271.22C2131.95 1294.46 2136.62 1316.97 2147.74 1337.78C2149.94 1341.93 2151.27 1346.55 2153.34 1351.78C2151.36 1351.65 2149.85 1351.93 2148.68 1351.46C2126.88 1342.28 2103.88 1338.7 2080.6 1336.45C2065.85 1334.99 2051.08 1333.95 2036.3 1332.62C2012.39 1330.46 1988.73 1327.01 1965.54 1320.55C1943.27 1314.31 1922 1305.67 1902.41 1293.19C1877.14 1277.11 1857.45 1255.61 1842.2 1229.93C1831.8 1212.48 1823.77 1193.89 1816.9 1174.8C1806.19 1144.97 1797.37 1114.57 1789.59 1083.85C1778.46 1039.96 1767.85 995.916 1756.66 952.027C1743.78 901.362 1729.16 851.203 1710.7 802.28C1697.84 768.176 1683.38 734.832 1664.83 703.388C1655.15 687.017 1644.44 671.405 1631.9 657.061C1623.74 647.719 1614.57 639.55 1603.93 633.153C1601.22 631.538 1598.41 630.082 1595.51 628.878C1580.33 622.672 1566.72 626.915 1556.86 639.676C1552.82 644.87 1549.39 650.696 1546.62 656.681C1542.52 665.547 1538.96 674.73 1535.65 683.945C1527.78 705.984 1520.59 728.309 1512.4 750.222C1502.2 777.517 1489.94 803.895 1474.66 828.752C1466.69 841.735 1457.65 853.927 1447.6 865.263C1437.48 876.663 1425.86 886.416 1412.41 893.699C1405.41 897.467 1398.07 900.222 1390.1 901.14C1377.53 902.565 1366.41 899.335 1356.77 890.944C1349.3 884.421 1343.44 876.631 1338.43 868.145C1331.53 856.397 1325.73 844.079 1320.47 831.539C1309.73 805.858 1299.27 780.019 1288.31 754.433C1278.32 731.159 1266.98 708.518 1253.12 687.27C1226.27 646.136 1191.81 613.362 1147.57 591.861C1095.56 566.592 1042.5 565.927 989.039 587.428C980.249 590.975 972.216 595.946 964.654 601.773C953.123 610.734 944.964 622.102 939.104 635.37C934.346 646.168 931.543 657.504 929.747 669.125C927.478 683.882 926.375 698.733 926.344 713.647C926.281 749.461 926.313 785.275 926.439 821.058C926.628 876.884 924.706 932.584 917.995 988.031C912.419 1034.04 903.881 1079.42 889.735 1123.62C880.914 1151.14 869.95 1177.68 854.796 1202.34C842.288 1222.74 827.166 1240.95 808.515 1255.89C775.403 1282.43 738.101 1293.07 696.073 1284.77C679.596 1281.54 663.811 1276.13 648.374 1269.63C621.878 1258.52 596.422 1245.25 570.808 1232.33C548.849 1221.25 527.047 1209.79 504.112 1200.86C492.077 1196.17 479.884 1191.8 467.471 1188.32C414.7 1173.56 365.111 1181.26 318.861 1210.67C301.25 1221.85 284.71 1234.45 268.61 1247.75C237.861 1273.18 209.885 1301.43 183.389 1331.29C161.556 1355.86 138.841 1379.64 116.724 1403.99C96.7498 1425.97 77.2482 1448.42 57.1794 1470.3C46.3101 1482.17 34.6846 1493.38 23.3427 1504.82C22.5551 1505.64 21.3895 1506.08 19.1527 1507.44H19.1211ZM2093.04 1246.45C2094.59 1244.9 2094.87 1243.57 2092.41 1242.72C2092.92 1242.05 2093.93 1241.33 2093.86 1240.72C2093.67 1238.54 2093.14 1236.35 2092.67 1234.2C2088.16 1213.81 2083.88 1193.38 2081.04 1172.67C2078.99 1157.63 2076.76 1142.62 2074.49 1127.58C2074.14 1125.18 2073.16 1122.86 2072.5 1120.49C2072.99 1115.91 2072.29 1112.18 2070.42 1109.31C2070.9 1113.46 2069.95 1117.32 2072.75 1120.46C2072.41 1121.57 2071.65 1122.71 2071.75 1123.78C2072.06 1128.5 2072.53 1133.22 2073.07 1137.9C2075.68 1160.8 2077.76 1183.73 2082.4 1206.33C2084.92 1218.68 2087.85 1230.97 2092.79 1242.65C2092.89 1243.92 2092.98 1245.22 2093.11 1246.52C2093.67 1246.96 2094.27 1247.44 2094.84 1247.88C2094.87 1247.82 2094.93 1247.75 2094.97 1247.69C2094.34 1247.25 2093.67 1246.83 2093.04 1246.39V1246.45ZM1750.2 876.409C1751.72 874.098 1751.62 873.844 1748.72 872.229C1750.71 869.696 1748.41 869.031 1746.9 868.018C1747.34 866.403 1746.9 864.978 1745.79 863.743C1745.83 862.761 1746.08 862.698 1746.55 863.585C1746.3 863.648 1746.05 863.743 1745.79 863.838C1747.21 864.946 1747.84 866.308 1747.18 868.113C1747.81 869.506 1748.44 870.868 1749.2 872.261C1749.64 873.623 1750.08 875.016 1750.58 876.378C1751.4 877.708 1752.22 879.038 1753.04 880.368C1751.4 882.584 1752.98 884.611 1753.51 886.606C1767.25 936.637 1780.86 986.733 1796.42 1036.26C1809.65 1078.34 1825.88 1119.06 1845.7 1158.42C1857.13 1181.1 1870.59 1202.5 1886.94 1221.85C1916.87 1257.22 1953.51 1283.44 1996.17 1301.2C2023.98 1312.79 2053.32 1318.84 2082.68 1324.67C2083.47 1324.83 2084.35 1324.54 2087.03 1324.29C2082.68 1322.45 2079.94 1321.12 2077.1 1320.14C2049.72 1310.58 2023.07 1299.18 1996.54 1287.43C1986.46 1282.97 1976.44 1278.31 1966.65 1273.28C1945.63 1262.51 1927.42 1248.07 1912.05 1230.05C1892.92 1207.63 1876.48 1183.35 1861.67 1157.85C1837.91 1116.94 1819.64 1073.59 1804.33 1028.91C1795.32 1002.57 1786.72 976.093 1777.87 949.684C1771 929.291 1764.04 908.93 1757.01 888.601C1756 885.719 1755.75 882.299 1752.76 880.368C1753.83 877.771 1752.38 876.821 1750.17 876.378L1750.2 876.409ZM1782.28 723.781C1783.51 725.269 1784.2 727.58 1786.88 726.915C1789.33 729.67 1792.33 731.222 1796.11 730.81C1798 734.23 1801.75 734.705 1804.83 736.035C1822.16 743.54 1839.58 750.855 1857.01 758.233C1895.29 774.414 1930.45 795.757 1962.45 822.324C2000.92 854.18 2028.87 893.794 2047.71 940.026C2053.1 953.23 2057.19 966.815 2060.06 980.811C2066.33 1011.53 2070.93 1042.5 2074.24 1073.69C2078.24 1111.46 2082.62 1149.18 2088.89 1186.64C2089.92 1192.88 2091.09 1199.11 2092.38 1205.29C2092.67 1206.68 2093.86 1207.89 2094.65 1209.15C2094.43 1210.2 2094.02 1211.27 2094.05 1212.32C2094.05 1212.95 2094.81 1213.59 2095.25 1214.22C2095.56 1214.09 2095.85 1213.93 2096.16 1213.81C2095.56 1212.26 2095 1210.7 2094.4 1209.18C2094.62 1207.7 2095.19 1206.18 2095 1204.72C2092.04 1179.51 2091.34 1154.18 2090.4 1128.85C2089.61 1107.32 2089.11 1085.78 2088.07 1064.25C2086.52 1032.55 2082.96 1001.08 2075.4 970.203C2064 923.528 2045.91 879.988 2015.01 842.654C2000.83 825.554 1984.92 810.26 1966.74 797.403C1946.99 783.47 1925.44 773.084 1902.66 765.326C1868.66 753.705 1834.51 742.495 1800.42 731.159C1799.04 730.684 1797.53 729.67 1796.08 731.095C1793.84 727.77 1790.34 727.517 1786.84 727.264C1785.3 726.092 1783.79 724.92 1782.25 723.717C1782.34 723.939 1782.53 724.224 1782.47 724.382C1782.4 724.572 1781.93 724.794 1781.9 724.73C1781.58 724.414 1781.33 724.034 1781.05 723.686C1781.43 723.686 1781.84 723.717 1782.28 723.812V723.781ZM68.7418 1412.41C69.0568 1412.64 69.3403 1412.83 69.6554 1413.05C69.4348 1413.21 69.2458 1413.36 69.0252 1413.55C68.9307 1413.21 68.8363 1412.83 68.7733 1412.48C69.4349 1411.88 70.0335 1411.24 70.7266 1410.64C71.7663 1409.76 72.1128 1408.84 71.1047 1407.7C74.9483 1405.83 75.6729 1401.81 77.1851 1398.45C89.9762 1369.92 102.578 1341.33 113.857 1312.13C121.544 1292.18 132.886 1274.19 147.568 1258.8C166.282 1239.17 187.863 1223.53 214.611 1216.47C215.524 1216.21 216.469 1216.02 217.289 1215.61C218.265 1215.11 219.085 1214.35 220.597 1213.24C218.738 1212.89 217.824 1212.54 216.911 1212.6C180.27 1214.41 151.096 1229.96 130.082 1260.42C117.449 1278.75 108.186 1298.74 100.972 1319.76C96.7813 1332.02 92.6226 1344.27 88.5269 1356.56C82.8245 1373.62 77.1537 1390.72 71.5142 1407.79C70.6006 1409.34 69.687 1410.93 68.7733 1412.48L68.7418 1412.41ZM1698.35 757.853C1698.63 757.41 1698.88 756.966 1699.17 756.523C1698.88 756.998 1698.6 757.473 1698.32 757.948C1698.85 758.455 1699.39 758.961 1699.89 759.468C1699.36 758.93 1698.85 758.391 1698.32 757.853H1698.35ZM991.56 476.091C991.276 477.485 990.961 478.91 990.678 480.303C990.142 481.759 989.606 483.184 989.102 484.641C989.354 484.641 989.606 484.673 989.859 484.704C989.575 484.958 989.26 485.211 988.976 485.464C989.008 485.211 989.039 484.958 989.102 484.673C990.363 483.501 991.654 482.329 990.583 480.335C992.757 479.321 993.45 477.991 991.623 476.06C993.733 475.521 995.718 474.92 994.521 471.975C997.546 470.075 997.735 466.655 998.806 463.773C1002.43 453.989 1006.34 444.331 1011.31 435.116C1016.17 426.091 1022.4 418.302 1029.93 411.398C1039.26 402.849 1050.03 398.795 1062.54 398.447C1076.09 398.067 1088.75 401.424 1101.01 406.839C1116.7 413.773 1131.03 423.051 1144.14 433.976C1170.1 455.572 1195.74 477.611 1221.39 499.587C1237.74 513.615 1254.91 526.408 1274.29 535.939C1305.26 551.202 1337.71 558.676 1372.3 554.021C1386.98 552.026 1401.6 549.682 1416.22 547.402C1423.68 546.231 1431.09 544.584 1438.62 543.761C1471.6 540.151 1502.67 546.263 1531.24 563.457C1541.51 569.632 1551.28 576.598 1561.24 583.28C1563.85 585.053 1566.21 587.238 1570.59 587.808C1568.67 585.908 1567.57 584.768 1566.43 583.691C1545.92 563.964 1524.91 544.838 1502.23 527.643C1489.91 518.302 1477.56 508.96 1464.55 500.632C1438.68 484.134 1410.36 475.363 1379.45 476.281C1370.32 476.566 1361.18 477.105 1352.1 477.96C1337.33 479.353 1322.58 480.24 1307.75 480.081C1270.1 479.638 1234.81 470.645 1202.3 451.202C1177.63 436.414 1154.41 419.536 1131.57 402.152C1118.24 391.987 1104.51 382.519 1089.04 375.838C1080.88 372.323 1072.43 369.758 1063.52 369.346C1043.76 368.428 1028.7 375.933 1019.16 393.887C1011.38 408.517 1005.8 423.906 1001.77 439.929C999.468 449.144 997.136 458.327 994.931 467.573C994.584 468.998 994.805 470.582 994.742 472.07C993.671 473.431 992.631 474.793 991.56 476.155V476.091ZM1734.2 695.503C1735.59 696.611 1736.97 697.72 1738.36 698.86C1765.14 709.024 1792.96 713.838 1821.47 715.389C1833.09 716.023 1844.72 717.131 1856.35 717.891C1882.18 719.537 1907.73 723.147 1932.9 729.354C1989.42 743.287 2034.73 774.414 2068.75 821.343C2105.61 872.134 2123.79 929.861 2125.97 992.559C2126.63 1011.53 2126.09 1030.56 2125.4 1049.56C2123.89 1090.69 2121.56 1131.82 2120.33 1172.99C2119.63 1196.39 2120.48 1219.86 2120.74 1243.29C2120.77 1246.9 2120.61 1250.63 2122.5 1254.09C2123.16 1251.08 2123.41 1248.07 2123.41 1245.06C2123.29 1217.1 2125.68 1189.36 2130.85 1161.91C2133.87 1145.73 2137.15 1129.58 2140.52 1113.46C2145.88 1087.71 2150.32 1061.84 2153.6 1035.72C2158.2 998.987 2157.35 962.413 2152.12 925.839C2141.53 851.647 2105.52 792.685 2045.22 749.176C2000.1 716.592 1949.35 698.955 1893.52 697.593C1879.69 697.276 1865.8 698.005 1851.97 698.796C1840.34 699.461 1828.75 700.886 1817.15 702.09C1793.43 704.591 1769.96 702.818 1746.61 698.163C1744.44 697.72 1742.27 697.276 1740.09 697.15C1739.52 697.15 1738.89 698.321 1738.3 698.86C1737.85 696.58 1736.28 695.788 1734.17 695.756C1733.88 695.756 1733.6 695.756 1733.35 695.756C1733.63 695.661 1733.88 695.566 1734.17 695.503H1734.2ZM299.296 1191.23C299.485 1192.02 299.864 1192.97 298.383 1192.24C298.761 1191.93 299.139 1191.61 299.517 1191.29C299.895 1191.29 300.242 1191.23 300.62 1191.23C300.336 1191.58 300.053 1191.93 299.738 1192.27C299.58 1191.93 299.422 1191.58 299.296 1191.23ZM1605.22 563.425C1605.41 562.222 1605.6 560.987 1605.75 559.784C1604.3 555.351 1602.92 550.917 1601.37 546.516C1599.64 541.544 1597.75 536.636 1595.92 531.728C1596.27 529.638 1595.48 528.245 1593.37 527.738C1593.75 526.757 1594.54 525.68 1594.38 524.793C1593.91 522.133 1593.06 519.537 1592.27 516.94C1591.89 514.913 1591.2 513.14 1588.71 513.014C1591.1 510.765 1591.1 509.847 1588.71 506.206C1588.68 504.369 1588.96 502.469 1588.55 500.727C1581.78 471.373 1577.62 441.576 1572.52 411.905C1569.9 396.61 1567.98 381.158 1564.45 366.053C1558.02 338.536 1548.22 312.126 1535.18 287.015C1514.2 246.673 1485.97 212.031 1452.54 181.6C1445.58 175.235 1437.8 169.694 1430.05 164.279C1423.05 159.371 1415.37 155.634 1407.02 153.544C1395.8 150.726 1385.56 152.689 1377.25 160.922C1370.98 167.129 1364.96 173.684 1359.57 180.65C1347.57 196.135 1336.26 212.158 1324.25 227.642C1315.72 238.63 1306.23 248.89 1295.46 257.756C1278.1 272.038 1258.79 275.394 1237.99 266.306C1232.29 263.804 1226.97 260.226 1221.8 256.68C1210.24 248.668 1201.32 237.902 1193 226.724C1178.98 207.915 1167.23 187.68 1157.66 166.242C1149.53 148.035 1141.78 129.668 1133.68 111.492C1125.8 93.8229 1116.73 76.8185 1104.85 61.4923C1090.11 42.4612 1072.5 26.9132 1050.47 16.8435C1019.47 2.68892 988.378 2.15068 957.188 16.5269C932.677 27.8316 912.135 44.2661 895.217 65.2605C879.023 85.3366 866.421 107.566 857.285 131.695C828.647 207.154 821.841 284.166 841.312 363.045C847.392 387.681 855.237 411.747 863.869 435.559C878.708 476.63 893.642 517.668 908.575 558.707C908.953 559.784 909.646 560.766 911.222 563.774C911.222 559.467 911.442 557.409 911.222 555.414C909.741 543.793 908.607 532.108 906.527 520.582C902.81 500.031 898.777 479.511 894.398 459.055C885.702 418.46 878.078 377.706 873.573 336.382C869.32 297.275 866.642 258.105 869.477 218.744C872.092 182.329 880.504 147.465 899.029 115.609C904.102 106.869 909.583 98.3511 914.813 89.7063C921.744 78.2433 930.44 68.2054 940.521 59.4973C961.787 41.0679 985.952 34.3863 1013.52 41.9544C1031.82 46.9892 1047.89 55.9824 1062.04 68.5853C1082.45 86.7615 1099.87 107.597 1114.78 130.46C1126.84 148.985 1138.25 167.984 1149.97 186.762C1166.48 213.203 1185.88 237.237 1209.39 257.756C1218.68 265.894 1228.64 273.114 1240.01 278.149C1262.16 287.965 1283.61 286.92 1303.84 273.146C1309.79 269.093 1315.21 264.121 1320.51 259.15C1328.13 252.025 1335.22 244.362 1342.84 237.268C1355.89 225.172 1371.04 217.161 1388.81 214.723C1415.15 211.113 1438.74 217.636 1459.88 233.785C1478.44 247.94 1493.41 265.388 1506.64 284.419C1525.89 312.126 1540 342.494 1551.5 374.128C1562.56 404.527 1570.88 435.718 1578.12 467.193C1580.67 478.308 1583.38 489.391 1586.09 500.442C1586.6 502.532 1586.66 504.939 1588.96 506.174C1587.1 508.454 1589.18 510.702 1589.12 512.95C1589.87 514.692 1590.41 516.655 1592.74 516.877C1592.27 517.859 1591.23 518.935 1591.42 519.758C1591.95 522.45 1592.9 525.047 1593.75 527.675C1593.72 529.575 1594.25 531.095 1596.27 531.665C1595.92 532.393 1595.1 533.28 1595.26 533.85C1597.53 541.228 1599.83 548.606 1602.41 555.889C1602.95 557.409 1604.84 558.454 1606.07 559.752C1604.15 560.67 1605.25 562.254 1605.28 563.615C1605.63 563.964 1605.97 564.312 1606.23 564.534C1605.97 564.249 1605.63 563.837 1605.25 563.425H1605.22ZM873.699 804.686C873.289 806.206 872.911 807.695 872.502 809.215C872.439 809.531 872.376 809.848 872.313 810.165C872.313 809.911 872.313 809.658 872.407 809.341C872.848 807.916 873.321 806.46 873.794 805.066C874.109 804.75 874.423 804.401 874.738 804.085C874.864 804.306 874.99 804.528 875.085 804.75C874.612 804.75 874.14 804.718 873.667 804.686H873.699ZM866.673 822.768C866.673 824.034 866.673 825.333 866.673 826.599C866.043 828.278 865.382 829.987 864.72 831.666C863.838 833.122 862.955 834.547 862.073 836.004C861.695 837.714 861.349 839.392 860.939 841.102C859.647 842.274 858.387 843.445 858.797 845.472C857.348 847.34 855.899 849.24 854.481 851.108C854.544 852.692 854.638 854.275 854.638 855.858C854.071 856.428 853.535 856.998 854.26 856.27C853.788 857.252 854.103 856.587 854.418 855.922C855.268 854.338 855.962 852.755 854.512 851.108C856.466 849.684 859.017 848.67 858.513 845.472C859.238 844.015 859.963 842.559 860.687 841.102C861.538 839.519 863.271 838.157 861.916 836.036C863.334 834.896 865.129 833.977 864.436 831.634C865.444 830.114 867.272 828.879 866.421 826.599C867.65 825.459 867.839 824.193 866.736 822.863C867.272 822.293 867.808 821.754 868.343 821.184C867.808 821.723 867.24 822.229 866.705 822.768H866.673ZM838.854 883.471C838.224 885.181 837.562 886.891 836.932 888.601C836.271 890.754 833.782 892.337 834.947 895.061C832.711 896.295 830.978 897.91 830.726 900.665C829.277 902.882 827.859 905.13 826.41 907.347C825.118 909.152 823.732 910.893 822.598 912.762C813.682 927.423 802.875 940.532 790.998 952.85C774.3 970.203 754.767 983.218 732.65 992.306C702.531 1004.66 671.688 1007.38 640.151 998.164C635.299 996.739 630.479 995.314 625.659 993.794C599.289 985.529 576.416 971.47 557.072 951.615C553.102 947.531 549.196 943.414 545.258 939.329C526.732 920.235 506.884 902.724 484.862 887.777C470.653 878.119 455.31 872.356 438.108 871.754C425.506 871.311 414.7 875.523 405.469 884.199C396.837 892.306 390.094 901.742 384.802 912.318C373.271 935.371 365.269 959.69 359.881 984.833C354.588 1009.63 350.713 1034.61 348.256 1059.88C346.397 1079.1 343.845 1098.26 340.978 1117.35C338.804 1131.83 334.33 1145.69 326.485 1158.2C324.406 1161.5 321.949 1164.54 319.649 1167.7C324.186 1165.04 327.588 1161.37 330.424 1157.16C338.52 1145.16 343.026 1131.67 346.176 1117.73C348.665 1106.62 350.902 1095.41 352.446 1084.14C357.739 1045.22 365.237 1006.68 372.452 968.082C374.027 959.69 375.728 951.299 377.965 943.066C382.061 928.056 387.669 913.68 396.553 900.729C407.99 884.104 424.215 877.518 443.559 877.264C450.301 877.169 456.665 879.038 462.588 882.236C469.834 886.131 476.482 890.817 482.562 896.454C501.182 913.68 516.966 933.471 533.002 953.009C541.445 963.332 550.361 973.085 560.443 981.761C578.747 997.467 599.352 1008.61 623.201 1012.98C631.865 1014.57 640.592 1016.12 649.351 1016.97C701.618 1022.07 746.072 1005.16 783.153 968.208C793.928 957.505 803.379 945.599 812.075 933.154C817.115 925.903 821.652 918.303 826.252 910.767C826.756 909.975 826.252 908.55 826.252 907.41C828.898 905.985 831.356 904.433 830.442 900.729C831.892 898.86 833.372 896.992 834.822 895.124C835.263 892.939 838.13 891.451 836.743 888.696C838.445 887.397 840.555 886.289 838.854 883.566C839.894 882.616 840.965 881.634 842.005 880.684C841.847 880.557 841.658 880.399 841.501 880.272C840.619 881.349 839.736 882.426 838.822 883.502L838.854 883.471ZM891.657 815.421C891.72 816.846 891.751 818.303 891.846 819.728C891.909 820.551 892.161 821.374 892.319 822.198C889.42 824.256 889.514 827.707 888.569 830.621C875.085 872.134 861.822 913.743 844.273 953.769C831.545 982.774 818.029 1011.27 799.158 1036.92C785.169 1055.95 769.228 1072.83 749.632 1086.04C720.773 1105.48 689.204 1113.93 654.517 1109.28C628.179 1105.73 605.401 1094.08 584.639 1077.83C573.927 1069.44 564.224 1059.98 554.363 1050.6C545.667 1042.34 536.751 1034.29 527.583 1026.6C519.612 1019.89 511.043 1013.9 501.591 1009.44C480.325 999.399 460.13 1001.01 441.133 1015.39C428.562 1024.92 419.552 1037.43 411.297 1050.6C402.539 1064.6 396.585 1079.96 390.536 1095.25C382.943 1114.41 373.869 1132.84 362.843 1150.19C357.959 1157.89 352.477 1165.23 346.838 1173.37C351.312 1168.81 355.596 1165.04 359.219 1160.67C373.743 1143.13 386.66 1124.38 397.939 1104.59C405.122 1091.96 412.022 1079.16 419.426 1066.66C427.68 1052.72 437.447 1039.93 449.576 1029.1C463.628 1016.56 478.593 1014.98 494.786 1024.29C495.605 1024.76 496.424 1025.27 497.149 1025.84C504.805 1031.89 512.839 1037.56 520.053 1044.11C530.545 1053.67 540.563 1063.81 550.613 1073.85C564.98 1088.19 580.827 1100.63 597.619 1111.94C611.985 1121.63 627.549 1128.12 644.688 1130.62C667.497 1133.95 689.961 1132.65 711.857 1125.05C718.41 1122.77 724.932 1120.33 731.17 1117.42C752.782 1107.32 772.82 1094.87 788.383 1076.35C796.291 1066.91 803.82 1057.13 810.909 1047.06C826.63 1024.7 838.634 1000.29 847.644 974.51C857.883 945.251 867.808 915.865 877.007 886.289C882.836 867.575 887.151 848.385 892.003 829.386C892.602 827.106 894.02 824.636 892.256 822.166C894.87 818.271 894.839 817.828 891.594 815.389C892.444 815.009 893.327 814.661 894.177 814.281C894.114 814.155 894.051 814.028 894.02 813.901C893.2 814.376 892.413 814.883 891.594 815.358L891.657 815.421ZM1561.02 454.21C1564.36 451.55 1564.39 451.044 1561.58 447.181C1563.32 445.534 1562.37 443.634 1561.99 441.892C1559.06 428.909 1556.23 415.927 1552.98 403.039C1550.21 391.987 1547.53 380.841 1543.72 370.17C1533.26 340.847 1519.59 313.076 1501.79 287.49C1489.28 269.504 1475.26 252.88 1457.8 239.39C1446.9 230.999 1435.18 224.381 1421.64 221.562C1392.81 215.514 1367.23 221.974 1345.52 242.303C1338.62 248.795 1332.16 255.761 1325.26 262.253C1320.22 267.034 1315.12 271.784 1309.57 275.932C1292.15 288.979 1272.71 293.38 1251.48 288.029C1245.43 286.509 1239.47 284.134 1233.8 281.442C1224.1 276.787 1215.44 270.423 1207.24 263.424C1184.75 244.172 1165.78 221.816 1149.81 196.926C1137.87 178.307 1126.5 159.308 1114.65 140.625C1099.34 116.496 1081.7 94.2345 1060.62 74.8868C1045.47 60.9539 1028.14 51.0425 1007.94 46.4194C987.685 41.7645 969.191 45.786 952.21 57.5023C941.719 64.7538 932.708 73.5568 925.525 84.1331C919.507 92.9995 913.49 101.929 907.977 111.144C893.925 134.672 883.906 159.719 879.086 186.952C875.117 209.529 873.636 232.234 873.919 255.065C874.455 300.157 879.086 344.869 886.553 389.296C891.877 420.835 898.21 452.184 905.803 483.248C906.023 484.356 906.244 485.496 906.622 487.301C907.031 486.003 907.504 485.274 907.315 485.021C906.843 484.325 906.086 483.849 905.424 483.279C908.417 481.506 907 478.72 906.653 476.503C903.534 457.124 900.919 437.617 896.824 418.428C890.397 388.314 885.702 358.01 882.93 327.357C880.819 303.957 880.063 280.556 881.544 257.091C884.033 217.921 896.351 182.265 918.625 149.935C936.552 123.905 960.968 112.094 992.158 113.741C994.049 113.836 995.939 113.962 997.829 114.184C1013.65 115.925 1028.74 120.232 1042.98 127.452C1060.49 136.318 1076.59 147.401 1091.94 159.656C1108 172.512 1122.78 186.793 1137.02 201.613C1153.87 219.156 1170.13 237.3 1186.73 255.096C1198.86 268.079 1211.94 279.922 1227.25 289.074C1234.65 293.507 1242.62 296.515 1251.16 297.592C1267.58 299.682 1283.86 299.365 1299.9 294.678C1309.92 291.765 1319.69 288.25 1329.04 283.627C1335.82 280.271 1342.62 276.977 1349.52 273.843C1361.93 268.174 1374.85 264.279 1388.37 262.316C1408.72 259.371 1428.03 262.823 1446.15 272.164C1466.06 282.424 1482.82 296.958 1496.81 314.311C1511.11 332.076 1522.83 351.613 1532.91 372.133C1543.44 393.507 1551.28 415.863 1558.12 438.631C1559 441.576 1558.75 445.059 1561.68 447.149C1561.58 448.321 1561.49 449.46 1561.39 450.632C1561.27 451.804 1561.14 452.975 1561.11 454.115C1561.58 454.464 1562.06 454.78 1562.5 455.129C1562.72 455.319 1562.91 455.572 1563.16 455.699C1563.25 455.762 1563.5 455.509 1563.69 455.414C1563.38 455.034 1563.16 454.464 1562.75 454.305C1562.21 454.084 1561.55 454.21 1560.95 454.179L1561.02 454.21ZM1705.03 767.796C1704.27 771.691 1705.31 774.889 1708.71 777.137C1708.52 782.331 1709.72 785.497 1713.72 790.532C1712.52 793.54 1714.45 795.947 1715.39 798.48C1729.51 836.131 1741.86 874.351 1752.06 913.237C1763.91 958.234 1775.09 1003.39 1786.37 1048.54C1795.73 1086 1805.4 1123.4 1817.66 1160.04C1823.99 1178.98 1831.3 1197.5 1840.4 1215.26C1863.4 1260.07 1898.44 1291.07 1945.69 1308.17C1961.45 1313.87 1977.55 1318.21 1993.99 1321.28C2017.27 1325.62 2040.84 1327.52 2064.41 1329.13C2065.22 1329.2 2066.08 1328.88 2068.15 1328.56C2064.94 1326.85 2062.52 1326.57 2060.22 1326C2049.82 1323.43 2039.33 1321.15 2028.99 1318.37C1988.54 1307.54 1952.12 1288.54 1919.61 1262.13C1893.11 1240.63 1871.44 1214.79 1854.11 1185.37C1831.58 1147.09 1813.78 1106.56 1799.7 1064.44C1785.93 1023.34 1773.36 981.825 1762.05 939.962C1755.62 916.15 1749.23 892.274 1741.89 868.715C1734.64 845.472 1726.26 822.578 1718.23 799.588C1717.12 796.39 1716.59 792.749 1713.41 790.564C1713.75 785.307 1710.95 781.285 1708.27 777.169C1707.07 774.034 1705.85 770.931 1704.55 767.796C1704.33 767.226 1704.18 766.624 1703.89 766.086C1703.86 765.991 1703.45 766.086 1703.23 766.086C1703.8 766.656 1704.36 767.258 1704.9 767.828L1705.03 767.796ZM2069.95 1093.64C2069.15 1097.75 2069.7 1101.52 2071.59 1104.94C2071.49 1100.7 2071.9 1096.99 2069.7 1093.67C2071.12 1090.75 2070.42 1088.13 2068.6 1085.69C2068.22 1088.47 2067.18 1091.42 2069.95 1093.67V1093.64ZM310.796 977.613C311.268 976.885 312.119 976.156 312.088 975.428C311.962 971.945 311.647 968.493 311.3 965.01C308.843 939.107 308.086 913.205 311.205 887.302C314.64 858.993 325.131 833.661 342.742 811.241C356.1 794.237 372.798 783.597 394.883 782.837C395.923 782.805 397.561 783.28 397.656 781.159C396.742 780.937 395.86 780.621 394.915 780.494C375.728 778.182 359.535 785.275 345.609 797.625C328.344 812.92 316.939 832.014 313.19 855.098C310.859 869.443 308.843 883.882 307.425 898.354C305.125 921.723 305.314 945.124 308.843 968.43C309.315 971.501 310.292 974.51 311.08 977.518C311.08 978.943 311.08 980.368 311.08 982.489C313.191 979.988 312.844 978.595 310.796 977.518V977.613ZM243.154 1219.92C244.824 1221.25 246.242 1220.93 247.628 1219.35C245.769 1218.05 244.289 1218.11 243.186 1220.2C240.76 1217.73 237.83 1219.06 235.215 1219.41C201 1223.88 172.268 1239.08 149.458 1265.04C135.186 1281.32 124.254 1299.72 116.661 1320.17C111.148 1334.99 105.036 1349.59 99.1442 1364.25C93.6307 1378.06 87.9913 1391.8 82.6039 1405.67C81.8793 1407.54 80.0206 1409.47 81.5329 1411.84C81.0918 1412.22 80.6191 1412.57 80.241 1413.02C80.052 1413.21 80.0206 1413.55 79.9261 1413.84C80.3987 1413.74 81.1863 1413.74 81.2808 1413.49C81.4698 1413.02 81.2807 1412.38 81.2177 1411.81C83.0765 1408.9 85.2505 1406.18 86.6998 1403.07C91.7091 1392.53 96.5924 1381.89 101.287 1371.22C109.068 1353.58 116.346 1335.75 124.474 1318.27C136.289 1292.85 150.907 1269.35 173.969 1252.34C174.473 1251.96 174.914 1251.52 175.387 1251.11C187.831 1240.66 201.505 1232.4 217.163 1227.84C223.81 1225.9 230.552 1224.32 237.2 1222.42C239.248 1221.85 241.138 1220.77 243.091 1219.95L243.154 1219.92ZM170.346 1154.12C170.724 1154.78 171.071 1155.42 171.449 1156.08C171.512 1156.05 171.575 1156.02 171.638 1155.95C171.228 1155.35 170.819 1154.72 170.378 1154.09C164.99 1152.41 159.603 1150.76 154.215 1149.05C136.415 1143.38 118.488 1143.67 101.413 1150.73C65.5282 1165.58 40.8281 1190.94 31.6286 1229.8C27.974 1245.28 26.2728 1261.05 27.6276 1276.95C28.8563 1291.45 30.3684 1305.95 32.2272 1320.39C34.9051 1341.1 37.8667 1361.81 38.8434 1382.71C38.9694 1385.12 39.4104 1387.49 39.6939 1389.9C40.9541 1388.48 41.2063 1387.02 41.2063 1385.59C41.0803 1377.04 41.2378 1368.49 40.6077 1359.98C39.5365 1345.13 37.8037 1330.34 36.638 1315.52C35.1572 1296.87 34.7161 1278.18 36.7639 1259.56C41.0802 1220.3 60.0463 1189.93 92.4966 1167.99C107.241 1158.01 123.466 1152.44 141.393 1153.07C147.662 1153.29 153.932 1154.31 160.17 1155.04C162.659 1155.32 165.148 1156.02 167.637 1156.11C168.519 1156.11 169.432 1154.85 170.314 1154.18L170.346 1154.12ZM283.166 1198.2C285.476 1198.2 287.283 1197.34 288.585 1195.63C286.789 1196.58 284.962 1197.53 283.166 1198.48C281.685 1198.35 280.142 1197.91 278.724 1198.16C263.601 1201.14 248.699 1200.03 233.829 1196.33C225.291 1194.21 216.627 1192.53 207.963 1190.98C175.324 1185.15 139.534 1205.45 127.215 1231.64C120.095 1246.77 112.439 1261.65 105.792 1277.01C93.6624 1305.16 83.7068 1334.14 74.3183 1363.33C68.7103 1380.78 63.2913 1398.26 57.8094 1415.74C57.3368 1417.23 56.7067 1418.75 58.219 1420.01C57.7149 1420.3 57.0848 1420.46 56.7068 1420.87C56.4862 1421.12 56.6437 1421.72 56.6437 1422.17C56.8642 1421.98 57.1478 1421.85 57.2738 1421.63C57.5574 1421.12 57.8094 1420.58 58.0615 1420.05C65.4022 1400.89 72.932 1381.83 80.0207 1362.57C86.5738 1344.81 92.5597 1326.82 98.9238 1308.96C105.414 1290.72 114.204 1273.62 125.105 1257.66C134.997 1243.16 146.969 1230.65 162.438 1222.1C176.615 1214.28 191.706 1208.87 207.963 1207.6C218.927 1206.75 229.922 1206.18 240.917 1205.54C252.858 1204.88 264.767 1203.8 276.487 1201.2C278.881 1200.67 281.591 1200.7 283.166 1198.23V1198.2ZM1854.14 765.769C1853.7 765.136 1853.29 764.534 1852.85 763.901C1852.79 763.933 1852.72 763.996 1852.69 764.028C1853.16 764.598 1853.64 765.199 1854.11 765.769C1862.84 770.772 1871.63 775.712 1880.32 780.811C1924.14 806.555 1962.01 839.076 1991.75 880.589C2028.05 931.223 2052.43 987.049 2062.42 1048.89C2063.93 1058.27 2065.16 1067.7 2066.64 1077.07C2066.83 1078.25 2066.36 1080.34 2069.01 1080.02C2068.94 1078.72 2069.01 1077.45 2068.85 1076.22C2065.32 1043.13 2060.69 1010.2 2053.54 977.676C2051.65 969.032 2049.22 960.45 2046.2 952.154C2027.48 901.109 1997.77 857.948 1955.24 823.781C1927.48 801.52 1897.65 782.837 1865.36 768.144C1862.49 766.846 1859.53 765.706 1856.57 764.724C1855.97 764.534 1854.99 765.421 1854.17 765.801L1854.14 765.769ZM301.88 977.803C302.542 977.201 303.739 976.6 303.77 975.935C303.896 974.066 303.644 972.135 303.361 970.267C297.564 930.621 300.746 891.324 307.992 852.217C311.3 834.452 319.113 818.778 330.676 804.876C341.64 791.672 354.966 782.014 371.286 776.694C372.672 776.251 374.058 775.712 375.508 775.206C375.13 774.477 375.035 774.002 374.878 774.002C354.116 772.831 334.141 775.934 315.396 785.465C303.014 791.767 294.539 801.52 289.373 814.345C285.781 823.211 283.67 832.489 283.229 842.02C282.819 850.855 282.662 859.753 283.04 868.588C284.174 896.517 288.774 923.94 295.516 951.045C297.721 959.944 299.927 968.842 302.227 977.708C302.384 977.961 302.479 978.246 302.668 978.468C302.983 978.816 303.361 979.133 303.739 979.481C303.833 979.228 304.023 978.975 303.991 978.785C303.96 978.531 303.739 978.183 303.518 978.12C302.983 977.93 302.416 977.898 301.849 977.803H301.88ZM60.0779 1391.83C60.6449 1389.11 60.9284 1386.26 61.7791 1383.63C68.0801 1364.38 74.1922 1345.06 80.9343 1326C91.9926 1294.68 104.027 1263.74 119.465 1234.23C123.12 1227.2 126.648 1220.05 132.067 1214.25C149.395 1195.63 170.283 1184.55 196.149 1184.52C200.874 1184.52 205.569 1184.96 210.295 1185.12C211.586 1185.15 213.224 1186.1 214.39 1183.57C203.332 1178.72 192.494 1173.66 181.436 1169.19C170.756 1164.88 159.54 1163.36 148.04 1164.47C139.061 1165.33 130.744 1168.18 123.655 1173.81C116.441 1179.55 110.266 1186.26 105.162 1193.98C95.9937 1207.82 89.6297 1222.9 84.8724 1238.73C79.8316 1255.45 76.744 1272.58 73.94 1289.77C68.8677 1320.71 63.8269 1351.65 58.786 1382.59C58.4395 1384.77 57.9354 1386.99 57.9984 1389.14C57.9984 1390.03 59.3848 1390.88 60.1094 1391.74C59.5738 1391.9 58.9437 1391.99 58.5026 1392.31C58.2821 1392.47 58.345 1393.04 58.282 1393.42C58.4396 1393.19 58.597 1392.91 58.8176 1392.75C59.2271 1392.4 59.6683 1392.12 60.1094 1391.8L60.0779 1391.83ZM517.785 816.656C517.407 816.276 517.029 815.864 516.588 815.548C516.399 815.389 516.052 815.453 515.8 815.389C515.958 815.833 516.021 816.593 516.304 816.688C516.714 816.815 517.281 816.498 517.785 816.371C519.959 819.823 523.834 820.804 527.111 822.578C544.281 831.919 561.546 841.07 578.779 850.317C593.807 858.392 608.961 866.118 625.06 871.818C658.897 883.819 691.945 881.476 724.27 866.276C747.678 855.257 767.779 839.709 785.579 820.963C805.238 800.285 821.589 776.979 838.728 754.275C839.799 752.85 841.059 751.266 840.461 749.145C832.364 756.111 824.425 763.204 816.17 769.981C793.896 788.284 770.299 804.718 744.307 817.1C688.826 843.54 631.456 852.153 571.69 832.996C556.379 828.087 541.099 823.148 525.756 818.271C523.141 817.448 520.715 815.643 517.722 816.688L517.785 816.656ZM2086.46 1258.52C2086.96 1257.79 2088 1256.97 2087.88 1256.37C2087.4 1253.9 2086.71 1251.46 2085.86 1249.05C2079.53 1230.72 2075.24 1211.91 2073.23 1192.62C2070.61 1167.73 2068.09 1142.81 2065.32 1117.96C2063.08 1097.82 2060.88 1077.65 2058.04 1057.57C2052.15 1015.83 2039.61 976.125 2020.39 938.601C2002.25 903.167 1980.1 870.646 1951.84 842.495C1924.49 815.263 1893.43 793.16 1859.12 775.997C1832.06 762.476 1804.2 750.57 1776.7 737.967C1775.31 737.333 1773.74 737.144 1772.26 736.732C1771.69 736.637 1771.12 736.542 1770.56 736.447C1771.12 736.447 1771.69 736.447 1772.26 736.415C1775.12 740.025 1779.41 741.513 1783.22 743.635C1799.45 752.691 1815.86 761.431 1832.02 770.646C1867.81 791.038 1900.61 815.58 1930.48 843.984C1960.06 872.166 1982.84 905.478 2001.14 941.894C2018.19 975.713 2029.47 1011.59 2036.55 1048.77C2040.59 1069.92 2043.96 1091.17 2047.61 1112.38C2050.7 1130.15 2053.35 1148.04 2056.97 1165.71C2063.27 1196.45 2071.46 1226.66 2085.39 1255C2085.92 1256.11 2086.08 1257.41 2086.43 1258.61C2087.03 1259.22 2087.59 1259.88 2088.26 1260.42C2088.48 1260.61 2088.88 1260.58 2089.2 1260.64C2088.98 1260.45 2088.76 1260.23 2088.54 1260.04C2087.85 1259.53 2087.15 1259.03 2086.46 1258.52ZM984.786 581.253C984.786 581.538 984.786 581.855 984.692 582.108C984.629 582.266 984.345 582.361 984.125 582.488C984.408 582.076 984.692 581.696 984.975 581.285C988.409 582.615 990.93 580.145 993.797 579.163C1047.23 560.512 1099.62 562.095 1150.85 587.08C1168.81 595.851 1185.22 606.966 1200.63 619.632C1217.33 633.343 1232.07 648.86 1245.11 666.054C1260.46 686.288 1272.9 708.296 1283.86 731.159C1296.34 757.125 1306.96 783.882 1317.83 810.576C1324.51 826.979 1331.19 843.414 1339.69 858.993C1344.42 867.606 1349.55 875.903 1356.42 883.059C1368.42 895.567 1382.63 898.67 1398.83 893.414C1408.53 890.247 1417.01 884.864 1425.04 878.594C1440.19 866.815 1452.39 852.28 1462.88 836.416C1485.84 801.647 1503.3 764.186 1514.61 723.971C1519.93 705.066 1525.57 686.288 1533.26 668.176C1538.24 656.523 1543.81 645.186 1551.56 635.053C1553.05 633.122 1554.34 631 1556.64 627.612C1551.85 629.417 1548.92 631.063 1546.37 633.248C1530.39 646.896 1516.06 661.937 1506.61 681C1501 692.305 1495.42 703.704 1490.66 715.421C1483.77 732.425 1477.65 749.715 1471.19 766.909C1464.74 784.104 1458.06 801.172 1448.92 817.163C1442.12 829.101 1433.8 839.677 1422.83 848.132C1405.54 861.431 1387.86 862.856 1369.09 852.058C1360.01 846.834 1352.01 840.31 1345.17 832.172C1336.98 822.419 1329.99 811.97 1324.22 800.665C1314.14 780.937 1304.03 761.241 1294.36 741.355C1275.99 703.578 1253.84 668.461 1224.67 637.998C1209.07 621.722 1192.69 606.491 1173.88 594.109C1145.27 575.268 1114.46 562.19 1079.84 559.91C1046.03 557.662 1013.83 562.697 984.692 581.348L984.786 581.253ZM844.305 939.646C841.186 941.102 840.02 944.079 838.539 946.897C831.639 960.07 824.236 972.958 815.792 985.181C802.277 1004.72 787.848 1023.4 769.858 1039.2C750.23 1056.43 727.956 1068.43 702.941 1075.11C676.792 1082.11 651.115 1080.72 626.478 1068.53C620.839 1065.74 615.136 1062.98 609.654 1059.85C580.795 1043.41 553.984 1023.97 528.213 1003.07C518.636 995.314 509.058 987.588 499.229 980.209C491.415 974.32 483.003 969.253 473.898 965.548C466.558 962.54 458.996 960.45 450.962 960.482C443.685 960.482 437.478 963.047 432.154 968.05C426.546 973.306 422.356 979.576 418.512 986.131C408.651 1002.85 401.594 1020.74 395.703 1039.2C390.095 1056.68 384.739 1074.26 378.438 1091.48C368.545 1118.62 356.415 1144.68 338.426 1167.54C337.26 1169.03 336.189 1170.62 335.087 1172.17C334.047 1173.66 333.039 1175.18 332.03 1176.7C337.827 1172.07 342.9 1166.88 347.5 1161.31C355.754 1151.27 362.433 1140.18 368.702 1128.79C377.461 1112.95 384.014 1096.17 390.851 1079.48C396.742 1065.11 403.264 1051.05 412.463 1038.44C420.276 1027.71 428.373 1017.26 439.494 1009.47C456.413 997.626 474.56 994.332 494.25 1000.48C498.441 1001.77 502.505 1003.61 506.412 1005.67C521.912 1013.78 535.333 1024.79 548.062 1036.67C555.465 1043.54 562.46 1050.86 569.832 1057.79C580.89 1068.21 592.641 1077.83 605.684 1085.62C642.797 1107.85 681.643 1111.24 721.718 1094.84C743.961 1085.72 762.643 1071.19 778.648 1053.36C792.605 1037.78 804.451 1020.65 814.658 1002.31C825.906 982.11 835.105 960.957 843.895 939.646C844.053 939.107 844.21 938.601 844.305 938.062C844.336 937.872 844.21 937.651 844.179 937.429C843.864 937.778 843.233 938.221 843.296 938.443C843.422 938.918 843.958 939.266 844.305 939.677V939.646ZM924.989 629.733C925.494 628.91 926.155 628.182 926.439 627.295C937.78 593.318 948.145 559.056 952.651 523.4C956.62 491.988 959.582 460.448 962.827 428.941C964.749 410.322 967.773 391.892 972.657 373.811C976.563 359.435 981.793 345.534 989.701 332.772C995.466 323.494 1002.68 315.609 1011.5 309.34C1022.37 301.613 1034.47 299.46 1047.51 302.69C1060.56 305.92 1072.09 312.38 1083.21 319.694C1100.16 330.841 1115.38 344.109 1129.99 358.137C1145.53 372.988 1161.12 387.776 1178.23 400.79C1206.9 422.608 1239 436.509 1274.44 442.557C1288.87 444.996 1303.37 444.869 1317.7 441.797C1327.56 439.676 1337.3 437.079 1347.13 434.767C1354.5 433.026 1361.84 431.189 1369.24 429.764C1398.2 424.16 1425.61 428.814 1451.82 442.146C1467.98 450.379 1482.25 461.272 1495.93 472.988C1511.11 485.971 1524.09 501.044 1536.25 516.908C1546.24 529.955 1556.42 542.843 1566.56 555.762C1567.88 557.441 1569.59 558.834 1571.13 560.354C1569.87 556.649 1568.04 553.387 1565.96 550.284C1557.05 537.238 1548.16 524.16 1539.03 511.272C1525.51 492.178 1511.93 473.146 1496.15 455.794C1483.07 441.417 1468.45 429.036 1451.95 418.903C1425.92 402.88 1398.13 400.315 1369.15 408.58C1363.1 410.29 1357.27 412.728 1351.35 414.945C1342.5 418.238 1333.77 421.911 1324.82 424.951C1301.89 432.709 1278.54 434.071 1254.91 428.466C1221.17 420.455 1191.18 404.97 1164.93 382.203C1152.74 371.626 1142.15 359.435 1131.35 347.465C1122.87 338.061 1114.49 328.624 1105.77 319.473C1098.8 312.126 1091.05 305.635 1082.58 300.03C1072.78 293.57 1062.51 288.124 1051.26 284.704C1035.89 280.049 1020.36 278.909 1004.63 283.025C995.183 285.495 987.401 290.435 981.289 298.225C973.759 307.82 968.498 318.459 965.725 330.397C961.85 347.085 958.92 363.9 957.471 380.999C953.564 426.123 949.469 471.246 943.577 516.18C939.891 544.458 935.953 572.672 929.4 600.474C927.447 608.802 925.997 617.225 924.359 625.617C924.076 627.073 923.477 628.752 925.241 629.828C924.863 630.398 924.517 630.968 924.139 631.538C924.359 631.507 924.8 631.507 924.8 631.412C924.895 630.873 924.895 630.335 924.958 629.797L924.989 629.733ZM426.987 788.822C426.735 788.759 426.388 788.727 426.231 788.569C426.105 788.442 426.136 788.094 426.136 787.84C426.357 788.189 426.609 788.569 426.83 788.917C428.657 789.202 430.547 789.202 432.248 789.835C441.417 793.255 450.143 797.657 458.461 802.881C477.521 814.851 494.912 828.911 511.011 844.649C531.616 864.756 553.008 883.914 576.101 901.109C589.554 911.115 603.511 920.235 618.633 927.55C630.353 933.218 642.608 937.303 655.368 939.551C679.469 943.762 701.807 939.202 721.718 924.604C727.799 920.14 733.627 915.232 739.235 910.133C760.375 890.881 778.427 868.968 793.991 844.965C818.943 806.523 843.864 768.081 868.627 729.512C872.785 723.021 877.417 716.719 880 708.866C879.055 709.436 878.393 709.658 878.047 710.101C864.562 728.435 851.078 746.77 837.626 765.104C823.606 784.23 809.429 803.23 793.487 820.804C773.292 843.097 750.073 861.273 722.443 873.306C690.811 887.112 658.487 889.044 625.627 877.929C608.551 872.166 592.515 863.996 576.637 855.542C556.883 844.997 537.318 834.072 517.376 823.939C493.747 811.938 469.677 800.887 444.756 791.83C440.629 790.31 436.376 789.075 432.154 787.777C430.295 787.207 428.436 787.049 426.987 788.79V788.822ZM999.152 487.903C1001.8 479.353 1006.34 471.753 1011.22 464.438C1031.67 433.849 1071.77 421.31 1105.33 439.834C1117.8 446.737 1129.68 454.432 1140.11 464.217C1147.7 471.342 1155.13 478.688 1162.66 485.908C1185.95 508.264 1210.46 529.1 1237.08 547.371C1261.4 564.059 1286.98 578.15 1314.99 587.65C1344.48 597.656 1374.57 601.108 1405.41 595.914C1420.31 593.413 1435.15 590.373 1449.99 587.523C1458.97 585.813 1467.89 583.85 1476.9 582.172C1504.21 577.073 1530.87 578.657 1556.48 590.436C1557.55 590.943 1559 592.431 1560.61 590.278C1559.44 589.233 1558.4 588.03 1557.14 587.175C1547.97 581.031 1538.96 574.603 1529.51 568.904C1500.31 551.297 1468.67 545.313 1435 549.936C1429.07 550.759 1423.21 552.152 1417.29 553.039C1400.47 555.541 1383.64 558.296 1366.75 560.227C1346.47 562.57 1326.52 560.227 1306.86 554.654C1274.7 545.566 1246.78 528.783 1221.58 507.155C1205.76 493.571 1190.23 479.638 1174.29 466.212C1160.3 454.4 1146.09 442.811 1131.6 431.633C1118.81 421.785 1104.85 413.742 1089.51 408.422C1078.92 404.749 1068.09 403.355 1056.93 404.59C1049.84 405.382 1043.45 407.915 1037.87 412.253C1031.1 417.51 1025.14 423.558 1020.48 430.873C1009.8 447.592 1003.85 466.307 997.735 484.926C997.483 485.654 998.648 486.889 999.152 487.903C998.648 488.156 998.113 488.378 997.703 488.726C997.514 488.884 997.546 489.359 997.451 489.676C997.609 489.423 997.703 489.138 997.892 488.948C998.271 488.568 998.743 488.283 999.152 487.934V487.903ZM888.853 705.573C884.852 712.729 881.134 720.076 876.755 726.979C858.639 755.541 840.398 783.977 822.062 812.413C807.349 835.244 792.92 858.328 775.781 879.481C760.785 897.974 744.118 914.788 725.152 929.101C709.273 941.071 691.158 946.707 671.278 946.676C661.417 946.676 651.839 944.966 642.356 942.432C623.863 937.524 607.07 928.911 591.129 918.556C568.571 903.895 547.967 886.732 528.056 868.683C513.563 855.542 500.142 841.197 484.83 828.942C471.504 818.271 457.831 808.17 442.488 800.538C431.398 795.028 419.804 790.849 407.517 789.297C389.276 787.017 372.294 790.184 358.211 803.135C350.493 810.228 343.719 818.176 338.3 827.138C326.391 846.865 318.42 868.018 316.435 891.229C314.86 909.563 313.883 927.898 315.616 946.264C317.507 966.118 319.617 985.973 321.76 1005.8C321.917 1007.22 321.13 1009.82 324.091 1009.88C324.28 1009.22 324.595 1008.61 324.595 1008.01C324.69 1005.16 324.721 1002.31 324.784 999.462C325.509 966.372 329.983 933.819 338.521 901.869C341.64 890.247 345.389 878.784 350.997 868.113C359.125 852.597 368.765 838.316 383.573 828.119C396.08 819.506 409.281 816.561 423.9 820.994C427.208 822.008 430.547 823.021 433.792 824.224C445.638 828.658 456.823 834.484 467.345 841.514C485.776 853.768 502.6 868.081 519.392 882.457C535.46 896.2 551.621 909.88 568.351 922.768C592.358 941.292 619.547 953.674 648.5 962.287C672.286 969.348 695.222 967.132 717.307 955.922C720.395 954.37 723.356 952.565 726.381 950.824C735.454 945.599 743.551 938.981 751.144 931.888C761.509 922.198 772.063 912.54 781.231 901.71C796.952 883.122 810.783 863.015 823.228 842.084C844.872 805.668 863.932 767.828 881.26 729.132C884.096 722.799 886.647 716.308 889.231 709.848C889.766 708.518 890.775 706.934 888.853 705.731C888.947 705.509 889.011 705.224 889.2 705.034C889.357 704.908 889.609 704.908 889.83 704.844C889.483 705.098 889.105 705.319 888.759 705.573H888.853ZM2115.73 1280.18C2116.55 1279.7 2117.37 1279.23 2118.28 1278.66C2118.19 1277.11 2118.06 1275.52 2117.93 1273.97C2116.92 1261.69 2115.35 1249.4 2114.97 1237.08C2113.46 1189.9 2114.85 1142.75 2117.46 1095.6C2119.16 1064.95 2120.83 1034.29 2120.8 1003.55C2120.77 965.073 2113.74 927.961 2100.32 892.084C2085.73 853.008 2064.15 818.429 2033.5 789.867C2012.23 770.076 1988.19 754.686 1961.16 744.173C1934.23 733.724 1906.12 728.182 1877.49 725.427C1848.31 722.641 1819.11 720.424 1789.9 718.017C1788.83 717.922 1787.7 718.682 1786.62 719.031C1786.03 718.619 1785.43 718.239 1784.86 717.827C1784.77 718.081 1784.7 718.334 1784.61 718.619C1785.3 718.682 1785.96 718.714 1786.66 718.777C1788.7 721.564 1792.04 721.944 1794.94 722.925C1820.56 731.665 1846.23 740.31 1871.88 748.987C1885.58 753.641 1899.41 758.011 1912.99 763.014C1970.93 784.452 2014.41 823.116 2045.16 876.473C2066.04 912.73 2078.68 952.059 2085.99 993.161C2091.41 1023.75 2093.71 1054.69 2094.71 1085.72C2095.53 1111.34 2096.54 1136.95 2097.45 1162.57C2098.81 1200.7 2104.42 1238.16 2115.29 1274.76C2115.79 1276.47 2115.6 1278.37 2115.76 1280.21C2116.23 1280.5 2116.67 1280.84 2117.18 1281.07C2117.46 1281.19 2117.81 1281.13 2118.12 1281.13C2117.87 1280.97 2117.65 1280.78 2117.37 1280.69C2116.83 1280.5 2116.26 1280.34 2115.73 1280.18ZM897.265 709.436C894.24 711.241 893.831 714.629 892.571 717.447C886.427 730.969 880.756 744.743 874.235 758.075C852.118 803.262 829.245 847.942 799 888.442C780.664 912.983 759.682 934.738 734.698 952.217C708.265 970.678 679.217 977.17 647.586 967.828C617.688 958.994 589.932 945.884 564.822 927.201C548.093 914.756 532.404 901.045 516.619 887.397C500.142 873.148 483.57 859.025 465.392 846.897C452.443 838.252 438.707 831.412 423.868 826.726C410.163 822.419 397.971 824.921 386.314 833.122C376.8 839.836 369.679 848.575 363.347 858.075C353.58 872.736 347.783 889.107 343.373 906.017C331.779 950.57 328.439 995.852 331.369 1041.74C332.629 1061.34 335.401 1080.81 335.149 1100.51C335.149 1101.55 334.961 1103.17 337.323 1102.69C337.733 1100.67 338.3 1098.54 338.552 1096.39C339.749 1086.64 341.167 1076.92 341.923 1067.13C343.971 1041.51 347.815 1016.15 352.761 990.976C358.306 962.92 366.844 935.814 379.509 910.102C385.022 898.924 392.237 889.076 401.184 880.399C411.77 870.14 424.309 865.326 438.928 866.055C453.64 866.783 467.534 870.52 480.231 878.246C495.92 887.777 510.57 898.765 524.023 911.273C535.585 922.008 546.896 933.091 557.765 944.522C569.642 957.03 583.095 967.29 597.934 975.84C612.269 984.136 627.99 988.728 643.774 993.287C658.834 997.657 674.114 998.576 689.646 997.214C717.748 994.744 742.669 983.883 765.321 967.575C786.335 952.439 803.001 933.091 816.8 911.242C833.372 884.991 847.014 857.157 858.829 828.467C874.014 791.545 885.576 753.388 896.162 714.946C896.666 713.173 896.698 711.273 896.918 709.404C896.887 708.898 896.824 708.391 896.792 707.884C896.95 708.391 897.107 708.898 897.265 709.436ZM945.184 597.466C944.333 593.729 946.665 590.816 947.894 587.681C953.218 574.16 959.456 560.924 964.056 547.181C975.996 511.494 987.496 475.616 996.191 438.916C1000.29 421.595 1006.37 405.002 1015.09 389.422C1024.8 372.133 1039.76 363.868 1059.3 363.488C1070.54 363.267 1081.13 366.18 1091.37 370.581C1106.27 376.978 1119.69 385.844 1132.45 395.66C1151.73 410.48 1171.58 424.445 1191.71 438.061C1228.1 462.633 1268.18 474.92 1312 474.286C1324.92 474.096 1337.8 473.02 1350.69 472.26C1357.93 471.816 1365.15 471.056 1372.36 470.645C1407.52 468.682 1439.72 477.833 1469.3 496.801C1487.67 508.58 1504.87 521.943 1521.54 535.939C1536.54 548.511 1550.87 561.842 1565.55 574.825C1567.35 576.408 1569.27 577.833 1571.13 579.322C1571.25 577.612 1570.72 576.567 1569.99 575.617C1558.65 560.417 1547.37 545.186 1535.94 530.081C1527.37 518.745 1518.8 507.377 1509.79 496.389C1494.19 477.358 1475.23 462.127 1454.06 449.904C1428.95 435.401 1401.85 429.733 1373.02 434.863C1364.64 436.351 1356.39 438.346 1348.1 440.277C1338.59 442.494 1329.17 445.091 1319.62 447.149C1305.32 450.252 1290.83 450.664 1276.37 448.511C1243.44 443.539 1213.2 431.506 1185.51 412.982C1167.86 401.17 1152.33 386.794 1136.8 372.418C1125.2 361.683 1113.71 350.885 1101.76 340.531C1090.77 330.999 1078.77 322.829 1065.94 315.926C1058.7 312.031 1051.1 309.023 1042.94 307.503C1032.39 305.54 1022.84 308.041 1014.34 314.248C1006.65 319.853 1000.13 326.724 995.025 334.862C986.172 348.953 980.659 364.406 976.752 380.461C973.003 395.85 970.231 411.43 968.687 427.231C966.797 446.452 964.78 465.673 963.016 484.926C959.739 520.645 954.1 555.921 943.829 590.341C943.294 592.146 943.01 594.015 942.601 595.819C943.577 596.421 944.365 596.896 945.184 597.403C944.239 597.719 943.326 598.004 942.38 598.321C942.443 598.543 942.538 598.764 942.601 598.954C943.451 598.448 944.333 597.909 945.184 597.403V597.466ZM883.56 804.781C880.315 805.921 880.063 809.12 879.181 811.685C870.202 837.777 858.388 862.603 845.817 887.081C832.931 912.192 818.597 936.321 800.134 957.79C790.84 968.588 781.2 978.943 769.858 987.714C739.613 1011.05 705.587 1023.34 667.372 1023.62C652.186 1023.72 637.221 1021.5 622.351 1018.62C604.487 1015.17 587.947 1008.33 572.825 998.227C560.695 990.153 549.574 980.748 539.996 969.76C527.93 955.954 516.115 941.926 504.521 927.771C496.267 917.701 487.225 908.455 477.679 899.715C473.52 895.915 468.889 892.496 464.037 889.551C443.244 876.979 416.086 882.964 401.909 902.914C397.309 909.373 393.623 916.308 390.504 923.623C384.077 938.569 380.674 954.339 377.713 970.203C370.593 1008.49 363.284 1046.74 357.896 1085.34C354.872 1107 350.619 1128.41 342.207 1148.77C341.64 1150.1 341.829 1151.74 341.577 1153.26C340.442 1154.34 338.741 1154.97 338.3 1158.14C339.812 1155.83 340.631 1154.59 341.45 1153.33C343.372 1150.44 345.389 1147.63 347.185 1144.65C359.976 1123.43 369.648 1100.79 377.429 1077.33C382.911 1060.83 388.078 1044.21 393.529 1027.68C398.601 1012.32 405.154 997.626 413.345 983.661C416.874 977.645 420.717 971.945 425.38 966.72C434.706 956.27 446.142 953.104 459.564 955.415C469.645 957.157 478.908 961.02 487.729 965.992C497.653 971.565 506.727 978.436 515.548 985.561C535.207 1001.39 554.741 1017.39 575.597 1031.63C593.051 1043.57 610.851 1054.88 630.007 1063.97C643.365 1070.3 657.353 1073.24 672.066 1073.37C684.794 1073.47 697.113 1071.28 709.211 1067.32C737.786 1058.01 761.666 1041.55 781.83 1019.41C801.71 997.562 818.155 973.275 831.765 947.087C854.638 903.104 870.611 856.523 882.552 808.455C882.867 807.251 882.93 805.985 883.087 804.75C883.119 804.021 883.151 803.293 883.182 802.565C882.961 802.692 882.71 802.818 882.489 802.945C882.804 803.546 883.15 804.116 883.465 804.718L883.56 804.781ZM924.359 588.093C928.833 577.263 931.007 566.434 932.393 555.477C937.024 519.03 941.719 482.614 945.846 446.104C948.492 422.83 950.193 399.429 952.304 376.091C953.785 359.657 956.841 343.475 960.653 327.453C963.489 315.546 969.002 305.033 976.311 295.312C983.494 285.749 992.883 279.986 1004.29 277.199C1021.99 272.893 1039.35 274.476 1056.4 280.397C1071.46 285.622 1084.91 293.76 1097.2 303.862C1110.93 315.135 1122.27 328.782 1134.22 341.829C1142.53 350.917 1150.6 360.258 1159.26 368.998C1184.94 394.996 1215.88 412 1250.88 421.658C1275.26 428.371 1299.52 427.643 1323.47 419.378C1330.62 416.908 1337.61 414.058 1344.7 411.398C1351.79 408.738 1358.75 405.73 1366 403.577C1396.81 394.362 1426.43 396.8 1454.31 413.678C1469.52 422.861 1483.51 433.723 1495.52 446.801C1505.76 457.947 1514.99 470.012 1524.6 481.76C1529.98 488.346 1534.3 495.756 1540.29 501.899C1539.78 499.651 1539.03 497.592 1538.05 495.629C1531.09 481.791 1524.31 467.858 1517.07 454.147C1508.09 437.079 1498.7 420.233 1487.73 404.337C1478.54 390.974 1468.26 378.498 1455.95 368.08C1426.14 342.779 1392.21 334.704 1354.4 345.882C1342.94 349.27 1331.66 353.355 1320.41 357.408C1310.58 360.955 1300.59 363.551 1290.23 364.945C1270.85 367.541 1252.61 364.216 1235.22 355.413C1225.36 350.41 1215.94 344.679 1207.05 338.061C1179.93 317.826 1154.47 295.66 1130.02 272.291C1121.8 264.438 1113.83 256.3 1105.67 248.383C1091.37 234.514 1076.09 221.784 1059.61 210.606C1047.8 202.595 1035.13 196.198 1021.58 191.765C1005.33 186.445 988.882 185.337 972.279 190.372C963.268 193.095 955.801 197.94 949.973 205.508C944.144 213.108 939.608 221.372 935.827 230.08C929.116 245.597 925.273 261.873 922.973 278.592C919.318 305.35 918.468 332.266 920.358 359.181C922.28 386.667 924.958 414.09 927.132 441.576C930.849 488.726 932.173 535.845 924.485 582.773C924.202 584.546 924.328 586.383 924.233 588.188L924.359 588.093ZM1561.14 616.37C1561.08 615.864 1560.98 615.357 1560.92 614.851C1559.72 614.661 1558.5 614.375 1557.3 614.28C1543.97 613.394 1530.9 614.914 1518.04 618.555C1505.57 622.102 1493.75 627.358 1482.28 633.312C1471.1 639.106 1460.01 645.123 1448.86 651.013C1418.01 667.321 1385.5 670.899 1351.57 663.742C1336.38 660.544 1321.89 655.288 1307.71 649.018C1285.94 639.423 1266.35 626.187 1246.85 612.792C1230.21 601.393 1213.64 589.803 1196.53 579.1C1169.66 562.285 1140.89 549.524 1110.21 541.354C1083.71 534.293 1057.25 534.42 1030.82 541.829C1008.48 548.099 988.661 558.486 973.917 577.137C973.255 577.96 971.774 578.657 973.129 580.747C974.358 580.177 975.713 579.67 976.973 578.973C983.558 575.268 989.922 571.12 996.695 567.795C1019.95 556.427 1044.36 549.397 1070.42 549.841C1103.4 550.411 1134.72 558.327 1164.02 573.495C1188.81 586.32 1210.87 603.197 1231.25 622.26C1243.95 634.135 1255.83 646.833 1267.2 659.974C1279.83 674.54 1291.96 689.518 1303.18 705.224C1316.95 724.509 1330.74 743.793 1344.83 762.824C1352.17 772.736 1360.36 781.95 1370.32 789.423C1377.21 794.585 1384.62 798.607 1393.06 800.602C1404.12 803.198 1414.42 801.203 1423.75 794.965C1427.62 792.368 1431.06 788.917 1434.3 785.529C1441.8 777.739 1447.98 768.904 1452.86 759.278C1459 747.15 1464.86 734.895 1470.28 722.451C1478.25 704.18 1486.82 686.225 1496.62 668.872C1503.17 657.251 1510.95 646.58 1520.66 637.333C1529.98 628.435 1540.79 622.229 1553.08 618.555C1555.72 617.764 1558.43 617.099 1561.11 616.402L1561.14 616.37ZM2078.55 1304.81C2078.55 1304.4 2078.55 1303.99 2078.58 1303.58C2074.52 1300.6 2070.39 1297.75 2066.39 1294.68C2051.61 1283.35 2037 1271.76 2023.98 1258.36C2016.74 1250.89 2009.78 1243.07 2003.1 1235.09C1996.2 1226.85 1989.33 1218.56 1983.19 1209.75C1958.8 1174.95 1938.48 1137.94 1923.23 1098.1C1910.66 1065.3 1900.01 1031.82 1888.86 998.544C1877.71 965.2 1864.95 932.521 1848.72 901.299C1836.59 877.993 1823.42 855.352 1807.39 834.484C1797.37 821.438 1786.4 809.215 1775.35 797.087C1759.56 779.797 1743.02 763.331 1725.22 748.131C1724.5 747.498 1723.65 745.947 1722.26 747.308C1722.35 747.973 1722.32 748.606 1722.54 749.113C1723.17 750.57 1723.9 751.963 1724.62 753.356C1736.81 776.631 1747.53 800.57 1756.79 825.174C1771.38 863.965 1785.81 902.787 1800.99 941.324C1812.81 971.343 1825.41 1001.05 1838.1 1030.68C1863.88 1090.79 1895.03 1147.75 1935.45 1199.37C1953.73 1222.71 1974.49 1243.13 1998.84 1260.04C2021.72 1275.9 2045.98 1289.3 2070.9 1301.49C2073.42 1302.72 2076.06 1303.67 2078.61 1304.75L2078.55 1304.81ZM912.324 763.173C911.883 763.109 911.474 763.014 911.032 762.951C910.591 764.661 910.056 766.371 909.709 768.081C906.874 782.995 904.038 797.942 901.234 812.856C897.265 834.041 892.35 854.972 886.206 875.618C875.684 911.115 864.121 946.264 851.33 981.001C838.634 1015.45 820.613 1046.9 797.016 1074.92C789.927 1083.34 782.145 1091.42 773.575 1098.29C756.248 1112.22 736.683 1122.36 715.7 1129.77C692.292 1138 668.348 1139.77 643.932 1136.23C629.439 1134.1 615.64 1129.64 603.133 1121.98C586.151 1111.59 569.958 1100.06 555.56 1086.19C545.321 1076.35 535.271 1066.28 524.937 1056.49C517.848 1049.78 510.696 1043.03 503.041 1036.95C497.905 1032.87 492.108 1029.45 486.248 1026.47C478.782 1022.64 470.937 1022.96 463.47 1026.79C459.847 1028.66 456.098 1030.65 453.231 1033.47C447.182 1039.46 441.416 1045.76 436.061 1052.38C427.082 1063.46 420.056 1075.87 413.314 1088.38C398.727 1115.42 382.911 1141.61 363.725 1165.64C360.637 1169.54 357.676 1173.53 353.454 1179.1C358.81 1176.28 362.055 1173.88 365.142 1171.25C377.209 1160.99 388.047 1149.49 397.971 1137.14C410.888 1121.09 424.687 1105.92 440.345 1092.56C448.316 1085.75 457.169 1080.37 467.03 1076.66C478.215 1072.45 489.399 1072.61 500.111 1077.8C506.002 1080.65 511.705 1084.23 516.903 1088.25C525.976 1095.19 533.096 1104.15 540.343 1112.95C556.032 1132.02 572.446 1150.29 591.696 1165.96C614.852 1184.83 641.222 1193.1 670.743 1191.2C688.795 1190.03 706.218 1185.78 722.915 1178.72C741.062 1171.03 757.382 1160.51 772.567 1147.94C788.509 1134.8 802.938 1120.27 814.658 1103.23C832.963 1076.6 848.495 1048.32 860.309 1018.21C883.812 958.392 898.903 896.422 906.307 832.584C908.764 811.526 910.245 790.342 912.135 769.189C912.324 767.194 912.198 765.168 912.23 763.173H912.324ZM1566.28 526.218C1566.62 526.06 1567 525.87 1567.35 525.712C1566.5 523.147 1565.71 520.55 1564.76 517.985C1558.02 499.904 1551.34 481.791 1544.51 463.742C1535.09 438.916 1525.92 413.932 1515.87 389.359C1507.11 367.89 1495.55 347.908 1480.61 330.081C1461.87 307.693 1438.46 295.344 1408.78 296.768C1399.3 297.212 1389.94 298.89 1381.03 302.152C1372.46 305.287 1364.05 308.896 1355.73 312.633C1347.95 316.085 1340.45 320.138 1332.7 323.621C1310.36 333.564 1287.14 335.464 1263.32 330.619C1245.52 327.009 1229.17 319.884 1213.83 310.068C1193.1 296.8 1176.37 279.257 1160.24 260.955C1149.81 249.112 1139.57 237.047 1128.7 225.552C1111.09 206.965 1092.79 189.105 1071.84 174.19C1056.24 163.076 1039.26 155.001 1020.58 150.695C1005.33 147.18 990.016 146.578 974.642 149.966C965.6 151.961 956.998 155.191 949.878 161.144C936.93 172.006 925.966 184.545 919.696 200.631C914.152 214.818 910.497 229.574 906.874 244.33C903.597 257.63 902.054 271.151 902.432 284.83C902.841 299.08 903.156 313.361 904.353 327.547C906.37 351.835 908.953 376.123 911.474 400.379C915.79 441.987 917.586 483.754 919.098 525.553C919.35 532.488 920.106 539.423 920.705 546.358C920.799 547.466 921.303 548.511 921.65 549.587C923.067 547.117 923.414 544.743 923.571 542.368C924.958 520.202 925.242 498.004 923.824 475.87C921.87 445.534 919.444 415.198 916.798 384.926C914.687 360.606 913.427 336.256 914.53 311.841C915.443 291.86 917.523 272.069 922.469 252.626C926.376 237.174 932.33 222.639 940.584 208.991C949.311 194.551 961.819 186.002 978.264 182.962C993.828 180.08 1009.04 181.442 1023.95 186.445C1035.32 190.277 1046.19 195.311 1056.4 201.708C1076.28 214.153 1094.36 228.909 1110.9 245.533C1138.82 273.558 1167.93 300.157 1198.96 324.666C1211.12 334.261 1223.75 343.095 1237.58 350.157C1254.44 358.738 1272.05 361.81 1290.76 359.213C1301.13 357.757 1311.02 354.717 1320.88 351.328C1333.99 346.8 1347.03 342.019 1360.42 338.536C1384.43 332.329 1408 334.831 1430.62 344.995C1448.13 352.848 1463.03 364.438 1475.7 378.878C1484.46 388.852 1492.37 399.524 1499.3 410.892C1516.94 439.739 1534.11 468.872 1550.21 498.637C1553.83 505.319 1557.55 511.905 1561.33 518.492C1562.87 521.152 1564.67 523.685 1566.34 526.281L1566.28 526.218ZM902.558 902.85C902.054 902.787 901.518 902.755 901.014 902.692C900.258 905.32 899.439 907.948 898.777 910.608C895.658 923.211 892.823 935.878 889.452 948.417C876.975 995.092 860.215 1040.03 835.263 1081.57C825.339 1098.13 814.91 1114.35 801.615 1128.47C788.793 1142.08 774.93 1154.53 759.524 1165.11C732.178 1183.92 702.059 1195.19 668.789 1196.99C643.491 1198.39 619.893 1192.31 598.848 1178.06C589.995 1172.07 581.835 1164.95 573.927 1157.76C559.183 1144.33 546.36 1129.07 533.663 1113.71C527.867 1106.65 521.282 1100.19 514.823 1093.73C509.846 1088.76 503.702 1085.47 497.307 1082.68C488.233 1078.72 478.876 1078.06 469.708 1081.89C463.628 1084.42 457.673 1087.43 452.16 1091.01C440.944 1098.23 431.555 1107.73 422.639 1117.54C410.73 1130.62 399.389 1144.24 387.826 1157.63C387.07 1158.52 385.999 1159.47 387.48 1161.15C390.347 1159.53 393.308 1157.85 396.301 1156.18C407.832 1149.72 419.3 1143.07 430.957 1136.83C438.518 1132.77 446.678 1130.4 455.216 1129.36C471.693 1127.39 486.374 1132.33 500.016 1141.07C510.413 1147.72 519.738 1155.76 528.686 1164.28C543.367 1178.18 558.269 1191.89 574.809 1203.58C606.945 1226.28 642.924 1235.78 682.022 1233.41C699.475 1232.36 716.267 1228.22 732.146 1220.74C767.621 1204.05 795.409 1178.44 817.336 1146.17C837.153 1117.04 852.937 1085.78 865.382 1052.76C883.308 1005.13 894.429 955.795 902.4 905.668C902.558 904.75 902.495 903.769 902.558 902.819V902.85ZM967.679 572.83C968.088 573.147 968.529 573.495 968.939 573.843C972.027 570.709 975.146 567.605 978.202 564.407C985.7 556.554 994.395 550.474 1004.22 545.883C1039.98 529.195 1076.78 526.123 1114.78 536.731C1133.96 542.083 1152.36 549.429 1170.26 558.105C1195.02 570.107 1217.7 585.56 1240.23 601.266C1256.01 612.286 1271.64 623.527 1288.43 632.932C1310.58 645.345 1333.77 655.066 1358.88 659.404C1387.96 664.439 1416 661.177 1442.56 647.751C1447.63 645.186 1452.61 642.495 1457.65 639.93C1469.43 633.913 1481.09 627.612 1493.03 621.944C1513.57 612.222 1535.15 607.029 1558.05 608.581C1558.94 608.644 1560.57 609.436 1560.95 606.871C1558.02 606.016 1555.09 605.002 1552.1 604.306C1534.58 600.221 1517.1 600.696 1499.64 604.781C1481.84 608.961 1464.07 613.204 1446.24 617.099C1417.01 623.495 1387.55 624.857 1358 619.6C1318.93 612.666 1281.72 600.253 1246.91 580.937C1211.72 561.43 1180.09 536.921 1149.56 510.829C1139 501.804 1128.45 492.779 1117.49 484.261C1108.98 477.643 1099.31 472.861 1089.04 469.6C1070.35 463.647 1052.68 466.687 1036.93 477.928C1026.91 485.084 1018.34 494.172 1011.19 504.274C996.947 524.382 983.431 544.996 970.987 566.275C969.758 568.365 968.781 570.613 967.679 572.798V572.83ZM1787.82 755.668C1788.23 756.555 1788.26 756.935 1788.48 757.093C1804.14 768.841 1819.3 781.191 1834.01 794.11C1860.66 817.543 1885.08 843.16 1906.82 871.153C1936.62 909.563 1957.51 952.629 1968.72 1000.19C1971.91 1013.74 1974.84 1027.36 1977.45 1041.04C1980.95 1059.41 1985.14 1077.58 1990.34 1095.54C1999.35 1126.6 2010.66 1156.81 2023.67 1186.35C2033.78 1209.22 2045.22 1231.41 2060.18 1251.58C2068.47 1262.79 2077.32 1273.47 2087.06 1283.44C2088 1284.42 2088.95 1286.13 2090.78 1284.68C2090.78 1284.3 2090.9 1283.92 2090.78 1283.69C2089.89 1282.02 2088.95 1280.37 2088 1278.75C2078.87 1262.76 2071.46 1246.01 2066.08 1228.41C2057.1 1198.99 2050.17 1169.1 2045.75 1138.66C2041.25 1107.63 2036.4 1076.66 2030.25 1045.92C2025.78 1023.5 2019.38 1001.68 2011.6 980.209C1997.65 941.767 1977.2 906.967 1951.68 875.269C1930.16 848.512 1903.95 826.599 1876.54 806.206C1850.86 787.112 1822.79 772.102 1794.22 758.043C1792.33 757.125 1790.25 756.555 1787.82 755.668ZM1558.78 480.841C1559.88 477.295 1558.94 475.268 1558.4 473.337C1553.14 454.084 1548.13 434.799 1542.4 415.673C1533.89 387.301 1521.35 360.765 1505.19 335.971C1491.01 314.248 1473.84 295.533 1451.66 281.79C1431.88 269.536 1410.58 264.501 1387.42 268.206C1375.2 270.138 1363.48 273.716 1352.23 278.846C1345.36 281.98 1338.53 285.274 1331.75 288.63C1321.83 293.57 1311.46 297.275 1300.85 300.315C1284.18 305.065 1267.26 305.381 1250.22 303.197C1241.05 302.025 1232.51 298.795 1224.54 294.077C1209.99 285.527 1197.51 274.381 1185.76 262.411C1176.46 252.943 1167.55 243.063 1158.79 233.12C1137.21 208.674 1114.37 185.527 1089.23 164.754C1073.85 152.056 1057.41 140.878 1039.51 132.043C1023.76 124.254 1007.06 119.884 989.48 119.314C962.26 118.459 940.553 128.813 924.611 151.359C904.102 180.397 891.688 212.411 888.065 247.877C885.671 271.278 886.238 294.71 887.845 318.111C890.617 359.023 898.241 399.112 906.968 439.074C907.094 439.676 907.756 440.182 908.953 441.734C908.796 437.902 908.827 435.369 908.575 432.868C906.716 413.647 904.795 394.394 902.873 375.173C899.911 345.534 896.918 315.926 896.603 286.097C896.446 270.486 898.084 255.096 901.927 239.992C904.196 231.094 906.685 222.259 909.111 213.393C914.624 193 925.178 175.742 940.711 161.429C948.051 154.684 956.179 149.555 965.631 146.483C978.422 142.366 991.528 141.227 1004.85 142.43C1024.29 144.171 1042.41 150.251 1059.48 159.656C1074.76 168.111 1088.28 179.004 1101.2 190.657C1123.79 210.986 1143.95 233.659 1164.05 256.426C1172.81 266.369 1181.95 276.059 1191.37 285.369C1202.9 296.768 1216.16 306.015 1230.62 313.171C1266.35 330.809 1302.45 333.184 1338.72 314.501C1343.76 311.905 1348.83 309.371 1353.96 306.965C1366.25 301.138 1378.73 295.914 1392.12 293.222C1425.58 286.509 1454.56 294.837 1478.54 319.536C1488.93 330.239 1497.41 342.43 1505 355.255C1515.96 373.843 1524.25 393.697 1532.03 413.773C1539.34 432.646 1546.56 451.582 1553.9 470.455C1555.12 473.59 1556.73 476.598 1558.72 480.841H1558.78ZM2068.19 1284.55C2063.96 1280.78 2059.77 1276.98 2055.55 1273.18C2036.59 1256.18 2020.3 1237.05 2008.04 1214.54C1997.58 1195.31 1988.95 1175.3 1981.64 1154.69C1970.84 1124.19 1962.42 1093.03 1955.49 1061.46C1949.25 1033 1941.85 1004.85 1932.43 977.233C1910.38 912.54 1873.26 857.98 1823.2 812.065C1798.97 789.835 1772.67 770.139 1746.74 750C1743.81 747.72 1740.78 745.598 1737.79 743.413C1740.69 748.195 1744.25 752.121 1747.94 755.985C1766.21 775.237 1784.64 794.3 1800.9 815.421C1826.1 848.132 1847.4 883.122 1864.47 920.741C1879.41 953.642 1891.51 987.619 1902.44 1022.04C1911.32 1050.1 1921.06 1077.9 1932.05 1105.19C1942.83 1131.98 1955.78 1157.63 1971.43 1181.89C1985.2 1203.2 2000.73 1223.15 2017.59 1241.99C2032.33 1258.49 2048.12 1273.91 2068.12 1284.55H2068.19ZM918.09 928.341C917.333 928.341 916.609 928.278 915.853 928.246C915.443 929.988 914.971 931.729 914.593 933.503C909.426 957.663 904.542 981.856 899.092 1005.92C893.295 1031.57 886.206 1056.84 877.448 1081.63C866.169 1113.59 853.536 1144.97 836.807 1174.48C825.717 1194.08 813.051 1212.51 795.219 1226.85C767.936 1248.83 737.187 1260.8 701.964 1260.07C683.975 1259.69 666.111 1257.73 648.5 1254.09C635.205 1251.33 622.319 1247.28 609.749 1242.05C595.099 1235.97 581.772 1227.61 568.319 1219.41C549.731 1208.08 531.301 1196.52 512.65 1185.34C499.89 1177.71 486.532 1171.28 472.134 1167.35C444.945 1159.98 418.481 1161.65 392.93 1173.94C392.174 1174.32 391.638 1175.18 390.41 1176.44C392.835 1176.44 394.568 1176.6 396.301 1176.41C421.379 1173.72 446.079 1176.16 470.212 1183.19C482.594 1186.8 494.818 1191.13 506.821 1195.85C529.726 1204.85 551.527 1216.28 573.486 1227.36C599.1 1240.28 624.524 1253.58 650.989 1264.63C664.977 1270.49 679.249 1275.4 694.088 1278.6C737.66 1288 775.749 1276.63 809.176 1247.85C831.041 1229.04 847.518 1206.08 860.593 1180.46C875.211 1151.87 885.324 1121.6 893.358 1090.6C906.748 1038.92 913.742 986.258 917.523 933.091C917.649 931.508 917.932 929.956 918.121 928.373L918.09 928.341ZM917.05 855.605C916.515 855.605 915.947 855.637 915.412 855.668C915.097 857.473 914.687 859.31 914.435 861.115C913.143 870.519 911.946 879.956 910.591 889.361C904.605 930.779 896.698 971.787 884.946 1012C872.533 1054.43 855.836 1094.93 832.805 1132.74C815.036 1161.94 793.707 1187.87 765.636 1207.76C744.748 1222.55 722.222 1233.28 696.797 1237.46C680.793 1240.09 664.725 1240.09 648.72 1238.1C618.381 1234.33 590.909 1223.15 566.524 1204.47C551.464 1192.94 537.381 1180.24 523.582 1167.23C515.296 1159.41 506.632 1152.06 497.023 1145.88C482.688 1136.67 467.219 1131.92 450.269 1136.04C443.307 1137.71 436.313 1140.25 430.012 1143.64C416.118 1151.08 402.665 1159.28 389.055 1167.23C388.614 1167.48 388.425 1168.18 387.669 1169.41C392.993 1167.42 397.719 1165.71 402.413 1163.93C412.211 1160.29 422.261 1157.82 432.784 1157.38C453.956 1156.46 474.276 1160.07 493.494 1169.06C502.914 1173.47 512.209 1178.25 521.124 1183.57C540.595 1195.22 559.876 1207.28 579.126 1219.32C601.809 1233.54 625.974 1243.98 652.344 1248.99C667.246 1251.81 682.274 1253.39 697.396 1254.21C714.283 1255.13 730.76 1253.1 746.765 1247.53C771.087 1239.05 791.943 1225.43 808.735 1205.64C819.227 1193.29 827.89 1179.7 835.452 1165.45C851.488 1135.21 864.279 1103.55 875.148 1071.09C887.246 1035.02 895.438 997.911 903.629 960.799C910.938 927.613 914.75 893.952 917.207 860.101C917.302 858.613 917.208 857.093 917.145 855.573L917.05 855.605ZM1733.76 800.475C1733.29 800.57 1732.81 800.633 1732.34 800.728C1733.44 803.99 1734.51 807.283 1735.65 810.513C1750.49 853.262 1765.48 895.947 1780.17 938.727C1791.57 971.945 1802.22 1005.42 1813.81 1038.57C1831.65 1089.52 1854.27 1138.16 1884.07 1183.25C1894.72 1199.37 1906.22 1214.82 1918.98 1229.29C1934.86 1247.31 1953.95 1261.15 1975.56 1271.38C2009.21 1287.27 2043.3 1302.09 2078.43 1314.41C2080.44 1315.11 2082.52 1315.58 2084.57 1316.15C2082.36 1313.74 2079.65 1312.35 2076.91 1310.99C2057.79 1301.33 2038.45 1292.05 2020.2 1280.75C1997.65 1266.75 1975.91 1251.74 1957.04 1232.78C1941.6 1217.26 1928.24 1200.03 1915.48 1182.36C1890.43 1147.69 1869.07 1110.8 1850.67 1072.17C1823.49 1015.01 1800.55 956.049 1777.05 897.309C1764.82 866.751 1751.72 836.606 1737.38 806.998C1736.31 804.75 1734.99 802.628 1733.79 800.443L1733.76 800.475ZM987.496 528.53C991.812 522.323 994.931 517.668 998.239 513.109C1003.63 505.699 1008.89 498.194 1014.68 491.101C1021.11 483.248 1028.45 476.091 1037.12 470.898C1055.48 459.847 1075.02 457.789 1095.18 465.705C1108.79 471.056 1121.11 478.656 1132.17 488.251C1155.8 508.707 1179.46 529.1 1204.82 547.434C1242.78 574.888 1283.83 595.503 1329.2 607.631C1370.25 618.619 1411.21 620.234 1452.54 609.942C1466.91 606.364 1481.43 603.356 1495.8 599.809C1515.43 594.965 1535.06 594.331 1554.78 598.954C1556.48 599.334 1558.24 599.493 1561.49 599.968C1559.44 598.543 1558.78 597.973 1557.99 597.593C1537.1 587.238 1515.11 582.773 1491.96 585.94C1477.94 587.84 1464.04 590.784 1450.09 593.318C1433.67 596.294 1417.26 599.493 1400.81 602.279C1388.02 604.432 1375.1 604.242 1362.16 603.293C1333.42 601.171 1306.64 592.21 1280.93 579.733C1246.37 562.982 1215.47 540.563 1186.64 515.357C1170.26 501.012 1154.72 485.686 1138.91 470.708C1127.35 459.784 1114.52 450.664 1100.28 443.634C1075.27 431.284 1045.97 436.161 1025.93 455.667C1019.98 461.462 1014.87 467.89 1011.25 475.331C1003.37 491.513 995.781 507.852 988.126 524.16C987.811 524.857 987.874 525.743 987.464 528.562L987.496 528.53ZM1535.84 634.293C1531.21 634.863 1529.07 637.302 1526.77 639.392C1518.29 647.086 1511.08 655.794 1505.22 665.674C1494.67 683.343 1485.66 701.773 1477.34 720.582C1471.23 734.452 1464.86 748.258 1457.96 761.748C1451.16 775.047 1442.4 787.112 1430.8 796.738C1420 805.7 1407.62 809.151 1393.72 806.491C1387.49 805.288 1381.53 803.23 1376.08 799.937C1366.53 794.237 1357.71 787.524 1350.75 778.784C1341.49 767.194 1332.35 755.446 1323.59 743.477C1306.23 719.759 1289.95 695.281 1270.85 672.831C1251.76 650.38 1231.76 628.91 1209.01 610.164C1205.35 607.156 1201.45 604.464 1197.63 601.678C1197.19 601.361 1196.47 601.456 1194.67 601.203C1199.81 605.889 1204.16 609.942 1208.6 613.869C1226.43 629.638 1241.96 647.498 1256.42 666.339C1271.07 685.465 1283.2 706.206 1293.98 727.739C1305.57 750.95 1317.29 774.066 1329.04 797.182C1335.22 809.373 1342.72 820.678 1351.92 830.811C1359 838.6 1367.32 844.775 1376.8 849.367C1388.12 854.877 1399.36 854.623 1410.45 848.955C1414.08 847.087 1417.54 844.807 1420.75 842.305C1432.47 833.217 1440.67 821.279 1447.41 808.233C1456.01 791.64 1462.53 774.129 1469.05 756.65C1475.13 740.342 1481.15 724.034 1487.64 707.884C1493.19 694.078 1499.49 680.589 1507.39 667.986C1515.11 655.636 1525.13 645.123 1535.97 634.198L1535.84 634.293ZM1740.31 732.14C1739.97 732.584 1739.59 733.027 1739.24 733.47C1740.78 734.99 1742.23 736.669 1743.87 738.062C1757.67 749.62 1771.5 761.114 1785.3 772.672C1799.57 784.642 1814.03 796.422 1827.96 808.771C1845.48 824.319 1861.1 841.704 1875.44 860.291C1889.74 878.848 1902.88 898.132 1913.65 919C1931.3 953.23 1943.65 989.393 1953.07 1026.63C1957.26 1043.19 1960.94 1059.91 1964.79 1076.57C1971.87 1107.47 1981.14 1137.71 1992.42 1167.35C1998.5 1183.35 2005.77 1198.8 2014.09 1213.74C2020.74 1225.65 2028.65 1236.64 2037.59 1246.96C2049.25 1260.39 2062.67 1271.88 2076 1283.54C2076.25 1283.76 2076.91 1283.54 2077.76 1283.47C2076.19 1279.29 2072.97 1276.66 2070.36 1273.59C2057.03 1257.89 2044.94 1241.29 2035.42 1222.99C2005.27 1165.11 1983.41 1104.31 1971.47 1039.93C1968.63 1024.7 1965.29 1009.5 1961.42 994.491C1950.61 952.597 1931.74 914.567 1906.22 879.766C1897.21 867.511 1887.06 856.27 1876.98 844.934C1843.62 807.378 1805.84 775.016 1763.97 747.435C1756.13 742.273 1748.19 737.27 1740.31 732.172V732.14ZM169.495 1145.92C155.318 1136.16 140.353 1128.28 124.506 1122.14C115.937 1118.81 107.052 1116.56 97.9156 1115.87C67.9227 1113.49 43.8842 1124.76 25.4222 1148.39C18.6801 1157 14.8679 1167.04 12.0009 1177.46C8.03127 1191.86 6.45607 1206.65 5.95198 1221.57C5.22737 1241.96 7.71623 1262.03 11.8119 1281.92C17.6089 1310.13 23.6264 1338.29 29.6124 1366.44C29.8329 1367.45 30.5259 1368.4 31.03 1369.35C31.5656 1361.46 30.9041 1353.93 29.9589 1346.42C27.6905 1327.9 25.0755 1309.41 22.9647 1290.85C21.0113 1273.5 21.2319 1256.14 24.0044 1238.79C28.5726 1210.17 41.1117 1186.16 63.2284 1167.29C78.8549 1153.96 96.1513 1144.17 116.378 1139.93C125.766 1137.97 135.092 1137.27 144.48 1139.49C150.592 1140.94 156.641 1142.69 162.722 1144.27C164.959 1144.84 167.195 1145.38 169.464 1145.92H169.495ZM46.9716 1396.04C47.4127 1396.2 47.8854 1396.36 48.3265 1396.52C48.7991 1395.47 49.4605 1394.49 49.7125 1393.38C51.5398 1385.37 53.6193 1377.39 55.0056 1369.29C59.2903 1344.33 63.3544 1319.32 67.4186 1294.33C70.5061 1275.27 73.7196 1256.24 79.2331 1237.65C84.1164 1221.19 90.5433 1205.42 100.215 1191.13C108.281 1179.23 117.701 1168.72 131.185 1162.67C132.256 1162.19 133.075 1161.24 135.029 1159.69C132.351 1159.47 130.838 1158.96 129.484 1159.28C123.372 1160.77 117.008 1161.72 111.337 1164.28C86.0067 1175.65 66.8829 1193.86 54.2808 1218.72C45.0813 1236.86 41.7417 1256.4 41.2692 1276.6C40.7966 1296.27 42.0254 1315.83 44.1678 1335.4C46.2786 1354.63 47.8853 1373.88 46.6882 1393.23C46.6251 1394.14 46.8771 1395.09 46.9716 1396.01V1396.04ZM276.865 1222.26C259.253 1224.19 242.083 1226.38 225.417 1231.16C222.991 1231.86 220.597 1232.65 218.202 1233.41C192.683 1241.52 173.244 1258.27 155.602 1277.61C155.381 1277.84 155.224 1278.12 155.034 1278.37C143.85 1293 134.682 1308.77 127.247 1325.65C114.897 1353.71 102.326 1381.67 89.8816 1409.69C89.346 1410.89 89.0625 1412.22 88.1489 1415.01C90.2282 1412.89 91.2364 1412.13 91.9295 1411.12C103.902 1393.29 115.779 1375.37 127.751 1357.54C143.251 1334.42 159.319 1311.72 177.435 1290.6C188.587 1277.58 201 1265.99 214.957 1256.02C231.214 1244.36 248.951 1235.53 266.878 1227.04C270.217 1225.46 273.557 1223.85 276.896 1222.23L276.865 1222.26ZM97.1595 1415.23C104.343 1407.92 111.148 1401.33 117.606 1394.4C138.211 1372.14 158.973 1350 179.167 1327.36C205.947 1297.37 233.955 1268.72 265.113 1243.26C270.249 1239.08 275.416 1234.93 280.488 1230.65C281.465 1229.83 283.324 1229.2 282.252 1226.76C280.74 1227.27 279.228 1227.58 277.873 1228.25C264.294 1234.93 250.527 1241.23 237.294 1248.51C218.36 1258.9 201.505 1272.17 187.044 1288.32C174.379 1302.44 162.501 1317.23 151.726 1332.87C134.524 1357.85 117.638 1383.06 100.657 1408.2C99.3333 1410.2 98.4827 1412.51 97.1595 1415.2V1415.23ZM1189.03 597.434C1189.25 597.181 1189.51 596.928 1189.73 596.643C1188.78 595.914 1187.87 595.218 1186.92 594.489C1186.8 594.648 1186.67 594.806 1186.55 594.964C1187.36 595.788 1188.18 596.611 1189 597.403L1189.03 597.434ZM916.073 850.539C917.102 849.462 917.228 848.132 916.451 846.549C916.294 848.1 916.199 849.209 916.073 850.539ZM850.165 863.015C850.039 863.3 849.944 863.553 849.818 863.838C850.102 863.806 850.448 863.838 850.637 863.68C850.826 863.521 850.889 863.173 850.984 862.888C850.7 862.92 850.417 862.983 850.133 863.015H850.165ZM847.486 869.316C847.738 869.19 848.022 869.095 848.211 868.873C848.274 868.778 848.085 868.461 847.991 868.271C847.739 868.398 847.455 868.493 847.266 868.715C847.203 868.81 847.392 869.126 847.486 869.316ZM845.344 873.686C845.092 873.813 844.777 873.939 844.62 874.129C844.557 874.193 844.746 874.541 844.84 874.731C845.092 874.604 845.376 874.478 845.565 874.288C845.628 874.193 845.439 873.876 845.344 873.686ZM985.101 532.045L985.385 531.348L984.723 531.696L985.101 532.045ZM902.274 897.182C902.495 897.214 902.778 897.372 902.936 897.277C903.156 897.15 903.251 896.865 903.408 896.644C903.093 896.58 902.778 896.422 902.463 896.454C902.4 896.454 902.337 896.929 902.274 897.182ZM335.654 1111.37L335.937 1110.61L335.244 1110.93L335.654 1111.34V1111.37ZM46.6251 1402.03C46.8771 1402 47.1921 1402.03 47.3496 1401.87C47.5072 1401.71 47.5072 1401.4 47.5702 1401.14C47.3182 1401.17 47.0032 1401.14 46.8772 1401.27C46.7196 1401.43 46.7196 1401.74 46.6566 1402L46.6251 1402.03ZM224.346 1213.43C224.566 1213.33 224.818 1213.3 224.976 1213.14C225.039 1213.08 224.85 1212.6 224.787 1212.6C224.535 1212.6 224.314 1212.73 224.062 1212.79C224.157 1213.02 224.22 1213.21 224.314 1213.43H224.346ZM2096.64 1219.98L2095.85 1219.7L2096.19 1220.49L2096.64 1219.98Z" fill="url(#paint0_linear_78_15914)"/>
<defs>
<linearGradient id="paint0_linear_78_15914" x1="413.695" y1="603.925" x2="1907.7" y2="1689.47" gradientUnits="userSpaceOnUse">
<stop stop-color="#C2A363"/>
<stop offset="0.01" stop-color="#CAB078"/>
<stop offset="0.03" stop-color="#DBC89E"/>
<stop offset="0.05" stop-color="#E7D9BA"/>
<stop offset="0.07" stop-color="#EEE4CB"/>
<stop offset="0.08" stop-color="#F1E8D1"/>
<stop offset="0.18" stop-color="#C2A363"/>
<stop offset="0.29" stop-color="#A18347"/>
<stop offset="0.4" stop-color="#C2A363"/>
<stop offset="0.49" stop-color="#F1E8D1"/>
<stop offset="0.59" stop-color="#C2A363"/>
<stop offset="0.69" stop-color="#A18347"/>
<stop offset="0.8" stop-color="#C2A363"/>
<stop offset="0.92" stop-color="#F1E8D1"/>
<stop offset="1" stop-color="#C2A363"/>
</linearGradient>
</defs>
</svg>
